<svg xmlns="http://www.w3.org/2000/svg" width="40" height="40" viewBox="0 0 40 40"><defs><style>.a{fill:#ff4157;}</style></defs><path class="a" d="M36.667,0H3.333A3.337,3.337,0,0,0,0,3.333V30a3.337,3.337,0,0,0,3.333,3.333H16V36H12.667a3.337,3.337,0,0,0-3.333,3.333A.667.667,0,0,0,10,40H30a.667.667,0,0,0,.667-.667A3.337,3.337,0,0,0,27.333,36H24V33.333H36.667A3.337,3.337,0,0,0,40,30V3.333A3.337,3.337,0,0,0,36.667,0ZM27.333,37.333a2,2,0,0,1,1.886,1.333H10.781a2,2,0,0,1,1.886-1.333H27.333ZM17.333,36V33.333h5.333V36Zm21.333-6a2,2,0,0,1-2,2H3.333a2,2,0,0,1-2-2v-.667H38.667Zm0-2H1.333V3.333a2,2,0,0,1,2-2H36.667a2,2,0,0,1,2,2Z"/><g transform="translate(10.449 6.131)"><path class="a" d="M146.393,76.087h-1.362a1.364,1.364,0,0,0-1.362,1.362v.681h-7.493V76.769a1.364,1.364,0,0,0-1.362-1.362h-2.725V73.362A1.364,1.364,0,0,0,130.725,72h-1.362A1.364,1.364,0,0,0,128,73.362V83.581a.681.681,0,0,0,.681.681h2.725a.681.681,0,0,0,.681-.681V82.218h11.581v1.362a.681.681,0,0,0,.681.681h2.725a.681.681,0,0,0,.681-.681V77.45A1.364,1.364,0,0,0,146.393,76.087Zm-14.306.681h2.725v1.362h-2.725ZM146.393,82.9h-1.362V81.537a.681.681,0,0,0-.681-.681H131.406a.681.681,0,0,0-.681.681V82.9h-1.362V73.362h1.362v5.45a.681.681,0,0,0,.681.681h12.943a.681.681,0,0,0,.681-.681V77.45h1.362Z" transform="translate(-128 -72)"/></g><g transform="translate(14.55 19.268)"><path class="a" d="M184.856,232h-6.812A2.046,2.046,0,0,0,176,234.044v1.362a2.046,2.046,0,0,0,2.044,2.044h6.812a2.046,2.046,0,0,0,2.044-2.044v-1.362A2.046,2.046,0,0,0,184.856,232Zm.681,3.406a.682.682,0,0,1-.681.681h-6.812a.682.682,0,0,1-.681-.681v-1.362a.682.682,0,0,1,.681-.681h6.812a.682.682,0,0,1,.681.681Z" transform="translate(-176 -232)"/></g><g transform="translate(26.376 19.231)"><path class="a" d="M325.051,236.088l1.562-1.562a.681.681,0,0,0-.316-1.142l-5.45-1.362a.681.681,0,0,0-.826.826l1.362,5.45a.68.68,0,0,0,.479.491.692.692,0,0,0,.182.025.681.681,0,0,0,.482-.2l1.562-1.562,2.924,2.924.963-.963Zm-2.638.711-.795-3.181,3.181.795Z" transform="translate(-320.001 -232.001)"/></g><g transform="translate(19.319 7.994)"><rect class="a" width="1.362" height="1.362"/></g><g transform="translate(17.548 5.45)"><path class="a" d="M213.652,64a4.123,4.123,0,0,0-2.452.817l.817,1.09a2.725,2.725,0,0,1,3.27,0l.817-1.09A4.121,4.121,0,0,0,213.652,64Z" transform="translate(-211.2 -64)"/></g><g transform="translate(16.124 2.725)"><path class="a" d="M198.356,32a5.7,5.7,0,0,0-3.876,1.55l.94.986a4.258,4.258,0,0,1,5.873,0l.939-.986A5.7,5.7,0,0,0,198.356,32Z" transform="translate(-194.48 -32)"/></g><g transform="translate(33.188 12.657)"><rect class="a" width="1.362" height="1.362"/></g><g transform="translate(33.188 8.653)"><rect class="a" width="1.362" height="2.725"/></g><g transform="translate(33.188 4.087)"><rect class="a" width="1.362" height="3.406"/></g><g transform="translate(5.45 12.657)"><rect class="a" width="1.362" height="1.362"/></g><g transform="translate(5.45 8.653)"><rect class="a" width="1.362" height="2.725"/></g><g transform="translate(5.45 4.087)"><rect class="a" width="1.362" height="3.406"/></g></svg>