<svg xmlns="http://www.w3.org/2000/svg" width="28.506" height="40.541" viewBox="0 0 28.506 40.541"><defs><style>.a{fill:#ff4157;}</style></defs><g transform="translate(-76)"><g transform="translate(76)"><path class="a" d="M90.253,0A14.255,14.255,0,0,0,78.128,21.748L89.441,39.98a1.188,1.188,0,0,0,1.009.561h.009a1.188,1.188,0,0,0,1.01-.577L102.5,21.555A14.256,14.256,0,0,0,90.253,0Zm10.2,20.335L90.433,37.072,80.147,20.5a11.885,11.885,0,1,1,20.31-.161Z" transform="translate(-76)"/></g><g transform="translate(83.126 7.126)"><path class="a" d="M173.126,90a7.126,7.126,0,1,0,7.126,7.126A7.134,7.134,0,0,0,173.126,90Zm0,11.893a4.767,4.767,0,1,1,4.759-4.767A4.77,4.77,0,0,1,173.126,101.893Z" transform="translate(-166 -90)"/></g></g></svg>