<svg xmlns="http://www.w3.org/2000/svg" xmlns:xlink="http://www.w3.org/1999/xlink" width="426.73" height="385.478" viewBox="0 0 426.73 385.478"><defs><style>.a{fill:#f2f2f2;}.b{fill:#535461;}.c,.o{opacity:0.1;}.d{opacity:0.15;}.e,.m,.y{font-size:15px;}.aq,.e,.m,.y{font-family:Helvetica;}.aq,.e,.f{opacity:0.7;}.g{fill:url(#a);}.h{fill:#fdb797;}.i{fill:#4d8af0;}.j{opacity:0.05;}.k{fill:#f55f44;}.l{fill:#333;}.ah,.ao,.m{fill:#fff;}.n{fill:url(#b);}.p{fill:url(#c);}.q{fill:url(#d);}.r{fill:url(#e);}.s{fill:url(#f);}.t{fill:url(#g);}.u{fill:url(#k);}.v{fill:url(#m);}.w{fill:url(#n);}.x{fill:url(#o);}.z{fill:url(#p);}.aa{fill:url(#q);}.ab{fill:url(#s);}.ac{fill:url(#t);}.ad,.ba{fill:#ff4157;}.ae{fill:#814e4d;}.af{fill:url(#v);}.ag{fill:#fdd835;}.ah{opacity:0.2;}.ai{fill:url(#y);}.aj{fill:url(#aa);}.ak{fill:url(#ae);}.al{fill:#fbc02d;}.am{fill:url(#an);}.an{fill:url(#cc);}.ap{fill:#6c63ff;}.aq{font-size:17px;}.ar{fill:url(#cs);}.as{fill:#3ad29f;}.at{fill:#ffcf51;}.au{opacity:0.02;}.av{fill:url(#ct);}.aw{clip-path:url(#cu);}.ax{fill:url(#cv);}.ay{fill:url(#cw);}.az{fill:url(#cx);}.ba{stroke:#fff;stroke-miterlimit:10;}</style><linearGradient id="a" x1="0.5" y1="1" x2="0.5" gradientUnits="objectBoundingBox"><stop offset="0" stop-color="gray" stop-opacity="0.251"/><stop offset="0.54" stop-color="gray" stop-opacity="0.122"/><stop offset="1" stop-color="gray" stop-opacity="0.102"/></linearGradient><linearGradient id="b" x1="0" y1="0.5" x2="1" y2="0.5" xlink:href="#a"/><linearGradient id="c" x1="0" y1="0.5" x2="1" y2="0.5" xlink:href="#a"/><linearGradient id="d" x1="0" y1="0.5" x2="1" y2="0.5" xlink:href="#a"/><linearGradient id="e" x1="0.001" y1="0.5" x2="1.001" y2="0.5" xlink:href="#a"/><linearGradient id="f" x1="0" y1="0.5" x2="1" y2="0.5" xlink:href="#a"/><linearGradient id="g" x1="0" y1="0.5" x2="1" y2="0.5" xlink:href="#a"/><linearGradient id="k" x1="0" y1="0.501" x2="1" y2="0.501" xlink:href="#a"/><linearGradient id="m" x1="0" y1="0.5" x2="1.001" y2="0.5" xlink:href="#a"/><linearGradient id="n" x1="-0.001" y1="0.5" x2="1" y2="0.5" xlink:href="#a"/><linearGradient id="o" x1="0" y1="0.5" x2="1" y2="0.5" xlink:href="#a"/><linearGradient id="p" x1="0" y1="0.5" x2="1" y2="0.5" xlink:href="#a"/><linearGradient id="q" x1="0" y1="0.5" x2="1" y2="0.5" xlink:href="#a"/><linearGradient id="s" x1="0" y1="0.5" x2="1" y2="0.5" xlink:href="#a"/><linearGradient id="t" x1="0" y1="0.5" x2="0.999" y2="0.5" xlink:href="#a"/><linearGradient id="v" x1="0.5" y1="1.001" x2="0.5" y2="0" xlink:href="#a"/><linearGradient id="y" x1="0.5" y1="1" x2="0.5" y2="0" xlink:href="#a"/><linearGradient id="aa" x1="0.5" y1="1.001" x2="0.5" y2="0" xlink:href="#a"/><linearGradient id="ae" x1="0.5" y1="1" x2="0.5" y2="-0.001" xlink:href="#a"/><linearGradient id="an" x1="0.5" y1="1" x2="0.5" y2="-0.001" xlink:href="#a"/><linearGradient id="cc" x1="0.5" y1="1" x2="0.5" y2="0" xlink:href="#a"/><linearGradient id="cs" x1="0.5" y1="1" x2="0.5" y2="0" xlink:href="#a"/><linearGradient id="ct" x1="0.499" y1="1" x2="0.499" y2="-0.001" xlink:href="#a"/><clipPath id="cu"><path class="a" d="M753.683,475.035l-.831-1.975-10.831,4.45a1.335,1.335,0,0,0-.831,1.235v11.688h2.14V479.28Z" transform="translate(-741.19 -473.06)"/></clipPath><linearGradient id="cv" x1="0.5" y1="1" x2="0.5" y2="0" xlink:href="#a"/><linearGradient id="cw" x1="0.5" y1="1" x2="0.5" gradientUnits="objectBoundingBox"><stop offset="0" stop-opacity="0.122"/><stop offset="0.55" stop-opacity="0.09"/><stop offset="1" stop-opacity="0.02"/></linearGradient><linearGradient id="cx" x1="0.5" y1="1" x2="0.5" y2="0" xlink:href="#a"/></defs><g transform="translate(0 0.737)"><path class="b" d="M64.49,350.29H420.576c7.108,0,12.87,5.083,12.87,11.353V474.332H51.62V361.643C51.62,355.373,57.382,350.29,64.49,350.29Z" transform="translate(-29.166 -170.224)"/><path class="c" d="M12.738,492.87H40.5a5.363,5.363,0,0,1,5.363,5.363v56.657H10.85a3.48,3.48,0,0,1-3.48-3.48V498.233a5.363,5.363,0,0,1,5.368-5.363Z" transform="translate(-4.164 -248.034)"/><path class="b" d="M5.363,492.87H33.129a5.363,5.363,0,0,1,5.368,5.363v56.657H3.48A3.48,3.48,0,0,1,0,551.411V498.233a5.363,5.363,0,0,1,5.363-5.363Z" transform="translate(0 -248.034)"/><path class="c" d="M3.48,0H38.5V56.653a5.363,5.363,0,0,1-5.363,5.363H5.363A5.363,5.363,0,0,1,0,56.653V3.48A3.48,3.48,0,0,1,3.48,0Z" transform="translate(423.524 306.857) rotate(180)"/><path class="b" d="M3.476,0H38.492V56.653a5.363,5.363,0,0,1-5.363,5.363H5.363A5.363,5.363,0,0,1,0,56.653V3.48A3.48,3.48,0,0,1,3.48,0Z" transform="translate(426.73 306.857) rotate(180)"/><path class="b" d="M97.905,538.35h330.93c5.194,0,9.405,3.669,9.405,8.2v34.042H88.5V546.545c0-4.526,4.211-8.2,9.405-8.2Z" transform="translate(-50.003 -273.09)"/><path class="d" d="M97.905,538.35h330.93c5.194,0,9.405,3.669,9.405,8.2v34.042H88.5V546.545c0-4.526,4.211-8.2,9.405-8.2Z" transform="translate(-50.003 -273.09)"/><rect class="b" width="11.762" height="12.297" transform="translate(16.573 316.644)"/><rect class="d" width="11.762" height="12.297" transform="translate(16.573 316.644)"/><rect class="c" width="11.762" height="0.535" transform="translate(16.573 316.644)"/><rect class="b" width="11.762" height="12.297" transform="translate(410.157 328.937) rotate(180)"/><rect class="d" width="11.762" height="12.297" transform="translate(410.157 328.937) rotate(180)"/><rect class="c" width="11.762" height="0.535" transform="translate(410.157 317.174) rotate(180)"/><text class="e" transform="translate(99.558 219.202)"><tspan x="0" y="0">1</tspan></text><g class="f" transform="translate(56.238 129.52)"><path class="g" d="M357.269,393.412l-1.74-.326,3.458-12.75c5.446-40.859-15.133-44.974-22.85-45.113a25.383,25.383,0,0,0-2.71-.822v-4.82a25.582,25.582,0,0,0,19.057-20.658h.065c1.227,0,2.223-1.866,2.223-4.167a5.785,5.785,0,0,0-.966-3.436q.131-1.3.135-2.675A26.587,26.587,0,0,0,345.72,279.4a17.139,17.139,0,0,0-1.888-5.076c-1.892-3.336-5.046-6.816-3.763-10.44l-8.321.87-.078-5.481c-2.61.465-3.684,3.48-5.22,5.62-3.706,5.155-11.14,5.872-16.06,9.887-1.67,1.366-5.433,5.516-4.72,8.239a26.68,26.68,0,0,0-4.941,18.335,5.786,5.786,0,0,0-.966,3.436c0,2.3,1,4.167,2.223,4.167h.065a25.582,25.582,0,0,0,19.113,20.627v4.824a25.375,25.375,0,0,0-2.71.822c-7.717.139-28.3,4.254-22.85,45.113l3.458,12.75-.822.152a9.483,9.483,0,0,0-7.582,11.062L304.3,477.382a2.871,2.871,0,0,0,3.349,2.3l2.406-.435v1.422a7.982,7.982,0,0,0-4.446,7.151v.9H321.7v-.9a7.978,7.978,0,0,0-3.889-6.847v-3.18l2.2-.409a2.871,2.871,0,0,0,2.3-3.349l-12.8-68.689h35.543l-12.815,68.663a2.871,2.871,0,0,0,2.3,3.349l2.2.409v3.18a7.978,7.978,0,0,0-3.889,6.847v.9h16.095v-.9a7.982,7.982,0,0,0-4.446-7.151v-1.422l2.406.435a2.871,2.871,0,0,0,3.349-2.3l13.815-74a8.535,8.535,0,0,0-6.795-9.939Z" transform="translate(-290.496 -259.27)"/></g><rect class="h" width="7.486" height="10.157" transform="translate(85.646 340.168)"/><rect class="h" width="7.486" height="10.157" transform="translate(114.396 340.168)"/><rect class="i" width="49.189" height="17.643" transform="translate(77.692 243.057)"/><g class="j" transform="translate(77.692 243.057)"><rect width="49.189" height="17.643"/></g><path class="c" d="M318.54,555.68s18.352,4.28,24.59,4.28,24.594-4.276,24.594-4.276V553H318.54Z" transform="translate(-240.843 -310.206)"/><path class="k" d="M367.719,487.79s-18.352,4.276-24.594,4.276-24.594-4.276-24.594-4.276V458.384a24.594,24.594,0,0,1,24.594-24.594h0a24.594,24.594,0,0,1,24.594,24.594Z" transform="translate(-240.838 -245.523)"/><path class="h" d="M200.34,351.52h11.745v14.463a4.785,4.785,0,0,1-4.785,4.785h-2.175a4.785,4.785,0,0,1-4.785-4.785Z" transform="translate(-102.596 -179.9)"/><path class="i" d="M322.268,644.874,309.345,647.3a2.249,2.249,0,0,1-2.61-1.8l-13.541-72.5a7.421,7.421,0,0,1,5.933-8.661l7.83-1.461a2.249,2.249,0,0,1,2.61,1.8l14.481,77.572A2.249,2.249,0,0,1,322.268,644.874Z" transform="translate(-228.351 -301.274)"/><path class="i" d="M387.566,644.874,400.49,647.3a2.249,2.249,0,0,0,2.61-1.8l13.676-73.23a6.681,6.681,0,0,0-5.342-7.791l-8.569-1.6a2.249,2.249,0,0,0-2.61,1.8L385.77,642.251A2.249,2.249,0,0,0,387.566,644.874Z" transform="translate(-275.531 -301.274)"/><path class="c" d="M361.55,415.124a24.612,24.612,0,0,0,11.745,0V406.75H361.55Z" transform="translate(-263.806 -235.109)"/><circle class="l" cx="25.664" cy="25.664" r="25.664" transform="translate(76.536 120.147)"/><circle class="h" cx="24.594" cy="24.594" r="24.594" transform="translate(77.692 127.947)"/><path class="l" d="M331.728,284.166c4.733-3.863,11.888-4.55,15.451-9.509,1.483-2.062,2.527-4.955,5.029-5.407l.074,5.276,8.008-.822c-1.235,3.48,1.8,6.825,3.619,10.04a16.53,16.53,0,0,1,2.136,7.769c-2.78,1.67-6.225-.152-9.322-1.122a34.446,34.446,0,0,0-9.357-1.131,19.446,19.446,0,0,0-4.828.265,24.359,24.359,0,0,0-3.984,1.466c-2.131.87-8.852,4.259-10.831,2.088C325.473,290.612,329.905,285.671,331.728,284.166Z" transform="translate(-245.467 -164.112)"/><path class="c" d="M335.851,322.947a11.279,11.279,0,0,0,4.35,1.3,38.314,38.314,0,0,0,18.665-2.1,9.116,9.116,0,0,0,5.881,4.972,26.579,26.579,0,0,0,7.882.87,2.918,2.918,0,0,0,1.7-.326c1.183-.8.609-2.61-.078-3.876l-3.428-6.212a18.477,18.477,0,0,0-3.623-5.1,15.063,15.063,0,0,0-7.151-3.071,40.324,40.324,0,0,0-18.352.613C335.294,311.776,327.069,317.631,335.851,322.947Z" transform="translate(-247.853 -184.417)"/><path class="l" d="M335.851,321.734a11.279,11.279,0,0,0,4.35,1.3,38.313,38.313,0,0,0,18.665-2.1,9.116,9.116,0,0,0,5.881,4.972,26.578,26.578,0,0,0,7.882.87,2.919,2.919,0,0,0,1.7-.326c1.183-.8.609-2.61-.078-3.876l-3.423-6.2a18.477,18.477,0,0,0-3.623-5.1,15.063,15.063,0,0,0-7.151-3.071,40.323,40.323,0,0,0-18.352.613C335.294,310.563,327.069,316.418,335.851,321.734Z" transform="translate(-247.853 -183.805)"/><ellipse class="h" cx="2.14" cy="4.011" rx="2.14" ry="4.011" transform="translate(128.951 149.114)"/><ellipse class="h" cx="2.14" cy="4.011" rx="2.14" ry="4.011" transform="translate(66.562 149.114)"/><path class="k" d="M328.569,437.383s-31.106-4.846-24.7,43.255l3.741,13.794,10.7-.435s-6.96-16.038-2.675-26.734S328.569,437.383,328.569,437.383Z" transform="translate(-233.531 -247.353)"/><path class="k" d="M388.37,437.383s31.11-4.846,24.694,43.273l-3.741,13.793-10.7-.435s6.96-16.038,2.675-26.734S388.37,437.383,388.37,437.383Z" transform="translate(-277.074 -247.351)"/><circle class="h" cx="5.881" cy="5.881" r="5.881" transform="translate(74.36 246.178)"/><circle class="h" cx="5.881" cy="5.881" r="5.881" transform="translate(122.334 246.178)"/><path class="l" d="M172.181,703h3a6.251,6.251,0,0,1,6.251,6.251v2.3h-15.5v-2.3A6.251,6.251,0,0,1,172.181,703Z" transform="translate(-84.885 -356.973)"/><path class="l" d="M232.405,703h3a6.251,6.251,0,0,1,6.251,6.251v2.3h-15.5v-2.3A6.251,6.251,0,0,1,232.405,703Z" transform="translate(-115.691 -356.973)"/><text class="m" transform="translate(99.738 220.439)"><tspan x="0" y="0">1</tspan></text><path class="c" d="M330.039,496.48s-2.14,11.227,1.605,16.038" transform="translate(-256.256 -280.588)"/><path class="c" d="M417.235,496.48s2.14,11.227-1.605,16.038" transform="translate(-291.839 -280.588)"/><g class="f" transform="translate(159.346 112.743)"><rect class="n" width="50.654" height="37.44" transform="translate(48.449 120.031)"/><g class="o" transform="translate(48.453 120.583)"><path class="p" d="M579.88,507.271s18.9,2.2,25.329,2.2,25.329-2.2,25.329-2.2V497.91H579.88Z" transform="translate(-579.88 -497.91)"/></g><path class="q" d="M630.529,437.341s-18.9,2.2-25.329,2.2-25.329-2.2-25.329-2.2V400.449A25.329,25.329,0,0,1,605.2,375.12h0a25.329,25.329,0,0,1,25.329,25.329Z" transform="translate(-531.421 -307.949)"/><path class="r" d="M631.48,365.827h-2.545a4.785,4.785,0,0,1-4.785-4.785V346h12.114v15.038A4.785,4.785,0,0,1,631.48,365.827Z" transform="translate(-556.44 -291.496)"/><rect class="s" width="18.169" height="123.337" transform="translate(48.449 144.26)"/><rect class="t" width="18.169" height="123.337" transform="translate(80.938 144.26)"/><g class="o" transform="translate(67.723 55.061)"><path class="t" d="M624.18,355.906a25.343,25.343,0,0,0,12.114,0V347.28H624.18Z" transform="translate(-624.18 -347.28)"/></g><circle class="t" cx="26.43" cy="26.43" r="26.43" transform="translate(47.349 6.055)"/><circle class="t" cx="25.329" cy="25.329" r="25.329" transform="translate(48.449 13.211)"/><g class="o" transform="translate(54.488 11.103)"><path class="u" d="M597.7,260.965a11.588,11.588,0,0,0,4.48,1.348,39.458,39.458,0,0,0,19.222-2.175,9.382,9.382,0,0,0,6.059,5.12,27.928,27.928,0,0,0,8.121.9,3.005,3.005,0,0,0,1.74-.335c1.218-.822.631-2.706-.083-3.993l-3.528-6.4a19.016,19.016,0,0,0-3.732-5.25,15.685,15.685,0,0,0-7.364-3.162,41.524,41.524,0,0,0-18.9.631C597.127,249.459,588.64,255.493,597.7,260.965Z" transform="translate(-593.753 -246.225)"/></g><path class="u" d="M597.7,259.695a11.588,11.588,0,0,0,4.48,1.348,39.458,39.458,0,0,0,19.222-2.175,9.382,9.382,0,0,0,6.059,5.12,27.927,27.927,0,0,0,8.121.9,3.005,3.005,0,0,0,1.74-.335c1.218-.822.631-2.706-.083-3.993l-3.528-6.4a19.015,19.015,0,0,0-3.732-5.25,15.685,15.685,0,0,0-7.364-3.162,41.524,41.524,0,0,0-18.9.631C597.127,248.189,588.64,254.223,597.7,259.695Z" transform="translate(-539.265 -234.405)"/><ellipse class="v" cx="2.201" cy="4.128" rx="2.201" ry="4.128" transform="translate(96.628 34.412)"/><ellipse class="w" cx="2.201" cy="4.128" rx="2.201" ry="4.128" transform="translate(46.526 34.412)"/><circle class="x" cx="6.055" cy="6.055" r="6.055" transform="translate(135.447)"/><text class="y" transform="translate(64.2 98.767)"><tspan x="0" y="0">00</tspan></text><path class="z" d="M606.469,324.225s-14.315,4.954-25.329-6.055c0,0,.87,3.65,2.423,8.052a25.329,25.329,0,0,0,47.362-7.873C628.345,319.775,609.532,328.819,606.469,324.225Zm-.552,6.607c-2.736,0-4.955-2.088-4.955-3.3s2.218-1.1,4.955-1.1,4.955-.113,4.955,1.1S608.653,330.833,605.917,330.833Z" transform="translate(-532.138 -275.772)"/><path class="aa" d="M669.05,299.576s29.484-16.53,47.653-65l8.809,5.507s-14.59,61.76-51.2,76.019Z" transform="translate(-581.809 -228.542)"/><circle class="t" cx="6.055" cy="6.055" r="6.055"/><path class="ab" d="M533.812,299.6s-29.484-16.53-47.653-64.979l-8.809,5.507s14.59,61.742,51.207,76Z" transform="translate(-473.496 -228.565)"/><path class="ac" d="M598.378,834.559H582.41V832a6.255,6.255,0,0,1,6.255-6.251h3.48a6.255,6.255,0,0,1,6.255,6.255Z" transform="translate(-532.856 -562.56)"/><path class="ac" d="M673.058,834.558H657.09V832a6.251,6.251,0,0,1,6.255-6.251h3.48a6.251,6.251,0,0,1,6.255,6.255Z" transform="translate(-575.051 -562.56)"/></g><rect class="i" width="49.189" height="36.356" transform="translate(207.588 218.067)"/><path class="c" d="M581.56,508.021s18.352,2.14,24.594,2.14,24.594-2.14,24.594-2.14V498.93H581.56Z" transform="translate(-373.972 -282.186)"/><path class="ad" d="M630.749,440.126s-18.352,2.14-24.594,2.14-24.594-2.14-24.594-2.14V404.3a24.594,24.594,0,0,1,24.594-24.594h0A24.594,24.594,0,0,1,630.749,404.3Z" transform="translate(-373.972 -217.999)"/><path class="h" d="M463.37,297.44h11.745V311.9a4.785,4.785,0,0,1-4.785,4.785h-2.175a4.785,4.785,0,0,1-4.785-4.785Z" transform="translate(-237.296 -152.281)"/><rect class="i" width="17.643" height="119.761" transform="translate(205.445 256.763)"/><rect class="i" width="17.643" height="119.761" transform="translate(240.889 256.763)"/><path class="c" d="M624.58,361.048a24.612,24.612,0,0,0,11.745,0V352.67H624.58Z" transform="translate(-398.506 -207.401)"/><circle class="ae" cx="25.664" cy="25.664" r="25.664" transform="translate(206.533 93.365)"/><circle class="h" cx="24.594" cy="24.594" r="24.594" transform="translate(207.588 101.189)"/><path class="c" d="M598.875,268.867a11.279,11.279,0,0,0,4.35,1.3,38.314,38.314,0,0,0,18.665-2.1,9.116,9.116,0,0,0,5.881,4.972,26.58,26.58,0,0,0,7.882.87,2.919,2.919,0,0,0,1.7-.326c1.183-.8.609-2.61-.078-3.876l-3.428-6.212a18.477,18.477,0,0,0-3.623-5.1,15.063,15.063,0,0,0-7.151-3.071,40.324,40.324,0,0,0-18.352.613C598.322,257.692,590.1,263.551,598.875,268.867Z" transform="translate(-381.268 -156.799)"/><path class="ae" d="M598.875,267.637a11.279,11.279,0,0,0,4.35,1.3,38.314,38.314,0,0,0,18.665-2.1,9.116,9.116,0,0,0,5.881,4.972,26.579,26.579,0,0,0,7.882.87,2.919,2.919,0,0,0,1.7-.326c1.183-.8.609-2.61-.078-3.876l-3.428-6.212a18.477,18.477,0,0,0-3.623-5.1,15.063,15.063,0,0,0-7.151-3.071,40.324,40.324,0,0,0-18.352.613C598.322,256.466,590.1,262.321,598.875,267.637Z" transform="translate(-381.268 -156.171)"/><ellipse class="h" cx="2.14" cy="4.011" rx="2.14" ry="4.011" transform="translate(257.005 122.751)"/><ellipse class="h" cx="2.14" cy="4.011" rx="2.14" ry="4.011" transform="translate(202.551 122.751)"/><circle class="h" cx="5.881" cy="5.881" r="5.881" transform="translate(299.834 85.407)"/><text class="m" transform="translate(222.586 192.217)"><tspan x="0" y="0">00</tspan></text><path class="ae" d="M607.384,330.281s-13.92,4.811-24.594-5.881c0,0,.87,3.545,2.349,7.83a24.594,24.594,0,0,0,45.987-7.643C628.629,325.966,610.36,334.744,607.384,330.281Zm-.535,6.416c-2.653,0-4.828-2.031-4.828-3.206s2.175-1.07,4.811-1.07,4.811-.113,4.811,1.07-2.136,3.206-4.794,3.206Z" transform="translate(-374.657 -192.398)"/><path class="ad" d="M668.15,306.393s28.644-16.064,46.274-63.113l8.556,5.346s-14.168,59.955-49.724,73.783Z" transform="translate(-417.284 -148.717)"/><circle class="h" cx="5.881" cy="5.881" r="5.881" transform="translate(152.315 85.407)"/><path class="ad" d="M536.809,306.393s-28.631-16.064-46.274-63.113L482,248.626s14.172,59.955,49.724,73.783Z" transform="translate(-323.254 -148.717)"/><path class="l" d="M429.065,763.27h3a6.251,6.251,0,0,1,6.251,6.251v2.3h-15.5v-2.3A6.251,6.251,0,0,1,429.065,763.27Z" transform="translate(-216.296 -391.026)"/><path class="l" d="M501.581,763.27h3a6.251,6.251,0,0,1,6.268,6.255v2.3H495.33v-2.3A6.251,6.251,0,0,1,501.581,763.27Z" transform="translate(-253.393 -391.026)"/><circle class="af" cx="1.74" cy="1.74" r="1.74" transform="translate(168.035 228.674)"/><circle class="ag" cx="1.549" cy="1.549" r="1.549" transform="translate(168.231 228.86)"/><path class="ah" d="M507.323,526.973a1.548,1.548,0,0,1,2.61-1.109,1.549,1.549,0,1,0-2.479,1.766A1.541,1.541,0,0,1,507.323,526.973Z" transform="translate(-338.707 -296.143)"/><circle class="af" cx="1.74" cy="1.74" r="1.74" transform="translate(173.667 228.674)"/><circle class="ag" cx="1.549" cy="1.549" r="1.549" transform="translate(173.862 228.86)"/><path class="ah" d="M518.893,526.973a1.549,1.549,0,0,1,2.61-1.109,1.549,1.549,0,1,0-2.479,1.766A1.538,1.538,0,0,1,518.893,526.973Z" transform="translate(-344.645 -296.143)"/><circle class="af" cx="1.74" cy="1.74" r="1.74" transform="translate(157.643 228.674)"/><circle class="ag" cx="1.549" cy="1.549" r="1.549" transform="translate(157.841 228.86)"/><path class="ah" d="M485.973,526.973a1.549,1.549,0,0,1,2.61-1.109,1.549,1.549,0,1,0-2.479,1.766A1.539,1.539,0,0,1,485.973,526.973Z" transform="translate(-327.747 -296.143)"/><circle class="ai" cx="1.74" cy="1.74" r="1.74" transform="translate(165.003 223.767)"/><circle class="ag" cx="1.549" cy="1.549" r="1.549" transform="translate(165.199 223.955)"/><path class="ah" d="M501.1,516.893a1.549,1.549,0,0,1,2.61-1.109,1.549,1.549,0,1,0-2.479,1.766A1.54,1.54,0,0,1,501.1,516.893Z" transform="translate(-335.514 -290.968)"/><circle class="ai" cx="1.74" cy="1.74" r="1.74" transform="translate(176.48 224.56)"/><circle class="ag" cx="1.549" cy="1.549" r="1.549" transform="translate(176.675 224.747)"/><path class="ah" d="M524.673,518.523a1.549,1.549,0,0,1,2.61-1.109,1.549,1.549,0,1,0-2.479,1.766A1.541,1.541,0,0,1,524.673,518.523Z" transform="translate(-347.613 -291.805)"/><circle class="aj" cx="1.74" cy="1.74" r="1.74" transform="translate(173.667 222.828)"/><circle class="ag" cx="1.549" cy="1.549" r="1.549" transform="translate(173.862 223.015)"/><path class="ah" d="M518.893,514.963a1.549,1.549,0,0,1,2.61-1.109,1.549,1.549,0,1,0-2.479,1.766A1.539,1.539,0,0,1,518.893,514.963Z" transform="translate(-344.645 -289.978)"/><circle class="af" cx="1.74" cy="1.74" r="1.74" transform="translate(175.034 226.941)"/><circle class="ag" cx="1.549" cy="1.549" r="1.549" transform="translate(175.23 227.128)"/><path class="ah" d="M521.7,523.393a1.549,1.549,0,0,1,2.61-1.109,1.549,1.549,0,1,0-2.479,1.766A1.54,1.54,0,0,1,521.7,523.393Z" transform="translate(-346.088 -294.306)"/><circle class="ai" cx="1.74" cy="1.74" r="1.74" transform="translate(169.982 223.767)"/><circle class="ag" cx="1.549" cy="1.549" r="1.549" transform="translate(170.178 223.955)"/><path class="ah" d="M511.333,516.893a1.549,1.549,0,0,1,2.61-1.109,1.549,1.549,0,1,0-2.479,1.766A1.54,1.54,0,0,1,511.333,516.893Z" transform="translate(-340.765 -290.968)"/><circle class="af" cx="1.74" cy="1.74" r="1.74" transform="translate(169.768 218.281)"/><circle class="ag" cx="1.549" cy="1.549" r="1.549" transform="translate(169.964 218.469)"/><path class="ah" d="M510.883,505.623a1.549,1.549,0,0,1,2.61-1.109,1.549,1.549,0,1,0-2.479,1.766A1.541,1.541,0,0,1,510.883,505.623Z" transform="translate(-340.534 -285.183)"/><circle class="ak" cx="1.74" cy="1.74" r="1.74" transform="translate(179.367 221.099)"/><circle class="ag" cx="1.549" cy="1.549" r="1.549" transform="translate(179.561 221.287)"/><path class="ah" d="M530.6,511.393a1.549,1.549,0,0,1,2.61-1.109,1.549,1.549,0,1,0-2.479,1.766A1.541,1.541,0,0,1,530.6,511.393Z" transform="translate(-350.657 -288.145)"/><circle class="ak" cx="1.74" cy="1.74" r="1.74" transform="translate(178.427 224.779)"/><circle class="ag" cx="1.549" cy="1.549" r="1.549" transform="translate(178.622 224.966)"/><path class="ah" d="M528.673,518.963a1.549,1.549,0,0,1,2.61-1.109,1.549,1.549,0,1,0-2.479,1.766A1.54,1.54,0,0,1,528.673,518.963Z" transform="translate(-349.666 -292.031)"/><circle class="aj" cx="1.74" cy="1.74" r="1.74" transform="translate(182.759 224.054)"/><circle class="ag" cx="1.549" cy="1.549" r="1.549" transform="translate(182.954 224.241)"/><path class="ah" d="M537.553,517.483a1.549,1.549,0,0,1,2.61-1.109,1.549,1.549,0,1,0-2.479,1.766A1.541,1.541,0,0,1,537.553,517.483Z" transform="translate(-354.225 -291.271)"/><circle class="ai" cx="1.74" cy="1.74" r="1.74" transform="translate(180.807 225.86)"/><circle class="ag" cx="1.549" cy="1.549" r="1.549" transform="translate(181.002 226.048)"/><path class="ah" d="M533.553,521.193a1.549,1.549,0,0,1,2.61-1.109,1.549,1.549,0,1,0-2.479,1.766,1.539,1.539,0,0,1-.13-.657Z" transform="translate(-352.172 -293.175)"/><circle class="ak" cx="1.74" cy="1.74" r="1.74" transform="translate(167.821 221.099)"/><circle class="ag" cx="1.549" cy="1.549" r="1.549" transform="translate(168.017 221.287)"/><path class="ah" d="M506.883,511.393a1.549,1.549,0,0,1,2.61-1.109,1.549,1.549,0,1,0-2.479,1.766A1.541,1.541,0,0,1,506.883,511.393Z" transform="translate(-338.48 -288.145)"/><circle class="ak" cx="1.74" cy="1.74" r="1.74" transform="translate(165.003 228.46)"/><circle class="al" cx="1.549" cy="1.549" r="1.549" transform="translate(165.199 228.646)"/><path class="ah" d="M501.1,526.533a1.549,1.549,0,0,1,2.61-1.109,1.549,1.549,0,1,0-2.479,1.766A1.54,1.54,0,0,1,501.1,526.533Z" transform="translate(-335.514 -295.917)"/><circle class="af" cx="1.74" cy="1.74" r="1.74" transform="translate(160.603 228.674)"/><circle class="al" cx="1.549" cy="1.549" r="1.549" transform="translate(160.799 228.86)"/><path class="ah" d="M492.053,526.973a1.549,1.549,0,0,1,2.61-1.109,1.549,1.549,0,1,0-2.479,1.766A1.541,1.541,0,0,1,492.053,526.973Z" transform="translate(-330.867 -296.143)"/><circle class="aj" cx="1.74" cy="1.74" r="1.74" transform="translate(162.842 227.447)"/><circle class="al" cx="1.549" cy="1.549" r="1.549" transform="translate(163.039 227.634)"/><path class="ah" d="M496.653,524.453a1.549,1.549,0,0,1,2.61-1.109,1.549,1.549,0,1,0-2.479,1.766A1.539,1.539,0,0,1,496.653,524.453Z" transform="translate(-333.229 -294.85)"/><circle class="af" cx="1.74" cy="1.74" r="1.74" transform="translate(172.367 225.281)"/><circle class="al" cx="1.549" cy="1.549" r="1.549" transform="translate(172.563 225.468)"/><path class="ah" d="M516.223,520a1.549,1.549,0,0,1,2.61-1.109,1.549,1.549,0,1,0-2.479,1.766A1.54,1.54,0,0,1,516.223,520Z" transform="translate(-343.276 -292.565)"/><circle class="am" cx="1.74" cy="1.74" r="1.74" transform="translate(172.367 220.666)"/><circle class="al" cx="1.549" cy="1.549" r="1.549" transform="translate(172.563 220.854)"/><path class="ah" d="M516.223,510.513a1.549,1.549,0,0,1,2.61-1.109,1.549,1.549,0,1,0-2.479,1.766A1.54,1.54,0,0,1,516.223,510.513Z" transform="translate(-343.276 -287.693)"/><circle class="am" cx="1.74" cy="1.74" r="1.74" transform="translate(174.529 224.346)"/><circle class="al" cx="1.549" cy="1.549" r="1.549" transform="translate(174.723 224.533)"/><path class="ah" d="M520.673,518.073a1.549,1.549,0,0,1,2.61-1.109,1.549,1.549,0,1,0-2.479,1.766A1.542,1.542,0,0,1,520.673,518.073Z" transform="translate(-345.559 -291.575)"/><circle class="aj" cx="1.74" cy="1.74" r="1.74" transform="translate(172.581 216.981)"/><circle class="al" cx="1.549" cy="1.549" r="1.549" transform="translate(172.777 217.169)"/><path class="ah" d="M516.663,502.953a1.549,1.549,0,0,1,2.61-1.109,1.549,1.549,0,1,0-2.479,1.766A1.539,1.539,0,0,1,516.663,502.953Z" transform="translate(-343.501 -283.813)"/><circle class="am" cx="1.74" cy="1.74" r="1.74" transform="translate(173.014 218.933)"/><circle class="al" cx="1.549" cy="1.549" r="1.549" transform="translate(173.21 219.121)"/><path class="ah" d="M517.553,506.963a1.548,1.548,0,0,1,2.61-1.109,1.549,1.549,0,1,0-2.479,1.766A1.541,1.541,0,0,1,517.553,506.963Z" transform="translate(-343.958 -285.871)"/><circle class="ak" cx="1.74" cy="1.74" r="1.74" transform="translate(175.326 220.233)"/><circle class="al" cx="1.549" cy="1.549" r="1.549" transform="translate(175.522 220.421)"/><path class="ah" d="M522.3,509.623a1.549,1.549,0,0,1,2.61-1.109,1.549,1.549,0,1,0-2.479,1.766A1.54,1.54,0,0,1,522.3,509.623Z" transform="translate(-346.396 -287.237)"/><circle class="af" cx="1.74" cy="1.74" r="1.74" transform="translate(177.707 219.868)"/><circle class="al" cx="1.549" cy="1.549" r="1.549" transform="translate(177.902 220.056)"/><path class="ah" d="M527.169,508.829a1.549,1.549,0,0,1,2.61-1.109,1.549,1.549,0,1,0-2.453,1.766A1.539,1.539,0,0,1,527.169,508.829Z" transform="translate(-348.884 -286.805)"/><circle class="am" cx="1.74" cy="1.74" r="1.74" transform="translate(177.055 221.82)"/><circle class="al" cx="1.549" cy="1.549" r="1.549" transform="translate(177.249 222.007)"/><path class="ah" d="M525.863,512.893a1.549,1.549,0,0,1,2.61-1.109,1.549,1.549,0,1,0-2.479,1.766A1.54,1.54,0,0,1,525.863,512.893Z" transform="translate(-348.224 -288.915)"/><circle class="ai" cx="1.74" cy="1.74" r="1.74" transform="translate(168.901 219.293)"/><circle class="al" cx="1.549" cy="1.549" r="1.549" transform="translate(169.098 219.481)"/><path class="ah" d="M509.1,507.7a1.549,1.549,0,0,1,2.61-1.109,1.549,1.549,0,1,0-2.479,1.766A1.54,1.54,0,0,1,509.1,507.7Z" transform="translate(-339.621 -286.251)"/><circle class="am" cx="1.74" cy="1.74" r="1.74" transform="translate(163.275 225.212)"/><circle class="al" cx="1.549" cy="1.549" r="1.549" transform="translate(163.472 225.4)"/><path class="ah" d="M497.553,519.853a1.549,1.549,0,0,1,2.61-1.109,1.549,1.549,0,1,0-2.479,1.766A1.541,1.541,0,0,1,497.553,519.853Z" transform="translate(-333.691 -292.488)"/><circle class="aj" cx="1.74" cy="1.74" r="1.74" transform="translate(166.663 221.961)"/><circle class="al" cx="1.549" cy="1.549" r="1.549" transform="translate(166.859 222.149)"/><path class="ah" d="M504.553,513.183a1.549,1.549,0,0,1,2.61-1.109,1.549,1.549,0,1,0-2.479,1.766,1.539,1.539,0,0,1-.131-.657Z" transform="translate(-337.285 -289.064)"/><circle class="ai" cx="1.74" cy="1.74" r="1.74" transform="translate(159.736 227.52)"/><circle class="al" cx="1.549" cy="1.549" r="1.549" transform="translate(159.933 227.707)"/><path class="ah" d="M490.273,524.6a1.549,1.549,0,0,1,2.61-1.109,1.549,1.549,0,1,0-2.479,1.766,1.54,1.54,0,0,1-.13-.657Z" transform="translate(-329.954 -294.926)"/><circle class="am" cx="1.74" cy="1.74" r="1.74" transform="translate(178.427 226.006)"/><circle class="al" cx="1.549" cy="1.549" r="1.549" transform="translate(178.622 226.193)"/><path class="ah" d="M528.673,521.483a1.549,1.549,0,0,1,2.61-1.109,1.549,1.549,0,1,0-2.479,1.766A1.542,1.542,0,0,1,528.673,521.483Z" transform="translate(-349.666 -293.326)"/><circle class="ai" cx="1.74" cy="1.74" r="1.74" transform="translate(169.695 215.034)"/><circle class="al" cx="1.549" cy="1.549" r="1.549" transform="translate(169.891 215.223)"/><path class="ah" d="M510.733,498.953a1.549,1.549,0,0,1,2.61-1.109,1.549,1.549,0,1,0-2.479,1.766,1.541,1.541,0,0,1-.13-.657Z" transform="translate(-340.456 -281.759)"/><circle class="aj" cx="1.74" cy="1.74" r="1.74" transform="translate(166.161 219.507)"/><circle class="al" cx="1.549" cy="1.549" r="1.549" transform="translate(166.357 219.695)"/><path class="ah" d="M503.473,508.143a1.549,1.549,0,0,1,2.61-1.109A1.549,1.549,0,1,0,503.6,508.8,1.54,1.54,0,0,1,503.473,508.143Z" transform="translate(-336.729 -286.478)"/><circle class="aj" cx="1.74" cy="1.74" r="1.74" transform="translate(163.343 222.828)"/><circle class="al" cx="1.549" cy="1.549" r="1.549" transform="translate(163.54 223.015)"/><path class="ah" d="M497.693,514.963a1.549,1.549,0,0,1,2.61-1.109,1.549,1.549,0,1,0-2.479,1.766A1.54,1.54,0,0,1,497.693,514.963Z" transform="translate(-333.763 -289.978)"/><circle class="aj" cx="1.74" cy="1.74" r="1.74" transform="translate(165.368 226.507)"/><circle class="al" cx="1.549" cy="1.549" r="1.549" transform="translate(165.565 226.695)"/><path class="ah" d="M501.843,522.523a1.549,1.549,0,0,1,2.61-1.109,1.549,1.549,0,1,0-2.479,1.766A1.54,1.54,0,0,1,501.843,522.523Z" transform="translate(-335.894 -293.858)"/><circle class="aj" cx="1.74" cy="1.74" r="1.74" transform="translate(168.109 224.054)"/><circle class="al" cx="1.549" cy="1.549" r="1.549" transform="translate(168.304 224.241)"/><path class="ah" d="M507.473,517.483a1.549,1.549,0,0,1,2.61-1.109,1.549,1.549,0,1,0-2.479,1.766A1.54,1.54,0,0,1,507.473,517.483Z" transform="translate(-338.783 -291.271)"/><circle class="aj" cx="1.74" cy="1.74" r="1.74" transform="translate(169.549 226.507)"/><circle class="al" cx="1.549" cy="1.549" r="1.549" transform="translate(169.745 226.695)"/><path class="ah" d="M510.443,522.523a1.549,1.549,0,0,1,2.61-1.109,1.549,1.549,0,1,0-2.479,1.766A1.541,1.541,0,0,1,510.443,522.523Z" transform="translate(-340.308 -293.858)"/><circle class="af" cx="1.74" cy="1.74" r="1.74" transform="translate(184.487 228.674)"/><circle class="al" cx="1.549" cy="1.549" r="1.549" transform="translate(184.681 228.86)"/><path class="ah" d="M541.133,526.973a1.549,1.549,0,0,1,2.61-1.109,1.549,1.549,0,1,0-2.479,1.766A1.541,1.541,0,0,1,541.133,526.973Z" transform="translate(-356.062 -296.143)"/><circle class="aj" cx="1.74" cy="1.74" r="1.74" transform="translate(181.746 228.241)"/><circle class="al" cx="1.549" cy="1.549" r="1.549" transform="translate(181.941 228.427)"/><path class="ah" d="M535.493,526.083a1.549,1.549,0,0,1,2.61-1.109,1.549,1.549,0,1,0-2.479,1.766A1.54,1.54,0,0,1,535.493,526.083Z" transform="translate(-353.168 -295.686)"/><circle class="ak" cx="1.74" cy="1.74" r="1.74" transform="translate(176.48 228.46)"/><circle class="al" cx="1.549" cy="1.549" r="1.549" transform="translate(176.675 228.646)"/><circle class="al" cx="1.549" cy="1.549" r="1.549" transform="translate(177.035 226.626)"/><path class="ah" d="M524.673,526.533a1.548,1.548,0,0,1,2.61-1.109,1.549,1.549,0,1,0-2.479,1.766A1.54,1.54,0,0,1,524.673,526.533Z" transform="translate(-347.613 -295.916)"/><circle class="af" cx="1.74" cy="1.74" r="1.74" transform="translate(170.635 228.674)"/><circle class="al" cx="1.549" cy="1.549" r="1.549" transform="translate(170.83 228.86)"/><path class="ah" d="M512.663,526.973a1.549,1.549,0,0,1,2.61-1.109,1.549,1.549,0,1,0-2.479,1.766A1.54,1.54,0,0,1,512.663,526.973Z" transform="translate(-341.448 -296.143)"/><circle class="ai" cx="1.74" cy="1.74" r="1.74" transform="translate(170.055 220.88)"/><circle class="ag" cx="1.549" cy="1.549" r="1.549" transform="translate(170.251 221.068)"/><path class="ah" d="M511.473,510.963a1.549,1.549,0,0,1,2.61-1.109,1.549,1.549,0,1,0-2.479,1.766A1.54,1.54,0,0,1,511.473,510.963Z" transform="translate(-340.836 -287.924)"/><circle class="ai" cx="1.74" cy="1.74" r="1.74" transform="translate(172.007 223.334)"/><circle class="ag" cx="1.549" cy="1.549" r="1.549" transform="translate(172.202 223.521)"/><path class="ah" d="M515.483,516a1.549,1.549,0,0,1,2.61-1.109,1.549,1.549,0,1,0-2.479,1.766A1.539,1.539,0,0,1,515.483,516Z" transform="translate(-342.896 -290.512)"/><circle class="am" cx="1.74" cy="1.74" r="1.74" transform="translate(168.756 217.346)"/><circle class="ag" cx="1.549" cy="1.549" r="1.549" transform="translate(168.952 217.535)"/><path class="ah" d="M508.813,503.693a1.549,1.549,0,0,1,2.61-1.109,1.549,1.549,0,1,0-2.479,1.766A1.54,1.54,0,0,1,508.813,503.693Z" transform="translate(-339.472 -284.192)"/><circle class="ai" cx="1.74" cy="1.74" r="1.74" transform="translate(170.921 217.561)"/><circle class="ag" cx="1.549" cy="1.549" r="1.549" transform="translate(171.118 217.749)"/><path class="ah" d="M513.253,504.143a1.549,1.549,0,0,1,2.61-1.109,1.549,1.549,0,1,0-2.479,1.766A1.54,1.54,0,0,1,513.253,504.143Z" transform="translate(-341.75 -284.423)"/><circle class="ak" cx="1.74" cy="1.74" r="1.74" transform="translate(174.529 218.573)"/><circle class="ag" cx="1.549" cy="1.549" r="1.549" transform="translate(174.723 218.761)"/><path class="ah" d="M520.673,506.213a1.549,1.549,0,0,1,2.61-1.109,1.549,1.549,0,1,0-2.479,1.766A1.542,1.542,0,0,1,520.673,506.213Z" transform="translate(-345.559 -285.486)"/><circle class="ai" cx="1.74" cy="1.74" r="1.74" transform="translate(164.789 221.747)"/><circle class="ag" cx="1.549" cy="1.549" r="1.549" transform="translate(164.985 221.934)"/><path class="ah" d="M500.653,512.743a1.549,1.549,0,0,1,2.61-1.109,1.549,1.549,0,1,0-2.479,1.766A1.539,1.539,0,0,1,500.653,512.743Z" transform="translate(-335.283 -288.838)"/><circle class="ai" cx="1.74" cy="1.74" r="1.74" transform="translate(166.161 224.273)"/><circle class="ag" cx="1.549" cy="1.549" r="1.549" transform="translate(166.357 224.461)"/><path class="ah" d="M503.473,517.933a1.549,1.549,0,0,1,2.61-1.109,1.549,1.549,0,1,0-2.479,1.766,1.54,1.54,0,0,1-.131-.657Z" transform="translate(-336.729 -291.502)"/><circle class="am" cx="1.74" cy="1.74" r="1.74" transform="translate(167.096 227.233)"/><circle class="ag" cx="1.549" cy="1.549" r="1.549" transform="translate(167.292 227.42)"/><path class="ah" d="M505.4,524.013a1.549,1.549,0,0,1,2.61-1.109,1.549,1.549,0,1,0-2.479,1.766,1.54,1.54,0,0,1-.131-.657Z" transform="translate(-337.721 -294.623)"/><circle class="ai" cx="1.74" cy="1.74" r="1.74" transform="translate(172.581 226.293)"/><circle class="ag" cx="1.549" cy="1.549" r="1.549" transform="translate(172.777 226.481)"/><path class="ah" d="M516.663,522.083a1.549,1.549,0,0,1,2.61-1.109,1.549,1.549,0,1,0-2.479,1.766A1.539,1.539,0,0,1,516.663,522.083Z" transform="translate(-343.501 -293.633)"/><circle class="ai" cx="1.74" cy="1.74" r="1.74" transform="translate(178.213 224.56)"/><circle class="ag" cx="1.549" cy="1.549" r="1.549" transform="translate(178.408 224.747)"/><path class="ah" d="M528.233,518.523a1.549,1.549,0,0,1,2.61-1.109,1.549,1.549,0,1,0-2.479,1.766A1.542,1.542,0,0,1,528.233,518.523Z" transform="translate(-349.441 -291.805)"/><circle class="ai" cx="1.74" cy="1.74" r="1.74" transform="translate(180.014 223.047)"/><circle class="ag" cx="1.549" cy="1.549" r="1.549" transform="translate(180.209 223.234)"/><circle class="ag" cx="1.549" cy="1.549" r="1.549" transform="translate(175.809 223.088)"/><path class="ah" d="M531.933,515.393a1.549,1.549,0,0,1,2.61-1.109,1.549,1.549,0,1,0-2.479,1.766A1.539,1.539,0,0,1,531.933,515.393Z" transform="translate(-351.34 -290.199)"/><circle class="aj" cx="1.74" cy="1.74" r="1.74" transform="translate(182.827 226.507)"/><circle class="ag" cx="1.549" cy="1.549" r="1.549" transform="translate(183.022 226.695)"/><path class="ah" d="M537.723,522.523a1.549,1.549,0,0,1,2.61-1.109,1.549,1.549,0,1,0-2.479,1.766A1.539,1.539,0,0,1,537.723,522.523Z" transform="translate(-354.312 -293.858)"/><circle class="am" cx="1.74" cy="1.74" r="1.74" transform="translate(173.735 228.893)"/><circle class="ag" cx="1.549" cy="1.549" r="1.549" transform="translate(173.931 229.08)"/><path class="ah" d="M519.043,527.393a1.549,1.549,0,0,1,2.61-1.109,1.549,1.549,0,1,0-2.479,1.766A1.54,1.54,0,0,1,519.043,527.393Z" transform="translate(-344.723 -296.358)"/><circle class="ai" cx="1.74" cy="1.74" r="1.74" transform="translate(163.708 228.027)"/><circle class="ag" cx="1.549" cy="1.549" r="1.549" transform="translate(163.905 228.213)"/><path class="ah" d="M498.433,525.643a1.549,1.549,0,0,1,2.61-1.109,1.549,1.549,0,1,0-2.479,1.766,1.54,1.54,0,0,1-.13-.657Z" transform="translate(-334.143 -295.46)"/><circle class="ai" cx="1.74" cy="1.74" r="1.74" transform="translate(160.89 225.5)"/><circle class="ag" cx="1.549" cy="1.549" r="1.549" transform="translate(161.087 225.687)"/><path class="ah" d="M492.653,520.453a1.549,1.549,0,0,1,2.61-1.109,1.549,1.549,0,1,0-2.479,1.766A1.54,1.54,0,0,1,492.653,520.453Z" transform="translate(-331.176 -292.796)"/><circle class="ai" cx="1.74" cy="1.74" r="1.74" transform="translate(164.57 224.273)"/><circle class="ag" cx="1.549" cy="1.549" r="1.549" transform="translate(164.766 224.461)"/><path class="ah" d="M500.177,517.85a1.549,1.549,0,0,1,2.61-1.109,1.549,1.549,0,1,0-2.462,1.744A1.541,1.541,0,0,1,500.177,517.85Z" transform="translate(-335.023 -291.424)"/><circle class="ai" cx="1.74" cy="1.74" r="1.74" transform="translate(162.55 221.313)"/><circle class="ag" cx="1.549" cy="1.549" r="1.549" transform="translate(162.747 221.501)"/><path class="ah" d="M496.063,511.853a1.549,1.549,0,0,1,2.61-1.109,1.549,1.549,0,1,0-2.479,1.766A1.54,1.54,0,0,1,496.063,511.853Z" transform="translate(-332.926 -288.381)"/><circle class="ak" cx="1.74" cy="1.74" r="1.74" transform="translate(164.282 218.573)"/><circle class="ag" cx="1.549" cy="1.549" r="1.549" transform="translate(164.479 218.761)"/><path class="ah" d="M499.613,506.213a1.549,1.549,0,0,1,2.61-1.109,1.549,1.549,0,1,0-2.479,1.766A1.539,1.539,0,0,1,499.613,506.213Z" transform="translate(-334.749 -285.486)"/><circle class="af" cx="1.74" cy="1.74" r="1.74" transform="translate(179.367 228.674)"/><circle class="ag" cx="1.549" cy="1.549" r="1.549" transform="translate(179.561 228.86)"/><path class="ah" d="M530.6,526.973a1.549,1.549,0,0,1,2.61-1.109,1.549,1.549,0,1,0-2.479,1.766A1.542,1.542,0,0,1,530.6,526.973Z" transform="translate(-350.657 -296.143)"/><path class="an" d="M346.682,503.306H327.421L322.54,474.54h29.088Z" transform="translate(-164.337 -241.949)"/><path class="ao" d="M347.161,503.506H328.587L323.88,475.58h28.052Z" transform="translate(-165.072 -242.55)"/><path class="ap" d="M323.88,475.58h4.772l4.515,27.926h-4.646Z" transform="translate(-165.975 -242.55)"/><path class="ap" d="M376.058,475.58h-4.837l-4.641,27.926h4.707Z" transform="translate(-187.847 -242.55)"/><rect class="ap" width="4.641" height="27.926" transform="translate(170.69 233.03)"/><circle class="ai" cx="1.74" cy="1.74" r="1.74" transform="translate(161.542 223.334)"/><circle class="al" cx="1.549" cy="1.549" r="1.549" transform="translate(161.739 223.521)"/><path class="ah" d="M493.983,516a1.549,1.549,0,0,1,2.61-1.109,1.549,1.549,0,1,0-2.479,1.766A1.54,1.54,0,0,1,493.983,516Z" transform="translate(-331.859 -290.512)"/><circle class="aj" cx="1.74" cy="1.74" r="1.74" transform="translate(166.449 217.848)"/><circle class="al" cx="1.549" cy="1.549" r="1.549" transform="translate(166.645 218.036)"/><path class="ah" d="M504.063,504.733a1.549,1.549,0,0,1,2.61-1.109,1.549,1.549,0,1,0-2.479,1.766,1.539,1.539,0,0,1-.13-.657Z" transform="translate(-337.033 -284.727)"/><circle class="ai" cx="1.74" cy="1.74" r="1.74" transform="translate(159.591 226.293)"/><circle class="al" cx="1.549" cy="1.549" r="1.549" transform="translate(159.788 226.481)"/><path class="ah" d="M489.983,522.083a1.549,1.549,0,0,1,2.61-1.109,1.549,1.549,0,1,0-2.479,1.766A1.54,1.54,0,0,1,489.983,522.083Z" transform="translate(-329.805 -293.633)"/><circle class="am" cx="1.74" cy="1.74" r="1.74" transform="translate(157.259 213.058)"/><circle class="al" cx="1.549" cy="1.549" r="1.549" transform="translate(157.456 213.246)"/><path class="ah" d="M485.156,494.821a1.549,1.549,0,0,1,2.61-1.109,1.549,1.549,0,1,0-2.449,1.766,1.54,1.54,0,0,1-.161-.657Z" transform="translate(-327.316 -279.611)"/><circle class="am" cx="1.74" cy="1.74" r="1.74" transform="translate(165.456 201.891)"/><circle class="al" cx="1.549" cy="1.549" r="1.549" transform="translate(165.652 202.081)"/><path class="ah" d="M502.023,471.943a1.549,1.549,0,0,1,2.61-1.109,1.549,1.549,0,1,0-2.479,1.766A1.54,1.54,0,0,1,502.023,471.943Z" transform="translate(-335.986 -267.894)"/><circle class="aj" cx="1.74" cy="1.74" r="1.74" transform="translate(172.523 193.406)"/><circle class="ag" cx="1.549" cy="1.549" r="1.549" transform="translate(172.718 193.597)"/><path class="ah" d="M516.553,454.523a1.549,1.549,0,0,1,2.61-1.109,1.549,1.549,0,1,0-2.479,1.766A1.54,1.54,0,0,1,516.553,454.523Z" transform="translate(-343.444 -258.951)"/><circle class="aj" cx="1.74" cy="1.74" r="1.74" transform="translate(186.234 211.641)"/><circle class="ag" cx="1.549" cy="1.549" r="1.549" transform="translate(186.428 211.83)"/><path class="ah" d="M544.713,491.983a1.549,1.549,0,0,1,2.61-1.109,1.549,1.549,0,1,0-2.479,1.766A1.54,1.54,0,0,1,544.713,491.983Z" transform="translate(-357.9 -278.182)"/><circle class="ai" cx="1.74" cy="1.74" r="1.74" transform="translate(197.117 225.495)"/><circle class="ag" cx="1.549" cy="1.549" r="1.549" transform="translate(197.311 225.682)"/><path class="ah" d="M567.073,520.393a1.548,1.548,0,0,1,2.61-1.109,1.549,1.549,0,1,0-2.479,1.766,1.54,1.54,0,0,1-.131-.657Z" transform="translate(-369.378 -292.766)"/><circle class="ai" cx="1.74" cy="1.74" r="1.74" transform="translate(156.694 259.278)"/><circle class="al" cx="1.549" cy="1.549" r="1.549" transform="translate(156.892 259.461)"/><path class="ah" d="M484.023,589.843a1.549,1.549,0,0,1,2.61-1.109,1.549,1.549,0,1,0-2.479,1.766A1.54,1.54,0,0,1,484.023,589.843Z" transform="translate(-326.745 -328.416)"/><circle class="ai" cx="1.74" cy="1.74" r="1.74" transform="translate(154.007 255.744)"/><circle class="ag" cx="1.549" cy="1.549" r="1.549" transform="translate(154.205 255.928)"/><path class="ah" d="M478.553,582.583a1.549,1.549,0,0,1,2.61-1.109,1.549,1.549,0,1,0-2.479,1.766A1.539,1.539,0,0,1,478.553,582.583Z" transform="translate(-323.937 -324.689)"/><circle class="ai" cx="1.74" cy="1.74" r="1.74" transform="translate(152.309 236.662)"/><circle class="al" cx="1.549" cy="1.549" r="1.549" transform="translate(152.507 236.848)"/><path class="ah" d="M475.023,543.393a1.549,1.549,0,0,1,2.61-1.109,1.549,1.549,0,1,0-2.479,1.766A1.54,1.54,0,0,1,475.023,543.393Z" transform="translate(-322.125 -304.572)"/><circle class="am" cx="1.74" cy="1.74" r="1.74" transform="translate(189.057 257.725)"/><circle class="al" cx="1.549" cy="1.549" r="1.549" transform="translate(189.251 257.908)"/><path class="ah" d="M550.553,586.643a1.549,1.549,0,0,1,2.61-1.109,1.549,1.549,0,1,0-2.479,1.766A1.539,1.539,0,0,1,550.553,586.643Z" transform="translate(-360.898 -326.775)"/><circle class="ai" cx="1.74" cy="1.74" r="1.74" transform="translate(192.591 255.461)"/><circle class="al" cx="1.549" cy="1.549" r="1.549" transform="translate(192.784 255.645)"/><path class="ah" d="M557.773,582a1.548,1.548,0,0,1,2.61-1.109,1.549,1.549,0,1,0-2.479,1.766A1.54,1.54,0,0,1,557.773,582Z" transform="translate(-364.604 -324.392)"/><circle class="ak" cx="1.74" cy="1.74" r="1.74" transform="translate(193.014 258.149)"/><circle class="ag" cx="1.549" cy="1.549" r="1.549" transform="translate(193.208 258.332)"/><path class="ah" d="M558.653,587.523a1.548,1.548,0,0,1,2.61-1.109,1.549,1.549,0,1,0-2.479,1.766A1.54,1.54,0,0,1,558.653,587.523Z" transform="translate(-365.056 -327.225)"/><circle class="ak" cx="1.74" cy="1.74" r="1.74" transform="translate(185.665 258.149)"/><circle class="ag" cx="1.549" cy="1.549" r="1.549" transform="translate(185.859 258.332)"/><path class="ah" d="M543.553,587.523a1.549,1.549,0,0,1,2.61-1.109,1.549,1.549,0,1,0-2.479,1.766A1.54,1.54,0,0,1,543.553,587.523Z" transform="translate(-357.304 -327.225)"/><text class="aq" transform="translate(324.12 228.639)"><tspan x="0" y="0">9</tspan></text><g class="f" transform="translate(285.998 135.956)"><path class="ar" d="M820.687,346.78A249.743,249.743,0,0,0,793.1,326.54a26.394,26.394,0,0,0,.87-3.724h.065c1.275,0,2.31-1.94,2.31-4.35a6.011,6.011,0,0,0-.987-3.541q.135-1.37.139-2.78a27.762,27.762,0,0,0-.87-6.925,9.673,9.673,0,0,0,.483-2.553,7.719,7.719,0,0,1,.244-2.079,8.154,8.154,0,0,1,1.035-1.779,11.249,11.249,0,0,0,1-10.192,4.427,4.427,0,0,0-2.4-2.71,2.54,2.54,0,0,1-.87-.357,1.549,1.549,0,0,1-.435-1.148c-.065-1.44.344-2.858.391-4.3a4.085,4.085,0,0,0-1.64-3.767,4.707,4.707,0,0,0-2.453-.435,23.137,23.137,0,0,0-5.337.739c-2.74.713-5.807,1.892-8.226.435a20.043,20.043,0,0,1-1.862-1.5,7.886,7.886,0,0,0-10.74,1.4c-1.209,1.605-1.836,3.741-3.536,4.811-3.11,1.957-7.8-.87-10.666,1.462-2.149,1.74-1.762,5.22-3.48,7.395s-4.024,3.128-4.241,6.316a4.729,4.729,0,0,0,.87,3.3,27.773,27.773,0,0,0-2.553,14.707,6.011,6.011,0,0,0-1,3.571c0,2.392,1.035,4.35,2.31,4.35h.065a26.366,26.366,0,0,0,.953,3.915,251.326,251.326,0,0,0-27.287,20.044c2.888,17.317,25.978,28.274,25.978,28.274v34.638l-3.9.7a9.57,9.57,0,0,0-7.647,11.157l14.237,76.275a2.9,2.9,0,0,0,3.38,2.314l2.584-.483V501.1c-2.727,1.3-4.62,1.923-4.62,5.142v1.179H762v-1.179c0-2.984-1.627-3.449-4.041-4.841v-3.2l2.366-.435a2.9,2.9,0,0,0,2.314-3.38l-13.319-71.408h36.926L772.917,494.4a2.9,2.9,0,0,0,2.314,3.38l2.366.435v3.2c-2.414,1.392-4.041,1.853-4.041,4.841v1.179H790.3v-1.179c0-3.219-1.892-3.85-4.62-5.142v-1.388l2.584.509a2.9,2.9,0,0,0,3.38-2.314l14.411-77.241a8.608,8.608,0,0,0-6.882-10.053l-4.833-.87V374.246l.391.84S817.8,364.08,820.687,346.78Zm-84.075,3.48,15.194-10.54a26.443,26.443,0,0,0,9.631,4.576v4.994a26.468,26.468,0,0,0-10.805,5.524Zm37.522-.97v-5a26.443,26.443,0,0,0,9.8-4.711l15.39,10.679-14.015,4.563.248.535A26.488,26.488,0,0,0,774.134,349.29Z" transform="translate(-715.25 -274.066)"/></g><rect class="h" width="7.708" height="10.461" transform="translate(309.735 351.156)"/><rect class="h" width="7.708" height="10.461" transform="translate(339.345 351.156)"/><rect class="i" width="50.654" height="18.169" transform="translate(304.671 252.652)"/><g class="j" transform="translate(304.671 252.652)"><rect width="50.654" height="18.169"/></g><path class="c" d="M777.82,575.315s18.9,4.385,25.308,4.385,25.329-4.406,25.329-4.406V572.54H777.82Z" transform="translate(-473.15 -320.208)"/><path class="as" d="M828.446,505.419s-18.9,4.406-25.347,4.406-25.329-4.406-25.329-4.406v-30.3A25.329,25.329,0,0,1,803.1,449.81h0a25.329,25.329,0,0,1,25.347,25.312Z" transform="translate(-473.12 -253.436)"/><path class="h" d="M660.91,366.69h12.114v15.038a4.785,4.785,0,0,1-4.785,4.785h-2.545a4.785,4.785,0,0,1-4.785-4.785Z" transform="translate(-338.423 -187.612)"/><path class="i" d="M781.677,667.153l-13.432,2.51a2.249,2.249,0,0,1-2.61-1.8l-14.011-74.931a7.421,7.421,0,0,1,5.933-8.661l8.356-1.562a2.249,2.249,0,0,1,2.61,1.8l14.938,80.038A2.249,2.249,0,0,1,781.677,667.153Z" transform="translate(-461.693 -312.478)"/><path class="i" d="M848.827,667.164l13.441,2.51a2.249,2.249,0,0,0,2.61-1.8L879,592.22a6.681,6.681,0,0,0-5.342-7.791l-9.087-1.7a2.249,2.249,0,0,0-2.61,1.8l-14.937,80.038A2.249,2.249,0,0,0,848.827,667.164Z" transform="translate(-503.688 -312.49)"/><path class="c" d="M822.12,430.608a25.342,25.342,0,0,0,12.114,0V422H822.12Z" transform="translate(-499.634 -242.908)"/><circle class="at" cx="26.43" cy="26.43" r="26.43" transform="translate(303.66 126.141)"/><circle class="h" cx="25.329" cy="25.329" r="25.329" transform="translate(304.667 134.174)"/><ellipse class="h" cx="2.201" cy="4.128" rx="2.201" ry="4.128" transform="translate(361.395 155.873)"/><ellipse class="h" cx="2.201" cy="4.128" rx="2.201" ry="4.128" transform="translate(298.047 155.873)"/><path class="l" d="M631.721,728.71h3.48a6.255,6.255,0,0,1,6.255,6.255v2.571H625.47v-2.558a6.251,6.251,0,0,1,6.251-6.268Z" transform="translate(-319.926 -371.499)"/><path class="l" d="M693.741,728.71h3.48a6.255,6.255,0,0,1,6.255,6.255v2.571H687.49v-2.558a6.251,6.251,0,0,1,6.251-6.268Z" transform="translate(-351.649 -371.499)"/><text class="m" transform="translate(324.26 228.876)"><tspan x="0" y="0">9</tspan></text><path class="c" d="M782.778,333.044s-1.1,7.16,4.955,3.3,26.969-2.2,33.586,3.3,8.809,1.1,9.909,0-11.919-19.492-19.27-20.923C792.139,314.875,782.778,333.044,782.778,333.044Z" transform="translate(-475.844 -189.079)"/><path class="at" d="M782.778,331.783s-1.1,7.16,4.955,3.3,26.969-2.2,33.586,3.3,8.809,1.1,9.909,0-11.919-19.492-19.27-20.923C792.139,313.609,782.778,331.783,782.778,331.783Z" transform="translate(-475.844 -188.435)"/><path class="at" d="M783.3,302.322c1.657-2.049,1.3-5.39,3.336-7.042,2.727-2.2,7.2.474,10.17-1.392,1.622-1.022,2.218-3.045,3.371-4.589a7.542,7.542,0,0,1,10.244-1.335,19.167,19.167,0,0,0,1.775,1.431c2.306,1.405,5.22.278,7.83-.4a22.072,22.072,0,0,1,5.089-.7,4.49,4.49,0,0,1,2.34.435,3.9,3.9,0,0,1,1.566,3.593c-.044,1.37-.435,2.727-.374,4.1a1.474,1.474,0,0,0,.4,1.1,2.421,2.421,0,0,0,.813.339,4.219,4.219,0,0,1,2.288,2.584,10.727,10.727,0,0,1-.957,9.722,7.772,7.772,0,0,0-.987,1.7,7.359,7.359,0,0,0-.235,1.984c-.126,2.345-1.122,4.876-3.254,5.859-2.745,1.27-5.838-.487-8.548-1.836-6.151-3.045-13.084-4.115-19.918-4.833a79.208,79.208,0,0,0-9.226-.548c-2.292.026-5.394,1.009-7.577.078a3.915,3.915,0,0,1-2.214-4.206C779.46,305.306,781.6,304.418,783.3,302.322Z" transform="translate(-473.517 -172.548)"/><path class="as" d="M754.575,418.646l-13.367-4.35,26.969-18.7-8.265-11.562S738.82,395.535,720.82,411c2.753,16.53,24.794,26.969,24.794,26.969Z" transform="translate(-444.638 -220.783)"/><path class="as" d="M856.8,418.646l13.367-4.35-26.969-18.7,8.265-11.562S872.557,395.535,890.557,411c-2.754,16.53-24.794,26.969-24.794,26.969Z" transform="translate(-501.545 -220.783)"/><path class="c" d="M812,377.7s13.763-9.909,17.069-3.854-8.8,15.416-8.8,15.416Z" transform="translate(-493.928 -216.821)"/><path class="h" d="M810.73,376.448s13.763-9.909,17.069-3.854-8.809,15.416-8.809,15.416Z" transform="translate(-493.278 -216.182)"/><path class="au" d="M810.73,376.448s13.763-9.909,17.069-3.854-8.809,15.416-8.809,15.416Z" transform="translate(-493.278 -216.182)"/><path class="c" d="M837.177,377.7s-13.763-9.909-17.069-3.854,8.809,15.416,8.809,15.416Z" transform="translate(-497.782 -216.821)"/><path class="h" d="M838.447,376.448s-13.763-9.909-17.069-3.854,8.809,15.416,8.809,15.416Z" transform="translate(-498.431 -216.182)"/><path class="au" d="M838.447,376.448s-13.763-9.909-17.069-3.854,8.809,15.416,8.809,15.416Z" transform="translate(-498.431 -216.182)"/><g transform="translate(282.564 203.991)"><path class="av" d="M753.6,474.33l-1.092-2.61-11.575,4.754a1.431,1.431,0,0,0-.87,1.3v12.506l3.345.387V478.745Z" transform="translate(-740.06 -471.72)"/></g><path class="a" d="M753.683,475.035l-.831-1.975-10.831,4.45a1.335,1.335,0,0,0-.831,1.235v11.688h2.14V479.28Z" transform="translate(-458.161 -268.524)"/><g class="aw" transform="translate(283.029 204.537)"><rect class="ap" width="2.332" height="7.39" transform="translate(8.765 -2.153)"/><rect class="ap" width="2.332" height="7.39" transform="translate(5.072 -0.596)"/><path class="ap" d="M585.706,422.616l-1.653.487-.683-7.873h2.336Z" transform="translate(-581.895 -416.896)"/><rect class="ap" width="2.332" height="7.39" transform="translate(-2.223 8.93) rotate(-90)"/><rect class="ap" width="2.332" height="7.39" transform="translate(-2.218 12.141) rotate(-90)"/><rect class="ap" width="2.332" height="7.39" transform="translate(-2.218 15.346) rotate(-90)"/></g><path class="ax" d="M579.606,454.34H553.65v4.093h1.77l3.61,33.142h15.512l3.206-33.333h1.857Z" transform="translate(-282.36 -230.966)"/><path class="ap" d="M577.021,492.919H562.732l-3.5-35h20.906Z" transform="translate(-285.636 -232.973)"/><rect class="ap" width="23.916" height="2.332" transform="translate(272.209 221.799)"/><circle class="ay" cx="5.929" cy="5.929" r="5.929" transform="translate(277.98 233.93)"/><circle class="ao" cx="5.446" cy="5.446" r="5.446" transform="translate(278.443 234.397)"/><g class="f" transform="translate(287.218 -0.423)"><path class="az" d="M802.957,99.805a5.82,5.82,0,0,0-5.307-.139l.226-.435a5.833,5.833,0,0,0-2.345-7.912h0a5.833,5.833,0,0,0-7.886,2.375l-1.988,3.663h0l4.106-7.569a5.276,5.276,0,0,0-2.123-7.156l-.979-.531a5.276,5.276,0,0,0-7.156,2.123l9.631-17.743a8.426,8.426,0,0,0-3.389-11.427L785.1,54.7a5.833,5.833,0,0,0-7.926,2.336L762.194,84.628h0L738.87,127.6l22.706,12.323a23.054,23.054,0,0,0,31.289-9.261l8.347-15.381h0l4.106-7.569A5.833,5.833,0,0,0,802.957,99.805Z" transform="translate(-738.87 -53.986)"/></g><path class="ad" d="M18.069,0h29V47.031H0V18.052A18.052,18.052,0,0,1,18.069,0Z" transform="translate(329.649 94.551) rotate(-151.51)"/><path class="ad" d="M0,0H11.227V9.335A4.567,4.567,0,0,1,6.66,13.9H4.567A4.567,4.567,0,0,1,0,9.335Z" transform="translate(349.81 60.24) rotate(-151.51)"/><path class="ad" d="M0,0H11.227V9.331A4.567,4.567,0,0,1,6.66,13.9H4.567A4.567,4.567,0,0,1,0,9.331Z" transform="translate(341.773 52.105) rotate(-151.51)"/><path class="ad" d="M0,0H11.227V9.77A4.132,4.132,0,0,1,7.095,13.9H4.132A4.132,4.132,0,0,1,0,9.77Z" transform="translate(332.705 43.464) rotate(-151.51)"/><path class="ad" d="M0,0H14.437V31.789A4.567,4.567,0,0,1,9.87,36.356H6.6a6.6,6.6,0,0,1-6.6-6.6Z" transform="translate(322.569 38.104) rotate(-151.51)"/><rect class="ba" width="6.416" height="26.734" rx="3.208" transform="translate(338.822 74.363) rotate(-151.51)"/><rect class="ba" width="6.416" height="26.734" rx="3.208" transform="translate(331.082 65.759) rotate(-151.51)"/><rect class="ba" width="6.416" height="26.734" rx="3.208" transform="translate(322.577 56.171) rotate(-151.51)"/><rect class="ba" width="6.416" height="26.734" rx="3.208" transform="translate(319.645 34.071) rotate(-151.51)"/><path class="ba" d="M782.931,182.708s8.308-5.22-.2-15.316l17.047-9s3.61-7.773-7.695-6-10.657,3.95-10.657,3.95" transform="translate(-478.174 -109.863)"/></g></svg>