<svg xmlns="http://www.w3.org/2000/svg" width="298.79" height="192.716" viewBox="0 0 298.79 192.716"><defs><style>.a{fill:#f2f2f2;}.b{fill:#3f3d56;}.c{fill:#6c63ff;}.d{opacity:0.1;}.e{fill:#444053;}.f{fill:#f6f8fb;}.g{fill:#ffc1c7;}.h{opacity:0.05;}.i{fill:#575a89;}.j{fill:#ff6584;}.k{opacity:0.03;}.l{fill:none;stroke:#3f3d56;stroke-miterlimit:10;stroke-width:4px;}.m{fill:#57b894;}.n{fill:#656380;}.o{opacity:0.2;}</style></defs><path class="a" d="M901.7,572.091l-28.79-49.881a.916.916,0,0,0-1.591,0l-28.8,49.881a.916.916,0,0,0,.8,1.388h8.591a.922.922,0,0,1,.919.919v10.657a.916.916,0,0,0,.913.919h11.209a.919.919,0,0,0,.919-.919V579.9a.916.916,0,0,1,.916-.916H877.44a.919.919,0,0,1,.919.916v5.145a.919.919,0,0,0,.919.919h11.206a.927.927,0,0,0,.922-.919V574.387a.919.919,0,0,1,.919-.919h8.591a.919.919,0,0,0,.783-1.377Zm-40.141,5.52a.928.928,0,0,1-.652.278h-4.043a.919.919,0,1,1,0-1.838h4.043a.916.916,0,0,1,.919.919A.927.927,0,0,1,861.558,577.61Zm26.453,0a.914.914,0,0,1-.65.278h-4.04a.919.919,0,0,1,0-1.838h4.04a.916.916,0,0,1,.65,1.569Z" transform="translate(-624.706 -404.821)"/><path class="a" d="M271.165,573.686l-28.8-49.879a.922.922,0,0,0-1.594,0L215.9,566.889a76.135,76.135,0,0,0,10.421,10.748h4.045a.919.919,0,0,1,.65,1.569.9.9,0,0,1-.65.278h-1.71a44.507,44.507,0,0,0,6.664,4.146V581.5a.922.922,0,0,1,.922-.919h10.654a.919.919,0,0,1,.919.919v5.142a.856.856,0,0,0,.086.386.911.911,0,0,0,.833.533h11.209a.908.908,0,0,0,.73-.369.881.881,0,0,0,.183-.555V575.985a.919.919,0,0,1,.919-.919h8.591a.916.916,0,0,0,.8-1.38Zm-19.036,4.22a.925.925,0,0,1,.652-.278h4.043a.919.919,0,1,1,0,1.838h-4.043a.916.916,0,0,1-.919-.919A.927.927,0,0,1,252.129,577.906Zm-18.087-18.459a.916.916,0,0,1-.919-.919v-6.98a.916.916,0,0,1,.919-.919h15.063a.919.919,0,0,1,.919.919v6.98a.919.919,0,0,1-.919.919Z" transform="translate(-174.168 -405.978)"/><path class="a" d="M532.909,332.729h-35.64v-7.708a1.841,1.841,0,0,0-1.844-1.844H484.96v-8.2a1.161,1.161,0,0,0-1.161-1.161h-13.48a1.161,1.161,0,0,0-1.161,1.161v8.21H456.85a1.844,1.844,0,0,0-1.844,1.844v7.688H421.032a.375.375,0,0,0-.372.375V435.426a.375.375,0,0,0,.372.375h22.585a.375.375,0,0,0,.375-.375V421.66a.38.38,0,0,1,.378-.375h9.538a.378.378,0,0,1,.375.375v13.766a.378.378,0,0,0,.372.375h44.631a.378.378,0,0,0,.375-.375V421.66a.378.378,0,0,1,.372-.375h9.54a.378.378,0,0,1,.378.375v13.766a.378.378,0,0,0,.372.375h22.587a.375.375,0,0,0,.372-.375V333.1a.375.375,0,0,0-.372-.375ZM439.946,416.5a.372.372,0,0,1-.369.372h-13.95a.375.375,0,0,1-.378-.372v-4.765a.378.378,0,0,1,.378-.375h13.95a.375.375,0,0,1,.369.375Zm0-12.311a.372.372,0,0,1-.369.375h-13.95a.375.375,0,0,1-.378-.375V399.43a.375.375,0,0,1,.378-.375h13.95a.372.372,0,0,1,.369.375Zm0-12.309a.375.375,0,0,1-.369.375h-13.95a.378.378,0,0,1-.378-.375v-4.765a.378.378,0,0,1,.378-.375h13.95a.375.375,0,0,1,.369.375Zm0-12.311a.372.372,0,0,1-.369.375h-13.95a.375.375,0,0,1-.378-.375V374.81a.375.375,0,0,1,.378-.375h13.95a.372.372,0,0,1,.369.375Zm0-12.309a.375.375,0,0,1-.369.375h-13.95a.378.378,0,0,1-.378-.375V362.5a.375.375,0,0,1,.378-.372h13.95a.372.372,0,0,1,.369.372Zm0-12.309a.372.372,0,0,1-.369.372h-13.95a.375.375,0,0,1-.378-.372V350.19a.378.378,0,0,1,.378-.375h13.95a.375.375,0,0,1,.369.375Zm0-12.311a.372.372,0,0,1-.369.375h-13.95a.375.375,0,0,1-.378-.375v-4.762a.375.375,0,0,1,.378-.375h13.95a.372.372,0,0,1,.369.375ZM473.021,416.5a.375.375,0,0,1-.378.372h-13.95a.372.372,0,0,1-.372-.372v-4.762a.375.375,0,0,1,.372-.375h13.95a.378.378,0,0,1,.378.375Zm0-12.311a.375.375,0,0,1-.378.375h-13.95a.372.372,0,0,1-.372-.375V399.43a.372.372,0,0,1,.372-.375h13.95a.375.375,0,0,1,.378.375Zm0-12.309a.378.378,0,0,1-.378.375h-13.95a.375.375,0,0,1-.372-.364v-4.773a.375.375,0,0,1,.372-.375h13.95a.378.378,0,0,1,.378.375Zm0-12.311a.375.375,0,0,1-.378.375h-13.95a.372.372,0,0,1-.372-.375V374.81a.372.372,0,0,1,.372-.375h13.95a.375.375,0,0,1,.378.375Zm0-12.309a.378.378,0,0,1-.378.375h-13.95a.375.375,0,0,1-.372-.375V362.5a.372.372,0,0,1,.372-.372h13.95a.375.375,0,0,1,.378.372Zm0-12.309a.375.375,0,0,1-.378.372h-13.95a.372.372,0,0,1-.372-.361V350.19a.375.375,0,0,1,.372-.375h13.95a.378.378,0,0,1,.378.375Zm0-12.311a.375.375,0,0,1-.378.375h-13.95a.372.372,0,0,1-.372-.375v-4.759a.372.372,0,0,1,.372-.375h13.95a.375.375,0,0,1,.378.375Zm22.6,73.857a.372.372,0,0,1-.375.372H481.284a.378.378,0,0,1-.378-.372v-4.759a.38.38,0,0,1,.378-.375h13.947a.375.375,0,0,1,.375.375Zm0-12.311a.372.372,0,0,1-.375.375H481.284a.378.378,0,0,1-.378-.375V399.43a.378.378,0,0,1,.378-.375h13.947a.372.372,0,0,1,.375.375Zm0-12.309a.375.375,0,0,1-.375.375H481.284a.38.38,0,0,1-.378-.375v-4.759a.38.38,0,0,1,.378-.375h13.947a.375.375,0,0,1,.375.375Zm0-12.311a.372.372,0,0,1-.375.375H481.284a.378.378,0,0,1-.378-.375V374.81a.378.378,0,0,1,.378-.375h13.947a.372.372,0,0,1,.375.375Zm0-12.309a.375.375,0,0,1-.375.375H481.284a.38.38,0,0,1-.378-.375V362.5a.378.378,0,0,1,.378-.372h13.947a.372.372,0,0,1,.375.372Zm0-12.309a.372.372,0,0,1-.375.372H481.284a.378.378,0,0,1-.378-.372V350.19a.38.38,0,0,1,.378-.375h13.947a.375.375,0,0,1,.375.375Zm0-12.311a.372.372,0,0,1-.375.375H481.284a.378.378,0,0,1-.378-.375v-4.756a.378.378,0,0,1,.378-.375h13.947a.372.372,0,0,1,.375.375ZM528.691,416.5a.378.378,0,0,1-.378.372h-13.95a.369.369,0,0,1-.372-.372v-4.756a.372.372,0,0,1,.372-.375h13.95a.38.38,0,0,1,.378.375Zm0-12.311a.378.378,0,0,1-.378.375h-13.95a.372.372,0,0,1-.372-.375V399.43a.372.372,0,0,1,.372-.375h13.95a.378.378,0,0,1,.378.375Zm0-12.309a.38.38,0,0,1-.378.375h-13.95a.372.372,0,0,1-.372-.358v-4.773a.372.372,0,0,1,.372-.375h13.95a.38.38,0,0,1,.378.375Zm0-12.311a.378.378,0,0,1-.378.375h-13.95a.372.372,0,0,1-.372-.375V374.81a.372.372,0,0,1,.372-.375h13.95a.378.378,0,0,1,.378.375Zm0-12.309a.38.38,0,0,1-.378.375h-13.95a.372.372,0,0,1-.372-.375V362.5a.369.369,0,0,1,.372-.372h13.95a.378.378,0,0,1,.378.372Zm0-12.309a.378.378,0,0,1-.378.372h-13.95a.369.369,0,0,1-.372-.355V350.19a.372.372,0,0,1,.372-.375h13.95a.38.38,0,0,1,.378.375Zm0-12.311a.378.378,0,0,1-.378.375h-13.95a.372.372,0,0,1-.372-.375v-4.753a.372.372,0,0,1,.372-.375h13.95a.378.378,0,0,1,.378.375Z" transform="translate(-321.004 -254.627)"/><path class="a" d="M157.587,299.191a20.661,20.661,0,0,0,1.6-2.355L147.9,294.982l12.217.092a20.594,20.594,0,0,0,.4-16.307l-16.382,8.5,15.107-11.106A20.583,20.583,0,1,0,125.243,299.2a20.518,20.518,0,0,0-2.346,3.754l14.644,7.6-15.624-5.245a20.6,20.6,0,0,0,3.332,19.328,20.444,20.444,0,0,0-3.69,7.344,205.048,205.048,0,0,0,9.69,23.276,20.378,20.378,0,0,0,6.386,2.335,7.138,7.138,0,0,0-.405,2.391,6.789,6.789,0,0,0,.866,3.437,6.664,6.664,0,0,0-.877,2.932h0a126.59,126.59,0,0,0,8.358,12.495,6.316,6.316,0,0,0-.677-1.666,7.055,7.055,0,0,0,0-6.875,7.055,7.055,0,0,0,0-6.875,6.789,6.789,0,0,0,.894-3.437,7.049,7.049,0,0,0-.416-2.424,20.583,20.583,0,0,0,12.217-32.922,20.577,20.577,0,0,0,0-25.45Z" transform="translate(-105.498 -220.592)"/><path class="a" d="M1061.688,372.934l-.833-.136h.816a35.25,35.25,0,0,0-1.688-9.249l-2.9,1.508,2.732-2.016a35.439,35.439,0,0,0-13.536-17.751,20.658,20.658,0,0,0-8.083,31.722,20.575,20.575,0,0,0-2.346,3.762l14.66,7.636-15.624-5.256a20.68,20.68,0,0,0,3.332,19.369,20.661,20.661,0,0,0,9.135,32.145c1.111-2.635,2.191-5.389,3.2-8.221.894-2.5,1.746-5.045,2.549-7.616a234.087,234.087,0,0,0,5.875-22.923c1.777-8.807,2.776-16.5,2.776-21.38C1061.725,373.992,1061.711,373.464,1061.688,372.934Z" transform="translate(-762.962 -277.807)"/><ellipse class="b" cx="148.715" cy="6.941" rx="148.715" ry="6.941" transform="translate(0 178.834)"/><path class="c" d="M458.022,410.7c-2.76-4.781-14.161-3.374-25.436,3.143a54.184,54.184,0,0,0-5.659,3.751,49.048,49.048,0,0,0-97.869,1.233,52.619,52.619,0,0,0-7.219-5c-11.253-6.5-22.657-7.91-25.414-3.129s4.165,13.938,15.441,20.455c7.305,4.218,14.649,6.292,19.672,5.939a49.1,49.1,0,0,0,14.944,21.935c-9.89,1.388-17.162,6.014-17.162,11.517,0,6.592,10.443,11.939,23.323,11.939s23.323-5.348,23.323-11.939v-.053q1.038.044,2.085.047t2.085-.047v.053c0,6.592,10.443,11.939,23.323,11.939s23.323-5.348,23.323-11.939c0-5.5-7.272-10.132-17.162-11.517a49.1,49.1,0,0,0,14.932-21.893c4.912-.128,11.5-2.185,18.048-5.97C453.88,424.634,460.8,415.475,458.022,410.7Z" transform="translate(-230.943 -296.971)"/><path class="d" d="M296.426,505.341c2.76-4.781,14.161-3.374,25.436,3.143a52.545,52.545,0,0,1,7.111,4.9,15.8,15.8,0,0,0,.1-2.416,52.634,52.634,0,0,0-7.219-4.981c-11.27-6.517-22.674-7.924-25.431-3.143a5.259,5.259,0,0,0-.469,3.721A4.443,4.443,0,0,1,296.426,505.341Z" transform="translate(-231.413 -389.613)"/><path class="d" d="M798.883,505.341c-2.76-4.781-14.161-3.374-25.439,3.143a33.729,33.729,0,0,0-5.72,3.787,15.119,15.119,0,0,1-.1-2.416,33.791,33.791,0,0,1,5.831-3.871c11.29-6.517,22.679-7.924,25.439-3.143a5.258,5.258,0,0,1,.469,3.721A4.444,4.444,0,0,0,798.883,505.341Z" transform="translate(-571.225 -389.618)"/><ellipse class="e" cx="5.087" cy="6.661" rx="5.087" ry="6.661" transform="translate(128.813 107.827)"/><ellipse class="e" cx="5.087" cy="6.661" rx="5.087" ry="6.661" transform="translate(155.277 107.827)"/><path class="b" d="M540.391,577.717c0,9.563-15.974,25.672-32.092,25.672s-31.489-16.474-31.489-26.028,15.046-.833,31.151-.833S540.391,568.152,540.391,577.717Z" transform="translate(-361.655 -442.012)"/><path class="f" d="M491.063,596.16s28.974,6.45,53.31.183c0,0,2.979,0,.944,3.443a5.5,5.5,0,0,1-2.221,2.088c-4.692,2.4-22.06,9.482-49.831.447a5.464,5.464,0,0,1-3.621-3.707C489.328,597.446,489.47,596.324,491.063,596.16Z" transform="translate(-370.826 -458.89)"/><path class="d" d="M463.835,378.631a49.045,49.045,0,0,1,48.956,46.136q.139-1.829.139-3.7a49.048,49.048,0,1,0-98.1,0c0,.98.035,1.944.09,2.918A49.051,49.051,0,0,1,463.835,378.631Z" transform="translate(-316.891 -297.268)"/><path class="b" d="M578.532,151.061a6.286,6.286,0,1,1-12.572,0v-.3a6.286,6.286,0,0,1,12.556,0A2.207,2.207,0,0,1,578.532,151.061Z" transform="translate(-426.053 -133.824)"/><path class="d" d="M578.532,160.75a6.286,6.286,0,1,1-12.572,0v-.3a9.923,9.923,0,0,1,12.556,0A2.207,2.207,0,0,1,578.532,160.75Z" transform="translate(-426.053 -143.513)"/><circle class="b" cx="9.926" cy="9.926" r="9.926" transform="translate(136.266 15.252)"/><path class="b" d="M562.664,146.006a6.289,6.289,0,0,1,5.453-6.231,6.286,6.286,0,1,0,0,12.461A6.289,6.289,0,0,1,562.664,146.006Z" transform="translate(-422.496 -130.157)"/><path class="b" d="M539.892,189.1a6.286,6.286,0,0,1-1.058-8.213,6.286,6.286,0,1,0,8.827,8.916,6.031,6.031,0,0,0,.511-.664A6.283,6.283,0,0,1,539.892,189.1Z" transform="translate(-404.957 -159.896)"/><path class="g" d="M564.254,231.421a5.435,5.435,0,0,0-1.469.5c-.833.575-.8,1.794-.555,2.777a7.66,7.66,0,0,0,4.045,5.275,9.824,9.824,0,0,0,4.076.591c1.508-.017,3.2-.208,4.137-1.388a5.451,5.451,0,0,0,.847-2.071,16.5,16.5,0,0,0,.758-5.506,3.638,3.638,0,0,1-2.643-.441,5.524,5.524,0,0,1-1.194-2.579.65.65,0,0,0-.233-.367.711.711,0,0,0-.416-.064,16.443,16.443,0,0,1-2.857-.142c-.591-.078-2.046-.694-2.5-.175-.325.38-.119,1.527-.367,2.057a2.876,2.876,0,0,1-1.63,1.53Z" transform="translate(-423.252 -193.411)"/><path class="h" d="M564.254,231.421a5.435,5.435,0,0,0-1.469.5c-.833.575-.8,1.794-.555,2.777a7.66,7.66,0,0,0,4.045,5.275,9.824,9.824,0,0,0,4.076.591c1.508-.017,3.2-.208,4.137-1.388a5.451,5.451,0,0,0,.847-2.071,16.5,16.5,0,0,0,.758-5.506,3.638,3.638,0,0,1-2.643-.441,5.524,5.524,0,0,1-1.194-2.579.65.65,0,0,0-.233-.367.711.711,0,0,0-.416-.064,16.443,16.443,0,0,1-2.857-.142c-.591-.078-2.046-.694-2.5-.175-.325.38-.119,1.527-.367,2.057a2.876,2.876,0,0,1-1.63,1.53Z" transform="translate(-423.252 -193.411)"/><path class="e" d="M362.568,471.947a35.132,35.132,0,0,0-6.664.461,1.708,1.708,0,0,0-1.077.555,1.557,1.557,0,0,0,.114,1.583,4.917,4.917,0,0,0,2.81,2.335,15.061,15.061,0,0,0,4.129.305,13.81,13.81,0,0,1,5.448,1.311,2.2,2.2,0,0,0,1.224.325c.614-.094,1-.708,1.224-1.286a15.689,15.689,0,0,0,.614-2.13c.322-1.369.366-4.073-1.513-4.443-.861-.167-1.874.428-2.7.6a20.1,20.1,0,0,1-3.607.383Z" transform="translate(-273.824 -368.694)"/><path class="e" d="M780.873,437.086a2.561,2.561,0,0,0,1.3-.994c.833-1.213.833-2.663,1.274-3.993.555-1.73,1.785-3.157,2.557-4.8a9.93,9.93,0,0,0,.927-4.72.833.833,0,0,0-.974-.777,4.7,4.7,0,0,0-2.663,1.827c-.858,1.111-1.419,2.432-2.3,3.529a35.276,35.276,0,0,1-3.163,2.985c-1.313,1.266-2.343,2.643-1.172,4.287C777.61,435.775,778.926,437.724,780.873,437.086Z" transform="translate(-577.477 -333.261)"/><path class="i" d="M443.283,342.919a89.209,89.209,0,0,1-25.545,22.538,63.184,63.184,0,0,0-8.866,5.636,46.842,46.842,0,0,0-5.487,5.786,1.388,1.388,0,0,0-.389.711,1.363,1.363,0,0,0,.1.572c.555,1.638,1.2,3.415,2.682,4.309,3.843-5.553,11.478-6.989,17.334-10.348a77.5,77.5,0,0,0,7.711-5.375q5.442-4.073,11.126-7.8a31.02,31.02,0,0,1,7.983-4.129c6.108-1.827,12.772,0,18.414,3s10.609,7.1,16.138,10.287c7.513,4.332,15.9,6.886,24.2,9.4.3-1.994.478-3.948.9-5.92a24.8,24.8,0,0,1-5.961-1.913,35.348,35.348,0,0,1-6.267-3.118c-1.28-.866-2.443-1.9-3.71-2.777-2.76-1.944-5.959-3.165-8.755-5.051-3.643-2.454-6.461-5.928-9.793-8.791-1.452-1.247-3-2.377-4.542-3.5a17.49,17.49,0,0,0-11.989-4.281C453.318,341.761,448.256,341.245,443.283,342.919Z" transform="translate(-308.33 -275.536)"/><circle class="g" cx="6.941" cy="6.941" r="6.941" transform="translate(139.112 23.026)"/><path class="j" d="M552.165,245.986a8.33,8.33,0,0,1-3.5-1.277,5.1,5.1,0,0,1-2.135-2.982,17.017,17.017,0,0,0-.494-2.96,26.5,26.5,0,0,1-3.887,1.577,6.274,6.274,0,0,0-2.149.95c-1.313,1.069-1.388,3.013-1.352,4.7a3.128,3.128,0,0,0,.125.991,2.5,2.5,0,0,0,.541.816c1.427,1.527,3.646,2.16,5,3.762A5.356,5.356,0,0,0,543,254.388a9.961,9.961,0,0,1-.178,1.255,7.755,7.755,0,0,1-.408,1c-.877,2-.847,4.259-.98,6.436s-.511,4.5-1.983,6.108a3.284,3.284,0,0,0,2.252.914c.864.081,1.758-.033,2.638,0,2.321.067,4.512,1.016,6.75,1.635s4.779.872,6.758-.342c.694-.425,1.283-1.011,1.98-1.43a9.747,9.747,0,0,1,2.777-.983l.347-11.6a19.7,19.7,0,0,1,.175-2.43c.5-3.171,2.527-5.856,4.487-8.4a7.683,7.683,0,0,0-3.523-5.72,15.1,15.1,0,0,0-2.777-1.288l-2.282-.877a1.271,1.271,0,0,0-.65-.122c-.494.089-.683.691-.711,1.191-.044.789.072,1.58.044,2.368a3.206,3.206,0,0,1-.783,2.18,3.764,3.764,0,0,1-1.388.789C554.378,245.522,553.4,246.169,552.165,245.986Z" transform="translate(-406.313 -201.241)"/><path class="g" d="M542.351,346.668a20.378,20.378,0,0,1-.078,4.637,6.924,6.924,0,0,1-2.06,4.065c-.9.791-2.157,1.388-2.38,2.574a1.389,1.389,0,0,0,.061.777,1.477,1.477,0,0,0,1.6.747,3.729,3.729,0,0,0,1.666-.872,36.808,36.808,0,0,0,2.76-2.5,6.588,6.588,0,0,0,1.9-2.577,6.364,6.364,0,0,0,.225-1.5c.18-2.777.228-5.553.278-8.33a15.5,15.5,0,0,0-.689-5.986c.111.278-2.593.541-2.8.555-1.166.1-.944.583-.877,1.683Q542.154,343.314,542.351,346.668Z" transform="translate(-405.783 -272.676)"/><path class="g" d="M616.63,346.668a20.382,20.382,0,0,0,.078,4.637,6.925,6.925,0,0,0,2.06,4.065c.9.791,2.157,1.388,2.38,2.574a1.389,1.389,0,0,1-.061.777,1.478,1.478,0,0,1-1.6.747,3.729,3.729,0,0,1-1.666-.872,36.813,36.813,0,0,1-2.76-2.5,6.589,6.589,0,0,1-1.9-2.577,6.361,6.361,0,0,1-.225-1.5c-.18-2.777-.228-5.553-.278-8.33a15.5,15.5,0,0,1,.688-5.986c-.111.278,2.593.541,2.8.555,1.166.1.944.583.877,1.683Q616.839,343.314,616.63,346.668Z" transform="translate(-459.699 -272.676)"/><path class="d" d="M540.161,261.7a13.994,13.994,0,0,0,.419,8.988,4.685,4.685,0,0,1,.417,2.188,6.882,6.882,0,0,1-.344,1.111,5.26,5.26,0,0,0-.15,2.7,1.688,1.688,0,0,0,.308.744,3.455,3.455,0,0,1,.278.322c.38.594-.367,1.33-.278,2.032.067.583.658.927,1.072,1.347,1.169,1.186.944,3.115.639,4.754,1.419-.125,2.643-1.286,4.065-1.191a2.432,2.432,0,0,1,2.094,1.613,30.587,30.587,0,0,1,.555-3.918c.158-1.785-1-3.385-1.555-5.084-.813-2.477-.355-5.167-.555-7.774a25.973,25.973,0,0,0-.422-2.885c-.253-1.3-.622-2.732-1.727-3.474C543.552,262.222,541.408,262.894,540.161,261.7Z" transform="translate(-407.071 -217.933)"/><path class="j" d="M539.161,259.7a13.994,13.994,0,0,0,.419,8.988,4.686,4.686,0,0,1,.417,2.188,6.886,6.886,0,0,1-.344,1.111,5.26,5.26,0,0,0-.15,2.7,1.689,1.689,0,0,0,.308.744,3.465,3.465,0,0,1,.278.322c.38.594-.367,1.33-.278,2.032.067.583.658.927,1.072,1.347,1.169,1.186.944,3.115.639,4.754,1.419-.125,2.643-1.286,4.065-1.191a2.432,2.432,0,0,1,2.094,1.613,30.586,30.586,0,0,1,.555-3.918c.158-1.785-1-3.385-1.555-5.084-.814-2.477-.355-5.167-.555-7.774a25.943,25.943,0,0,0-.422-2.885c-.253-1.3-.622-2.732-1.727-3.474C542.552,260.222,540.408,260.894,539.161,259.7Z" transform="translate(-406.35 -216.492)"/><path class="d" d="M615.935,261.7a13.993,13.993,0,0,1-.419,8.988,4.685,4.685,0,0,0-.417,2.188,6.887,6.887,0,0,0,.344,1.111,5.257,5.257,0,0,1,.15,2.7,1.687,1.687,0,0,1-.308.744,3.478,3.478,0,0,0-.278.322c-.38.594.367,1.33.278,2.032-.067.583-.658.927-1.072,1.347-1.169,1.186-.944,3.115-.639,4.754-1.419-.125-2.643-1.286-4.065-1.191a2.432,2.432,0,0,0-2.094,1.613,30.587,30.587,0,0,0-.555-3.918c-.158-1.785,1-3.385,1.555-5.084.814-2.477.355-5.167.555-7.774a26,26,0,0,1,.417-2.871c.253-1.3.622-2.732,1.727-3.473C612.545,262.222,614.689,262.894,615.935,261.7Z" transform="translate(-455.518 -217.933)"/><path class="j" d="M616.936,259.7a13.994,13.994,0,0,1-.419,8.988,4.684,4.684,0,0,0-.417,2.188,6.879,6.879,0,0,0,.344,1.111,5.258,5.258,0,0,1,.15,2.7,1.689,1.689,0,0,1-.308.744,3.451,3.451,0,0,0-.278.322c-.38.594.367,1.33.278,2.032-.067.583-.658.927-1.072,1.347-1.169,1.186-.944,3.115-.639,4.754-1.419-.125-2.643-1.286-4.065-1.191a2.432,2.432,0,0,0-2.094,1.613,30.576,30.576,0,0,0-.555-3.918c-.158-1.785,1-3.385,1.555-5.084.813-2.477.355-5.167.555-7.774a25.985,25.985,0,0,1,.416-2.871c.253-1.3.622-2.732,1.727-3.473C613.545,260.222,615.689,260.894,616.936,259.7Z" transform="translate(-456.238 -216.492)"/><ellipse class="b" cx="8.33" cy="5.553" rx="8.33" ry="5.553" transform="translate(137.584 17.89)"/><path class="h" d="M561.155,285.607a3.887,3.887,0,0,1,3.61-3.887h-.278a3.887,3.887,0,0,0,0,7.774,1.846,1.846,0,0,0,.278-.014A3.887,3.887,0,0,1,561.155,285.607Z" transform="translate(-422.219 -232.386)"/><ellipse class="j" cx="3.054" cy="3.887" rx="3.054" ry="3.887" transform="translate(138.946 49.331)"/><path class="h" d="M610.21,285.607a3.887,3.887,0,0,0-3.61-3.887h.278a3.887,3.887,0,0,1,0,7.774,1.884,1.884,0,0,1-.278-.014A3.887,3.887,0,0,0,610.21,285.607Z" transform="translate(-455.36 -232.386)"/><ellipse class="j" cx="3.054" cy="3.887" rx="3.054" ry="3.887" transform="translate(148.731 49.331)"/><path class="d" d="M565.93,194c-4.459,0-8.1-2.338-8.33-5.276V189c0,3.054,3.732,5.553,8.33,5.553s8.33-2.5,8.33-5.553v-.278C574.035,191.658,570.392,194,565.93,194Z" transform="translate(-420.016 -165.552)"/><path class="a" d="M326.863,114.756l-4.309,2.735,2.616-4.759a4.262,4.262,0,0,0-2.6-.93H322.5a5.024,5.024,0,0,1-.894-.064l-1.46.925.625-1.138a5.2,5.2,0,0,1-2.554-1.944l-2.613,1.666,1.66-3.007a7.652,7.652,0,0,0-5.856-2.96,8.03,8.03,0,0,0-6.7,4.137,5,5,0,0,1-4.443,2.388h-.144c-3,0-5.434,3.4-5.434,7.6s2.432,7.6,5.434,7.6a4.084,4.084,0,0,0,1.891-.472,7.843,7.843,0,0,1,6.578-.131,6.861,6.861,0,0,0,5.592,0,7.849,7.849,0,0,1,6.517.125,4.087,4.087,0,0,0,1.874.464c3,0,5.434-3.4,5.434-7.6a9.655,9.655,0,0,0-1.136-4.634Z" transform="translate(-230.591 -105.28)"/><path class="k" d="M318.742,151.65a8.024,8.024,0,0,0-4.656.508,6.855,6.855,0,0,1-5.589,0,7.844,7.844,0,0,0-6.578.128,4.054,4.054,0,0,1-1.891.475c-2.668,0-4.884-2.685-5.348-6.228a5.117,5.117,0,0,0,1.333-1.438,7.487,7.487,0,0,1,13.366-.044,5.142,5.142,0,0,0,4.429,2.432h.069C316.01,147.468,317.848,149.17,318.742,151.65Z" transform="translate(-230.607 -131.053)"/><path class="a" d="M898.8,298.72l-2.149,1.363,1.3-2.371a2.121,2.121,0,0,0-1.3-.464h-.033a2.668,2.668,0,0,1-.447-.033l-.727.461.311-.555a2.61,2.61,0,0,1-1.274-.969l-1.3.833.833-1.5A3.818,3.818,0,0,0,891.085,294a3.977,3.977,0,0,0-3.332,2.063,2.5,2.5,0,0,1-2.221,1.191h-.072c-1.5,0-2.71,1.7-2.71,3.79s1.213,3.784,2.71,3.784a2.033,2.033,0,0,0,.944-.236,3.915,3.915,0,0,1,3.282-.064,3.418,3.418,0,0,0,2.777,0,3.909,3.909,0,0,1,3.251.064,2.024,2.024,0,0,0,.933.23c1.5,0,2.71-1.7,2.71-3.79A4.836,4.836,0,0,0,898.8,298.72Z" transform="translate(-654.241 -241.226)"/><path class="k" d="M894.8,317.109a4.01,4.01,0,0,0-2.324.253,3.409,3.409,0,0,1-1.388.294,3.446,3.446,0,0,1-1.388-.3,3.887,3.887,0,0,0-3.279.064,2.04,2.04,0,0,1-.944.236c-1.33,0-2.438-1.341-2.668-3.107a2.567,2.567,0,0,0,.666-.716,3.731,3.731,0,0,1,6.664-.022,2.565,2.565,0,0,0,2.221,1.213h.036A2.794,2.794,0,0,1,894.8,317.109Z" transform="translate(-654.311 -254.038)"/><path class="a" d="M779.346,177.186l3.454,2.191-2.1-3.812a3.412,3.412,0,0,1,2.088-.747h.056a4.11,4.11,0,0,0,.716-.056l1.169.744-.5-.913a4.164,4.164,0,0,0,2.046-1.572l2.094,1.327-1.322-2.4a6.124,6.124,0,0,1,4.692-2.374,6.433,6.433,0,0,1,5.37,3.315,4.015,4.015,0,0,0,3.548,1.913h.119c2.4,0,4.351,2.727,4.351,6.089s-1.944,6.089-4.351,6.089a3.279,3.279,0,0,1-1.519-.378,6.278,6.278,0,0,0-5.276-.105,5.5,5.5,0,0,1-4.481,0,6.28,6.28,0,0,0-5.223.1,3.271,3.271,0,0,1-1.5.369c-2.4,0-4.354-2.727-4.354-6.089A7.729,7.729,0,0,1,779.346,177.186Z" transform="translate(-579.04 -151.719)"/><path class="k" d="M805.17,206.694a6.417,6.417,0,0,1,3.729.405,5.5,5.5,0,0,0,4.481,0,6.289,6.289,0,0,1,5.276.1,3.265,3.265,0,0,0,1.519.38c2.135,0,3.912-2.152,4.281-5a4.149,4.149,0,0,1-1.066-1.152,6.006,6.006,0,0,0-10.718-.036,4.123,4.123,0,0,1-3.548,1.944h-.056C807.358,203.362,805.886,204.717,805.17,206.694Z" transform="translate(-598.342 -172.342)"/><path class="l" d="M280.633,637.687c-1.147-2.121.153-4.72,1.647-6.611s3.318-3.862,3.279-6.272c-.056-3.465-3.734-5.511-6.664-7.347a32.487,32.487,0,0,1-5.986-4.806,8.742,8.742,0,0,1-1.841-2.463,10.041,10.041,0,0,1-.555-4.381q.192-7.414.733-14.816" transform="translate(-213.202 -454.838)"/><path class="m" d="M253.065,576.584a5.389,5.389,0,0,1,2.7-4.443l1.208,2.391-.042-2.885a5.331,5.331,0,0,1,1.78-.214,5.4,5.4,0,1,1-5.645,5.151Z" transform="translate(-200.645 -441.072)"/><path class="m" d="M286.23,701.2a5.4,5.4,0,1,0-.261-4.351l3.374,2.746-3.712-.861A5.322,5.322,0,0,0,286.23,701.2Z" transform="translate(-224.109 -528.761)"/><path class="m" d="M283.989,655.788a5.4,5.4,0,0,0,1.713-10.6l.028,2.221-1.224-2.424h-.014a5.405,5.405,0,1,0-.5,10.8Z" transform="translate(-219.214 -494.056)"/><path class="m" d="M236.757,624.371a5.4,5.4,0,1,0-2.391-10.112l.955,2.618-1.963-1.888a5.381,5.381,0,0,0-1.746,3.732,5.275,5.275,0,0,0,.136,1.488A5.4,5.4,0,0,0,236.757,624.371Z" transform="translate(-185.513 -471.431)"/><path class="d" d="M254.111,585.712c1.247.139,2.46.525,3.712.6a4.031,4.031,0,0,0,3.415-1.194,17.1,17.1,0,0,0,1-1.758,3.838,3.838,0,0,1,1.361-1.283,5.4,5.4,0,1,1-10.1,3.587A5.5,5.5,0,0,1,254.111,585.712Z" transform="translate(-200.963 -448.762)"/><path class="d" d="M237.1,632.418a5.406,5.406,0,0,0,5.139-7.708,3.98,3.98,0,0,0-1.088,1.088,17.241,17.241,0,0,1-1.069,1.785,4.405,4.405,0,0,1-3.585,1.252c-1.3-.061-2.563-.428-3.862-.555-.178-.017-.361-.028-.555-.033A5.4,5.4,0,0,0,237.1,632.418Z" transform="translate(-185.855 -479.473)"/><path class="d" d="M284.615,664.118a5.4,5.4,0,0,0,5.184-7.608,4.352,4.352,0,0,0-1.144,1.111,18.122,18.122,0,0,1-1.172,1.821,4.944,4.944,0,0,1-3.826,1.341c-1.338-.028-2.627-.358-3.957-.458A5.409,5.409,0,0,0,284.615,664.118Z" transform="translate(-219.838 -502.382)"/><path class="d" d="M287.79,710.219a5.4,5.4,0,0,0,9.849-4.409,5.435,5.435,0,0,0-1.186,1.058,21.187,21.187,0,0,1-1.447,1.919,6.776,6.776,0,0,1-4.476,1.574A23.6,23.6,0,0,1,287.79,710.219Z" transform="translate(-225.666 -537.777)"/><path class="l" d="M864,661.875c-.833-1.566.114-3.487,1.219-4.884s2.449-2.852,2.418-4.631c-.039-2.56-2.757-4.07-4.926-5.428a23.958,23.958,0,0,1-4.426-3.56,6.539,6.539,0,0,1-1.361-1.821,7.422,7.422,0,0,1-.408-3.235q.142-5.475.555-10.945" transform="translate(-635.369 -481.117)"/><path class="m" d="M843.64,616.761a4,4,0,0,1,1.994-3.271l.894,1.769-.028-2.141a4.051,4.051,0,0,1,1.316-.158,3.993,3.993,0,1,1-4.165,3.8Z" transform="translate(-626.114 -471.004)"/><path class="m" d="M868.146,708.867a3.99,3.99,0,1,0-.194-3.213l2.5,2.03-2.74-.636A3.945,3.945,0,0,0,868.146,708.867Z" transform="translate(-643.455 -535.784)"/><path class="m" d="M866.472,675.221a3.993,3.993,0,0,0,4.165-3.8,3.941,3.941,0,0,0-.344-1.816,4,4,0,0,0-2.563-2.221l.019,1.646-.9-1.791h0a4,4,0,0,0-.375,7.983Z" transform="translate(-639.819 -509.912)"/><path class="m" d="M831.584,652.057a3.993,3.993,0,1,0-1.763-7.469l.705,1.944-1.452-1.388a3.965,3.965,0,0,0-1.288,2.754,3.888,3.888,0,0,0,.1,1.111A3.99,3.99,0,0,0,831.584,652.057Z" transform="translate(-614.688 -493.423)"/><path class="d" d="M844.439,623.512c.919.1,1.816.389,2.74.447a2.979,2.979,0,0,0,2.524-.883,11.978,11.978,0,0,0,.739-1.3,2.853,2.853,0,0,1,1.005-.947A3.986,3.986,0,1,1,844,623.479C844.136,623.484,844.278,623.5,844.439,623.512Z" transform="translate(-626.374 -476.688)"/><path class="d" d="M831.858,658.012a4,4,0,0,0,3.8-5.692,3,3,0,0,0-.805.8,11.893,11.893,0,0,1-.789,1.319,3.268,3.268,0,0,1-2.649.927c-.963-.044-1.891-.319-2.852-.405-.133-.014-.278-.022-.4-.025A3.99,3.99,0,0,0,831.858,658.012Z" transform="translate(-614.963 -499.374)"/><path class="d" d="M866.946,681.387a3.993,3.993,0,0,0,4.165-3.8,3.94,3.94,0,0,0-.344-1.816,3.215,3.215,0,0,0-.833.811,13.673,13.673,0,0,1-.866,1.344,3.693,3.693,0,0,1-2.827.991c-1.022-.025-1.944-.264-2.921-.339a3.987,3.987,0,0,0,3.626,2.81Z" transform="translate(-640.293 -516.078)"/><path class="d" d="M869.28,715.534a11.375,11.375,0,1,1,6.4-2.474,16.2,16.2,0,0,1-1.069,1.419,5,5,0,0,1-3.3,1.161A16.935,16.935,0,0,1,869.28,715.534Z" transform="translate(-644.588 -542.451)"/><path class="l" d="M992.353,644.694c1.147-2.121-.153-4.72-1.646-6.611s-3.332-3.862-3.279-6.272c.056-3.465,3.734-5.512,6.664-7.347a32.487,32.487,0,0,0,5.989-4.806,8.742,8.742,0,0,0,1.841-2.463,10.042,10.042,0,0,0,.555-4.382q-.175-7.425-.73-14.813" transform="translate(-729.473 -459.902)"/><path class="m" d="M1031.03,583.562a5.4,5.4,0,0,0-2.7-4.443l-1.211,2.393.039-2.9a5.339,5.339,0,0,0-1.78-.214,5.4,5.4,0,1,0,5.65,5.159Z" transform="translate(-753.167 -446.093)"/><path class="m" d="M997.863,708.2a5.4,5.4,0,1,1,.261-4.351L994.75,706.6l3.712-.861A5.322,5.322,0,0,1,997.863,708.2Z" transform="translate(-729.638 -533.817)"/><path class="m" d="M1000.077,662.788a5.4,5.4,0,0,1-1.713-10.6l-.028,2.221,1.238-2.424h0a5.405,5.405,0,1,1,.5,10.8Z" transform="translate(-734.52 -499.098)"/><path class="m" d="M1047.346,631.371a5.4,5.4,0,1,1,2.391-10.112l-.955,2.618,1.963-1.888a5.4,5.4,0,0,1-3.4,9.382Z" transform="translate(-768.672 -476.473)"/><path class="d" d="M1030.307,592.712c-1.247.139-2.46.525-3.712.6a4.031,4.031,0,0,1-3.415-1.194,17.121,17.121,0,0,1-1-1.758,3.834,3.834,0,0,0-1.36-1.283,5.4,5.4,0,1,0,10.1,3.587A5.766,5.766,0,0,0,1030.307,592.712Z" transform="translate(-753.171 -453.805)"/><path class="d" d="M1047.334,639.418a5.406,5.406,0,0,1-5.139-7.708,3.986,3.986,0,0,1,1.088,1.088,17.213,17.213,0,0,0,1.069,1.785,4.406,4.406,0,0,0,3.585,1.252c1.3-.061,2.563-.428,3.862-.555.178-.017.361-.028.555-.033A5.4,5.4,0,0,1,1047.334,639.418Z" transform="translate(-768.661 -484.515)"/><path class="d" d="M1000.094,671.118a5.4,5.4,0,0,1-5.184-7.608,4.348,4.348,0,0,1,1.144,1.111,18.142,18.142,0,0,0,1.172,1.821,4.945,4.945,0,0,0,3.826,1.341c1.338-.028,2.627-.358,3.957-.458A5.409,5.409,0,0,1,1000.094,671.118Z" transform="translate(-734.537 -507.222)"/><path class="d" d="M997.986,717.219a15.346,15.346,0,1,0-8.649-3.351,21.148,21.148,0,0,0,1.447,1.919,6.776,6.776,0,0,0,4.476,1.574A23.59,23.59,0,0,0,997.986,717.219Z" transform="translate(-729.761 -542.834)"/><path class="n" d="M276.83,747.375s4.262-.133,5.553-1.047,6.561-2.007,6.88-.555,6.408,7.3,1.594,7.339-11.187-.75-12.47-1.53S276.83,747.375,276.83,747.375Z" transform="translate(-217.763 -566.135)"/><path class="o" d="M290.938,758.6c-4.815.039-11.187-.75-12.47-1.53-.977-.594-1.366-2.729-1.5-3.715h-.142s.278,3.437,1.552,4.22,7.655,1.569,12.47,1.53c1.388,0,1.869-.505,1.844-1.236C292.5,758.322,291.974,758.6,290.938,758.6Z" transform="translate(-217.763 -572.125)"/><path class="n" d="M865,747.981s2.5-.075,3.24-.611,3.829-1.172,4.015-.314,3.74,4.259.93,4.281-6.531-.436-7.28-.894S865,747.981,865,747.981Z" transform="translate(-641.495 -567.268)"/><path class="o" d="M873.224,754.533c-2.81.022-6.531-.439-7.28-.894-.555-.347-.8-1.594-.872-2.169H865s.158,2.007.905,2.463,4.47.919,7.28.894c.811,0,1.091-.294,1.074-.722C874.138,754.366,873.827,754.527,873.224,754.533Z" transform="translate(-641.495 -570.759)"/><path class="n" d="M975.83,751.375s4.262-.133,5.553-1.047,6.561-2.007,6.88-.555,6.408,7.3,1.594,7.339-11.187-.75-12.47-1.53S975.83,751.375,975.83,751.375Z" transform="translate(-721.096 -569.024)"/><path class="o" d="M989.938,762.6c-4.815.039-11.187-.75-12.47-1.53-.977-.594-1.366-2.729-1.5-3.715h-.142s.278,3.437,1.552,4.22,7.655,1.569,12.47,1.53c1.388,0,1.869-.505,1.844-1.236C991.5,762.322,990.974,762.6,989.938,762.6Z" transform="translate(-721.096 -575.014)"/></svg>