<svg xmlns="http://www.w3.org/2000/svg" xmlns:xlink="http://www.w3.org/1999/xlink" width="308.955" height="259.496" viewBox="0 0 308.955 259.496"><defs><style>.a{fill:#f5f5f5;}.b,.r,.s,.t{fill:#6c63ff;}.b{opacity:0.2;}.c,.r{opacity:0.5;}.d{fill:url(#a);}.e{fill:#4a4347;}.f{fill:#27373f;}.g,.h{opacity:0.1;}.i{fill:#a1616a;}.j{fill:#e1e7ef;}.k{fill:#5a5773;}.l{fill:url(#b);}.m{fill:#fff;}.n{fill:#e0e0e0;}.o{fill:#ff4157;}.p{opacity:0.05;}.q{fill:none;stroke:#535461;stroke-miterlimit:10;stroke-width:2px;}.s{opacity:0.4;}.t{opacity:0.3;}</style><linearGradient id="a" y1="0.5" x2="0.999" y2="0.5" gradientUnits="objectBoundingBox"><stop offset="0" stop-color="gray" stop-opacity="0.251"/><stop offset="0.54" stop-color="gray" stop-opacity="0.122"/><stop offset="1" stop-color="gray" stop-opacity="0.102"/></linearGradient><linearGradient id="b" x1="0.5" y1="1" x2="0.5" y2="0" xlink:href="#a"/></defs><g transform="translate(0.001 0.005)"><ellipse class="a" cx="124.782" cy="35.652" rx="124.782" ry="35.652" transform="translate(59.389 188.186)"/><path class="b" d="M173.977,86.105a22.112,22.112,0,0,0-8.514,1.005c-7.334,2.735-10.81,11.68-9.68,19.427s5.779,14.475,10.6,20.639,10.05,12.25,12.7,19.609c1.319,3.676,1.936,7.794.6,11.462-2.068,5.658-8.3,8.82-14.289,9.476s-12-.624-18-1.07a18.745,18.745,0,0,0-7.487.627,19.274,19.274,0,0,0-6.774,4.66c-7.79,7.523-14.026,17.79-13.017,28.572,1.141,12.222,11.316,21.883,22.461,27.064,3.69,1.718,7.594,3.109,10.842,5.562,8.557,6.467,10.478,18.585,9.626,29.285s-3.754,21.409-2.139,32.016a38.6,38.6,0,0,0,21.655,28.682c10.107,4.635,22.757,4.346,31.73-2.21,4.374-3.209,7.683-7.633,10.56-12.222a105.482,105.482,0,0,0,10.5-22.062c1.251-3.676,2.428-7.63,5.348-10.186a16.726,16.726,0,0,1,6.378-3.137c6.888-2.061,14.143-2.628,21.1-4.46s13.947-5.248,17.726-11.355c5.348-8.667,2.852-19.751,2.877-29.948.043-23.231,13.944-44.03,19.074-66.67,1.676-7.4,2.3-15.591-1.444-22.19-2.546-4.5-6.835-7.712-11.345-10.207-9.911-5.5-21.177-7.954-32.262-10.339-15.405-3.309-34.112-3.736-46.052-14.439C205.279,93.428,189.6,86.105,173.977,86.105Z" transform="translate(-120 -86.08)"/><g class="c" transform="translate(37.387 10.993)"><path class="d" d="M297.339,195.875a53.665,53.665,0,0,0-2.6-16.485l-4.281-13.274v-.656c.132-8.5-6.5-12.746-9.048-12.286-2.613.471-9.865-3.166-9.865-3.166v.1a13.576,13.576,0,0,1-1.341-1.833,11.63,11.63,0,0,0,2.392-16.464,5.109,5.109,0,0,0,1.722-2.31,5.871,5.871,0,0,0-.824-5.048,9.784,9.784,0,0,0-1.426-1.7,18.055,18.055,0,0,0-2.66-2.175,20.217,20.217,0,0,0-7.843-3.565,3.266,3.266,0,0,0-1.5,0,6.222,6.222,0,0,0-1.216.656c-1.954,1.112-4.385.631-6.638.513s-4.991.513-5.7,2.628a19.3,19.3,0,0,0-.357,2.029c-.357,1.64-1.622,2.913-2.6,4.278s-1.708,3.209-.895,4.692c.278.5.713.959.713,1.529a4.378,4.378,0,0,1-.357,1.169,2.474,2.474,0,0,0,.931,2.428,3.953,3.953,0,0,0,1.07.816c1.13.578,2.431.756,3.583,1.291a5.886,5.886,0,0,1,1.562,1.07,6.139,6.139,0,0,1,1.7,4.432l.239.025v.21c.25.029.513.053.774.064a11.768,11.768,0,0,0,1.28,1.7q-.121.456-.275.927c-.838.581-7.69,5.145-15.484,4.047-8.318-1.173-13.074,35.192-13.074,35.192a41.591,41.591,0,0,0-.449,6.282c-.036,5.348,1.087,12.346,7.344,11.316l3.326-1.095V221.2s.474,4.927-1.187,8.2,5.23,2.111,5.23,2.111.264.275.749.742l-.153.431.2.207a47.162,47.162,0,0,1-3.647,8.945l.2.1c-.125.239-.2.357-.2.357s2.56,1.308,6.082,2.995c2.831,9.569,9.027,31.73,6.988,35.952l.057.121h0c.381.791,2.513,5.458,2.082,9.733-.389,3.822,4.9,21.188,6.877,27.495l-.934.189,3.326,11.965-.713,7.744s-4.039,10.792,5.465,8.681,6.892-10.792,6.892-10.792l.239-17.6s-.916-.51-2.046-1c-.777-2.1-2.471-7.063-2.471-10.5,0-4.457-3.091-23.7-3.091-23.7v-.135l-.018-.257v-.043c0-.239-.039-.567-.068-.966v-.021c-.357-5.2-1.426-22.874-.645-32.087A20.6,20.6,0,0,1,266.9,248.8c2.314,5.847,8.278,21.644,7.9,28.272-.474,8.2-.118,1.761,0,.713.036-.324.061.068.071.948V282.2c0,.713,0,1.5-.025,2.328v.5c0,.5,0,1.016-.025,1.537,0,.713-.029,1.4-.043,2.121-.036,1.6-.082,3.227-.139,4.745q0,.253-.018.5-.018.5-.039.977t-.043.934q-.021.453-.046.881c-.018.335-.039.656-.057.963l-1.291-.185-.275,2.966a32.251,32.251,0,0,0,1.783,13.9c.442,1.219.784,2.228.859,2.588.239,1.173,0,9.626,0,9.626s1.426,11.027,8.082,8.913c2.995-.952,4.449-3.847,5.145-6.749a16.735,16.735,0,0,0-.824-10.079c-.945-2.374-1.911-5.7-1.23-8.278a51.247,51.247,0,0,0,1.187-10.792l-.734-.1a11.716,11.716,0,0,0,.5-1.07s-.239-16.19,1.9-18.3c1.176-1.162,1.07-3.954.713-6.236a42.664,42.664,0,0,1-.357-9.983,15.87,15.87,0,0,1,.6-3.74c.627-1.241,1.255-13.747-1.522-19.765l.57-.178-.089-.442.089-.029a34.929,34.929,0,0,0,1.426,3.284,1.3,1.3,0,0,0,.474.235c7.7-1.351,8.007-8.535,7.58-12.457.324.157.5.257.5.257l.713-10.339a14.947,14.947,0,0,0,.984-6.036C301.246,206.556,297.339,195.875,297.339,195.875Zm-8.485,29.388c-.528-4.5-1.259-8.742-1.259-8.742L284.03,203.85v-4.613l5.654,21.106Z" transform="translate(-224.868 -116.925)"/></g><path class="e" d="M358.67,614.93l-.264,2.9a31.9,31.9,0,0,0,1.729,13.6c.424,1.194.756,2.178.827,2.531.228,1.148,0,9.4,0,9.4s1.376,10.778,7.8,8.713c2.888-.927,4.278-3.761,4.963-6.6a16.557,16.557,0,0,0-.8-9.847c-.913-2.321-1.847-5.583-1.187-8.089A50.6,50.6,0,0,0,372.885,617Z" transform="translate(-273.327 -426.387)"/><path class="f" d="M340.09,460.866s8.942,21.783,8.482,29.805-.114,1.718,0,.688c.2-1.836,0,19.965-.688,22.461,0,0,9.4,6.877,13.07-2.292,0,0-.228-15.819,1.832-17.883,1.134-1.134,1.023-3.865.688-6.093a42.228,42.228,0,0,1-.356-9.744,14.786,14.786,0,0,1,.581-3.654c.688-1.376,1.376-16.967-2.752-21.324Z" transform="translate(-261.624 -322.079)"/><path class="g" d="M349.038,513.869c.688-2.521.891-24.308.688-22.461-.114,1.03-.46,7.337,0-.688s-8.482-29.805-8.482-29.805l20-7.694c-.093-.118-.189-.228-.285-.332L340.1,460.915s8.942,21.784,8.482,29.805-.114,1.718,0,.688c.2-1.836,0,19.965-.688,22.461,0,0,3.754,2.745,7.444,2.453A14.131,14.131,0,0,1,349.038,513.869Z" transform="translate(-261.63 -322.118)"/><path class="e" d="M318.22,670.11l3.209,11.694-.688,7.565s-3.9,10.546,5.273,8.482,6.649-10.546,6.649-10.546l.228-17.195s-3.669-2.064-5.273-1.833S318.22,670.11,318.22,670.11Z" transform="translate(-247.551 -460.703)"/><path class="f" d="M273.85,459.94s10.546,34.162,8.025,39.435c0,0,2.521,5.045,2.064,9.626s7.337,29.117,7.337,29.117l11.466-2.064s-2.752-6.877-2.752-11.234-2.98-23.174-2.98-23.174-2.521-34.394.46-38.062Z" transform="translate(-219 -326.654)"/><g class="h" transform="translate(54.85 133.286)"><path d="M336.164,478c-1.9,7.786.2,36.44.2,36.44s2.981,18.8,2.981,23.174c0,3.326,1.6,8.118,2.36,10.2l.62-.111s-2.752-6.877-2.752-11.234-2.981-23.174-2.981-23.174S334.674,487.109,336.164,478Z" transform="translate(-313.436 -471.561)"/><path d="M296.36,570.119l.057.118c.018-.118.036-.242.046-.357A2.519,2.519,0,0,1,296.36,570.119Z" transform="translate(-288.335 -530.684)"/><path d="M296.949,464.71a3.377,3.377,0,0,1,.517-1.1L273.85,459.94s.139.446.378,1.241Z" transform="translate(-273.85 -459.94)"/></g><path class="i" d="M409.335,421.9s3.44,12.835-6.877,14.674a1.255,1.255,0,0,1-.46-.228s-5.961-11.694-1.376-16.279Z" transform="translate(-299.459 -300.999)"/><path class="i" d="M294.749,186s.688,9.626-6.877,14.215,16.043,17.2,16.043,17.2L316.3,197.69s-5.269.681-8.478-8.482Z" transform="translate(-227.061 -150.38)"/><path class="g" d="M273.375,227.78s11.694,24.3,22.24,1.376l16.279,80.7s-25.224,7.8-25.448,11.466-25.445-9.4-25.445-9.4,5.5-10.09,4.129-16.279S273.375,227.78,273.375,227.78Z" transform="translate(-210.731 -177.264)"/><path class="j" d="M273.375,226.49s11.694,24.3,22.24,1.376l16.279,80.706s-25.224,7.8-25.448,11.466-25.445-9.4-25.445-9.4,5.5-10.09,4.129-16.279S273.375,226.49,273.375,226.49Z" transform="translate(-210.731 -176.434)"/><path class="e" d="M326.71,679.459s-2.981-6.649,3.9-6.649,5.733,5.961,5.733,5.961Z" transform="translate(-252.601 -463.632)"/><path class="k" d="M370.619,629.967s-2.752-7.109,4.129-7.337,3.44,6.417,3.44,6.417Z" transform="translate(-280.919 -431.338)"/><path class="g" d="M355.2,212s6.991,3.565,9.516,3.095,9.17,3.9,8.713,12.61l4.143,13a53.087,53.087,0,0,1,2.5,16.118h0s5.961,16.507,2.752,23.844l-.688,10.09s-5.273-2.98-10.778-2.064l1.387-8.239-6.2-23.391L356.22,232.069Z" transform="translate(-271.347 -167.11)"/><path class="f" d="M355.2,210.73s6.991,3.565,9.516,3.095,9.17,3.9,8.713,12.61l4.143,13a53.087,53.087,0,0,1,2.5,16.118h0s5.961,16.507,2.752,23.844l-.688,10.09s-5.273-2.98-10.778-2.064l1.376-8.254-6.193-23.384L356.23,230.791Z" transform="translate(-271.347 -166.293)"/><path class="g" d="M366.78,253.485v25.908l3.44,12.382s2.292,13.526,1.6,17.655-11.694,5.045-14.674,1.6-1.376-32.8-1.376-32.8l-.574-42.979.46-1.376Z" transform="translate(-271.347 -181.19)"/><path class="f" d="M368.1,252.74v25.908l3.44,12.382s2.292,13.526,1.6,17.655-11.694,5.045-14.674,1.6-1.376-32.8-1.376-32.8L356.52,234.5Z" transform="translate(-272.196 -181.589)"/><path class="g" d="M259.38,264.588l7.337,22.817-3.44,9.744s16.279,17.2,26.6,8.942c0,0,1.148-35.082-1.148-43.335s-13.3-36.009-13.3-36.009l-2.278-7.327L261,226.3Z" transform="translate(-209.689 -171.885)"/><path class="f" d="M255.246,261.329V283.79s.46,4.817-1.148,8.025,5.045,2.064,5.045,2.064,16.279,17.2,26.6,8.942c0,0,1.148-35.082-1.148-43.335s-13.3-36.009-13.3-36.009L269,216.14l-12.15,6.877Z" transform="translate(-206.128 -169.774)"/><path class="g" d="M256.96,204.95s-6.991,5.159-15.017,4.011-12.61,34.394-12.61,34.394-2.981,18.343,6.649,16.739l21.323-7.109s-4.585-4.817-3.9-11.006L243.088,246.1l.464-19.716Z" transform="translate(-190.074 -162.574)"/><path class="g" d="M230.614,308.9s-2.981,18.343,6.649,16.739l21.324-7.109s-4.585-4.813-3.9-11.006l-10.314,4.129Z" transform="translate(-190.898 -228.575)"/><path class="i" d="M297.51,303.257s7.155-9.409,12.425-4.891-10.535,12.8-10.535,12.8Z" transform="translate(-234.225 -221.895)"/><path class="f" d="M256.96,203.66s-6.991,5.159-15.017,4.011-12.61,34.394-12.61,34.394-2.981,18.343,6.649,16.739l21.323-7.109s-4.585-4.817-3.9-11.006l-10.321,4.129.464-19.719,11.694-9.626Z" transform="translate(-190.074 -161.744)"/><path class="g" d="M323.364,190.469l-13.07-3.209s.681.77-.114,3.783c2.1,2.414,4.688,5.619,8.139,5.619a11.409,11.409,0,0,0,6.852-2.271A20.617,20.617,0,0,1,323.364,190.469Z" transform="translate(-242.378 -151.191)"/><circle class="i" cx="11.466" cy="11.466" r="11.466" transform="translate(64.248 22.083)"/><path class="g" d="M300.893,136.914c2.66-.453,5.583-1.633,6.474-4.178a5.8,5.8,0,0,0-.8-4.934,13.5,13.5,0,0,0-3.711-3.565,19.254,19.254,0,0,0-7.58-3.48,3.112,3.112,0,0,0-1.447,0,5.977,5.977,0,0,0-1.173.642c-1.886,1.087-4.232.617-6.417.5s-4.806.5-5.494,2.567c-.214.638-.2,1.326-.357,1.982-.357,1.6-1.565,2.852-2.5,4.189s-1.647,3.145-.863,4.585c.267.488.713.938.713,1.494a4.632,4.632,0,0,1-.357,1.144c-.324,1.184.62,2.378,1.711,2.941s2.346.738,3.458,1.262a6.061,6.061,0,0,1,3.376,5.612c1.012.118,2.193.178,2.877-.578.307-.339.456-.791.734-1.152a7.787,7.787,0,0,1,1.369-1.127c2.4-1.972.7-4.7,2.054-6.82.713-1.095,1.847-.759,2.995-.742a26.46,26.46,0,0,0,4.927-.346Z" transform="translate(-220.833 -108.342)"/><path class="e" d="M300.253,136.274c2.66-.453,5.583-1.633,6.474-4.178a5.8,5.8,0,0,0-.8-4.934,13.5,13.5,0,0,0-3.711-3.565,19.253,19.253,0,0,0-7.58-3.48,3.112,3.112,0,0,0-1.447,0,5.974,5.974,0,0,0-1.173.642c-1.886,1.087-4.232.617-6.417.5s-4.806.5-5.494,2.567c-.214.638-.2,1.326-.357,1.982-.357,1.6-1.565,2.852-2.5,4.189s-1.647,3.145-.863,4.585c.267.488.713.938.713,1.494a4.634,4.634,0,0,1-.356,1.144c-.324,1.184.62,2.378,1.711,2.941s2.346.738,3.458,1.262a6.061,6.061,0,0,1,3.387,5.626c1.013.118,2.193.178,2.877-.578.307-.339.456-.791.734-1.152a7.786,7.786,0,0,1,1.369-1.127c2.4-1.972.7-4.7,2.054-6.82.713-1.095,1.847-.759,2.995-.742A26.46,26.46,0,0,0,300.253,136.274Z" transform="translate(-220.422 -107.93)"/><path class="g" d="M382.85,273.76s2.521,13.07,1.376,18.115a16.811,16.811,0,0,0,.3,8.885" transform="translate(-289.139 -206.852)"/><path class="g" d="M267.97,289.19s-1.1,8.713.731,10.546" transform="translate(-215.006 -216.78)"/><path d="M447.165,588.45a.535.535,0,1,0-.535-.535A.535.535,0,0,0,447.165,588.45Z" transform="translate(-330.18 -408.659)"/><g class="c" transform="translate(86.677 42.324)"><path class="l" d="M558.094,279.968v-.3l-97.273-74.8a.357.357,0,0,0-.424,0l-97.277,74.8V395.613h.185v.185H558.283V279.857Z" transform="translate(-363.12 -204.804)"/></g><path class="m" d="M440.823,312.172H252.58V200.224L346.7,127.85l94.122,72.374Z" transform="translate(-162.531 -82.272)"/><path class="n" d="M446.275,317.505H271.58V213.615l87.348-67.165,87.348,67.165Z" transform="translate(-174.757 -94.241)"/><rect class="o" width="110.165" height="140.113" transform="translate(107.24 78.593) rotate(-14.69)"/><rect class="a" width="110.165" height="140.113" transform="translate(129.623 71.247)"/><path class="p" d="M255.08,331.35,349.2,387.324,255.08,443.3Z" transform="translate(-164.139 -213.22)"/><path class="m" d="M253.08,331.35,347.2,387.324,253.08,443.3Z" transform="translate(-162.852 -213.22)"/><path class="p" d="M609.2,331.35,515.08,387.324,609.2,443.3Z" transform="translate(-331.444 -213.22)"/><path class="m" d="M611.2,331.35,517.08,387.324,611.2,443.3Z" transform="translate(-332.731 -213.22)"/><path class="p" d="M253.08,507.793,347.2,434.35l94.122,73.443Z" transform="translate(-162.852 -279.498)"/><path class="m" d="M253.08,512.793,347.2,439.35l94.122,73.443Z" transform="translate(-162.852 -282.716)"/><path class="q" d="M423.371,662.831s-4.727-16.043.888-27.859a25.345,25.345,0,0,0,2.05-15.9,42.627,42.627,0,0,0-2.25-7.462" transform="translate(-314.016 -424.251)"/><path class="f" d="M425.58,584.235c0,1.968-3.565,7.669-3.565,7.669s-3.565-5.7-3.565-7.669a3.565,3.565,0,1,1,7.13,0Z" transform="translate(-312.047 -404.342)"/><path class="f" d="M442.079,611.546c-1.07,1.651-7.159,4.5-7.159,4.5s.11-6.724,1.18-8.375a3.565,3.565,0,0,1,5.979,3.872Z" transform="translate(-322.645 -420.757)"/><path class="f" d="M438.983,661.148c-1.758.884-8.453.275-8.453.275s3.49-5.747,5.244-6.631a3.565,3.565,0,1,1,3.209,6.36Z" transform="translate(-319.82 -451.745)"/><path class="f" d="M429.846,701.413c-1.583,1.169-8.286,1.7-8.286,1.7s2.467-6.253,4.05-7.423a3.565,3.565,0,0,1,4.235,5.726Z" transform="translate(-314.048 -477.967)"/><path class="f" d="M412.171,624.092c1.426,1.369,7.983,2.792,7.983,2.792s-1.608-6.528-3.02-7.9a3.565,3.565,0,0,0-4.963,5.109Z" transform="translate(-307.386 -428.422)"/><path class="f" d="M400.156,669.085c1.758.884,8.453.275,8.453.275s-3.49-5.747-5.244-6.631a3.565,3.565,0,0,0-3.209,6.36Z" transform="translate(-299.101 -456.94)"/><path class="f" d="M396.586,715.642c1.583,1.169,8.286,1.7,8.286,1.7s-2.467-6.253-4.05-7.423a3.565,3.565,0,1,0-4.236,5.726Z" transform="translate(-296.957 -486.991)"/><rect class="r" width="44.209" height="3.565" transform="translate(136.041 77.665)"/><rect class="r" width="95.548" height="3.565" transform="translate(136.041 91.926)"/><rect class="r" width="95.548" height="3.565" transform="translate(136.041 101.195)"/><rect class="s" width="95.548" height="3.565" transform="translate(136.041 110.465)"/><rect class="s" width="95.548" height="3.565" transform="translate(136.041 119.734)"/><rect class="t" width="54.548" height="3.565" transform="translate(136.041 129.004)"/><rect class="t" width="74.513" height="3.565" transform="translate(136.041 138.273)"/></g></svg>