<svg xmlns="http://www.w3.org/2000/svg" width="38.25" height="38.257" viewBox="0 0 38.25 38.257"><defs><style>.a{fill:#ff4157;}</style></defs><path class="a" d="M34.757,3.545a12.1,12.1,0,0,0-18.614,15.3l-.224.224a2.187,2.187,0,0,0-.492,2.326L13.16,23.656,12.9,23.4a.3.3,0,0,0-.416-.006L.694,34.478A2.213,2.213,0,1,0,3.83,37.6L14.913,25.819a.3.3,0,0,0-.006-.416l-.261-.261,2.267-2.266a2.2,2.2,0,0,0,.781.146,2.175,2.175,0,0,0,1.544-.638l.222-.222a12.106,12.106,0,0,0,15.3-18.616Zm-2.11,15.007a9.119,9.119,0,1,1,0-12.9A9.064,9.064,0,0,1,32.647,18.552Z" transform="translate(-0.047)"/></svg>