<svg xmlns="http://www.w3.org/2000/svg" xmlns:xlink="http://www.w3.org/1999/xlink" width="289.007" height="201.519" viewBox="0 0 289.007 201.519"><defs><style>.a{fill:#6c63ff;}.a,.f,.h,.i,.o{opacity:0.1;}.b{fill:#27373f;}.c,.i{fill:#444053;}.d,.f{fill:rgba(46,40,206,0.72);}.e{fill:#3f3d56;}.g{fill:#fff;}.j{fill:url(#a);}.k{fill:#a1616a;}.l{opacity:0.15;}.m{fill:#ff4157;}.n{fill:#fbbebe;}.p{fill:#3acc6c;}</style><linearGradient id="a" x1="0.5" y1="1" x2="0.5" gradientUnits="objectBoundingBox"><stop offset="0" stop-color="gray" stop-opacity="0.251"/><stop offset="0.54" stop-color="gray" stop-opacity="0.122"/><stop offset="1" stop-color="gray" stop-opacity="0.102"/></linearGradient></defs><g transform="translate(0 0.005)"><path class="a" d="M204.042,88.754c-18.522-.648-36.163-6.675-53.011-13.267S117.5,61.59,99.417,58.1c-11.627-2.248-24.926-2.566-34.3,3.717C56.1,67.859,53.192,78.3,51.624,87.98c-1.178,7.287-1.87,14.953,1.358,21.775,2.241,4.734,6.222,8.714,8.965,13.249,9.578,15.784,2.818,35.244-7.572,50.656-4.867,7.227-10.518,14.124-14.273,21.819s-5.487,16.512-2.185,24.374c3.258,7.78,11.015,13.624,19.434,17.735,17.07,8.335,37.2,10.725,56.83,12.077,43.454,2.994,87.14,1.7,130.709.4,16.122-.483,32.318-.968,48.179-3.482,8.809-1.394,17.9-3.614,24.3-8.954,8.117-6.786,10.131-18.277,4.69-26.788-9.124-14.274-34.352-17.81-40.728-33.137-3.512-8.43.095-17.823,5.2-25.642,10.943-16.778,29.286-31.491,30.252-50.666.666-13.164-8.153-26.359-21.788-32.59-14.293-6.53-34.109-5.71-44.655,5.1C239.478,85.042,220.4,89.325,204.042,88.754Z" transform="translate(-36.099 -56.63)"/><path class="b" d="M925.732,737.356a6.447,6.447,0,0,0-2.633-.28.847.847,0,0,0,.157,1.686,7.777,7.777,0,0,0,1.6-.3Z" transform="translate(-694.685 -557.771)"/><path class="b" d="M936.034,738.61a6.436,6.436,0,0,1,.644,2.571.848.848,0,0,1-1.692.079,7.868,7.868,0,0,1,.071-1.627Z" transform="translate(-704.363 -559.01)"/><path class="b" d="M933.5,717.365s-.529-1.661-3.765-1.017a1.326,1.326,0,0,0,.042,2.613h.063A3.29,3.29,0,0,0,933.5,717.365Z" transform="translate(-699.092 -541.288)"/><path class="b" d="M949.38,721.3s1.738.136,1.847,3.43a1.326,1.326,0,0,1-2.552.556.18.18,0,0,0-.023-.061A3.3,3.3,0,0,1,949.38,721.3Z" transform="translate(-704.454 -545.321)"/><path class="b" d="M946.836,690.788a3.458,3.458,0,0,0-2.334-2.606A1.815,1.815,0,0,0,943.3,691.6a6.837,6.837,0,0,0,2.769.4Z" transform="translate(-699.588 -519.055)"/><path class="b" d="M956.8,665.218a4.545,4.545,0,0,0-3.179-2.51,1.936,1.936,0,0,0-.766,3.792,8.021,8.021,0,0,0,3.276.027Z" transform="translate(-706.884 -506.732)"/><path class="b" d="M964.889,640.272a5.191,5.191,0,0,0-3.347-2.3,1.681,1.681,0,0,0-.742,3.273,7.811,7.811,0,0,0,3.92-.054Z" transform="translate(-713.358 -488.446)"/><path class="b" d="M972.954,614.875a5.4,5.4,0,0,0-2.929-2.328,1.693,1.693,0,0,0-1.046,3.219,5.955,5.955,0,0,0,3.794-.015Z" transform="translate(-719.902 -469.51)"/><path class="b" d="M975.738,588.762a7.263,7.263,0,0,0-2.541-3,1.75,1.75,0,0,0-1.883,2.947,5.3,5.3,0,0,0,4.25.968Z" transform="translate(-722.046 -449.364)"/><path class="b" d="M976.7,562.082A7.115,7.115,0,0,0,974,559.154a1.8,1.8,0,0,0-1.837,3.091,4.627,4.627,0,0,0,4.359.7Z" transform="translate(-722.689 -429.641)"/><path class="b" d="M977.756,537.214a12.821,12.821,0,0,0-2.51-2.855,1.4,1.4,0,0,0-1.826,2.115,6.269,6.269,0,0,0,4.277,1.968Z" transform="translate(-723.945 -411.133)"/><path class="b" d="M975.122,510.376a18.8,18.8,0,0,0-2.836-3.665,1.176,1.176,0,0,0-1.673,1.65,10.882,10.882,0,0,0,4.641,3.125Z" transform="translate(-721.836 -390.5)"/><path class="b" d="M972.318,485.667a16.773,16.773,0,0,0-2.265-2.8,1.182,1.182,0,0,0-1.69,1.65,8.647,8.647,0,0,0,4.24,2.665Z" transform="translate(-720.046 -372.846)"/><path class="b" d="M969.647,460.6a26.734,26.734,0,0,0-2.177-2.587.979.979,0,0,0-1.447,1.316,6,6,0,0,0,3.639,2.265Z" transform="translate(-718.261 -354.521)"/><path class="b" d="M966.1,433.029a27.264,27.264,0,0,0-2.092-3.441.856.856,0,0,0-1.4.983,7.624,7.624,0,0,0,3.4,2.977Z" transform="translate(-715.637 -333.324)"/><path class="b" d="M965.3,406.671s-.517-.876-1.255-1.9a.9.9,0,0,0-1.489,1,4.5,4.5,0,0,0,2.64,2.2Z" transform="translate(-715.597 -314.958)"/><path class="b" d="M966.9,379.525l-.655-3.274a.688.688,0,0,0-1.36.209,7.388,7.388,0,0,0,2.148,4.662Z" transform="translate(-717.558 -293.464)"/><path class="b" d="M971.735,348.035h0a.642.642,0,0,0-1.226.351,16.583,16.583,0,0,0,.661,2.677Z" transform="translate(-722.002 -272.816)"/><path class="b" d="M962.673,700.031a3.457,3.457,0,0,1,3.422.736,1.816,1.816,0,0,1-2.374,2.742A6.873,6.873,0,0,1,962,701.3Z" transform="translate(-715.279 -528.363)"/><path class="b" d="M975.5,673.579a4.541,4.541,0,0,1,3.9,1.063,1.937,1.937,0,0,1-2.592,2.874,8.01,8.01,0,0,1-1.972-2.617Z" transform="translate(-725.434 -514.68)"/><path class="b" d="M985.026,647.191a5.194,5.194,0,0,1,3.974-.883,1.68,1.68,0,0,1-.535,3.313,7.823,7.823,0,0,1-3.614-1.516Z" transform="translate(-733.35 -494.619)"/><path class="b" d="M992.129,620.057a5.392,5.392,0,0,1,3.581-1.069,1.693,1.693,0,0,1-.236,3.376,5.943,5.943,0,0,1-3.514-1.433Z" transform="translate(-738.973 -474.386)"/><path class="b" d="M995.2,591.731a7.284,7.284,0,0,1,3.014-2.523,1.751,1.751,0,0,1,1.378,3.215,5.3,5.3,0,0,1-4.374.241Z" transform="translate(-741.535 -452.08)"/><path class="b" d="M995.55,563.5a7.087,7.087,0,0,1,3.05-2.543,1.8,1.8,0,0,1,1.418,3.3,4.625,4.625,0,0,1-4.413.13Z" transform="translate(-741.812 -431.086)"/><path class="b" d="M993.67,534.386a12.829,12.829,0,0,1,1.841-3.326,1.4,1.4,0,0,1,2.236,1.673,6.238,6.238,0,0,1-3.765,2.838Z" transform="translate(-740.325 -408.437)"/><path class="b" d="M992.9,506.92a18.72,18.72,0,0,1,1.7-4.321,1.172,1.172,0,0,1,2.058,1.119,10.842,10.842,0,0,1-3.585,4.3Z" transform="translate(-739.716 -387.142)"/><path class="b" d="M987.1,481.847a16.791,16.791,0,0,1,1.728-3.3,1.179,1.179,0,0,1,1.983,1.272,8.686,8.686,0,0,1-3.687,3.556Z" transform="translate(-735.129 -369.427)"/><path class="b" d="M982.48,456.632a26.856,26.856,0,0,1,.906-3.257.979.979,0,0,1,1.864.594,6.006,6.006,0,0,1-2.368,3.573Z" transform="translate(-731.476 -350.711)"/><path class="b" d="M979.27,430.469a27.146,27.146,0,0,1,1.255-3.83.857.857,0,0,1,1.589.638,7.622,7.622,0,0,1-2.631,3.673Z" transform="translate(-728.937 -330.956)"/><path class="b" d="M974.46,406.7s.2-1,.554-2.2a.9.9,0,0,1,1.738.452A4.506,4.506,0,0,1,975,407.9Z" transform="translate(-725.133 -314.504)"/><path class="b" d="M974.18,379.34l1.138-3.137a.689.689,0,0,1,1.311.418,7.338,7.338,0,0,1-2.82,4.288Z" transform="translate(-724.619 -293.524)"/><path class="b" d="M975.219,349.187s.178-.142.45-.366a.564.564,0,0,1,.755.837,10.663,10.663,0,0,1-3.093,1.962Z" transform="translate(-724.24 -273.631)"/><path class="b" d="M981.122,324.8a41.182,41.182,0,0,1,2.269-4.041.418.418,0,0,0-.678-.479,12.132,12.132,0,0,0-1.824,4.227Z" transform="translate(-730.218 -252.29)"/><path class="c" d="M973.69,356.92l.242-.025c-1.046-9.749-.6-15.761,1.224-16.926l-.132-.209C973.088,341,972.627,346.932,973.69,356.92Z" transform="translate(-724.083 -265.695)"/><path class="c" d="M979.121,442.146l.362-.054c-.136-.9-.293-1.818-.469-2.719-1.523-7.913-2.707-15.228-3.3-20.783l-.266-.209c.594,5.566,1.673,13.134,3.207,21.057C978.828,440.332,978.985,441.246,979.121,442.146Z" transform="translate(-725.916 -322.857)"/><path class="c" d="M910.885,578.334A47.461,47.461,0,0,0,921.4,565.851a52.71,52.71,0,0,0,6.191-15.435,61.611,61.611,0,0,0,.475-22.136l-.326.261c2.51,16.646-2.278,29.57-6.746,37.042a46.879,46.879,0,0,1-10.408,12.362Z" transform="translate(-674.622 -392.674)"/><ellipse class="d" cx="13.92" cy="2.677" rx="13.92" ry="2.677" transform="translate(26.662 180.267)"/><ellipse class="e" cx="1.621" cy="2.121" rx="1.621" ry="2.121" transform="translate(38.727 179.686)"/><ellipse class="e" cx="1.621" cy="2.121" rx="1.621" ry="2.121" transform="translate(38.727 177.092)"/><ellipse class="e" cx="1.621" cy="2.121" rx="1.621" ry="2.121" transform="translate(38.727 174.5)"/><ellipse class="e" cx="1.621" cy="2.121" rx="1.621" ry="2.121" transform="translate(38.727 171.907)"/><ellipse class="e" cx="1.621" cy="2.121" rx="1.621" ry="2.121" transform="translate(38.727 169.313)"/><ellipse class="e" cx="1.621" cy="2.121" rx="1.621" ry="2.121" transform="translate(38.727 159.679)"/><ellipse class="e" cx="1.621" cy="2.121" rx="1.621" ry="2.121" transform="translate(38.727 156.488)"/><path class="d" d="M205.273,542.411a7.641,7.641,0,0,0,.6-.889l-4.259-.7,4.6.033a7.769,7.769,0,0,0,.148-6.15l-6.179,3.2,5.7-4.183a7.764,7.764,0,1,0-12.822,8.687,7.837,7.837,0,0,0-.885,1.416l5.528,2.872-5.89-1.979a7.767,7.767,0,0,0,1.255,7.29,7.764,7.764,0,1,0,12.2,0,7.758,7.758,0,0,0,0-9.6Z" transform="translate(-158.859 -402.687)"/><path class="f" d="M191.452,612.457a7.739,7.739,0,0,0,1.661,4.8,7.764,7.764,0,1,0,12.2,0C206.357,615.935,191.452,611.584,191.452,612.457Z" transform="translate(-158.901 -466.904)"/><path class="g" d="M267.81,317.87v92.392c0,1.781,1.995,3.225,4.455,3.225H455.389c2.46,0,4.455-1.444,4.455-3.225V317.87Z" transform="translate(-219.29 -226.276)"/><rect class="h" width="33.237" height="19.509" rx="8.65" transform="translate(75.08 78.938)"/><rect class="h" width="33.237" height="19.509" rx="8.65" transform="translate(127.93 78.938)"/><rect class="d" width="32.302" height="18.959" rx="8.65" transform="translate(75.597 79.221)"/><rect class="i" width="32.302" height="18.959" rx="8.65" transform="translate(213.496 98.18) rotate(180)"/><rect class="d" width="32.302" height="18.959" rx="8.65" transform="translate(160.697 98.18) rotate(180)"/><rect class="i" width="32.302" height="18.959" rx="8.65" transform="translate(75.597 113.558)"/><rect class="i" width="32.302" height="18.959" rx="8.65" transform="translate(213.496 132.518) rotate(180)"/><rect class="i" width="32.302" height="18.959" rx="8.65" transform="translate(160.697 132.518) rotate(180)"/><rect class="i" width="32.302" height="18.959" rx="8.65" transform="translate(75.597 147.896)"/><rect class="i" width="32.302" height="18.959" rx="8.65" transform="translate(213.496 166.857) rotate(180)"/><rect class="i" width="32.302" height="18.959" rx="8.65" transform="translate(160.697 166.857) rotate(180)"/><path class="d" d="M267.81,227.657v16.786H459.844V227.657c0-1.782-1.993-3.227-4.455-3.227H272.265C269.8,224.43,267.808,225.875,267.81,227.657Zm47.524,4.966c-1.964,0-3.556-1.153-3.556-2.575s1.592-2.575,3.556-2.575,3.557,1.153,3.557,2.575S317.3,232.623,315.334,232.623Zm96.986,0c-1.964,0-3.556-1.153-3.556-2.575s1.592-2.575,3.556-2.575,3.556,1.153,3.556,2.575a2.284,2.284,0,0,1-1.044,1.822,4.339,4.339,0,0,1-2.519.753Z" transform="translate(-219.29 -180.362)"/><path class="h" d="M420.8,236.74a3.043,3.043,0,1,0,3.041,3.043A3.043,3.043,0,0,0,420.8,236.74Zm0,5.618a2.575,2.575,0,1,1,2.575-2.575,2.575,2.575,0,0,1-2.575,2.575Z" transform="translate(-319.453 -190.285)"/><path class="h" d="M756.493,236.74a3.043,3.043,0,1,0,3.044,3.043A3.043,3.043,0,0,0,756.493,236.74Zm0,5.618a2.575,2.575,0,1,1,2.575-2.575A2.575,2.575,0,0,1,756.493,242.358Z" transform="translate(-568.75 -190.285)"/><ellipse class="a" cx="3.194" cy="3.194" rx="3.194" ry="3.194" transform="translate(265.895 104.416)"/><ellipse class="a" cx="5.355" cy="5.355" rx="5.355" ry="5.355" transform="translate(275.162 84.626)"/><ellipse class="a" cx="5.355" cy="5.355" rx="5.355" ry="5.355" transform="translate(268.073 116.85)"/><ellipse class="a" cx="7.582" cy="7.582" rx="7.582" ry="7.582" transform="translate(0 80.698)"/><path class="j" d="M819.856,482.17a6.694,6.694,0,0,0-1.552-.872.32.32,0,0,0-.136-.036,23.888,23.888,0,0,1-3.2-2.757c.209-.167.4-.331.607-.492-1.255-.6-1.952-1.968-2.629-3.2a31.609,31.609,0,0,0-6.974-8.689c-.069-.266-.473-.209-.688-.381a.552.552,0,0,1-.153-.533c.033-.192.121-.37.169-.558a3.77,3.77,0,0,0-.036-1.36,1.666,1.666,0,0,1,.272-1.3c.1-.111.22-.2.314-.31a1.18,1.18,0,0,0,.209-.939,3.328,3.328,0,0,0-.209-.952q1.538-4.183,3.073-8.381a19.769,19.769,0,0,0,1.514-6.032,7.209,7.209,0,0,0-1.385-4.69c.184-.044.368-.09.55-.142-1.2-1.585-1.326-3.685-1.358-5.683q-.025-1.493-.1-2.989c.347.153.7.289,1.058.406l.335.1a11.533,11.533,0,0,0,1.659.356c.247.036.5.063.747.079h0q-.54-1.351-1.077-2.707a3.7,3.7,0,0,1-.335-1.27h0v-.084a.74.74,0,0,1,.01-.151,1.654,1.654,0,0,1,.082-.351,1.61,1.61,0,0,1,.065-.165,2.914,2.914,0,0,1,.268-.471c.075-.115.159-.226.243-.339a4.621,4.621,0,0,0,.751-1.215,2.3,2.3,0,0,0,.115-.692,3.4,3.4,0,0,0-.063-.711c-.029-.155-.067-.312-.109-.462h0c-.027-.094-.056-.188-.086-.28l-.025-.075c-.023-.071-.046-.14-.071-.209l-.025-.071c-.027-.075-.054-.148-.084-.224l-.017-.044c-.4-1.027-.931-2.006-1.255-3.062a8.059,8.059,0,0,1-.209-.855c-.015-.073-.025-.148-.038-.222s-.019-.125-.027-.188-.019-.146-.027-.22l-.019-.209c0-.067-.01-.134-.015-.209,0-.128-.013-.255-.015-.383v-.581c0-.1.015-.192.023-.287a.424.424,0,0,1,.015-.136q.021-.209.056-.418h0c.021-.123.044-.249.069-.374a4.986,4.986,0,0,0,.117-1.046,1.045,1.045,0,0,0-.015-.209c-.015-.073-.017-.113-.027-.167a.4.4,0,0,1,0-.05.563.563,0,0,0-.027-.113.222.222,0,0,0-.017-.052c-.006-.017-.023-.073-.036-.109s-.01-.031-.017-.048-.029-.075-.046-.111l-.015-.038c-.021-.046-.044-.09-.067-.134h0a3.087,3.087,0,0,0-.28-.435h0c-.688-.9-1.832-1.592-2.462-2.587a5.762,5.762,0,0,1-.705-2.092c-.031-.167-.059-.335-.088-.5s-.054-.328-.084-.492c-.019-.1-.038-.209-.058-.3l-.013-.065c-.017-.08-.034-.161-.052-.241l-.013-.056c-.019-.084-.038-.167-.059-.251l-.013-.044c-.021-.088-.044-.176-.067-.264a.207.207,0,0,1,0-.031c-.025-.092-.052-.184-.079-.276v-.019c-.029-.1-.059-.19-.09-.284h0c-.031-.1-.065-.195-.1-.291h0c-.038-.1-.073-.2-.113-.293h0a7.74,7.74,0,0,0-1.059-1.882,5,5,0,0,0-3.974-2.054,7.873,7.873,0,0,0-2.391.607l-2.014.743.563-.259a4.813,4.813,0,0,0-1.713.366,1.664,1.664,0,0,0-.994,1.362c-.01.345.125.688.082,1.031-.073.567-.594.952-.864,1.454a1.87,1.87,0,0,0-.209.983v.134a.2.2,0,0,0,0,.033v.067c-.837-.364-1.673-.743-2.51-1.148a8.875,8.875,0,0,1-3.644-2.767c-.276-.418-.49-.87-.764-1.284a10.167,10.167,0,0,0-1.046-1.255l-2.567-2.778c-.2.37.057.807.255,1.176a5.051,5.051,0,0,1,.475,1.226.582.582,0,0,1-.013.429.837.837,0,0,1-.351.249,1.255,1.255,0,0,0-.529,1.437,1.59,1.59,0,0,0,1.186,1.033,2.152,2.152,0,0,1,.529.13c.31.153.456.508.678.774a3.041,3.041,0,0,0,1.659.826c.95,1.1,1.937,2.146,2.886,3.242a20.781,20.781,0,0,0,4.781,4.468c.195.117.393.226.594.326a.329.329,0,0,1-.01.1,1.134,1.134,0,0,0,.09.732,1.15,1.15,0,0,0,.82.4l1.418.253a4.835,4.835,0,0,1-.069.548c-.019.111-.042.22-.063.331h0l-.025.142v.021a.41.41,0,0,1-.015.115c-.015.04,0,.027,0,.04v.278a2.668,2.668,0,0,0,.789,1.441l.2.241a3.346,3.346,0,0,0-.646,1.355,4.593,4.593,0,0,0-.092.943,1.639,1.639,0,0,0-.418.653,2.985,2.985,0,0,0-.109,1.056v.418a3.514,3.514,0,0,0,.243,1.464c.019.038.04.071.059.107a20.323,20.323,0,0,1-1.211,1.673,3.631,3.631,0,0,0,.333,4.158c.286.331.655.648.688,1.088a4.073,4.073,0,0,1-.059.594,4.447,4.447,0,0,0,.3,1.378,1.424,1.424,0,0,1-.115,1.142,1.673,1.673,0,0,0-.287,1.1,7.323,7.323,0,0,1-.18,1.784c-.019.257,0,.519-.023.776a4.389,4.389,0,0,1-.153.728.3.3,0,0,1-.021.079c-.517.228-1.029.464-1.523.738a1.337,1.337,0,0,0-.628.577,1.48,1.48,0,0,0-.034.795l.446,3.1-.077-.033q.052.761.109,1.529a2.062,2.062,0,0,0,.293,1.107,2.882,2.882,0,0,1,.316.4c.175.356-.034.77-.188,1.134s-.209.881.132,1.077a2.781,2.781,0,0,0,.571.305,11.934,11.934,0,0,0,.355,5.323q.446,2.008.893,4.012a9.74,9.74,0,0,1,.2,1.724v.251a9.652,9.652,0,0,0,.418,2.347c.464,1.565.019,3.443.165,5.148a15.262,15.262,0,0,0,.489,2.424,74.692,74.692,0,0,1,2.259,12.056,3.029,3.029,0,0,0,1.448,1.01c-.042.506.015,1.086,0,1.381a2.379,2.379,0,0,1-.113.719,1.729,1.729,0,0,1-1.094.931c-.146.05-.295.09-.446.125l.167-.142a3.736,3.736,0,0,0-2.784.489,1.1,1.1,0,0,0-.55.648,1.047,1.047,0,0,0,.192.751,3.424,3.424,0,0,0,1.935,1.374,10.148,10.148,0,0,0,2.385.333l1.477.086a.406.406,0,0,0,.1.525,1.033,1.033,0,0,0,.542.2,6.9,6.9,0,0,0,1.822.027.714.714,0,0,0,.418-.151.27.27,0,0,0,0-.4.441.441,0,0,0,.4-.293,1.186,1.186,0,0,0,.054-.529,5.678,5.678,0,0,0-.458-2.3.584.584,0,0,0-.646-.284,25.1,25.1,0,0,1-.418-3.711,9.045,9.045,0,0,0,1.075-.485,8.306,8.306,0,0,1-.732-5.694,17.261,17.261,0,0,0,.274-1.843,6.111,6.111,0,0,0-.8-3.652,13.067,13.067,0,0,1,3.263,2.953c1.445,1.883,2.326,4.162,4.1,5.731q.349-.341.707-.678.561.95,1.061,1.939a7.382,7.382,0,0,1,.615,1.529,7.069,7.069,0,0,1,.056,2.466q-.073.653-.178,1.3a3.542,3.542,0,0,1-.128.544.379.379,0,0,0-.04-.163c-.111-.195-.418-.107-.586.027a2.584,2.584,0,0,0-.722.837.9.9,0,0,0-.13.533.788.788,0,0,0,.418.523,4.362,4.362,0,0,0,3.236-.538c.418-.3.646-.8,1.063-1.09a6.163,6.163,0,0,0,.642-.406c.387-.354.418-.95.7-1.4.469-.772,1.516-.971,1.926-1.788A2.281,2.281,0,0,0,819.856,482.17Z" transform="translate(-584.353 -290.357)"/><path class="k" d="M862.4,805.822a2.334,2.334,0,0,1-.115.711,1.719,1.719,0,0,1-1.092.918c-.464.161-.958.209-1.431.349a1.255,1.255,0,0,0-.559.289,1.013,1.013,0,0,0,.322,1.483,2.778,2.778,0,0,0,1.694.261,22.313,22.313,0,0,0,3.665-.521c.435-.1.943-.3,1.012-.745a1.218,1.218,0,0,0-.034-.418,24.722,24.722,0,0,1-.47-4.545,9.451,9.451,0,0,0-2.652-.019C862.23,803.918,862.423,805.307,862.4,805.822Z" transform="translate(-646.982 -610.328)"/><path class="k" d="M925.244,781.055q.6,1,1.132,2.035a7.206,7.206,0,0,1,.615,1.508,6.932,6.932,0,0,1,.057,2.433q-.073.642-.18,1.282a1.62,1.62,0,0,1-.538,1.134,1.238,1.238,0,0,0,1.067.094,3.074,3.074,0,0,0,.939-.575,8.291,8.291,0,0,0,3.2-5.951.944.944,0,0,0-.1-.527,1.046,1.046,0,0,0-.314-.28,24.1,24.1,0,0,1-3.709-3.114.453.453,0,0,0-.272-.174.468.468,0,0,0-.243.069c-.688.345-1.839.837-2.125,1.621A1.1,1.1,0,0,1,925.244,781.055Z" transform="translate(-695.856 -590.889)"/><path class="e" d="M859.588,822.816a18.621,18.621,0,0,1-4.767,1.069.651.651,0,0,1-.571-.1.435.435,0,0,1-.038-.489,1.275,1.275,0,0,1,.349-.385l1.081-.906a3.765,3.765,0,0,0-2.749.473,1.094,1.094,0,0,0-.548.628,1.021,1.021,0,0,0,.192.743,3.418,3.418,0,0,0,1.933,1.355,10.345,10.345,0,0,0,2.382.328l1.464.084a.4.4,0,0,0,.1.519,1.046,1.046,0,0,0,.544.2,6.969,6.969,0,0,0,1.82.025.7.7,0,0,0,.418-.148.263.263,0,0,0,0-.393.442.442,0,0,0,.4-.291,1.212,1.212,0,0,0,.054-.521,5.479,5.479,0,0,0-.458-2.265C860.839,822.142,860.094,822.607,859.588,822.816Z" transform="translate(-641.624 -624.893)"/><path class="e" d="M934.228,794.226a6.725,6.725,0,0,0-1.552-.86.184.184,0,0,0-.28.071,15.923,15.923,0,0,0-2.286,4.407,7.658,7.658,0,0,1-1.142,2.585c-.08.1-.209.195-.318.138-.157-.079-.061-.333-.149-.485-.109-.192-.406-.1-.584.027a2.513,2.513,0,0,0-.719.837.836.836,0,0,0-.13.525.773.773,0,0,0,.408.515,3.018,3.018,0,0,0,2.581-.209,2.945,2.945,0,0,0,.65-.324c.418-.295.646-.786,1.063-1.073a6.145,6.145,0,0,0,.642-.4c.385-.349.418-.937.7-1.381.468-.759,1.516-.956,1.926-1.763A2.273,2.273,0,0,0,934.228,794.226Z" transform="translate(-697.293 -602.283)"/><path class="e" d="M853.431,593.827a6.525,6.525,0,0,1,2.261,5.482,19.34,19.34,0,0,1-1.51,5.951q-1.537,4.135-3.07,8.268a3.409,3.409,0,0,1,.209.941,1.157,1.157,0,0,1-.209.925c-.1.111-.209.2-.314.305a1.638,1.638,0,0,0-.272,1.282,3.715,3.715,0,0,1,.036,1.341c-.048.186-.136.362-.169.55a.546.546,0,0,0,.153.527c.209.167.628.113.688.377a31.265,31.265,0,0,1,6.965,8.576c.678,1.219,1.362,2.571,2.627,3.161a45.9,45.9,0,0,0-3.541,3.115c-1.767-1.548-2.648-3.8-4.091-5.647a12.965,12.965,0,0,0-3.259-2.914,5.962,5.962,0,0,1,.8,3.6,16.711,16.711,0,0,1-.274,1.818,8.048,8.048,0,0,0,.732,5.618,6.148,6.148,0,0,1-3.579.822,3.046,3.046,0,0,1-1.95-1.113,73.55,73.55,0,0,0-2.257-11.9,14.608,14.608,0,0,1-.487-2.407c-.146-1.673.3-3.535-.167-5.079a9.474,9.474,0,0,1-.418-2.313v-.249a9.481,9.481,0,0,0-.2-1.7l-.891-3.958a11.607,11.607,0,0,1-.358-5.254,2.793,2.793,0,0,1-.569-.3c-.341-.195-.287-.7-.132-1.063s.362-.768.188-1.119a2.737,2.737,0,0,0-.316-.4,2.01,2.01,0,0,1-.293-1.09l-.109-1.51a2.956,2.956,0,0,1,1.489,1.3c-.824-1.276-.418-3.1.19-4.489a2.046,2.046,0,0,1,1.92-1.521C846.613,593.2,850.708,591.779,853.431,593.827Z" transform="translate(-630.051 -443.665)"/><path class="h" d="M889.916,638.93s-1.648,1.1-1.648,1.924-.418,8.241-.418,8.241v5.229a14.077,14.077,0,0,1,0,3.435c-.274.686,0,3.847,0,4.259s.418-4.259.418-4.259v-4.953l.418-11.266Z" transform="translate(-669.152 -480.18)"/><path class="k" d="M797.456,415.762l-.96-.374c-1.962-.786-3.926-1.575-5.825-2.5a8.9,8.9,0,0,1-3.639-2.73c-.276-.418-.49-.858-.764-1.27a10.108,10.108,0,0,0-1.046-1.24l-2.564-2.74c-.2.366.054.8.255,1.159a5.027,5.027,0,0,1,.475,1.211.561.561,0,0,1-.015.418.814.814,0,0,1-.349.247,1.228,1.228,0,0,0-.529,1.416,1.579,1.579,0,0,0,1.184,1.021,2.246,2.246,0,0,1,.529.128c.31.153.456.5.678.763a3.043,3.043,0,0,0,1.657.816c.95,1.081,1.935,2.117,2.884,3.2A20.687,20.687,0,0,0,794.2,419.7a7,7,0,0,0,2.156.866A34.952,34.952,0,0,1,797.456,415.762Z" transform="translate(-588.822 -313.986)"/><path class="l" d="M797.456,415.762l-.96-.374c-1.962-.786-3.926-1.575-5.825-2.5a8.9,8.9,0,0,1-3.639-2.73c-.276-.418-.49-.858-.764-1.27a10.108,10.108,0,0,0-1.046-1.24l-2.564-2.74c-.2.366.054.8.255,1.159a5.027,5.027,0,0,1,.475,1.211.561.561,0,0,1-.015.418.814.814,0,0,1-.349.247,1.228,1.228,0,0,0-.529,1.416,1.579,1.579,0,0,0,1.184,1.021,2.246,2.246,0,0,1,.529.128c.31.153.456.5.678.763a3.043,3.043,0,0,0,1.657.816c.95,1.081,1.935,2.117,2.884,3.2A20.687,20.687,0,0,0,794.2,419.7a7,7,0,0,0,2.156.866A34.952,34.952,0,0,1,797.456,415.762Z" transform="translate(-588.822 -313.986)"/><path class="m" d="M842.306,461.207a1.152,1.152,0,0,1-.82-.393,1.1,1.1,0,0,1-.09-.722,20.236,20.236,0,0,1,1.046-4.623,5,5,0,0,0,2.255,1.822,16.738,16.738,0,0,0,2.422,1.1c-.209-.067-.722,3.15-1.01,3.347-.364.255-1.243-.09-1.646-.159Z" transform="translate(-634.1 -352.561)"/><ellipse class="k" cx="4.397" cy="4.397" rx="4.397" ry="4.397" transform="translate(206.269 98.257)"/><path class="n" d="M852.22,463.242s2.884,2.472,1.648,4.121-1.924,2.749-.276,2.887,7.143-2.749,7.143-2.749-5.083-4.121-4.258-6.593S852.22,463.242,852.22,463.242Z" transform="translate(-641.679 -355.6)"/><path class="m" d="M848.194,481.548a3.411,3.411,0,0,0-2.525,2.539c-.324,1.481.364,3.138-.285,4.5a17.883,17.883,0,0,1-1.255,1.742,3.556,3.556,0,0,0,.331,4.1c.287.326.655.642.688,1.073a3.943,3.943,0,0,1-.059.586,4.348,4.348,0,0,0,.3,1.362,1.386,1.386,0,0,1-.115,1.125,1.628,1.628,0,0,0-.285,1.081,7.236,7.236,0,0,1-.182,1.761c-.019.255,0,.51-.023.766a4.46,4.46,0,0,1-.151.717l-.368,1.357a15.087,15.087,0,0,0,6.275,1.121,30.749,30.749,0,0,0,5.729-.837c.575-.121,1.15-.243,1.717-.4-1.2-1.565-1.324-3.638-1.358-5.606a83.69,83.69,0,0,0-.734-9.81,12.615,12.615,0,0,0,1.075-3.529,5.97,5.97,0,0,0,.134-1.491,7.936,7.936,0,0,0-1.01-2.987,3.867,3.867,0,0,0-1.857-2.152,1.477,1.477,0,0,0-1.428.157c-.726.548-.51,1.494-.7,2.3a3.088,3.088,0,0,1-2.236,2.092,7.269,7.269,0,0,1-2.351.22.418.418,0,0,1-.3-.686C847.567,482.282,847.905,481.9,848.194,481.548Z" transform="translate(-634.266 -366.536)"/><path class="k" d="M846.947,574.49a28.629,28.629,0,0,1-5.152,3.614c-1.1.552-2.274.96-3.347,1.554a1.336,1.336,0,0,0-.627.569,1.4,1.4,0,0,0-.034.784l.477,3.288c.132.891.987,1.464,1.673,2.033a1.2,1.2,0,0,1,.044-.8,2.686,2.686,0,0,1,.161-.241,2.256,2.256,0,0,0,.232-1.546,8.6,8.6,0,0,1-.182-1.585.519.519,0,0,1,.222-.46c2.337-1.123,4.853-1.985,7.214-3.052a7.639,7.639,0,0,0,1.751-.994,2.694,2.694,0,0,0,1.017-1.688.33.33,0,0,0-.042-.257.349.349,0,0,0-.178-.1C849.118,575.224,848,574.871,846.947,574.49Z" transform="translate(-630.213 -439.963)"/><path class="h" d="M852.378,508.488a2.366,2.366,0,0,0-1.931,1.328,2.956,2.956,0,0,0-.109,1.046,3.4,3.4,0,0,0,.245,1.45,4.091,4.091,0,0,0,.49.711c1.933,2.477,2.9,5.587,4.786,8.1.167.222.473.51.379.772a1.885,1.885,0,0,0-.09.209.419.419,0,0,0,.138.366.892.892,0,0,1,.228.333c.036.132-.052.3-.188.293a2.8,2.8,0,0,0,1.575,1.437,6.559,6.559,0,0,0,3.516.864,8.024,8.024,0,0,0,.418-2.878,7.475,7.475,0,0,0-.7-2.042l-.818-1.786a26.606,26.606,0,0,0-2.37-4.426,6.684,6.684,0,0,1-.876-1.412c-.249-.646-.933-1.1-1.347-1.655a10.256,10.256,0,0,0-2.079-2.278A1.879,1.879,0,0,0,852.378,508.488Z" transform="translate(-639.742 -390.308)"/><path class="m" d="M852.378,506.518a2.367,2.367,0,0,0-1.931,1.326,2.97,2.97,0,0,0-.109,1.046,3.4,3.4,0,0,0,.245,1.45,4.087,4.087,0,0,0,.489.711c1.933,2.477,2.9,5.587,4.786,8.1.167.222.473.51.379.772a1.866,1.866,0,0,0-.09.209.418.418,0,0,0,.138.366.894.894,0,0,1,.228.332c.035.132-.052.3-.188.293a2.8,2.8,0,0,0,1.575,1.437,6.559,6.559,0,0,0,3.516.864,8.025,8.025,0,0,0,.418-2.878,7.474,7.474,0,0,0-.7-2.042l-.818-1.786a26.587,26.587,0,0,0-2.37-4.426,6.659,6.659,0,0,1-.876-1.414c-.249-.644-.933-1.1-1.347-1.652a10.25,10.25,0,0,0-2.079-2.278A1.887,1.887,0,0,0,852.378,506.518Z" transform="translate(-639.743 -388.854)"/><path class="e" d="M837.328,418.7a4.84,4.84,0,0,0-1.711.36,1.646,1.646,0,0,0-.994,1.343,8,8,0,0,1,.082,1.017c-.073.561-.594.939-.862,1.435a2.57,2.57,0,0,0,.5,2.719c.607.761,1.429,1.347,2.052,2.1a5.438,5.438,0,0,1,1.134,4.376,3.473,3.473,0,0,0-.111.914,2.627,2.627,0,0,0,.786,1.42,65.6,65.6,0,0,1,4.961,6.6,17.826,17.826,0,0,1,1.221,2.092,12.681,12.681,0,0,0,1.121,2.211,5.838,5.838,0,0,0,1.646,1.412,11.626,11.626,0,0,0,5.271,1.7l-1.077-2.671a3.065,3.065,0,0,1-.324-1.483c.119-.962,1.09-1.594,1.406-2.51a3.044,3.044,0,0,0-.057-1.841c-.381-1.353-1.142-2.571-1.552-3.916a7.951,7.951,0,0,1-.234-3.642,5.627,5.627,0,0,0,.169-1.611c-.2-1.636-2.117-2.418-3-3.8a8.222,8.222,0,0,1-.876-3.031,9.564,9.564,0,0,0-1.732-4.252,4.992,4.992,0,0,0-3.974-2.027,8.034,8.034,0,0,0-2.389.6l-2.016.734" transform="translate(-626.019 -321.252)"/><g class="o" transform="translate(207.616 100.709)"><path d="M893.874,436.831a9.684,9.684,0,0,0,.721,2.763c-.061-.326-.111-.655-.171-.977a12.189,12.189,0,0,0-.674-2.4C893.8,436.423,893.838,436.626,893.874,436.831Z" transform="translate(-881.181 -436.22)"/><path d="M911.663,475.439a7.986,7.986,0,0,0,.234,3.644,9.373,9.373,0,0,0,.343.941,7.959,7.959,0,0,1-.027-2.8,5.628,5.628,0,0,0,.169-1.611,2.51,2.51,0,0,0-.544-1.255C911.807,474.724,911.724,475.082,911.663,475.439Z" transform="translate(-895.26 -466.382)"/><path d="M916.008,519.825a10.109,10.109,0,0,0-.418-1.155,2.566,2.566,0,0,1-.08,1.209c-.316.914-1.289,1.548-1.406,2.51a3.043,3.043,0,0,0,.324,1.483c.071.178.142.358.209.536a1.755,1.755,0,0,1,0-.232c.119-.962,1.09-1.594,1.406-2.51A2.92,2.92,0,0,0,916.008,519.825Z" transform="translate(-897.268 -501.424)"/><path d="M860.926,500.754a5.857,5.857,0,0,1-1.646-1.414,12.618,12.618,0,0,1-1.123-2.211,17.644,17.644,0,0,0-1.222-2.092,65.7,65.7,0,0,0-4.959-6.6c-.065-.073-.128-.149-.19-.224a2.142,2.142,0,0,0-.048.59,2.626,2.626,0,0,0,.787,1.42,65.636,65.636,0,0,1,4.961,6.6,17.84,17.84,0,0,1,1.221,2.092,12.692,12.692,0,0,0,1.121,2.211,5.835,5.835,0,0,0,1.646,1.412,11.625,11.625,0,0,0,5.271,1.7l-.732-1.8A11.638,11.638,0,0,1,860.926,500.754Z" transform="translate(-847.953 -477.335)"/><path d="M835.869,448.444c-.627-.757-1.445-1.332-2.052-2.1-.054-.071-.107-.144-.159-.222a3.045,3.045,0,0,0,.709,2.006c.607.772,1.429,1.347,2.052,2.1a5.22,5.22,0,0,1,.627.954A5.437,5.437,0,0,0,835.869,448.444Z" transform="translate(-833.658 -444.049)"/></g><path class="p" d="M381.6,347.913l-1.516-1.525a.805.805,0,0,0-1.144,0l-9.523,9.436-4.029-4.058a.8.8,0,0,0-1.136,0l-1.533,1.516a.814.814,0,0,0,0,1.144l6.118,6.164a.812.812,0,0,0,1.142,0L381.6,349.057a.805.805,0,0,0,0-1.144Z" transform="translate(-277.449 -270.664)"/><path class="p" d="M582.6,347.913l-1.516-1.525a.805.805,0,0,0-1.144,0l-9.523,9.436-4.029-4.058a.8.8,0,0,0-1.136,0l-1.533,1.516a.814.814,0,0,0,0,1.144l6.118,6.164a.811.811,0,0,0,1.142,0L582.6,349.057a.805.805,0,0,0,0-1.144Z" transform="translate(-426.122 -270.664)"/></g></svg>