<svg xmlns="http://www.w3.org/2000/svg" xmlns:xlink="http://www.w3.org/1999/xlink" width="235.534" height="209.198" viewBox="0 0 235.534 209.198"><defs><style>.a,.i{fill:#6c63ff;}.a{opacity:0.3;}.b,.q,.r,.s{opacity:0.5;}.c{fill:url(#a);}.d,.o{fill:#fff;}.e{clip-path:url(#b);}.f{fill:none;stroke:#fff;stroke-miterlimit:10;stroke-width:4px;}.g{fill:#dbdbdb;}.h{fill:url(#c);}.j{fill:url(#d);}.k{fill:#795548;}.l{fill:#fda57d;}.m,.q{fill:#4d8af0;}.n,.o{opacity:0.05;}.p,.s{fill:#47e6b1;}.r{fill:#f55f44;}.t{fill:#b0bec5;}.u{fill:#3d213c;}</style><linearGradient id="a" x1="0.141" y1="1.022" x2="0.929" y2="-0.012" gradientUnits="objectBoundingBox"><stop offset="0" stop-color="gray" stop-opacity="0.251"/><stop offset="0.54" stop-color="gray" stop-opacity="0.122"/><stop offset="1" stop-color="gray" stop-opacity="0.102"/></linearGradient><clipPath id="b"><path class="a" d="M414.418,103.505a8.009,8.009,0,0,1-7.877,6.828l-34.1.082a8,8,0,0,1-7.9-6.788l-18.069.042a3.751,3.751,0,0,0-3.742,3.759l.395,161.782a3.748,3.748,0,0,0,3.759,3.74l86.3-.209a3.751,3.751,0,0,0,3.742-3.759L436.527,107.2a3.748,3.748,0,0,0-3.759-3.739Z" transform="translate(-342.73 -103.46)"/></clipPath><linearGradient id="c" x1="0.461" y1="1.024" x2="0.461" y2="0.019" xlink:href="#a"/><linearGradient id="d" x1="0.5" y1="1" x2="0.5" y2="0" xlink:href="#a"/></defs><g transform="translate(-0.001 -49.44)"><g class="b" transform="translate(41.344 49.44)"><path class="c" d="M426.624,79.1l-93.769.228A3.855,3.855,0,0,0,329,83.189l.429,175.381a3.855,3.855,0,0,0,3.864,3.844l93.767-.228a3.855,3.855,0,0,0,3.847-3.864l-.417-175.378A3.855,3.855,0,0,0,426.624,79.1Z" transform="translate(-329 -79.1)"/></g><rect class="d" width="98.736" height="178.218" rx="13.64" transform="translate(42.722 52.066) rotate(-0.14)"/><path class="a" d="M414.418,103.505a8.009,8.009,0,0,1-7.877,6.828l-34.1.082a8,8,0,0,1-7.9-6.788l-18.069.042a3.751,3.751,0,0,0-3.742,3.759l.395,161.782a3.748,3.748,0,0,0,3.759,3.74l86.3-.209a3.751,3.751,0,0,0,3.742-3.759L436.527,107.2a3.748,3.748,0,0,0-3.759-3.739Z" transform="translate(-297.514 -47.15)"/><g class="e" transform="translate(45.216 56.31)"><path class="f" d="M30.217,32.1,164.494,142.068l1.765-90L14.61,46.694,38.559,69.659,190.442,81.331,32.241,121.2,175.5,167.7l-.536,17.62L27.137,176.536l4.478,44.437,64.914-5.793L131.344.32" transform="translate(-55.705 -21.042)"/></g><rect class="g" width="22.003" height="1.376" rx="0.688" transform="translate(80.2 58.724) rotate(-0.86)"/><circle class="g" cx="0.826" cy="0.826" r="0.826" transform="translate(106.058 58.044)"/><path class="h" d="M539.917,230.331c-1.309,9.442-20.734,29.188-20.734,29.188S504.5,235.043,505.794,225.6a17.225,17.225,0,1,1,34.124,4.729Z" transform="translate(-414.533 -124.175)"/><path class="i" d="M541.361,234.492c-1.227,8.858-19.459,27.381-19.459,27.381s-13.759-22.942-12.53-31.814a16.149,16.149,0,1,1,31.992,4.434Z" transform="translate(-417.105 -128.041)"/><ellipse class="d" cx="8.097" cy="8.074" rx="8.097" ry="8.074" transform="translate(99.328 109.865) rotate(-82.11)"/><g class="b" transform="translate(153.909 157.627)"><path class="j" d="M751.46,466.751a51.516,51.516,0,0,1,6.427,15.031c1.523-27.147-6.737-17.471-7.538-17.011l-.017-.034-2.764,1.6a6.348,6.348,0,0,0-4.442-1.87,6.164,6.164,0,0,0-3.325.984c-1.974.045-3.536,1.049-3.536,2.282a1.484,1.484,0,0,0,.124.584,7.155,7.155,0,0,0,4.261,11.876l.727,5.175-1.145.9a6.363,6.363,0,0,0-2.456,4.614c-.107,1.915.683,4.112,4.267,5.231,0,0-.062.663-.18,1.709l-6.094,12.186s-2.437,5.587.178,5.75c3.756-.651,3.1-2.124,3.593-3.429l.282-.976h1.438c-1.17,6.382-4.978,28.317-4.6,41.239v3.734l-.243,1.85L729.4,560.28a1.765,1.765,0,0,0,.564,3.455l9.916-.333a1.76,1.76,0,0,0,1.692-1.763v-5.017h1.794V552.59l1.794-21.515.234-.564.214,2.792,8.068,17.93,1.791,3.136.784-.42-.228,2.958-3.271,2.837a1.763,1.763,0,0,0-.451,2.059h0a1.765,1.765,0,0,0,2.388.846l8.9-4.38a1.763,1.763,0,0,0,.829-2.31l-.784-1.726a1.768,1.768,0,0,0-1.23-.993l-1.692-1.692.584-.313-1.328-3.13-8.068-18.824-.33-10.6a7.151,7.151,0,0,0,3.384-7.332h.516s-1.142-6.641-1.734-13.895c-.02-.234-.039-.468-.056-.7v-1.091s-.062-.341-.169-.894c-.632-7.16-1.61-12.846-6.963-13.489l-.04.031v-2.205a8.08,8.08,0,0,0,3.469-6.811,8.628,8.628,0,0,0-1.029-4.137l2.5-1.441Z" transform="translate(-728.148 -462.725)"/></g><ellipse class="k" cx="6.656" cy="7.606" rx="6.656" ry="7.606" transform="translate(162.421 160.835)"/><path class="l" d="M580.957,758.28v3.911H575.74l.434-3.331Z" transform="translate(-413.373 -508.938)"/><path class="l" d="M826.423,771.622,826,776.839h.282a8.374,8.374,0,0,0,5.568-2.119l1.531-1.359-3.912-3.912Z" transform="translate(-644.495 -525.322)"/><path class="m" d="M604.351,630.209l.434,5.652,7.823,17.383,6.083-3.043-7.823-18.252-.434-13.909H603.48Z" transform="translate(-433.29 -408.247)"/><path class="n" d="M604.351,630.209l.434,5.652,7.823,17.383,6.083-3.043-7.823-18.252-.434-13.909H603.48Z" transform="translate(-433.29 -408.247)"/><path class="l" d="M761.44,578.34l-7.389,14.778s-2.363,5.417.172,5.575c3.644-.635,3.012-2.059,3.486-3.328l4.6-15.711Z" transform="translate(-592.118 -388.108)"/><circle class="l" cx="6.954" cy="6.954" r="6.954" transform="translate(160.751 162.262)"/><path class="l" d="M595.7,494.666l-4.873,2.541-1.213-8.627H595.7Z" transform="translate(-423.331 -315.297)"/><path class="m" d="M764.4,629.2s-5.214,26.946-4.78,41.724h6.517l1.74-20.869,4.78-11.3s6.509-2.166,4.346-9.555Z" transform="translate(-596.82 -424.625)"/><rect class="m" width="6.52" height="4.518" transform="translate(162.802 245.693)"/><rect class="o" width="6.52" height="4.518" transform="translate(162.802 245.693)"/><path class="m" d="M635.22,733.47l1.811,3.472,5.756-3.032-1.537-3.57Z" transform="translate(-456.079 -488.877)"/><path class="m" d="M738.852,795.721l-7.231,2.171a1.712,1.712,0,0,0-1.221,1.638h0a1.712,1.712,0,0,0,1.768,1.709l9.617-.319a1.715,1.715,0,0,0,1.655-1.712v-1.847a1.712,1.712,0,0,0-1.712-1.712h-2.383A1.727,1.727,0,0,0,738.852,795.721Z" transform="translate(-575.856 -544.134)"/><path class="p" d="M772.009,532l-6.128,4.825a6.159,6.159,0,0,0-2.394,4.481c-.1,1.859.66,3.988,4.137,5.076,0,0-1.3,13.906-3.477,14.777h16.518s-1.108-6.441-1.692-13.475C778.315,539.549,777.833,532.691,772.009,532Z" transform="translate(-599.605 -354.836)"/><path class="l" d="M793.59,552.971l3.911,6.955-.434,15.646s-2.171,3.477-.434,3.911a3.149,3.149,0,0,0,3.911-3.477v-17.82s-1.3-7.389-2.609-9.126Z" transform="translate(-621.225 -367.085)"/><path class="m" d="M819.213,780.643,813.5,785.6a1.715,1.715,0,0,0-.437,2h0a1.715,1.715,0,0,0,2.315.832l8.635-4.25a1.712,1.712,0,0,0,.8-2.239l-.761-1.692a1.712,1.712,0,0,0-2.256-.846l-2.172.981A1.621,1.621,0,0,0,819.213,780.643Z" transform="translate(-635.1 -532.356)"/><path class="k" d="M616.765,450.314l-1.574.781-1.111-1.923,1.557-.832Z" transform="translate(-440.9 -286.405)"/><path class="k" d="M802,472.285s10.434-11,8.266,15.7a61.531,61.531,0,0,0-7.138-13.723Z" transform="translate(-627.264 -310.35)"/><ellipse class="k" cx="6.021" cy="6.656" rx="6.021" ry="6.656" transform="translate(163.69 161.786)"/><ellipse class="k" cx="3.565" cy="2.219" rx="3.565" ry="2.219" transform="translate(162.421 161.786)"/><g class="b" transform="translate(26 72.373)"><rect class="p" width="0.846" height="4.794" transform="translate(1.974 0)"/><rect class="p" width="0.846" height="4.794" transform="translate(4.794 1.974) rotate(90)"/></g><g class="b" transform="translate(32.768 102.43)"><rect class="p" width="0.846" height="4.794" transform="translate(1.974)"/><rect class="p" width="0.846" height="4.794" transform="translate(4.794 1.974) rotate(90)"/></g><g class="b" transform="translate(162.494 63.349)"><rect class="p" width="0.846" height="4.794" transform="translate(1.974)"/><rect class="p" width="0.846" height="4.794" transform="translate(4.794 1.974) rotate(90)"/></g><g class="b" transform="translate(230.741 80.997)"><rect class="p" width="0.846" height="4.794" transform="translate(1.974)"/><rect class="p" width="0.846" height="4.794" transform="translate(4.794 1.974) rotate(90)"/></g><path class="q" d="M185.867,254.422a1.041,1.041,0,0,1-.578-1.255.31.31,0,0,0,.023-.113h0a.519.519,0,0,0-.933-.344h0a.587.587,0,0,0-.056.1,1.035,1.035,0,0,1-1.252.564.4.4,0,0,0-.116-.02h0a.519.519,0,0,0-.344.933h0a.715.715,0,0,0,.1.056,1.035,1.035,0,0,1,.578,1.252.523.523,0,0,0-.023.116h0a.519.519,0,0,0,.933.344h0a.513.513,0,0,0,.056-.1,1.038,1.038,0,0,1,1.255-.578.5.5,0,0,0,.113.023h0a.519.519,0,0,0,.344-.933h0A.447.447,0,0,0,185.867,254.422Z" transform="translate(-182.4 -154.16)"/><path class="q" d="M941.867,445.422a1.04,1.04,0,0,1-.578-1.255.311.311,0,0,0,.022-.113h0a.519.519,0,0,0-.934-.344h0a.586.586,0,0,0-.056.1,1.035,1.035,0,0,1-1.252.564.4.4,0,0,0-.116-.02h0a.519.519,0,0,0-.344.933h0a.716.716,0,0,0,.1.056,1.035,1.035,0,0,1,.564,1.252.534.534,0,0,0-.023.116h0a.519.519,0,0,0,.933.344h0a.52.52,0,0,0,.056-.1,1.038,1.038,0,0,1,1.255-.578.5.5,0,0,0,.113.023h0a.519.519,0,0,0,.344-.933h0a.449.449,0,0,0-.087-.045Z" transform="translate(-725.198 -291.296)"/><path class="q" d="M888.867,140.422a1.041,1.041,0,0,1-.578-1.255.308.308,0,0,0,.022-.113h0a.519.519,0,0,0-.933-.344h0a.58.58,0,0,0-.056.1,1.035,1.035,0,0,1-1.252.564.4.4,0,0,0-.116-.02h0a.519.519,0,0,0-.344.933h0a.718.718,0,0,0,.1.056,1.035,1.035,0,0,1,.564,1.252.518.518,0,0,0-.023.116h0a.519.519,0,0,0,.933.344h0a.52.52,0,0,0,.057-.1,1.038,1.038,0,0,1,1.255-.564.5.5,0,0,0,.113.023h0a.519.519,0,0,0,.344-.933h0A.446.446,0,0,0,888.867,140.422Z" transform="translate(-687.145 -72.309)"/><path class="q" d="M912.867,314.422a1.041,1.041,0,0,1-.578-1.255.308.308,0,0,0,.023-.113h0a.519.519,0,0,0-.933-.344h0a.586.586,0,0,0-.056.1,1.035,1.035,0,0,1-1.252.564.4.4,0,0,0-.116-.02h0a.519.519,0,0,0-.344.933h0a.711.711,0,0,0,.1.056,1.035,1.035,0,0,1,.564,1.252.526.526,0,0,0-.023.116h0a.519.519,0,0,0,.933.344h0a.513.513,0,0,0,.056-.1,1.038,1.038,0,0,1,1.255-.578.5.5,0,0,0,.113.023h0a.519.519,0,0,0,.344-.933h0A.448.448,0,0,0,912.867,314.422Z" transform="translate(-704.376 -197.239)"/><circle class="r" cx="1.692" cy="1.692" r="1.692" transform="translate(18.667 152.347)"/><circle class="q" cx="1.692" cy="1.692" r="1.692" transform="translate(163.058 96.508)"/><circle class="s" cx="1.692" cy="1.692" r="1.692" transform="translate(176.877 139.374)"/><circle class="r" cx="1.692" cy="1.692" r="1.692" transform="translate(2.029 50.258)"/><rect class="t" width="20.192" height="2.019" transform="translate(35.653 173.038)"/><rect class="t" width="20.192" height="2.019" transform="translate(42.985 197.573)"/><rect class="t" width="10.347" height="2.27" transform="translate(59.139 209.434)"/><rect class="t" width="10.347" height="1.514" transform="translate(64.441 221.804)"/><path class="l" d="M366.215,504.44s-13.057,1.517-9.109,9.414a89.645,89.645,0,0,1,6,16.018l6.906-1.444s-2.733-12.9-5.161-14.422l6.529-1.215Z" transform="translate(-307.302 -335.049)"/><path class="n" d="M381.937,514.006l6.529-1.215-5.164-8.35s-.152.017-.417.059l5.127,8.291-6.529,1.215c2.431,1.517,5.164,14.422,5.164,14.422l-6.486,1.354.025.09,6.906-1.444S384.365,515.523,381.937,514.006Z" transform="translate(-324.388 -335.049)"/><path class="i" d="M366.311,581.909a17.521,17.521,0,0,1-10.152,2.662s-3.254,1.481,1.351,2.659,12.036.347,12.62-.564-.243-3.988-1.6-5.248S366.311,581.909,366.311,581.909Z" transform="translate(-306.354 -389.99)"/><path class="l" d="M432.722,565.094s-.3,5.922,1.822,10.172l1.517,20.5h4.859s0-10.023,2.279-15.336-1.216-11.235-1.216-11.235l-.3-6.075Z" transform="translate(-362.116 -377.18)"/><circle class="l" cx="6.224" cy="6.224" r="6.224" transform="translate(67.416 118.226)"/><rect class="l" width="7.592" height="6.833" transform="translate(69.39 127.637)"/><path class="i" d="M425.262,671.773a17.518,17.518,0,0,1-10.477.457s-3.491.759.759,2.885,11.692,2.885,12.451,2.124.609-3.948-.454-5.465S425.262,671.773,425.262,671.773Z" transform="translate(-348.28 -454.707)"/><path class="l" d="M352.915,424.49l-8.948,23.077s-6.833,1.822-3.339,5.164c0,0-.609-3.19,4.25-2.279a11.647,11.647,0,0,1,1.368,3.037c0,.759,1.559-2.538.931-4.151a37.044,37.044,0,0,1,7.561-12.86s3.8-6.681,3.644-11.235Z" transform="translate(-295.29 -277.646)"/><path class="l" d="M491.779,379.771s4.859,2.279,7.287,1.52c1.72-.539,3.593-3.971,4.54-5.922a2.953,2.953,0,0,1,2.3-1.65c1.8-.217,4.335-.195,3.635,1.808-1.063,3.037-4.555,3.948-4.555,3.948l-5.011,6.977H491.17Z" transform="translate(-404.092 -241.127)"/><circle class="u" cx="6.376" cy="6.376" r="6.376" transform="translate(66.127 117.541)"/><ellipse class="u" cx="4.707" cy="2.657" rx="4.707" ry="2.657" transform="translate(71.136 115.566)"/><path class="n" d="M250.45,545.375v.767l9.126-1.17V544.1Z" transform="translate(-179.819 -355.159)"/><path class="n" d="M203.655,475.37l-.615.121,2.95,8.782.369-.068Z" transform="translate(-145.779 -305.812)"/><path class="n" d="M319.81,369.2l.6.186.195,5.522h-.8Z" transform="translate(-229.618 -229.584)"/><path class="n" d="M202.823,397.37l-.2.519,5.395,3.373.152-.589Z" transform="translate(-145.477 -249.809)"/><path class="n" d="M405.584,492.65l-.894.355s14.972,7.256,19.907.9l-.164-.564S419.9,499.421,405.584,492.65Z" transform="translate(-342 -326.583)"/><path class="i" d="M381.87,490.736l4.23,12.059q3.04-.99,6.154-1.754a10.269,10.269,0,0,1,3.19-.355c-.846.155-.714.711-.948,1.551a7.952,7.952,0,0,0-.113,2.6,44.094,44.094,0,0,1-.35,8.773,67.663,67.663,0,0,1,13.621-1.517,43.47,43.47,0,0,1-1.263-7.51,8.779,8.779,0,0,1,0-2,12.555,12.555,0,0,1,.846-2.586,20.631,20.631,0,0,0,1.3-6.1,5.522,5.522,0,0,0-.257-2.383A4.215,4.215,0,0,0,406,489.342a10.977,10.977,0,0,0-3.133-.728,90.4,90.4,0,0,0-12.107-.364,7.653,7.653,0,0,0-3.734,1.176C386.568,489.644,382.073,491.319,381.87,490.736Z" transform="translate(-325.616 -323.4)"/><path class="i" d="M381.563,378.966a25.965,25.965,0,0,0-6.326,5.468l-4.758,5.1a70.782,70.782,0,0,1,6.768,3.627,4.743,4.743,0,0,1,2.033,1.909,4.616,4.616,0,0,1,.07,2.758,43.962,43.962,0,0,1-3.415,10.519c3.83.832,7.724,1.692,11.14,3.61a6.911,6.911,0,0,0,2.719,1.128,5.905,5.905,0,0,0,1.757-.211l8.664-1.946a1.608,1.608,0,0,0,.756-.313,1.64,1.64,0,0,0,.352-.564c1.526-3.339,3.088-6.839,2.924-10.508-.079-1.729-.539-3.483-.144-5.166s2.135-3.254,3.748-2.623l.711-8.113a2.876,2.876,0,0,0-.615-2.561,5.373,5.373,0,0,0-1.794-.62,11.722,11.722,0,0,1-2.538-1.636c-2.31-1.514-5.293-1.334-8.046-1.1a30.4,30.4,0,0,1-6.988.226A10.725,10.725,0,0,0,381.563,378.966Z" transform="translate(-317.438 -243.958)"/></g></svg>