<svg xmlns="http://www.w3.org/2000/svg" width="35.76" height="53.848" viewBox="0 0 35.76 53.848"><defs><style>.a{fill:#ff4157;}</style></defs><g transform="translate(0)"><path class="a" d="M123.134,143.4a1.006,1.006,0,0,1,.909-.532H146.2a1,1,0,0,1,1,1V153a1,1,0,1,1-2.009,0v-8.13H130.879l9.64,2.886a1,1,0,0,1,.716.962v28.358H145.2v-7.773a1,1,0,0,1,2.009,0v8.778a1,1,0,0,1-1,1h-4.965v3.849a1,1,0,0,1-1.293.963l-16.21-4.853a1,1,0,0,1-.717-.963V143.893A1.011,1.011,0,0,1,123.134,143.4Zm1.891,33.942,14.2,4.252V149.471l-14.2-4.252Zm0,0" transform="translate(-123.016 -130.096)"/><path class="a" d="M227.3,341.823a2.679,2.679,0,1,1,2.679-2.679A2.679,2.679,0,0,1,227.3,341.823Zm0-3.349a.67.67,0,1,0,.67.67A.67.67,0,0,0,227.3,338.474Zm0,0" transform="translate(-214.866 -306.394)"/><path class="a" d="M209.99,10.716a5.33,5.33,0,1,1,3.8-1.561A5.358,5.358,0,0,1,209.99,10.716Zm0-8.93a3.572,3.572,0,1,0,3.572,3.572A3.572,3.572,0,0,0,209.99,1.786Zm0,0" transform="translate(-198.453 0)"/><path class="a" d="M247.76,38.3l-.831.533v1.987a.893.893,0,1,1-1.786,0V38.341a.893.893,0,0,1,.411-.752l1.242-.8a.893.893,0,1,1,.963,1.5Zm0,0" transform="translate(-234.897 -33.376)"/><path class="a" d="M6.539,289.33H-5.438a1,1,0,0,1-1-1,1,1,0,0,1,1-1H6.539l-2.863-2.863A1,1,0,1,1,5.1,283.036l4.578,4.578a1,1,0,0,1,0,1.421L5.1,293.613a1,1,0,1,1-1.421-1.421Zm0,0" transform="translate(25.792 -257.472)"/></g></svg>