<svg xmlns="http://www.w3.org/2000/svg" xmlns:xlink="http://www.w3.org/1999/xlink" width="224.592" height="216.817" viewBox="0 0 224.592 216.817"><defs><style>.a{fill:url(#a);}.b{fill:#27373f;}.c{fill:#795548;}.d{fill:url(#b);}.e{fill:url(#c);}.f{fill:#fff;}.g{fill:url(#d);}.h{fill:#3e3d56;}.i{fill:#6c63ff;}.i,.k{opacity:0.2;}.j,.k{fill:#3f3d56;}.l{fill:#263238;}</style><linearGradient id="a" y1="0.5" x2="1" y2="0.5" gradientUnits="objectBoundingBox"><stop offset="0" stop-color="gray" stop-opacity="0.251"/><stop offset="0.54" stop-color="gray" stop-opacity="0.122"/><stop offset="1" stop-color="gray" stop-opacity="0.102"/></linearGradient><linearGradient id="b" x1="0.5" y1="1" x2="0.5" y2="0" xlink:href="#a"/><linearGradient id="c" x1="0.5" y1="1" x2="0.5" y2="0" xlink:href="#a"/><linearGradient id="d" x1="0.5" y1="1" x2="0.5" y2="0" xlink:href="#a"/></defs><g transform="translate(0 0)"><path class="a" d="M709,198.873V176h20.324v42.4Z" transform="translate(-545.382 -149.536)"/><path class="b" d="M716,208.98V189h15.157v37.917Z" transform="translate(-549.97 -158.03)"/><line class="c" y2="128.811" transform="translate(45.73 60.112)"/><rect class="d" width="7.017" height="128.808" transform="translate(42.121 60.112)"/><rect class="c" width="3.879" height="128.808" transform="translate(43.797 60.112)"/><line class="c" x1="23.001" y1="23.462" transform="translate(23.389 77)"/><rect class="c" width="3.879" height="32.857" transform="matrix(0.714, -0.7, 0.7, 0.714, 22.011, 78.367)"/><line class="c" y1="16.731" x2="23.845" transform="translate(45.921 103.404)"/><rect class="c" width="29.129" height="3.879" transform="translate(44.809 118.544) rotate(-35.06)"/><path class="e" d="M627.393,410h-173c-3.951,0-7.151,1.778-7.151,3.975v127H634.555v-127C634.555,411.778,631.345,410,627.393,410Z" transform="translate(-427.877 -328.108)"/><path class="f" d="M388.781,139.04,298.53,204.079V331.924H479.572V208.718Z" transform="translate(-276.311 -123.898)"/><ellipse class="g" cx="20.097" cy="20.097" rx="20.097" ry="20.097" transform="translate(94.517 52.61)"/><rect class="g" width="35.526" height="35.526" transform="translate(42.589 110.183)"/><rect class="g" width="35.526" height="35.526" transform="translate(149.612 110.183)"/><path class="g" d="M238.842,214.411l-4.812-26.918L346.9,100.75l111.726,88.476-3.1,24.151L346.879,131.4Z" transform="translate(-234.03 -100.75)"/><path class="b" d="M242.34,214.624l-3.31-18.6L350.146,109.32l110.031,86.712-3.331,18.581-106.717-84.1Z" transform="translate(-237.308 -106.368)"/><rect class="g" width="43.422" height="59.392" transform="translate(92.719 148.635)"/><rect class="h" width="40.911" height="58.134" transform="translate(93.981 149.892)"/><rect class="b" width="33.015" height="11.664" transform="translate(44.194 111.678)"/><rect class="i" width="33.015" height="21.351" transform="translate(44.194 123)"/><rect class="b" width="33.015" height="11.664" transform="translate(150.869 111.678)"/><rect class="i" width="33.015" height="21.351" transform="translate(150.869 123)"/><path class="j" d="M682.692,392.319A18.3,18.3,0,0,0,700.995,374h-36.6A18.3,18.3,0,0,0,682.692,392.319Z" transform="translate(-568.242 -301.782)"/><path class="k" d="M682.692,391.832a18.3,18.3,0,0,0,18.3-18.3h-36.6A18.3,18.3,0,0,0,682.692,391.832Z" transform="translate(-568.242 -301.47)"/><path class="i" d="M682.692,320.92a18.3,18.3,0,0,0-18.3,18.285h36.6A18.3,18.3,0,0,0,682.692,320.92Z" transform="translate(-568.242 -266.616)"/><path class="i" d="M682.692,320.92a18.3,18.3,0,0,0-18.3,18.285h36.6A18.3,18.3,0,0,0,682.692,320.92Z" transform="translate(-568.242 -266.616)"/><ellipse class="g" cx="4.306" cy="4.306" rx="4.306" ry="4.306" transform="translate(120.96 175.525)"/><ellipse class="l" cx="3.231" cy="3.231" rx="3.231" ry="3.231" transform="translate(122.042 176.618)"/><rect class="g" width="52.75" height="17.224" transform="translate(87.318 199.593)"/><rect class="f" width="50.597" height="14.713" transform="translate(88.401 201.026)"/><line class="c" y2="59.378" transform="translate(41.287 156.527)"/><line class="c" x1="10.603" y1="10.817" transform="translate(30.988 164.432)"/><line class="c" y1="7.713" x2="10.992" transform="translate(41.384 176.926)"/></g></svg>