<svg xmlns="http://www.w3.org/2000/svg" width="57.674" height="31.572" viewBox="0 0 57.674 31.572"><defs><style>.a{fill:#ff4157;}</style></defs><path class="a" d="M57.177,116.633H53.525v-2.6a.5.5,0,0,0-.5-.5H34.07a2.659,2.659,0,0,0-2.913-.669l-1.723.669H24.346a.5.5,0,0,0-.5.5v.646H21.045a5.176,5.176,0,1,0,0,10.351H23.85v.8H5.2v-5.614a5.255,5.255,0,1,0,0-.719v-7.34a.5.5,0,0,0-.5-.5H.5a.5.5,0,0,0-.5.5v30.579a.5.5,0,0,0,.5.5H4.708a.5.5,0,0,0,.5-.5v-7.459H52.531v7.459a.5.5,0,0,0,.5.5h4.15a.5.5,0,0,0,.5-.5V117.13A.5.5,0,0,0,57.177,116.633ZM10.446,115.6a4.262,4.262,0,1,1-4.262,4.262A4.267,4.267,0,0,1,10.446,115.6Zm42.085,11.171H36.451a.5.5,0,0,0,0,.993h16.08v2.374H24.843v-9.112l8.238-3.2a2.651,2.651,0,0,0,1.564-3.29H52.531v12.234ZM31.517,113.8a1.663,1.663,0,0,1,1.9.511c0,.008.011.015.016.022a1.68,1.68,0,0,1,.234.416,1.663,1.663,0,0,1-.948,2.153L21.11,121.408a1.663,1.663,0,1,1-1.2-3.1Zm-4.64.737-2.033.79v-.79Zm-5.832,9.507a4.182,4.182,0,1,1,0-8.364H23.85v.033l-4.3,1.672a2.657,2.657,0,1,0,1.924,4.953l2.379-.924v2.631Zm35.636,18.2H53.525v-7.459a.5.5,0,0,0-.5-.5H4.708a.5.5,0,0,0-.5.5v7.459H.993v-9.585H15.238a.5.5,0,1,0,0-.993H.993V112.654H4.211v13.674a.5.5,0,0,0,.5.5H23.85v3.807a.5.5,0,0,0,.5.5H53.028a.5.5,0,0,0,.5-.5V117.627h3.156V142.24Z" transform="translate(0 -111.661)"/></svg>