<svg xmlns="http://www.w3.org/2000/svg" width="52.232" height="32.71" viewBox="0 0 52.232 32.71"><defs><style>.a{fill:#ff4157;}</style></defs><g transform="translate(0 -0.004)"><path class="a" d="M204.488,90.27a.633.633,0,1,0,0-1.266H198.18a.633.633,0,1,0,0,1.266h1.8a2,2,0,0,1,1.974,1.372H198.18a.633.633,0,1,0,0,1.266h3.778a2.1,2.1,0,0,1-1.974,1.477h-1.8a.627.627,0,0,0-.435,1.084l4.511,4.261a.631.631,0,0,0,.87-.915l-3.354-3.164h.213a3.335,3.335,0,0,0,3.278-2.743h1.224a.633.633,0,1,0,0-1.266h-1.224a3.175,3.175,0,0,0-.663-1.372Zm0,0" transform="translate(-176.702 -79.609)"/><path class="a" d="M73.64,36.127a5.181,5.181,0,0,1-3.728-1.19c-.873-.855-1.322-2.272-1.374-4.3A.645.645,0,0,0,67.906,30H36.358a.645.645,0,0,0-.633.631c-.12,4.662-1.3,5.44-4.121,5.485a.625.625,0,0,0-.605.64v9.795a.619.619,0,0,0,.606.633c2.952.048,4.013.9,4.129,5.5a.644.644,0,0,0,.624.637h31.49a.651.651,0,0,0,.633-.637c.1-3.834,1.591-5.431,5.16-5.489a.64.64,0,0,0,.62-.644V36.76A.631.631,0,0,0,73.64,36.127Zm-.646,9.821c-3.588.249-5.483,2.205-5.751,6.109H36.968c-.106-2.216-.454-3.588-1.174-4.52a4.5,4.5,0,0,0-3.53-1.589V37.366c3.588-.265,4.53-2.4,4.7-6.1H67.3a6.656,6.656,0,0,0,1.724,4.558,6.138,6.138,0,0,0,3.969,1.539Zm0,0" transform="translate(-27.727 -26.834)"/><path class="a" d="M156.865,54.836a9.033,9.033,0,1,0,9.033,9.033A9.033,9.033,0,0,0,156.865,54.836Zm0,16.8a7.767,7.767,0,1,1,7.767-7.766A7.766,7.766,0,0,1,156.865,71.635Zm0,0" transform="translate(-132.233 -49.046)"/><path class="a" d="M51.65,3.169h-2.48V.686A.645.645,0,0,0,48.577,0H.686A.723.723,0,0,0,0,.686V28.959a.645.645,0,0,0,.686.589h2.48v2.484a.644.644,0,0,0,.594.682H51.65a.634.634,0,0,0,.58-.682V3.759a.554.554,0,0,0-.58-.59ZM1.266,1.27H47.9V28.282H1.266Zm49.7,30.178H4.432v-1.9H48.577a.565.565,0,0,0,.594-.589V4.436h1.794Zm0,0"/></g></svg>