<?xml version="1.0" encoding="utf-8"?>
<!-- Generator: Adobe Illustrator 22.1.0, SVG Export Plug-In . SVG Version: 6.00 Build 0)  -->
<svg version="1.1" id="Layer_1" xmlns="http://www.w3.org/2000/svg" xmlns:xlink="http://www.w3.org/1999/xlink" x="0px" y="0px"
	 viewBox="0 0 654.1 487.6" style="enable-background:new 0 0 654.1 487.6;" xml:space="preserve">
<style type="text/css">
	.st0{display:none;}
	.st1{display:inline;}
	.st2{fill:#ECEFF1;}
	.st3{opacity:0.24;clip-path:url(#SVGID_2_);}
	.st4{fill:none;stroke:#CFD8DC;stroke-width:5;stroke-linecap:round;stroke-linejoin:round;stroke-miterlimit:10;}
	.st5{fill:#B0BEC5;}
	.st6{fill:#3C4E54;}
	.st7{fill:#27383F;}
	.st8{fill:#FFFFFF;}
	.st9{fill:#455A64;}
	.st10{fill:#CFD8DC;}
	.st11{fill:none;stroke:#27383F;stroke-miterlimit:10;}
	.st12{fill:none;stroke:#546E7A;stroke-width:2;stroke-linecap:round;stroke-linejoin:round;}
	.st13{fill:none;stroke:#546E7A;stroke-width:2;stroke-linecap:round;stroke-linejoin:round;stroke-dasharray:0,6.0688;}
	.st14{fill:none;stroke:#546E7A;stroke-width:2;stroke-linecap:round;stroke-linejoin:round;stroke-dasharray:0,6.0071;}
	.st15{fill:none;stroke:#546E7A;stroke-width:2;stroke-linecap:round;stroke-linejoin:round;stroke-dasharray:0,6.0682;}
	.st16{fill:#EC3C54;}
	.st17{fill:none;stroke:#27383F;stroke-width:2;stroke-miterlimit:10;}
	.st18{fill:none;stroke:#B0BEC5;stroke-width:1.5;stroke-linecap:round;stroke-linejoin:round;stroke-miterlimit:10;}
	.st19{font-family:'Avenir-Medium';}
	.st20{font-size:12px;}
	.st21{fill:none;}
</style>
<g id="BACKGROUND" class="st0">
	<g class="st1">
		<rect x="72.5" y="-10.4" class="st2" width="500" height="500"/>
		<g>
			<g>
				<g>
					<defs>
						<rect id="SVGID_1_" x="72.5" y="-10.4" width="500" height="500"/>
					</defs>
					<clipPath id="SVGID_2_">
						<use xlink:href="#SVGID_1_"  style="overflow:visible;"/>
					</clipPath>
					<g class="st3">
						<line class="st4" x1="-517.5" y1="-10.4" x2="-143.1" y2="495.6"/>
						<line class="st4" x1="-503.3" y1="-10.4" x2="-128.9" y2="495.6"/>
						<line class="st4" x1="-489.1" y1="-10.4" x2="-114.7" y2="495.6"/>
						<line class="st4" x1="-475" y1="-10.4" x2="-100.5" y2="495.6"/>
						<line class="st4" x1="-460.8" y1="-10.4" x2="-86.4" y2="495.6"/>
						<line class="st4" x1="-446.6" y1="-10.4" x2="-72.2" y2="495.6"/>
						<line class="st4" x1="-432.4" y1="-10.4" x2="-58" y2="495.6"/>
						<line class="st4" x1="-418.3" y1="-10.4" x2="-43.8" y2="495.6"/>
						<line class="st4" x1="-404.1" y1="-10.4" x2="-29.7" y2="495.6"/>
						<line class="st4" x1="-389.9" y1="-10.4" x2="-15.5" y2="495.6"/>
						<line class="st4" x1="-375.7" y1="-10.4" x2="-1.3" y2="495.6"/>
						<line class="st4" x1="-361.6" y1="-10.4" x2="12.9" y2="495.6"/>
						<line class="st4" x1="-347.4" y1="-10.4" x2="27.1" y2="495.6"/>
						<line class="st4" x1="-333.2" y1="-10.4" x2="41.2" y2="495.6"/>
						<line class="st4" x1="-319" y1="-10.4" x2="55.4" y2="495.6"/>
						<line class="st4" x1="-304.9" y1="-10.4" x2="69.6" y2="495.6"/>
						<line class="st4" x1="-290.7" y1="-10.4" x2="83.8" y2="495.6"/>
						<line class="st4" x1="-276.5" y1="-10.4" x2="97.9" y2="495.6"/>
						<line class="st4" x1="-262.3" y1="-10.4" x2="112.1" y2="495.6"/>
						<line class="st4" x1="-248.1" y1="-10.4" x2="126.3" y2="495.6"/>
						<line class="st4" x1="-234" y1="-10.4" x2="140.5" y2="495.6"/>
						<line class="st4" x1="-219.8" y1="-10.4" x2="154.6" y2="495.6"/>
						<line class="st4" x1="-205.6" y1="-10.4" x2="168.8" y2="495.6"/>
						<line class="st4" x1="-191.4" y1="-10.4" x2="183" y2="495.6"/>
						<line class="st4" x1="-177.3" y1="-10.4" x2="197.2" y2="495.6"/>
						<line class="st4" x1="-163.1" y1="-10.4" x2="211.3" y2="495.6"/>
						<line class="st4" x1="-148.9" y1="-10.4" x2="225.5" y2="495.6"/>
						<line class="st4" x1="-134.7" y1="-10.4" x2="239.7" y2="495.6"/>
						<line class="st4" x1="-120.6" y1="-10.4" x2="253.9" y2="495.6"/>
						<line class="st4" x1="-106.4" y1="-10.4" x2="268.1" y2="495.6"/>
						<line class="st4" x1="-92.2" y1="-10.4" x2="282.2" y2="495.6"/>
						<line class="st4" x1="-78" y1="-10.4" x2="296.4" y2="495.6"/>
						<line class="st4" x1="-63.9" y1="-10.4" x2="310.6" y2="495.6"/>
						<line class="st4" x1="-49.7" y1="-10.4" x2="324.8" y2="495.6"/>
						<line class="st4" x1="-35.5" y1="-10.4" x2="338.9" y2="495.6"/>
						<line class="st4" x1="-21.3" y1="-10.4" x2="353.1" y2="495.6"/>
						<line class="st4" x1="-7.1" y1="-10.4" x2="367.3" y2="495.6"/>
						<line class="st4" x1="7" y1="-10.4" x2="381.5" y2="495.6"/>
						<line class="st4" x1="21.2" y1="-10.4" x2="395.6" y2="495.6"/>
						<line class="st4" x1="35.4" y1="-10.4" x2="409.8" y2="495.6"/>
						<line class="st4" x1="49.6" y1="-10.4" x2="424" y2="495.6"/>
						<line class="st4" x1="63.7" y1="-10.4" x2="438.2" y2="495.6"/>
						<line class="st4" x1="77.9" y1="-10.4" x2="452.3" y2="495.6"/>
						<line class="st4" x1="92.1" y1="-10.4" x2="466.5" y2="495.6"/>
						<line class="st4" x1="106.3" y1="-10.4" x2="480.7" y2="495.6"/>
						<line class="st4" x1="120.4" y1="-10.4" x2="494.9" y2="495.6"/>
						<line class="st4" x1="134.6" y1="-10.4" x2="509.1" y2="495.6"/>
						<line class="st4" x1="148.8" y1="-10.4" x2="523.2" y2="495.6"/>
						<line class="st4" x1="163" y1="-10.4" x2="537.4" y2="495.6"/>
						<line class="st4" x1="177.2" y1="-10.4" x2="551.6" y2="495.6"/>
						<line class="st4" x1="191.3" y1="-10.4" x2="565.8" y2="495.6"/>
						<line class="st4" x1="205.5" y1="-10.4" x2="579.9" y2="495.6"/>
						<line class="st4" x1="219.7" y1="-10.4" x2="594.1" y2="495.6"/>
						<line class="st4" x1="233.9" y1="-10.4" x2="608.3" y2="495.6"/>
						<line class="st4" x1="248" y1="-10.4" x2="622.5" y2="495.6"/>
						<line class="st4" x1="262.2" y1="-10.4" x2="636.6" y2="495.6"/>
						<line class="st4" x1="276.4" y1="-10.4" x2="650.8" y2="495.6"/>
						<line class="st4" x1="290.6" y1="-10.4" x2="665" y2="495.6"/>
						<line class="st4" x1="304.7" y1="-10.4" x2="679.2" y2="495.6"/>
						<line class="st4" x1="318.9" y1="-10.4" x2="693.4" y2="495.6"/>
						<line class="st4" x1="333.1" y1="-10.4" x2="707.5" y2="495.6"/>
						<line class="st4" x1="347.3" y1="-10.4" x2="721.7" y2="495.6"/>
						<line class="st4" x1="361.4" y1="-10.4" x2="735.9" y2="495.6"/>
						<line class="st4" x1="375.6" y1="-10.4" x2="750.1" y2="495.6"/>
						<line class="st4" x1="389.8" y1="-10.4" x2="764.2" y2="495.6"/>
						<line class="st4" x1="404" y1="-10.4" x2="778.4" y2="495.6"/>
						<line class="st4" x1="418.2" y1="-10.4" x2="792.6" y2="495.6"/>
						<line class="st4" x1="432.3" y1="-10.4" x2="806.8" y2="495.6"/>
						<line class="st4" x1="446.5" y1="-10.4" x2="820.9" y2="495.6"/>
						<line class="st4" x1="460.7" y1="-10.4" x2="835.1" y2="495.6"/>
						<line class="st4" x1="474.9" y1="-10.4" x2="849.3" y2="495.6"/>
						<line class="st4" x1="489" y1="-10.4" x2="863.5" y2="495.6"/>
						<line class="st4" x1="503.2" y1="-10.4" x2="877.6" y2="495.6"/>
						<line class="st4" x1="517.4" y1="-10.4" x2="891.8" y2="495.6"/>
						<line class="st4" x1="531.6" y1="-10.4" x2="906" y2="495.6"/>
						<line class="st4" x1="545.7" y1="-10.4" x2="920.2" y2="495.6"/>
						<line class="st4" x1="559.9" y1="-10.4" x2="934.4" y2="495.6"/>
						<line class="st4" x1="574.1" y1="-10.4" x2="948.5" y2="495.6"/>
						<line class="st4" x1="588.3" y1="-10.4" x2="962.7" y2="495.6"/>
						<line class="st4" x1="602.4" y1="-10.4" x2="976.9" y2="495.6"/>
						<line class="st4" x1="616.6" y1="-10.4" x2="991.1" y2="495.6"/>
						<line class="st4" x1="630.8" y1="-10.4" x2="1005.2" y2="495.6"/>
						<line class="st4" x1="645" y1="-10.4" x2="1019.4" y2="495.6"/>
						<line class="st4" x1="659.2" y1="-10.4" x2="1033.6" y2="495.6"/>
						<line class="st4" x1="673.3" y1="-10.4" x2="1047.8" y2="495.6"/>
						<line class="st4" x1="687.5" y1="-10.4" x2="1061.9" y2="495.6"/>
						<line class="st4" x1="701.7" y1="-10.4" x2="1076.1" y2="495.6"/>
						<line class="st4" x1="715.9" y1="-10.4" x2="1090.3" y2="495.6"/>
						<line class="st4" x1="730" y1="-10.4" x2="1104.5" y2="495.6"/>
						<line class="st4" x1="744.2" y1="-10.4" x2="1118.6" y2="495.6"/>
						<line class="st4" x1="758.4" y1="-10.4" x2="1132.8" y2="495.6"/>
						<line class="st4" x1="772.6" y1="-10.4" x2="1147" y2="495.6"/>
						<line class="st4" x1="786.7" y1="-10.4" x2="1161.2" y2="495.6"/>
						<line class="st4" x1="800.9" y1="-10.4" x2="1175.4" y2="495.6"/>
						<line class="st4" x1="815.1" y1="-10.4" x2="1189.5" y2="495.6"/>
					</g>
				</g>
			</g>
		</g>
	</g>
</g>
<rect x="220.5" y="217.6" class="st5" width="181.2" height="78.1"/>
<rect x="211.2" y="214.2" class="st6" width="199.7" height="8.9"/>
<polygon class="st7" points="410.9,214.2 211.2,214.2 239,174.2 383.1,174.2 "/>
<polygon class="st8" points="315.7,290.3 426.1,290.3 426.1,217.2 371,175.5 315.7,217.2 "/>
<rect x="238" y="238.1" class="st9" width="60.3" height="57.6"/>
<polygon class="st7" points="298.3,238.1 238,238.1 238,295.7 "/>
<g>
	<rect x="355.2" y="199.4" class="st10" width="31.5" height="22.7"/>
	<rect x="355.2" y="218.6" class="st9" width="31.5" height="3.6"/>
	<polygon class="st2" points="355.2,218.7 355.2,199.4 374.3,199.4 	"/>
</g>
<g>
	<rect x="324.6" y="240.7" class="st10" width="19.1" height="29.7"/>
	<polygon class="st2" points="324.6,260 324.6,240.7 343.8,240.7 	"/>
	<rect x="324.6" y="266.9" class="st9" width="19.1" height="3.6"/>
</g>
<g>
	<rect x="351.8" y="240.7" class="st10" width="19.1" height="29.7"/>
	<polygon class="st2" points="351.8,260 351.8,240.7 370.9,240.7 	"/>
	<rect x="351.8" y="266.9" class="st9" width="19.1" height="3.6"/>
</g>
<rect x="392.3" y="250.2" class="st9" width="23.2" height="40"/>
<rect x="396.8" y="255.6" class="st10" width="14.1" height="25.9"/>
<polygon class="st2" points="382.7,177.2 378.6,170.7 315.7,218.2 315.7,227.9 "/>
<polygon class="st10" points="372.7,165.5 308.4,214.2 308.4,228.1 372.7,179.4 437,228.1 437,214.2 "/>
<rect x="205.1" y="290.3" class="st7" width="234.8" height="5.4"/>
<ellipse class="st11" cx="326.2" cy="248.2" rx="165.3" ry="165.3"/>
<g>
	<g>
		<line class="st12" x1="343.2" y1="330.6" x2="343.2" y2="330.6"/>
		<line class="st13" x1="343.2" y1="336.7" x2="343.2" y2="430.8"/>
		<line class="st12" x1="343.2" y1="433.8" x2="343.2" y2="433.8"/>
		<path class="st14" d="M349.2,433.2c92-11.4,163.3-89.8,163.3-185c0-102.9-83.4-186.3-186.3-186.3s-186.3,83.4-186.3,186.3
			c0,59.7,28,112.8,71.7,146.9"/>
		<line class="st12" x1="213.9" y1="396.9" x2="213.9" y2="396.9"/>
	</g>
</g>
<g>
	<g>
		<line class="st12" x1="213.9" y1="396.9" x2="213.9" y2="396.9"/>
		<path class="st15" d="M218.8,400.6c21.4,14.9,62.2,29.8,87.4,32.9"/>
		<line class="st12" x1="309.2" y1="433.8" x2="309.2" y2="433.8"/>
		<line class="st13" x1="309.2" y1="427.7" x2="309.2" y2="333.7"/>
		<line class="st12" x1="309.2" y1="330.6" x2="309.2" y2="330.6"/>
	</g>
</g>
<g>
	<ellipse class="st16" cx="332.3" cy="69.7" rx="22.1" ry="22.1"/>
	<path class="st8" d="M332.3,56.2c-5.4,0-9.8,4.4-9.8,9.8s9.8,17,9.8,17s9.8-11.6,9.8-17S337.7,56.2,332.3,56.2z M332.3,69.6
		c-2.3,0-4.2-1.9-4.2-4.2s1.9-4.2,4.2-4.2c2.3,0,4.2,1.9,4.2,4.2C336.5,67.7,334.6,69.6,332.3,69.6z"/>
</g>
<g>
	<line class="st11" x1="411.9" y1="156.6" x2="421.9" y2="156.6"/>
	<line class="st11" x1="416.9" y1="151.6" x2="416.9" y2="161.6"/>
</g>
<g>
	<line class="st11" x1="366" y1="384.2" x2="376" y2="384.2"/>
	<line class="st11" x1="371" y1="379.2" x2="371" y2="389.2"/>
</g>
<g>
	<line class="st11" x1="134.9" y1="335.6" x2="144.9" y2="335.6"/>
	<line class="st11" x1="139.9" y1="330.6" x2="139.9" y2="340.6"/>
</g>
<path class="st11" d="M176.1,229.8c2.8,0,5,2.2,5,5s-2.2,5-5,5"/>
<g>
	<line class="st11" x1="228.5" y1="135.8" x2="243.2" y2="135.8"/>
	<line class="st11" x1="252" y1="135.8" x2="258.5" y2="135.8"/>
</g>
<g>
	<line class="st11" x1="472.8" y1="234.6" x2="472.8" y2="224.8"/>
	<line class="st11" x1="472.8" y1="218.9" x2="472.8" y2="214.6"/>
</g>
<g>
	<line class="st11" x1="225.8" y1="355.9" x2="225.8" y2="346.1"/>
	<line class="st11" x1="225.8" y1="340.2" x2="225.8" y2="335.8"/>
</g>
<circle class="st11" cx="254.9" cy="60.8" r="3.5"/>
<circle class="st11" cx="400.7" cy="437.3" r="3.5"/>
<line class="st17" x1="461.5" y1="176.8" x2="469.3" y2="169"/>
<path class="st16" d="M495.7,142.7c-7.7-7.7-20.2-7.7-27.9,0s-7.7,20.2,0,27.9s20.2,7.7,27.9,0C503.4,162.8,503.4,150.4,495.7,142.7
	z M472.6,165.7c-5-5-5-13.2,0-18.2c5-5,13.2-5,18.2,0c5,5,5,13.2,0,18.2C485.8,170.7,477.7,170.7,472.6,165.7z"/>
<path class="st7" d="M445.1,193.3L445.1,193.3c-1.1-1.1-1.1-3,0-4.1l14.4-14.4c1.1-1.1,3-1.1,4.1,0l0,0c1.1,1.1,1.1,3,0,4.1
	l-14.4,14.4C448,194.4,446.2,194.4,445.1,193.3z"/>
<g>
	<polygon class="st8" points="473.1,268.2 460.8,280.4 460.8,336.8 511,336.8 511,268.2 	"/>
	<polyline class="st10" points="473.1,268.2 473.1,280.4 460.8,280.4 	"/>
	<line class="st18" x1="468.4" y1="289.6" x2="503.5" y2="289.6"/>
	<line class="st18" x1="468.4" y1="294.7" x2="503.5" y2="294.7"/>
	<line class="st18" x1="468.4" y1="299.8" x2="503.5" y2="299.8"/>
	<line class="st18" x1="468.4" y1="305" x2="503.5" y2="305"/>
	<line class="st18" x1="468.4" y1="310" x2="486" y2="310"/>
</g>
<path class="st16" d="M523.2,336.8h-0.8c-1,0-1.9-0.9-1.9-1.9V285h4.6v49.9C525.1,335.9,524.2,336.8,523.2,336.8z"/>
<path class="st7" d="M523.2,336.8h-0.8c-1,0-1.9-0.9-1.9-1.9v-9.8h4.6v9.8C525.1,335.9,524.2,336.8,523.2,336.8z"/>
<polygon class="st7" points="520.5,285 522.8,277.9 525.1,285 "/>
<polyline class="st11" points="522.8,334.2 526.9,334.2 526.9,319.7 "/>
<g>
	<g>
		<path class="st8" d="M172.9,307.4h-2h-2H167h-2h-2h-2h-2h-2h-2h-2h-2h-2h-2h-1.6h-2h-2v-3.7V300v-3.7v-3.7v-3.9V285v-3.7v-3.7
			v-3.7v-3.7v-3.7v-3.7v-3.7v-3.7v-3.7v-3c0-0.2,0.3-0.3,0.5-0.2l1.5,1.9l1.6-2c0.2-0.2,0.5-0.2,0.6,0l1.6,2l1.6-2
			c0.2-0.2,0.5-0.2,0.6,0l1.6,2l1.6-2c0.2-0.2,0.5-0.2,0.6,0l1.6,2l1.6-2c0.2-0.2,0.5-0.2,0.6,0l1.6,2l1.6-2c0.2-0.2,0.5-0.2,0.6,0
			l1.6,2l1.6-2c0.2-0.2,0.5-0.2,0.6,0l1.6,2l1.6-2c0.2-0.2,0.5-0.2,0.6,0l1.6,2l1.5-1.9c0.2-0.2,0.5-0.1,0.5,0.2v3v3.7v3.7v3.7v3.7
			v3.7v3.7v3.7v3.7v3.7v3.7v3.7v3.7v3.7v3.7v3.9L172.9,307.4L172.9,307.4z"/>
		<rect x="141.3" y="303.2" class="st5" width="31.6" height="4.2"/>
		<line class="st18" x1="145.6" y1="271.9" x2="168.5" y2="271.9"/>
		<line class="st18" x1="145.6" y1="275.6" x2="168.5" y2="275.6"/>
		<line class="st18" x1="145.6" y1="279.2" x2="168.5" y2="279.2"/>
		<line class="st18" x1="145.6" y1="282.8" x2="168.5" y2="282.8"/>
		<line class="st18" x1="145.6" y1="286.5" x2="168.5" y2="286.5"/>
		<line class="st18" x1="145.6" y1="290.2" x2="168.5" y2="290.2"/>
		<line class="st18" x1="145.6" y1="293.8" x2="154.9" y2="293.8"/>
	</g>
	<path class="st7" d="M180.4,322h-55.9c-2.2,0-3.9-1.8-3.9-3.9v-28.6c0-2.2,1.8-3.9,3.9-3.9h55.9c2.2,0,3.9,1.8,3.9,3.9V318
		C184.4,320.2,182.6,322,180.4,322z"/>
	<g>
		<path class="st8" d="M136.7,306.8h-7.2c-0.9,0-1.6-0.7-1.6-1.6v-7.2c0-0.9,0.7-1.6,1.6-1.6h7.2c0.9,0,1.6,0.7,1.6,1.6v7.2
			C138.3,306.1,137.6,306.8,136.7,306.8z"/>
		<g>
			<line class="st11" x1="127.9" y1="299.1" x2="138.3" y2="299.1"/>
			<line class="st11" x1="127.9" y1="301.6" x2="138.3" y2="301.6"/>
			<line class="st11" x1="127.9" y1="304.1" x2="138.3" y2="304.1"/>
			<rect x="130.8" y="299.1" class="st11" width="4.6" height="5"/>
		</g>
	</g>
	<circle class="st16" cx="171.7" cy="296.7" r="6.4"/>
	<circle class="st8" cx="163.8" cy="296.7" r="6.4"/>
	<line class="st18" x1="127.9" y1="291.6" x2="148.3" y2="291.6"/>
	<line class="st18" x1="127.9" y1="311.7" x2="169.7" y2="311.7"/>
	<line class="st18" x1="127.9" y1="315.6" x2="169.7" y2="315.6"/>
</g>
<g>
	<path class="st16" d="M209.2,132.1l-11.8,10.7l5.4,26.9l-5.6,5.2L185.9,152l-14,10.3l1.7,9.2l-4.1,3.6c0,0-4.7-8.4-5.7-11.1
		s-10.5-8.1-10.5-8.1l3.6-5.8l8.2,4.1l13.5-9.9l-1.6-1.5l-19.6-15.3l7-5.4l23.7,10.6l1.8,0.4l11.7-10.3c0,0,7.2-1.1,8.5,1.4
		C211.3,126.6,209.2,132.1,209.2,132.1z"/>
	<g>
		<g>
			<path class="st7" d="M169.7,176.5L169.7,176.5l4.9-4c0.3-0.3,0.5-0.6,0.4-1l-1.9-8.7l12.4-9.7c0,0,10.4,23.2,10.6,23.3
				c0.4,0.5,1.1,0.5,1.6,0.1l0,0l6.3-5.2c0.3-0.3,0.5-0.6,0.3-1l-5.8-27.3l10.7-8.4l0.1-0.1l0.1-0.1c1.5-1.2,2.4-3,2.5-4.9
				c0.1-1.9-0.4-3.8-1.6-5.2l-0.3-0.3c-1.3-1.4-3-2.3-5-2.5c-1.9-0.2-3.8,0.4-5.3,1.6l-0.1,0.1l-10.2,9l-26-10.4
				c-0.4-0.2-0.8-0.1-1.2,0.2c0,0-6.4,5.4-6.5,5.4c-0.3,0.5-0.3,1.2,0.3,1.5l0,0l21.1,14l-11.8,10.5l-8.3-3.3
				c-0.4-0.1-0.8-0.1-1.2,0.2c0,0-5,4.1-5.1,4.3c-0.3,0.5-0.3,1.2,0.3,1.5l0,0l11.5,7.5c0,0,5.6,12.7,5.7,12.8
				C168.5,176.9,169.2,176.9,169.7,176.5z M164.3,162.5c-0.1-0.2-0.3-0.4-0.5-0.5l-10.5-6.9l3.2-2.7l8.4,3.3
				c0.4,0.2,0.9,0.1,1.2-0.3l13.3-11.8c0.5-0.4,0.5-1.1,0.1-1.6l0,0c-0.1-0.1-21.2-14.2-21.2-14.2l4.7-3.9l26.2,10.4
				c0.4,0.2,0.9,0.1,1.2-0.3l10.6-9.4l0.1-0.1c1-0.8,2.3-1.2,3.7-1.1c1.4,0.1,2.6,0.7,3.5,1.7l0.2,0.3c0.8,1,1.2,2.4,1.2,3.8
				c-0.1,1.3-0.7,2.5-1.7,3.4l-0.1,0.1l-0.1,0.1l-11.2,8.8c-0.3,0.3-0.5,0.6-0.4,1.1l5.8,27.3l-4.7,3.9l-10.4-23.1
				c-0.3-0.6-0.9-0.8-1.4-0.6l0,0c-0.1,0.1-14.3,11.1-14.3,11.1c-0.3,0.3-0.5,0.6-0.4,1.1l1.9,8.7l-3.2,2.7L164.3,162.5z"/>
		</g>
	</g>
</g>


<g>
	<path class="st7" d="M469.9,33.8H358.3c-5.1,0-9.1-4.1-9.1-9.1V10.9c0-5.1,4.1-9.1,9.1-9.1h111.6c5.1,0,9.2,4.1,9.2,9.1v13.7
		C479.1,29.7,475,33.8,469.9,33.8z"/>
	<polyline class="st7" points="349.2,42.3 349.2,24.7 366.8,24.7 	"/>
	<text transform="matrix(1 0 0 1 356.7657 20.4403)" class="st8 st19 st20">Locate Your Property</text>
</g>
<path class="st7" d="M643.3,390.7H531.7c-5.1,0-9.1-4.1-9.1-9.1v-13.7c0-5.1,4.1-9.1,9.1-9.1h111.6c5.1,0,9.1,4.1,9.1,9.1v13.7
	C652.4,386.6,648.3,390.7,643.3,390.7z"/>
<polyline class="st7" points="540.1,367.8 522.5,367.8 522.5,350.1 "/>
<text transform="matrix(1 0 0 1 558.896 377.3327)" class="st8 st19 st20">Book Now</text>
<path class="st7" d="M291.4,487.6H179.8c-5.1,0-9.1-4.1-9.1-9.1v-13.7c0-5.1,4.1-9.1,9.1-9.1h111.6c5.1,0,9.2,4.1,9.2,9.1v13.7
	C300.6,483.5,296.5,487.6,291.4,487.6z"/>
<polyline class="st7" points="300.6,447.1 300.6,464.8 283,464.8 "/>
<text transform="matrix(1 0 0 1 195.5056 474.2902)" class="st8 st19 st20">Enjoy The Stay</text>
<path class="st7" d="M120.8,384.5H9.1c-5.1,0-9.1-4.1-9.1-9.1v-13.7c0-5.1,4.1-9.1,9.1-9.1h111.6c5.1,0,9.1,4.1,9.1,9.1v13.7
	C129.9,380.4,125.8,384.5,120.8,384.5z"/>
<polyline class="st7" points="129.9,343.9 129.9,361.6 112.2,361.6 "/>
<text transform="matrix(1 0 0 1 29.0528 371.1328)" class="st8 st19 st20">Pay Your Bills</text>
<path class="st7" d="M143.3,103.2H31.7c-5.1,0-9.1-4.1-9.1-9.1V80.3c0-5.1,4.1-9.2,9.1-9.2h111.6c5.1,0,9.1,4.1,9.1,9.2V94
	C152.5,99.1,148.4,103.2,143.3,103.2z"/>
<polyline class="st7" points="134.8,94.2 152.4,94.2 152.4,111.9 "/>
<text transform="matrix(1 0 0 1 51.6459 89.8328)" class="st8 st19 st20">Check-Out</text>
<path class="st7" d="M614.6,122.2H503c-5.1,0-9.1-4.1-9.1-9.2V99.4c0-5.1,4.1-9.1,9.1-9.1h111.6c5.1,0,9.2,4.1,9.2,9.1v13.7
	C623.8,118.1,619.7,122.2,614.6,122.2z"/>
<polyline class="st7" points="493.9,130.2 493.9,112.5 511.5,112.5 "/>
<text transform="matrix(1 0 0 1 540.7167 108.9078)" class="st8 st19 st20">Search</text>
<g>
	<line class="st21" x1="283.9" y1="391.4" x2="283.9" y2="390.9"/>
	<path class="st16" d="M366.8,411.2h-48.3c-1.2,0-2.1-1-2.1-2.1l0,0c0-1.2,1-2.1,2.1-2.1h48.3c1.2,0,2.1,1,2.1,2.1l0,0
		C368.9,410.3,368,411.2,366.8,411.2z"/>
	<polygon class="st16" points="340.1,423.3 317.4,423.3 299.9,423.3 283.9,423.3 283.9,423.8 283.9,428.1 363.6,428.1 363.6,423.8 
		363.6,423.6 363.6,423.3 357.6,423.3 	"/>
	<path class="st16" d="M292.7,405c-0.7-0.2-1.2-0.3-2-0.3c-3.6,0-6.6,3-6.6,6.6s3,6.6,6.6,6.6c2.9,0,5.3-1.8,6.2-4.4
		c0.2-0.7,0.4-1.5,0.4-2.2C297.3,408.3,295.4,405.8,292.7,405z M290.7,413.1c-1,0-1.8-0.8-1.8-1.8c0-1,0.8-1.8,1.8-1.8
		s1.8,0.8,1.8,1.8C292.6,412.3,291.8,413.1,290.7,413.1z"/>
	<path class="st7" d="M365.2,413.8c-0.9,0-1.6,0.7-1.6,1.6v5.8v0.2v1.9v0.2v0.2v4.3h-79.7v-4.3v-0.5h15.7v-5.3h-12.4
		c-1.8,0-3.4,1.5-3.4,3.4v-25.5c0-0.9-0.7-1.6-1.6-1.6c-0.9,0-1.6,0.7-1.6,1.6v46.7c0,0.9,0.7,1.6,1.6,1.6c0.9,0,1.6-0.7,1.6-1.6
		v-7.9h79.7v7.9c0,0.9,0.7,1.6,1.6,1.6c0.9,0,1.6-0.7,1.6-1.6v-27.1C366.9,414.5,366.1,413.8,365.2,413.8z"/>
	<path class="st7" d="M357.3,423.3h6.2v-1.9v-0.2c0-1.8-1.5-3.1-3.3-3.1h-2.9V423.3z"/>
	<rect x="317.3" y="418.2" class="st7" width="22.9" height="5.3"/>
	<path class="st7" d="M317.3,423.3v-5.3h-13c-0.7,0-1.3,0-2.1,0h-2.5l0,0v5.3H317.3z"/>
	<rect x="340.2" y="418.2" class="st7" width="17.2" height="5.3"/>
	<path class="st7" d="M304.3,417.9c0.4-0.2,0.7-0.3,1.1-0.7l1-1c1.3-1.3,1-3.8-0.7-5.3l-6.6-6.6c-1.6-1.6-3.9-1.8-5.3-0.5l-1,1
		c-0.1,0.1-0.2,0.2-0.2,0.2c2.7,0.8,4.6,3.4,4.6,6.3c0,0.7-0.2,1.6-0.4,2.2l3.1,3.1c0.7,0.7,1.4,1.1,2.2,1.3
		C303,418.1,303.6,418.1,304.3,417.9z"/>
	<path class="st7" d="M290.7,409.4c-1,0-1.8,0.8-1.8,1.8c0,1,0.8,1.8,1.8,1.8s1.8-0.8,1.8-1.8C292.6,410.3,291.8,409.4,290.7,409.4z
		"/>
	<circle class="st16" cx="342.6" cy="379.1" r="4.3"/>
	<path class="st7" d="M342.6,384.1c-2.8,0-5.1-2.3-5.1-5.1c0-2.8,2.3-5.1,5.1-5.1c2.8,0,5.1,2.3,5.1,5.1
		C347.7,381.8,345.4,384.1,342.6,384.1z M342.6,375.6c-1.9,0-3.4,1.5-3.4,3.4s1.5,3.4,3.4,3.4s3.4-1.5,3.4-3.4
		S344.5,375.6,342.6,375.6z"/>
	<path class="st16" d="M367.2,407c0-13.6-11-24.6-24.6-24.6c-13.6,0-24.6,11-24.6,24.6H367.2z"/>
	<path class="st7" d="M366.8,412.1h-48.3c-1.6,0-3-1.3-3-3s1.3-3,3-3h48.3c1.6,0,3,1.3,3,3C369.8,410.8,368.4,412.1,366.8,412.1z
		 M318.5,407.9c-0.7,0-1.2,0.6-1.2,1.2c0,0.7,0.6,1.2,1.2,1.2h48.3c0.7,0,1.2-0.6,1.2-1.2c0-0.7-0.6-1.2-1.2-1.2H318.5z"/>
	<path class="st8" d="M325.1,397.5c-0.2,0-0.3,0-0.4-0.1c-0.4-0.2-0.6-0.7-0.3-1.2c3.2-5.4,8.6-9,14.7-10.1c0.5-0.1,0.9,0.2,1,0.7
		c0.1,0.5-0.2,0.9-0.7,1c-5.7,1-10.6,4.4-13.6,9.3C325.7,397.3,325.4,397.5,325.1,397.5z"/>
	<path class="st7" d="M367.2,407.9h-49.1c-0.5,0-0.8-0.4-0.8-0.8c0-14,11.4-25.4,25.4-25.4c14,0,25.4,11.4,25.4,25.4
		C368,407.5,367.7,407.9,367.2,407.9z M318.9,406.1h47.4c-0.4-12.7-10.9-22.9-23.7-22.9C329.9,383.3,319.3,393.5,318.9,406.1z"/>
</g>
</svg>
