<svg xmlns="http://www.w3.org/2000/svg" width="62.771" height="43.94" viewBox="0 0 62.771 43.94"><defs><style>.a{fill:#ff4157;}</style></defs><g transform="translate(1 -74.541)"><g transform="translate(-1 74.541)"><path class="a" d="M58.632,74.541H2.139A3.082,3.082,0,0,0-1,77.68V98.6a3.082,3.082,0,0,0,3.139,3.139H58.632A3.082,3.082,0,0,0,61.771,98.6V77.68A3.082,3.082,0,0,0,58.632,74.541ZM59.679,98.6a.988.988,0,0,1-1.046,1.046H2.139A.988.988,0,0,1,1.092,98.6V77.68a1.048,1.048,0,0,1,1.046-1.046H58.632a.988.988,0,0,1,1.046,1.046V98.6Z" transform="translate(1 -74.541)"/><path class="a" d="M209.882,135.388h8.37a1.046,1.046,0,1,0,0-2.092h-8.37a1.046,1.046,0,1,0,0,2.092Z" transform="translate(-182.681 -125.973)"/><path class="a" d="M85.929,242.41H33.62a1.046,1.046,0,1,0,0,2.092H85.929a1.046,1.046,0,1,0,0-2.092Z" transform="translate(-28.389 -221.486)"/><path class="a" d="M85.929,208.836H33.62a1.046,1.046,0,0,0,0,2.092H85.929a1.046,1.046,0,0,0,0-2.092Z" transform="translate(-28.389 -192.097)"/><path class="a" d="M229.285,314.592c-1.046-.523-1.569-1.151-1.569-1.674s.628-1.151,1.465-1.779a1,1,0,0,0,.418-1.36.923.923,0,0,0-1.36-.418c-1.674.942-2.616,2.2-2.616,3.557s.942,2.616,2.616,3.662c1.046.523,1.569,1.151,1.569,1.674s-.628,1.151-1.569,1.674a.923.923,0,0,0-.418,1.36,1.1,1.1,0,0,0,.942.523.943.943,0,0,0,.523-.1c1.674-.942,2.615-2.2,2.615-3.557A4.2,4.2,0,0,0,229.285,314.592Z" transform="translate(-197.376 -279.963)"/><path class="a" d="M136.957,331.379c-1.046-.523-1.569-1.151-1.569-1.674s.628-1.151,1.465-1.779a1.006,1.006,0,1,0-.942-1.778c-1.674.942-2.616,2.2-2.616,3.557s.942,2.616,2.616,3.662c1.046.523,1.569,1.151,1.569,1.674s-.628,1.151-1.569,1.674a.923.923,0,0,0-.418,1.36,1.1,1.1,0,0,0,.942.523.944.944,0,0,0,.523-.1c1.674-.942,2.616-2.2,2.616-3.557A4.2,4.2,0,0,0,136.957,331.379Z" transform="translate(-116.556 -294.658)"/><path class="a" d="M321.613,331.379c-1.046-.523-1.569-1.151-1.569-1.674s.628-1.151,1.465-1.779a1,1,0,0,0,.418-1.36.923.923,0,0,0-1.36-.418c-1.674.942-2.616,2.2-2.616,3.557s.942,2.616,2.616,3.662c1.046.523,1.569,1.151,1.569,1.674s-.628,1.151-1.569,1.674a.923.923,0,0,0-.418,1.36,1.1,1.1,0,0,0,.942.523.944.944,0,0,0,.523-.1c1.674-.942,2.616-2.2,2.616-3.557A4.2,4.2,0,0,0,321.613,331.379Z" transform="translate(-278.196 -294.658)"/></g></g></svg>