<svg><defs>
<svg id="dashboard" viewBox="0 0 24 24" height="24" width="24">
<path d="M12.984 3h8.016v6h-8.016v-6zM12.984 21v-9.984h8.016v9.984h-8.016zM3 21v-6h8.016v6h-8.016zM3 12.984v-9.984h8.016v9.984h-8.016z"></path>
</svg>
<svg id="access_menu" width="512" height="512" viewBox="0 0 512 512">
<path d="M32 96h448v96h-448zM32 224h448v96h-448zM32 352h448v96h-448z"></path>
</svg>
<svg id="density_map" width="512" height="512" viewBox="0 0 32 32">
<path d="M2 0h12v2h-12zM18 0h12v2h-12zM29.75 10h-1.75v-8h-8v8h-8v-8h-8v8h-1.75c-1.238 0-2.25 1.012-2.25 2.25v17.5c0 1.238 1.012 2.25 2.25 2.25h9.5c1.238 0 2.25-1.012 2.25-2.25v-11.75h4v11.75c0 1.238 1.012 2.25 2.25 2.25h9.5c1.238 0 2.25-1.012 2.25-2.25v-17.5c0-1.238-1.012-2.25-2.25-2.25zM10.875 30h-7.75c-0.619 0-1.125-0.45-1.125-1s0.506-1 1.125-1h7.75c0.619 0 1.125 0.45 1.125 1s-0.506 1-1.125 1zM17 16h-2c-0.55 0-1-0.45-1-1s0.45-1 1-1h2c0.55 0 1 0.45 1 1s-0.45 1-1 1zM28.875 30h-7.75c-0.619 0-1.125-0.45-1.125-1s0.506-1 1.125-1h7.75c0.619 0 1.125 0.45 1.125 1s-0.506 1-1.125 1z"></path>
</svg>
<svg id="menu_lock" width="512" height="512" viewBox="0 0 32 32">
<path d="M22 14c-1 0-2 0-2 0s0-2 0-6-4-8-8-8-8 4-8 8 0 6 0 6-1 0-2 0-2 1-2 2 0 13 0 14 1 2 2 2 19 0 20 0 2-1 2-2 0-13 0-14-1-2-2-2zM16 18h-12v2h12v2h-12v2h12v2h-12v2h12v2h-14v-14h14v2zM16 14h-8s0-4 0-6 2-4 4-4 4 2 4 4 0 6 0 6z"></path>
</svg>
<svg id="profile" width="512" height="512" viewBox="0 0 32 32">
<path  d="M15.059 2.667c-7.36 0-13.333 5.973-13.333 13.333s5.973 13.333 13.333 13.333c7.36 0 13.333-5.973 13.333-13.333s-5.973-13.333-13.333-13.333zM15.059 6.667c2.213 0 4 1.787 4 4s-1.787 4-4 4c-2.213 0-4-1.787-4-4s1.787-4 4-4zM15.059 25.6c-3.333 0-6.28-1.707-8-4.293 0.040-2.653 5.333-4.107 8-4.107 2.653 0 7.96 1.453 8 4.107-1.72 2.587-4.667 4.293-8 4.293z"></path>
</svg>


</defs></svg>
