<svg xmlns="http://www.w3.org/2000/svg" width="60" height="50.199" viewBox="0 0 60 50.199"><defs><style>.a{fill:#ff4157;}</style></defs><g transform="translate(0 -41.817)"><g transform="translate(0 41.817)"><path class="a" d="M58.8,84.964H52.41V62.733H55.4V77.554a1.2,1.2,0,1,0,2.39,0V62.733H58.8a1.2,1.2,0,0,0,0-2.39H47.092V43.012a1.2,1.2,0,0,0-1.2-1.2H14.1a1.2,1.2,0,0,0-1.2,1.2V60.343H1.2a1.2,1.2,0,0,0,0,2.391H2.211V84.964H1.2A1.2,1.2,0,0,0,0,86.16v4.661a1.2,1.2,0,0,0,1.2,1.2H58.8a1.2,1.2,0,0,0,1.2-1.2V86.16A1.2,1.2,0,0,0,58.8,84.964ZM47.092,62.733H50.02V84.964H47.092ZM15.3,44.207H44.7V60.343H41.825V48.51a1.2,1.2,0,0,0-1.2-1.2H19.37a1.2,1.2,0,0,0-1.2,1.2V60.343H15.3ZM44.7,62.733V84.964H41.825V62.733ZM31.135,60.343V49.705h8.3V60.343Zm8.3,2.391V84.964H36.514V62.733Zm-5.311,0V84.964H31.135V62.733ZM20.565,60.343V49.705h8.18V60.343Zm8.18,2.391V84.964H25.877V62.733Zm-5.259,0V84.964H20.565V62.733Zm-8.187,0h2.876V84.964H15.3Zm-5.438,0h3.048V84.964H9.861Zm-5.259,0H7.47V84.964H4.6ZM57.61,89.626H2.39V87.355H57.609v2.271Z" transform="translate(0 -41.817)"/></g><g transform="translate(55.492 80.237)"><path class="a" d="M473.9,369.211a1.171,1.171,0,0,0-1.171,1.171v.82a1.171,1.171,0,0,0,2.342,0v-.82A1.171,1.171,0,0,0,473.9,369.211Z" transform="translate(-472.733 -369.211)"/></g></g></svg>