<?xml version="1.0" encoding="iso-8859-1"?>
<!-- Generator: Adobe Illustrator 19.0.0, SVG Export Plug-In . SVG Version: 6.00 Build 0)  -->
<svg version="1.1" id="Capa_1" xmlns="http://www.w3.org/2000/svg" xmlns:xlink="http://www.w3.org/1999/xlink" x="0px" y="0px"
	 viewBox="0 0 511.95 511.95" style="enable-background:new 0 0 511.95 511.95;" xml:space="preserve">
<g>
	<g>
		<path d="M244.215,79.993h-0.078c-2.211,0-3.961,1.789-3.961,3.999c0,2.211,1.832,4,4.039,4c2.21,0,3.999-1.789,3.999-4
			C248.214,81.782,246.425,79.993,244.215,79.993z"/>
	</g>
</g>
<g>
	<g>
		<path d="M256.212,87.991h-0.078c-2.21,0-3.96,1.789-3.96,4s1.832,4,4.039,4c2.211,0,3.999-1.789,3.999-4
			S258.423,87.991,256.212,87.991z"/>
	</g>
</g>
<g>
	<g>
		<path d="M268.207,79.993h-0.078c-2.203,0-3.951,1.789-3.951,3.999c0,2.211,1.826,4,4.029,4c2.219,0,4-1.789,4-4
			C272.207,81.782,270.426,79.993,268.207,79.993z"/>
	</g>
</g>
<g>
	<g>
		<path d="M268.207,95.991h-0.078c-2.203,0-3.951,1.789-3.951,4c0,2.21,1.826,3.999,4.029,3.999c2.219,0,4-1.789,4-3.999
			C272.207,97.78,270.426,95.991,268.207,95.991z"/>
	</g>
</g>
<g>
	<g>
		<path d="M244.215,95.991h-0.078c-2.211,0-3.961,1.789-3.961,4c0,2.21,1.832,3.999,4.039,3.999c2.21,0,3.999-1.789,3.999-3.999
			C248.214,97.78,246.425,95.991,244.215,95.991z"/>
	</g>
</g>
<g>
	<g>
		<path d="M355.965,223.978h-199.98c-2.211,0-4,1.789-4,4v199.98c0,2.21,1.79,3.999,4,3.999h199.98c2.211,0,4-1.789,4-3.999v-199.98
			C359.965,225.767,358.176,223.978,355.965,223.978z M351.965,423.958H159.984V231.977h191.981V423.958z"/>
	</g>
</g>
<g>
	<g>
		<path d="M323.969,255.975H187.981c-2.21,0-3.999,1.789-3.999,4v135.986c0,2.211,1.789,4,3.999,4h135.988
			c2.209,0,3.998-1.789,3.998-4V259.975C327.967,257.764,326.178,255.975,323.969,255.975z M319.969,391.961H191.981V263.974
			h127.988V391.961z"/>
	</g>
</g>
<g>
	<g>
		<path d="M255.975,271.973c-30.876,0-55.995,25.123-55.995,55.995c0,30.872,25.119,55.994,55.995,55.994
			c30.871,0,55.994-25.122,55.994-55.994S286.846,271.973,255.975,271.973z M255.975,375.963c-26.467,0-47.996-21.529-47.996-47.995
			s21.53-47.995,47.996-47.995c26.467,0,47.996,21.529,47.996,47.995S282.442,375.963,255.975,375.963z"/>
	</g>
</g>
<g>
	<g>
		<path d="M195.981,415.959c-2.211,0-4,1.789-4,4v7.999c0,2.21,1.79,3.999,4,3.999c2.21,0,3.999-1.789,4-3.999v-7.999
			C199.981,417.748,198.192,415.959,195.981,415.959z"/>
	</g>
</g>
<g>
	<g>
		<path d="M219.978,415.959c-2.211,0-4,1.789-4,4v7.999c0,2.21,1.789,3.999,4,3.999s4-1.789,4-3.999v-7.999
			C223.978,417.748,222.189,415.959,219.978,415.959z"/>
	</g>
</g>
<g>
	<g>
		<path d="M243.976,415.959c-2.211,0-4,1.789-4,4v7.999c0,2.21,1.789,3.999,4,3.999s3.999-1.789,3.999-3.999v-7.999
			C247.975,417.748,246.186,415.959,243.976,415.959z"/>
	</g>
</g>
<g>
	<g>
		<path d="M267.973,415.959c-2.211,0-3.998,1.789-3.998,4v7.999c0,2.21,1.787,3.999,3.998,3.999c2.211,0,4-1.789,4-3.999v-7.999
			C271.973,417.748,270.184,415.959,267.973,415.959z"/>
	</g>
</g>
<g>
	<g>
		<path d="M291.971,415.959c-2.211,0-4,1.789-4,4v7.999c0,2.21,1.789,3.999,4,3.999s4-1.789,4-3.999v-7.999
			C295.971,417.748,294.182,415.959,291.971,415.959z"/>
	</g>
</g>
<g>
	<g>
		<path d="M315.969,415.959c-2.211,0-4,1.789-4,4v7.999c0,2.21,1.789,3.999,4,3.999s4-1.789,4-3.999v-7.999
			C319.969,417.748,318.18,415.959,315.969,415.959z"/>
	</g>
</g>
<g>
	<g>
		<path d="M339.967,239.976c-2.211,0-4,1.79-4,4v167.983c0,2.211,1.789,4,4,4s3.998-1.789,3.998-4V243.976
			C343.965,241.765,342.178,239.976,339.967,239.976z"/>
	</g>
</g>
<g>
	<g>
		<path d="M171.983,239.976c-2.211,0-4,1.79-4,4v167.983c0,2.211,1.789,4,4,4s4-1.789,4-4V243.976
			C175.983,241.765,174.194,239.976,171.983,239.976z"/>
	</g>
</g>
<g>
	<g>
		<path d="M171.983,167.983c-2.211,0-4,1.79-4,4v39.996c0,2.211,1.789,4,4,4s4-1.789,4-4v-39.996
			C175.983,169.772,174.194,167.983,171.983,167.983z"/>
	</g>
</g>
<g>
	<g>
		<path d="M339.967,191.98H171.983c-2.211,0-4,1.789-4,4s1.789,4,4,4h167.984c2.211,0,3.998-1.789,3.998-4
			S342.178,191.98,339.967,191.98z"/>
	</g>
</g>
<g>
	<g>
		<path d="M339.967,167.983c-2.211,0-4,1.79-4,4v39.996c0,2.211,1.789,4,4,4s3.998-1.789,3.998-4v-39.996
			C343.965,169.772,342.178,167.983,339.967,167.983z"/>
	</g>
</g>
<g>
	<g>
		<path d="M219.978,207.978c-2.211,0-4,1.79-4,4v15.999c0,2.211,1.789,4,4,4s4-1.789,4-4v-15.999
			C223.978,209.767,222.189,207.978,219.978,207.978z"/>
	</g>
</g>
<g>
	<g>
		<path d="M195.981,207.978c-2.211,0-4,1.79-4,4v15.999c0,2.211,1.79,4,4,4c2.21,0,3.999-1.789,4-4v-15.999
			C199.981,209.767,198.192,207.978,195.981,207.978z"/>
	</g>
</g>
<g>
	<g>
		<path d="M243.976,207.978c-2.211,0-4,1.79-4,4v15.999c0,2.211,1.789,4,4,4s3.999-1.789,3.999-4v-15.999
			C247.975,209.767,246.186,207.978,243.976,207.978z"/>
	</g>
</g>
<g>
	<g>
		<path d="M267.973,207.978c-2.211,0-3.998,1.79-3.998,4v15.999c0,2.211,1.787,4,3.998,4c2.211,0,4-1.789,4-4v-15.999
			C271.973,209.767,270.184,207.978,267.973,207.978z"/>
	</g>
</g>
<g>
	<g>
		<path d="M291.971,207.978c-2.211,0-4,1.79-4,4v15.999c0,2.211,1.789,4,4,4s4-1.789,4-4v-15.999
			C295.971,209.767,294.182,207.978,291.971,207.978z"/>
	</g>
</g>
<g>
	<g>
		<path d="M315.969,207.978c-2.211,0-4,1.79-4,4v15.999c0,2.211,1.789,4,4,4s4-1.789,4-4v-15.999
			C319.969,209.767,318.18,207.978,315.969,207.978z"/>
	</g>
</g>
<g>
	<g>
		<path d="M155.985,207.978c-2.211,0-4,1.79-4,4v15.999c0,2.211,1.79,4,4,4s3.999-1.789,4-4v-15.999
			C159.985,209.767,158.196,207.978,155.985,207.978z"/>
	</g>
</g>
<g>
	<g>
		<path d="M355.965,207.978c-2.211,0-4,1.79-4,4v15.999c0,2.211,1.789,4,4,4s4-1.789,4-4v-15.999
			C359.965,209.767,358.176,207.978,355.965,207.978z"/>
	</g>
</g>
<g>
	<g>
		<path d="M255.975,287.972c-2.211,0-4,1.788-4,3.999v35.997c0,2.21,1.79,3.999,4,3.999c2.211,0,4-1.789,4-3.999v-35.997
			C259.975,289.76,258.186,287.972,255.975,287.972z"/>
	</g>
</g>
<g>
	<g>
		<path d="M284.262,350.598l-25.451-25.45c-1.563-1.562-4.094-1.562-5.656,0c-1.562,1.562-1.562,4.093,0,5.655l25.451,25.451
			c0.781,0.781,1.805,1.172,2.828,1.172c1.023,0,2.047-0.39,2.828-1.172C285.823,354.692,285.823,352.16,284.262,350.598z"/>
	</g>
</g>
<g>
	<g>
		<path d="M222.478,136.862c-1.727-1.383-4.239-1.086-5.625,0.625l-31.997,39.996c-1.378,1.727-1.097,4.242,0.625,5.624
			c0.739,0.59,1.621,0.875,2.496,0.875c1.176,0,2.336-0.516,3.129-1.499l31.997-39.996
			C224.482,140.76,224.201,138.245,222.478,136.862z"/>
	</g>
</g>
<g>
	<g>
		<path d="M291.971,135.987h-71.993c-2.211,0-4,1.789-4,4c0,2.21,1.789,3.999,4,3.999h71.993c2.211,0,4-1.789,4-3.999
			C295.971,137.776,294.182,135.987,291.971,135.987z"/>
	</g>
</g>
<g>
	<g>
		<path d="M327.092,177.482l-31.996-39.996c-1.391-1.719-3.891-2.012-5.625-0.625c-1.719,1.383-2,3.898-0.625,5.625l31.998,39.996
			c0.797,0.984,1.953,1.5,3.125,1.5c0.873,0,1.764-0.285,2.498-0.876C328.186,181.724,328.467,179.209,327.092,177.482z"/>
	</g>
</g>
<g>
	<g>
		<path d="M219.978,111.989c-2.211,0-4,1.789-4,4v23.998c0,2.21,1.789,3.999,4,3.999s4-1.789,4-3.999v-23.998
			C223.978,113.778,222.189,111.989,219.978,111.989z"/>
	</g>
</g>
<g>
	<g>
		<path d="M291.971,111.989c-2.211,0-4,1.789-4,4v23.998c0,2.21,1.789,3.999,4,3.999s4-1.789,4-3.999v-23.998
			C295.971,113.778,294.182,111.989,291.971,111.989z"/>
	</g>
</g>
<g>
	<g>
		<path d="M291.971,111.989h-71.993c-2.211,0-4,1.789-4,4s1.789,4,4,4h71.993c2.211,0,4-1.789,4-4S294.182,111.989,291.971,111.989z
			"/>
	</g>
</g>
<g>
	<g>
		<path d="M257.49,24.294c-2.031-0.827-4.382,0.145-5.218,2.188l-35.997,87.991c-0.836,2.047,0.145,4.383,2.187,5.219
			c0.496,0.203,1.008,0.297,1.516,0.297c1.575,0,3.071-0.938,3.703-2.485l35.997-87.991C260.513,27.466,259.533,25.13,257.49,24.294
			z"/>
	</g>
</g>
<g>
	<g>
		<path d="M295.674,114.474l-35.996-87.991c-0.84-2.047-3.187-3.039-5.218-2.188c-2.043,0.836-3.024,3.172-2.188,5.219
			l35.996,87.991c0.633,1.546,2.125,2.484,3.703,2.484c0.5,0,1.016-0.094,1.515-0.296
			C295.533,118.857,296.51,116.521,295.674,114.474z"/>
	</g>
</g>
<g>
	<g>
		<path d="M255.975,0c-2.211,0-4,1.789-4,3.999v23.998c0,2.211,1.79,4,4,4c2.211,0,4-1.789,4-4V3.999
			C259.975,1.789,258.186,0,255.975,0z"/>
	</g>
</g>
<g>
	<g>
		<path d="M171.983,439.958c-2.211,0-4,1.788-4,3.999v63.993c0,2.211,1.789,4,4,4s4-1.789,4-4v-63.993
			C175.983,441.746,174.194,439.958,171.983,439.958z"/>
	</g>
</g>
<g>
	<g>
		<path d="M187.981,439.958c-2.21,0-3.999,1.788-3.999,3.999v63.993c0,2.211,1.789,4,3.999,4c2.211,0,4-1.789,4-4v-63.993
			C191.981,441.746,190.192,439.958,187.981,439.958z"/>
	</g>
</g>
<g>
	<g>
		<path d="M339.967,439.958c-2.211,0-4,1.788-4,3.999v63.993c0,2.211,1.789,4,4,4s3.998-1.789,3.998-4v-63.993
			C343.965,441.746,342.178,439.958,339.967,439.958z"/>
	</g>
</g>
<g>
	<g>
		<path d="M323.969,439.958c-2.211,0-4,1.788-4,3.999v63.993c0,2.211,1.789,4,4,4c2.209,0,3.998-1.789,3.998-4v-63.993
			C327.967,441.746,326.178,439.958,323.969,439.958z"/>
	</g>
</g>
<g>
	<g>
		<path d="M291.971,463.955c-2.211,0-4,1.789-4,4v39.995c0,2.211,1.789,4,4,4s4-1.789,4-4v-39.995
			C295.971,465.744,294.182,463.955,291.971,463.955z"/>
	</g>
</g>
<g>
	<g>
		<path d="M255.975,487.952c-2.211,0-4,1.789-4,4v15.998c0,2.211,1.79,4,4,4c2.211,0,4-1.789,4-4v-15.998
			C259.975,489.741,258.186,487.952,255.975,487.952z"/>
	</g>
</g>
<g>
	<g>
		<path d="M219.978,463.955c-2.211,0-4,1.789-4,4v39.995c0,2.211,1.789,4,4,4s4-1.789,4-4v-39.995
			C223.978,465.744,222.189,463.955,219.978,463.955z"/>
	</g>
</g>
<g>
	<g>
		<path d="M230.805,153.156c-1.563-1.562-4.094-1.562-5.656,0l-7.999,8c-1.562,1.563-1.562,4.094,0,5.656
			c0.781,0.781,1.805,1.172,2.828,1.172c1.024,0,2.047-0.391,2.828-1.173l7.999-7.999
			C232.367,157.25,232.367,154.718,230.805,153.156z"/>
	</g>
</g>
<g>
	<g>
		<path d="M238.804,161.157l-7.999-8c-1.563-1.562-4.094-1.562-5.656,0s-1.562,4.094,0,5.656l8,7.999
			c0.782,0.781,1.805,1.172,2.828,1.172s2.046-0.391,2.827-1.171C240.366,165.25,240.366,162.719,238.804,161.157z"/>
	</g>
</g>
<g>
	<g>
		<path d="M258.803,169.156c-1.563-1.562-4.094-1.562-5.656,0l-8,7.999c-1.562,1.562-1.562,4.093,0,5.655
			c0.782,0.781,1.805,1.172,2.828,1.172c1.024,0,2.047-0.391,2.828-1.172l8-7.999C260.365,173.249,260.365,170.718,258.803,169.156z
			"/>
	</g>
</g>
<g>
	<g>
		<path d="M266.801,177.155l-7.998-7.999c-1.563-1.562-4.094-1.562-5.656,0c-1.562,1.562-1.562,4.093,0,5.655l8,7.999
			c0.781,0.781,1.805,1.172,2.828,1.172c1.021,0,2.045-0.391,2.826-1.172C268.363,181.248,268.363,178.717,266.801,177.155z"/>
	</g>
</g>
<g>
	<g>
		<path d="M286.799,153.156c-1.562-1.562-4.092-1.562-5.654,0l-8,8c-1.562,1.563-1.562,4.094,0,5.656
			c0.781,0.781,1.805,1.172,2.828,1.172s2.047-0.391,2.828-1.173l7.998-7.999C288.361,157.25,288.361,154.718,286.799,153.156z"/>
	</g>
</g>
<g>
	<g>
		<path d="M294.799,161.157l-8-8c-1.562-1.562-4.092-1.562-5.654,0s-1.562,4.094,0,5.656l7.998,7.999
			c0.781,0.781,1.805,1.172,2.828,1.172c1.024,0,2.047-0.391,2.828-1.171C296.361,165.25,296.361,162.719,294.799,161.157z"/>
	</g>
</g>
<g>
</g>
<g>
</g>
<g>
</g>
<g>
</g>
<g>
</g>
<g>
</g>
<g>
</g>
<g>
</g>
<g>
</g>
<g>
</g>
<g>
</g>
<g>
</g>
<g>
</g>
<g>
</g>
<g>
</g>
</svg>
