<svg xmlns="http://www.w3.org/2000/svg" width="60.902" height="48.72" viewBox="0 0 60.902 48.72"><defs><style>.a{fill:#ff4157;}</style></defs><g transform="translate(0 -48)"><g transform="translate(10.15 52.06)"><path class="a" d="M100.3,80a20.3,20.3,0,1,0,20.3,20.3A20.3,20.3,0,0,0,100.3,80Zm0,38.57a18.27,18.27,0,1,1,18.271-18.27A18.27,18.27,0,0,1,100.3,118.57Z" transform="translate(-80 -80)"/></g><g transform="translate(52.782 48.002)"><g transform="translate(0 0)"><path class="a" d="M422.58,48.2a2.485,2.485,0,0,0-2.716.54A13.112,13.112,0,0,0,416,58.075V71.356a3.045,3.045,0,0,0,2.03,2.858V93.687a3.045,3.045,0,0,0,6.09,0V50.507A2.485,2.485,0,0,0,422.58,48.2Zm-.49,45.483a1.015,1.015,0,0,1-2.03,0V74.4h2.03Zm0-21.315h-3.045a1.015,1.015,0,0,1-1.015-1.015V58.075a11.1,11.1,0,0,1,3.27-7.895.439.439,0,0,1,.316-.139.5.5,0,0,1,.189.04.442.442,0,0,1,.285.427Z" transform="translate(-416 -48.013)"/></g></g><g transform="translate(18.271 65.255)"><path class="a" d="M148.06,184a4.06,4.06,0,1,0,4.06,4.06A4.06,4.06,0,0,0,148.06,184Zm0,6.09a2.03,2.03,0,1,1,2.03-2.03A2.03,2.03,0,0,1,148.06,190.09Z" transform="translate(-144 -184)"/></g><g transform="translate(14.21 60.18)"><path class="a" d="M128.328,149.757l-1.784-1.784a1.129,1.129,0,0,1-.333-.8A3.172,3.172,0,0,0,123.043,144h-4.06a3.188,3.188,0,0,0-2.24.928l-3.814,3.814a3.146,3.146,0,0,0-.928,2.24v4.306a3.146,3.146,0,0,0,.928,2.24l1.784,1.784a1.129,1.129,0,0,1,.333.8,3.172,3.172,0,0,0,3.168,3.168h2.03a3.188,3.188,0,0,0,2.24-.928l2.8-2.8a1.148,1.148,0,0,1,.8-.333,3.172,3.172,0,0,0,3.168-3.168V152A3.146,3.146,0,0,0,128.328,149.757Zm-1.1,6.3a1.139,1.139,0,0,1-1.138,1.138,3.188,3.188,0,0,0-2.24.928l-2.8,2.8a1.148,1.148,0,0,1-.8.333h-2.03a1.139,1.139,0,0,1-1.138-1.138,3.147,3.147,0,0,0-.928-2.24l-1.784-1.784a1.129,1.129,0,0,1-.333-.8v-4.306a1.13,1.13,0,0,1,.333-.8l3.815-3.814a1.148,1.148,0,0,1,.8-.333h4.06a1.139,1.139,0,0,1,1.138,1.138,3.146,3.146,0,0,0,.928,2.24l1.784,1.784a1.129,1.129,0,0,1,.333.8Z" transform="translate(-112 -144)"/></g><g transform="translate(22.331 70.33)"><path class="a" d="M193.975,228.359l-4.06-4.06a1.015,1.015,0,0,0-1.733.718v2.03a1.015,1.015,0,0,1-1.015,1.015,3.045,3.045,0,0,0-3.045,3.045,1.015,1.015,0,0,1-1.015,1.015,3.045,3.045,0,0,0-3.045,3.045,1.015,1.015,0,0,1-1.015,1.015h-2.03a1.015,1.015,0,0,0-.718,1.733l4.06,4.06a1.015,1.015,0,0,0,.718.3h2.03a3.045,3.045,0,0,0,3.045-3.045,1.015,1.015,0,0,1,1.015-1.015,3.045,3.045,0,0,0,3.045-3.045,1.015,1.015,0,0,1,1.015-1.015,3.045,3.045,0,0,0,3.045-3.045v-2.03A1.015,1.015,0,0,0,193.975,228.359Zm-1.733,2.748a1.015,1.015,0,0,1-1.015,1.015,3.045,3.045,0,0,0-3.045,3.045,1.015,1.015,0,0,1-1.015,1.015,3.045,3.045,0,0,0-3.045,3.045,1.015,1.015,0,0,1-1.015,1.015H181.5l-2.055-2.055a3.045,3.045,0,0,0,2.65-3.02,1.015,1.015,0,0,1,1.015-1.015,3.045,3.045,0,0,0,3.045-3.045,1.015,1.015,0,0,1,1.015-1.015,3.045,3.045,0,0,0,3.02-2.65l2.055,2.055Z" transform="translate(-176.002 -224.002)"/></g><g transform="translate(29.436 56.121)"><path class="a" d="M248.12,122.629l-.175-.174-5.075-5.075-4.235-4.234a3.886,3.886,0,0,0-5.494,5.5l.175.174,5.075,5.075,4.235,4.234a3.886,3.886,0,0,0,5.494-5.5Zm-13.42-8.161a1.856,1.856,0,0,1,1.184-.43h0a1.872,1.872,0,0,1,1.312.543l2.5,2.5h-5.24A1.856,1.856,0,0,1,234.7,114.469Zm1.782,4.645h5.25l3.045,3.045h-5.25Zm10.077,7.69a1.856,1.856,0,0,1-1.184.43h0a1.87,1.87,0,0,1-1.312-.544l-2.5-2.5h5.24A1.856,1.856,0,0,1,246.559,126.8Z" transform="translate(-232.002 -112.01)"/></g><g transform="translate(0 48)"><path class="a" d="M8.12,48v8.12H6.09V48H4.06v8.12H2.03V48H0V61.2a5.054,5.054,0,0,0,2.03,4.034V93.675a3.045,3.045,0,0,0,6.09,0V65.229A5.054,5.054,0,0,0,10.15,61.2V48ZM6.09,93.675a1.015,1.015,0,0,1-2.03,0V66.27H6.09ZM8.12,61.2a3.045,3.045,0,0,1-6.09,0V58.15H8.12Z" transform="translate(0 -48)"/></g></g></svg>