<svg xmlns="http://www.w3.org/2000/svg" width="64" height="62.824" viewBox="0 0 64 62.824"><defs><style>.a{fill:#ff4157;}</style></defs><g transform="translate(0 -13.225)"><g transform="translate(0 13.225)"><g transform="translate(0 0)"><path class="a" d="M62.824,69.661h-6.5l-1.577-14.98L56.5,57.3l.432,2.165a3.57,3.57,0,1,0,6.695-2.3l-.911-1.824a.116.116,0,0,0-.014-.018c0-.005,0-.011,0-.016L56.306,43.6a1.071,1.071,0,0,0-.539-.479l-2.886-1.154a9.512,9.512,0,0,0,2.354-12.04l-.549-5.5A4.214,4.214,0,0,0,57.5,20.679c0-2.293-2.276-4.168-5.114-4.256a6.387,6.387,0,0,0-11.068,0c-2.839.088-5.114,1.964-5.114,4.256a4.214,4.214,0,0,0,2.814,3.747l-.549,5.5a9.509,9.509,0,0,0,2.355,12.039l-2.886,1.154a1.065,1.065,0,0,0-.436.324l-3.594,4.492-4.342-3.473-1.16-1.933a4.026,4.026,0,0,0-.72-.863V38.781a3.19,3.19,0,0,0-2.13-3V31.327h1.065a3.2,3.2,0,0,0,3.194-3.194V21.744a3.2,3.2,0,0,0-3.194-3.194H22.363a3.2,3.2,0,0,0-3.194,3.194v6.389a3.2,3.2,0,0,0,3.194,3.194h1.065v4.455a3.19,3.19,0,0,0-2.13,3v4.264a3.955,3.955,0,0,0,1.614,4.976l2.015,1.209,7.079,6.194a3.181,3.181,0,0,0,4.149.049l2.976-2.481-1.756,16.67H18.76l1.249-2.5a5.321,5.321,0,0,0,3.417-4.956V59.881a3.187,3.187,0,0,0-1.065-6.193H3.194A3.187,3.187,0,0,0,2.13,59.881v2.326a5.321,5.321,0,0,0,3.417,4.956l1.249,2.5H1.065A1.065,1.065,0,0,0,0,70.725v4.259A1.065,1.065,0,0,0,1.065,76.05h61.76a1.065,1.065,0,0,0,1.065-1.065V70.725A1.065,1.065,0,0,0,62.824,69.661ZM23.426,29.2H22.361A1.067,1.067,0,0,1,21.3,28.133V21.744a1.067,1.067,0,0,1,1.065-1.065h1.065ZM61.719,58.118a1.44,1.44,0,1,1-2.7.926l-.275-1.375,2.446-.611Zm-7.1-13.167,5.546,10.167-2.2.548-3.744-5.616L52.68,44.175Zm-2.337,6.607,1.906,18.1H39.517l1.9-18.1Zm-10.437-2.13,1.57-5.968c.043.016.086.028.129.043.214.079.429.154.65.218.084.024.169.044.253.065.2.053.407.1.614.144.1.02.21.032.314.048.193.03.384.062.58.081.137.013.276.014.413.021.162.009.321.024.483.024s.322-.016.483-.024c.138-.007.276-.009.413-.021.2-.018.388-.05.58-.081.1-.016.21-.028.314-.048.208-.039.411-.092.614-.144.084-.022.169-.04.253-.065.22-.064.437-.138.65-.218.043-.016.086-.027.129-.043l1.571,5.968Zm-3.512-28.75c0-1.154,1.463-2.13,3.194-2.13a1.663,1.663,0,0,1,.18.014l.171.016a1.083,1.083,0,0,0,1.059-.642,4.257,4.257,0,0,1,7.827,0,1.074,1.074,0,0,0,1.059.642L52,18.563a1.623,1.623,0,0,1,.179-.014c1.731,0,3.194.975,3.194,2.13,0,.851-.86,1.664-2.092,1.98a1.065,1.065,0,0,0-.8,1.137l.647,6.467H40.575l.646-6.466a1.065,1.065,0,0,0-.8-1.137C39.194,22.343,38.334,21.53,38.334,20.679ZM39.4,34.522a7.429,7.429,0,0,1,.314-2.13H53.991a7.46,7.46,0,0,1-4.659,9.15l-.035.013a7.4,7.4,0,0,1-4.892,0l-.035-.013a7.47,7.47,0,0,1-4.972-7.02ZM25.556,20.679h1.065a1.067,1.067,0,0,1,1.065,1.065v6.389A1.067,1.067,0,0,1,26.621,29.2H25.556ZM24.491,37.716a1.067,1.067,0,0,1,1.065,1.065v1.851l-.02,0c-.026,0-.048-.015-.073-.018-.059-.007-.116,0-.174,0a4.005,4.005,0,0,0-.554-.006c-.093.005-.184.005-.275.017a3.946,3.946,0,0,0-.645.143c-.091.028-.178.056-.266.089-.04.015-.082.024-.121.04V38.781h0A1.067,1.067,0,0,1,24.491,37.716Zm-.482,8.478a1.851,1.851,0,0,1-.7-2.449c0-.009.012-.014.016-.022a2.364,2.364,0,0,1,.138-.231,1.588,1.588,0,0,1,.689-.584l.045-.024a1.856,1.856,0,0,1,.574-.153l.044,0a1.9,1.9,0,0,1,.579.045l.06.014a1.855,1.855,0,0,1,.571.257l.017.009a1.874,1.874,0,0,1,.54.572L27.411,45l-2.019,2.019ZM34.79,53.835a1.061,1.061,0,0,1-1.383-.016l-6.294-5.507L28.828,46.6l4.58,3.664a1.064,1.064,0,0,0,1.5-.166l4.084-5.1,2.035-.814-1.5,5.719Zm-31.6,4.112a1.065,1.065,0,0,1,0-2.13H22.361a1.065,1.065,0,1,1,0,2.13Zm1.065,4.259v-2.13H21.3v2.13A3.2,3.2,0,0,1,18.1,65.4H7.454A3.2,3.2,0,0,1,4.259,62.207Zm13.185,5.324-1.065,2.13H13.843v-2.13Zm-5.731,0v2.13H9.177l-1.065-2.13ZM61.76,73.92H2.13V71.79H61.76Z" transform="translate(0 -13.225)"/></g></g><g transform="translate(42.593 55.818)"><path class="a" d="M965.793,971.564H959.4a1.065,1.065,0,0,0-1.065,1.065v3.194a4.259,4.259,0,0,0,8.519,0v-3.194A1.065,1.065,0,0,0,965.793,971.564Zm-1.065,4.259a2.13,2.13,0,0,1-4.259,0v-2.13h4.259Z" transform="translate(-958.339 -971.564)"/></g><g transform="translate(11.713 45.17)"><g transform="translate(0 0)"><rect class="a" width="2.13" height="5.324"/></g></g><g transform="translate(17.037 47.299)"><rect class="a" width="2.13" height="4.259"/></g><g transform="translate(6.389 47.299)"><rect class="a" width="2.13" height="4.259"/></g><g transform="translate(11.713 40.91)"><rect class="a" width="2.13" height="2.13"/></g><g transform="translate(6.389 43.04)"><rect class="a" width="2.13" height="2.13"/></g><g transform="translate(17.037 43.04)"><rect class="a" width="2.13" height="2.13"/></g></g></svg>