<svg xmlns="http://www.w3.org/2000/svg" width="51.395" height="57.948" viewBox="0 0 51.395 57.948"><defs><style>.a{fill:#ff4157;}</style></defs><g transform="translate(-321.952 1504)"><g transform="translate(321.952 -1504)"><path class="a" d="M80.31,54.981,77.747,39.973a4.272,4.272,0,0,0-2.994-3.39L67.838,34.5a7.712,7.712,0,0,0-5.351-6.7c.219-.243.422-.485.608-.722a13.421,13.421,0,0,0,2.749-5.967h.533a2.519,2.519,0,0,0,2.516-2.516V17.3a2.533,2.533,0,0,0-1.3-2.2V12a.849.849,0,1,0-1.7,0v3.482a5.231,5.231,0,0,0-1.128.326.852.852,0,0,0-.12.053c-.091.042-.182.085-.273.135V9.161a3.43,3.43,0,0,0-3.426-3.426H58.6a3.52,3.52,0,0,0-2.223.793l-.23.188a2.37,2.37,0,0,1-3,0l-.23-.188A3.521,3.521,0,0,0,50.7,5.734H48.354a3.43,3.43,0,0,0-3.426,3.426V16c-.091-.049-.182-.093-.273-.135a.851.851,0,0,0-.119-.053,5.232,5.232,0,0,0-1.128-.326V6.68A4.989,4.989,0,0,1,48.391,1.7H60.908A4.989,4.989,0,0,1,65.892,6.68V8.014a.849.849,0,1,0,1.7,0V6.68A6.688,6.688,0,0,0,60.908,0H48.391a6.688,6.688,0,0,0-6.68,6.68V15.1a2.533,2.533,0,0,0-1.3,2.2v1.29a2.519,2.519,0,0,0,2.516,2.516h.533A13.419,13.419,0,0,0,46.2,27.078c.186.237.389.478.607.721a7.74,7.74,0,0,0-5.351,6.7l-6.915,2.086a4.272,4.272,0,0,0-2.994,3.39l-1.041,6.095a.849.849,0,0,0,1.673.286l1.041-6.095a2.584,2.584,0,0,1,1.811-2.051l6.4-1.93v1.679A4.246,4.246,0,0,0,38.2,40.629a4.3,4.3,0,0,0-.252,1.152l-.618,7.933a2.157,2.157,0,0,0,2.15,2.325h1.058a.849.849,0,1,0,0-1.7H39.485a.46.46,0,0,1-.458-.5l.618-7.933a2.606,2.606,0,0,1,.153-.7,2.566,2.566,0,0,1,2.4-1.635h.159a2.543,2.543,0,0,1,2.369,1.52,2.6,2.6,0,0,1,.2.815l.618,7.934a.46.46,0,0,1-.458.5H44.028a.849.849,0,1,0,0,1.7h1.058a2.157,2.157,0,0,0,2.15-2.324l-.618-7.933a4.3,4.3,0,0,0-.328-1.345,4.2,4.2,0,0,0-3.162-2.485V35.766l2.917-.88c.265.559.791,1.767,1.833,4.371,1.05,2.627,2.355,6,3.607,9.269a.863.863,0,0,0,.031.081c.835,2.186,1.646,4.326,2.339,6.173a.849.849,0,0,0,1.589,0c.693-1.847,1.5-3.987,2.339-6.173a.846.846,0,0,0,.031-.081c1.251-3.272,2.555-6.637,3.6-9.264,1.043-2.607,1.57-3.816,1.835-4.376l2.917.88v5.012a4.39,4.39,0,1,0,1.7,0v-4.5l6.4,1.93a2.584,2.584,0,0,1,1.811,2.051l2.564,15.008a.843.843,0,0,1-.831.984H31.492a.843.843,0,0,1-.831-.984l.846-4.953a.849.849,0,0,0-1.673-.286l-.846,4.953a2.539,2.539,0,0,0,2.5,2.967H77.807a2.54,2.54,0,0,0,2.5-2.967ZM65.9,17.213a3.642,3.642,0,0,1,.819-.111.867.867,0,0,0,.415-.1.8.8,0,0,1,.06.3v1.29a.82.82,0,0,1-.819.819H65.9ZM43.4,19.414h-.475a.82.82,0,0,1-.819-.819V17.3a.805.805,0,0,1,.06-.3.865.865,0,0,0,.415.1,3.783,3.783,0,0,1,.819.111Zm1.7.952V18.136a1.191,1.191,0,0,0,1.531-1.141V9.161a1.731,1.731,0,0,1,1.729-1.729H50.7a1.819,1.819,0,0,1,1.148.41l.23.188a4.068,4.068,0,0,0,5.149,0l.23-.188a1.819,1.819,0,0,1,1.148-.41h2.342a1.731,1.731,0,0,1,1.729,1.729v7.834A1.191,1.191,0,0,0,64.2,18.136v2.229a10.975,10.975,0,0,1-2.444,5.664,11.188,11.188,0,0,1-2.034,2.015.849.849,0,0,0-.076.057,8.272,8.272,0,0,1-10,0,.862.862,0,0,0-.075-.057,11.2,11.2,0,0,1-2.034-2.015A10.976,10.976,0,0,1,45.094,20.365Zm15.115,13.71-5.559,4.155L49.09,34.075a4.024,4.024,0,0,0,.86-2.4V30.3a9.966,9.966,0,0,0,9.4,0v1.368A4.024,4.024,0,0,0,60.209,34.075Zm-12.535-.947a2.32,2.32,0,0,0-1.431-.072l-.061.016-2.932.885a6.029,6.029,0,0,1,5-4.755v2.47A2.244,2.244,0,0,1,47.674,33.128Zm2.3,6.812,0-.012-.128-.322-.023-.057-.122-.308-.008-.021q-.189-.474-.364-.91l-.025-.063L49.2,38l-.036-.089-.094-.233-.028-.068-.165-.406-.044-.107-.062-.152-.066-.161-.025-.06-.019-.046q-.147-.357-.28-.674l0-.005-.137-.327-.068-.16,4.781,3.574-2,.849-.011,0-.834.354ZM52,45.136q-.251-.652-.506-1.309-.4-1.025-.759-1.952l.317-.135,1.294,1.5Zm2.664,6.9a.845.845,0,0,0-.087-.142c-.383-1.014-.87-2.3-1.409-3.707l.792-4.338h1.374l.792,4.338C55.564,49.662,55.057,51,54.666,52.033Zm.989-9.884h-2.01l-.951-1.106,1.956-.831,1.956.831ZM57.8,43.827q-.254.655-.506,1.309l-.346-1.892,1.294-1.5.317.135Q58.2,42.8,57.8,43.827Zm3.25-8.154-.13.309-.017.042-.135.325-.009.023-.123.3-.023.056-.029.07-.056.138-.07.172-.023.057-.182.447-.029.072-.093.231L60.1,38l-.1.244-.028.07q-.173.43-.358.9l-.012.031-.122.306-.023.058-.128.324,0,.006-.141.358-.835-.355-.009,0-2-.849,4.781-3.574Zm2.064-2.6h0a2.319,2.319,0,0,0-1.489.056,2.243,2.243,0,0,1-.579-1.456V29.2a5.981,5.981,0,0,1,5.006,4.757ZM69.7,45.088a2.694,2.694,0,1,1-2.694-2.694A2.7,2.7,0,0,1,69.7,45.088Z" transform="translate(-28.952)"/></g></g></svg>