<svg xmlns="http://www.w3.org/2000/svg" width="47" height="34" viewBox="0 0 47 34">
    <defs>
        <filter id="a" width="105.9%" height="124.5%" x="-2.9%" y="-12.3%" filterUnits="objectBoundingBox">
            <feOffset dy="6" in="SourceAlpha" result="shadowOffsetOuter1"/>
            <feGaussianBlur in="shadowOffsetOuter1" result="shadowBlurOuter1" stdDeviation="4"/>
            <feColorMatrix in="shadowBlurOuter1" result="shadowMatrixOuter1" values="0 0 0 0 0 0 0 0 0 0 0 0 0 0 0 0 0 0 0.1 0"/>
            <feMerge>
                <feMergeNode in="shadowMatrixOuter1"/>
                <feMergeNode in="SourceGraphic"/>
            </feMerge>
        </filter>
    </defs>
    <g fill="#F73F5B" fill-rule="nonzero" filter="url(#a)" transform="translate(-265 -77)">
        <path d="M292.636 93.236h.969v-1.841h1.542v-.843h-1.542v-1.047h1.65v-.85h-2.619zM295.909 89.964h1v3.273h-1zM296.403 88.655a.473.473 0 0 0-.494.49c0 .272.19.491.482.491.311 0 .5-.22.5-.49-.006-.279-.189-.491-.488-.491zM287.727 82.102c0-.21-.152-.32-.405-.32-.133 0-.21.007-.25.016v.638h.217c.276.001.438-.13.438-.334z"/>
        <path d="M299.568 84.74h-4.327a6.995 6.995 0 0 0-6.86-5.576 6.994 6.994 0 0 0-6.858 5.577h-4.328c-2.313 0-4.195 1.874-4.195 4.179v3.737c0 2.304 1.882 4.18 4.195 4.18h22.373c2.314 0 4.196-1.876 4.196-4.18V88.92c0-2.305-1.882-4.18-4.196-4.18zm-18.789 8.623h-1.106l-.383-1.937a15.375 15.375 0 0 1-.214-1.39h-.013c-.08.507-.155.935-.262 1.39l-.43 1.937h-1.12l-1.074-4.504h1.094l.342 1.851c.1.542.195 1.123.268 1.578h.013c.074-.488.182-1.03.296-1.59l.382-1.839h1.087l.361 1.898c.101.529.175 1.01.243 1.51h.012c.068-.5.168-1.028.262-1.57l.369-1.838h1.04l-1.167 4.504zm2.506 0h-1.02v-3.268h1.02v3.268zm-.517-3.668c-.322 0-.53-.228-.53-.509 0-.287.215-.507.543-.507.33 0 .53.22.537.507 0 .283-.208.51-.55.51zm7.635-8.144h1.368v.41h-.867v.461h.817v.407h-.817v.526h.914v.41h-1.415v-2.214zm-1.762 0h1.368v.41h-.867v.461h.818v.407h-.818v.526h.913v.41h-1.414v-2.214zm-2.34.41h-.854v.507h.798v.408h-.798v.89h-.501V81.55h1.355v.41zm.878 1.804h-.498V81.58c.161-.026.399-.045.67-.045.329 0 .56.05.718.174.135.105.208.262.208.467 0 .28-.202.472-.393.542v.01c.155.062.241.206.297.41.069.253.135.542.178.627h-.514a2.934 2.934 0 0 1-.152-.515c-.063-.28-.159-.351-.365-.356h-.15v.871zm14.907 8.892a2.516 2.516 0 0 1-2.518 2.508H289.6a5.2 5.2 0 0 1-2.396-4.377 5.2 5.2 0 0 1 2.396-4.375h9.967a2.516 2.516 0 0 1 2.518 2.507v3.737z"/>
    </g>
</svg>
