<svg xmlns="http://www.w3.org/2000/svg" xmlns:xlink="http://www.w3.org/1999/xlink" width="38" height="34" viewBox="0 0 38 34">
    <defs>
        <filter id="a" width="105.9%" height="124.5%" x="-2.9%" y="-12.3%" filterUnits="objectBoundingBox">
            <feOffset dy="6" in="SourceAlpha" result="shadowOffsetOuter1"/>
            <feGaussianBlur in="shadowOffsetOuter1" result="shadowBlurOuter1" stdDeviation="4"/>
            <feColorMatrix in="shadowBlurOuter1" result="shadowMatrixOuter1" values="0 0 0 0 0 0 0 0 0 0 0 0 0 0 0 0 0 0 0.1 0"/>
            <feMerge>
                <feMergeNode in="shadowMatrixOuter1"/>
                <feMergeNode in="SourceGraphic"/>
            </feMerge>
        </filter>
        <path id="b" d="M21.117 2.484a.353.353 0 0 1 .258.34V6a.35.35 0 0 1-.078.22l-1.425 1.765a.357.357 0 0 1-.278.133h-.385a2.455 2.455 0 0 1-.723 1.411h2.533c.196 0 .356.158.356.353 0 .96-.44 1.87-1.196 2.47h.84c.196 0 .356.159.356.354v4.941c0 .195-.16.353-.356.353H8.847a4.69 4.69 0 0 1-2.071-.484L2.622 15.46a1.497 1.497 0 0 1-.84-1.348v-.077c0-.424.18-.828.498-1.112A3.186 3.186 0 0 1 0 9.882c0-.195.16-.353.356-.353H2.89a2.455 2.455 0 0 1-.723-1.411H.358A.355.355 0 0 1 0 7.765V5.962c0-.01.003-.023.003-.035a3.136 3.136 0 0 1 .075-.625c.066-.316.181-.62.34-.902a.367.367 0 0 1 .058-.075 3.216 3.216 0 0 1 2.277-1.491l2.456-.348.59-.408a11.671 11.671 0 0 1 12.58-.457l.083.047c.046.025.092.05.137.079l.071.045 2.446.692zM16.64 2.47l.856-.53A10.96 10.96 0 0 0 12.469.707V2.47h4.172zM11.756.73c-1.88.115-3.698.715-5.272 1.74h5.272V.73zM.748 5.58a.398.398 0 0 0-.008.061l.507-.007.534-.708H.953c-.024.05-.045.1-.066.151C.88 5.1.87 5.12.863 5.142a2.398 2.398 0 0 0-.115.437zm-.036.768v1.065H2.16c.004-.027.01-.053.016-.08.006-.034.011-.068.019-.1l.035-.132c.01-.032.018-.064.028-.094.013-.045.032-.09.05-.134.01-.028.02-.056.032-.083.022-.05.046-.097.071-.145l.031-.062c.037-.066.077-.13.12-.194l.033-.045c.032-.047.068-.093.103-.137l.058-.065c.032-.037.063-.072.096-.106.022-.023.046-.044.069-.065.033-.03.064-.06.1-.09.024-.021.05-.04.077-.06.035-.028.07-.054.106-.079.028-.02.056-.037.084-.055a2.442 2.442 0 0 1 .2-.116c.04-.02.08-.038.12-.056.03-.014.06-.028.091-.04.043-.017.085-.032.128-.047.032-.01.062-.021.094-.03.045-.014.092-.025.138-.036.03-.007.06-.015.092-.02.051-.01.105-.018.158-.025.027-.003.053-.008.08-.01a2.552 2.552 0 0 1 .482-.002c.026.002.052.007.079.01.051.007.106.015.158.025l.092.02.138.036.094.031c.042.015.085.03.127.047a2.562 2.562 0 0 1 .495.267c.038.025.072.051.107.078l.077.06.1.09c.023.022.047.043.069.066l.096.106c.019.021.039.042.057.064.037.044.07.09.104.137l.035.046c.043.063.084.128.12.194l.03.062c.026.047.05.095.072.145.012.027.022.055.033.083.017.044.034.088.049.133.01.031.018.063.027.094.014.044.026.088.036.132l.019.1c.005.027.012.053.016.08h4.656V3.177H5.37l-2.515.356a2.494 2.494 0 0 0-1.393.688h1.033c.135 0 .258.076.319.195a.35.35 0 0 1-.034.37l-1.07 1.412a.357.357 0 0 1-.279.141l-.718.01zm13.567 1.77H7.096a2.456 2.456 0 0 1-.723 1.411h8.629a2.454 2.454 0 0 1-.723-1.411zM2.85 7.765a1.775 1.775 0 0 0 1.781 1.764c.984 0 1.781-.79 1.781-1.764C6.412 6.79 5.615 6 4.632 6c-.984 0-1.782.79-1.782 1.765zm4.325 6.37c-.101-.364-.047-.753.148-1.076H4.804l2.37 1.075zm-.08 2.749c.544.27 1.143.41 1.752.41h7.184v-4.378a4.793 4.793 0 0 0-4.488.05l-.091.05a.358.358 0 0 1-.17.043H8.55a.71.71 0 0 0-.713.706c0 .39.32.706.713.706h2.85c.197 0 .356.158.356.353 0 .194-.16.353-.356.353H7.837a.36.36 0 0 1-.148-.033l-4.051-1.838a.814.814 0 0 0-.774.053.798.798 0 0 0-.37.675v.077a.795.795 0 0 0 .446.716l4.154 2.057zm13.568-3.825h-3.92v4.235h3.92V13.06zm-.026-2.824H.737a2.49 2.49 0 0 0 2.47 2.118H8.55l2.653-.006a5.505 5.505 0 0 1 5.272.006h1.694a2.49 2.49 0 0 0 2.468-2.118zm-3.893-.706a1.775 1.775 0 0 0 1.781-1.764c0-.975-.798-1.765-1.781-1.765-.984 0-1.782.79-1.782 1.765 0 .974.798 1.764 1.782 1.764zm2.679-2.117l1.24-1.536V4.588h-1.425v-.706h1.425V3.09l-2.236-.633a.351.351 0 0 1-.09-.04l-.116-.07-.017-.01-1.271.786a.359.359 0 0 1-.19.054H12.47v4.237h1.802c.004-.027.011-.053.016-.08.006-.034.012-.068.02-.1.01-.045.023-.089.035-.132.009-.032.017-.064.027-.094.014-.045.032-.09.05-.134.01-.028.02-.056.032-.083.023-.05.047-.097.072-.145l.03-.062c.038-.066.077-.13.12-.194.01-.015.023-.03.034-.045.032-.047.068-.093.103-.137.018-.023.039-.043.058-.065a1.93 1.93 0 0 1 .095-.106c.023-.023.046-.044.07-.065.032-.03.063-.06.1-.09.024-.021.05-.04.076-.06.036-.028.071-.054.107-.079.027-.02.055-.037.084-.055a2.442 2.442 0 0 1 .2-.116c.039-.02.08-.038.119-.056a2.56 2.56 0 0 1 .22-.087l.093-.03c.046-.014.092-.025.139-.036.03-.007.06-.015.091-.02.052-.01.105-.018.159-.025.026-.003.052-.008.079-.01a2.55 2.55 0 0 1 .484-.002c.027.002.053.007.079.01.053.007.106.015.158.025l.092.02c.046.012.093.023.138.036l.094.031c.043.015.085.03.127.047a2.786 2.786 0 0 1 .3.144 2.37 2.37 0 0 1 .302.2c.027.02.053.04.078.062.034.029.067.06.1.09.022.021.046.042.068.065l.096.106a2.318 2.318 0 0 1 .161.202c.01.015.023.03.034.045.042.063.084.128.119.194l.031.062c.026.047.05.095.071.145.012.027.022.055.033.083.017.044.035.088.05.133.01.031.018.063.027.094.013.044.025.088.035.132.008.033.014.067.02.1.005.027.011.053.015.08h.21z"/>
    </defs>
    <g fill="none" fill-rule="evenodd" filter="url(#a)" transform="translate(8 2)">
        <mask id="c" fill="#fff">
            <use xlink:href="#b"/>
        </mask>
        <path fill="#F73F5B" d="M-1.5-1.5h24.375v21H-1.5z" mask="url(#c)"/>
    </g>
</svg>
