<svg xmlns="http://www.w3.org/2000/svg" xmlns:xlink="http://www.w3.org/1999/xlink" width="34" height="34" viewBox="0 0 34 34">
    <defs>
        <filter id="a" width="105.9%" height="124.5%" x="-2.9%" y="-12.3%" filterUnits="objectBoundingBox">
            <feOffset dy="6" in="SourceAlpha" result="shadowOffsetOuter1"/>
            <feGaussianBlur in="shadowOffsetOuter1" result="shadowBlurOuter1" stdDeviation="4"/>
            <feColorMatrix in="shadowBlurOuter1" result="shadowMatrixOuter1" values="0 0 0 0 0 0 0 0 0 0 0 0 0 0 0 0 0 0 0.1 0"/>
            <feMerge>
                <feMergeNode in="shadowMatrixOuter1"/>
                <feMergeNode in="SourceGraphic"/>
            </feMerge>
        </filter>
        <path id="b" d="M17.962 16.135c.168 0 .304.137.304.305v1.217a.305.305 0 0 1-.304.305H.304A.305.305 0 0 1 0 17.657V16.44c0-.168.136-.305.304-.305h1.639l-.357-.714c-.57-.22-.977-.77-.977-1.417v-.665a.912.912 0 0 1 .304-1.77h5.48c.504 0 .914.41.914.913a.912.912 0 0 1-.61.857v.665c0 .647-.406 1.197-.976 1.417l-.357.714h5.322l.502-4.766-.851.71a.91.91 0 0 1-1.186-.014l-2.024-1.771-.576-.346a1.139 1.139 0 0 1-.547-.842c-.025-.202.01-.4.085-.58V7.307c0-.397.256-.732.61-.858V5.175h-.305a.914.914 0 0 1-.913-.913V2.436c0-.504.41-.914.913-.914h1.218c.503 0 .913.41.913.914v1.826c0 .504-.41.913-.913.913h-.305V6.45c.354.126.609.461.609.858v.824c.078.072.15.152.206.246l.331.553 1.242.993 1.027-1.285a.304.304 0 0 1 .125-.092l.825-.33a2.734 2.734 0 0 1-1.017-2.127c0-.459.121-.91.343-1.315l.158-1.572c-.49-.207-.805-.615-.805-1.07 0-.656.65-1.193 1.462-1.218a1.825 1.825 0 0 1 3.165 0c.811.025 1.462.562 1.462 1.217 0 .456-.315.864-.805 1.071l.157 1.572c.222.404.343.856.343 1.315 0 .858-.397 1.624-1.016 2.127l.825.33c.066.027.12.075.154.137l1.827 3.35.001.004.004.005.26.521a1.024 1.024 0 0 1-.533 1.404 1.023 1.023 0 0 1-.866-.05 1.018 1.018 0 0 1-.514-.697l-.124-.62-.499-.748.45 4.283h1.858zM6.698 4.567V2.13h-.305a.305.305 0 0 0-.304.305v1.826c0 .168.136.305.304.305h.305zm10.948 8.268l-.151-.303-.7.175.079.393a.411.411 0 1 0 .772-.265zm-2.03-3.764l-.554-.222.442 1.68 1.07 1.605.628-.156-1.586-2.907zm-.668 1.889h-3.105l-.545 5.175h4.195l-.545-5.175zm-2.984-.61h2.863l-.449-1.705c-.012.004-.025.007-.037.012-.06.023-.122.044-.185.062l-.073.019c-.058.015-.116.03-.176.04-.03.007-.06.01-.09.015-.055.008-.11.017-.165.023l-.118.006c-.047.002-.092.007-.139.007-.046 0-.092-.005-.138-.007-.04-.002-.079-.003-.118-.006-.056-.006-.11-.015-.166-.023-.03-.005-.06-.008-.09-.014a2.61 2.61 0 0 1-.175-.041l-.073-.019a2.77 2.77 0 0 1-.186-.062l-.036-.012-.45 1.706zM10.96 2.132c0 .243.246.476.598.566a.304.304 0 0 1 .227.325l-.184 1.849h3.589l-.185-1.849a.304.304 0 0 1 .228-.325c.352-.09.598-.323.598-.566 0-.33-.418-.609-.913-.609-.018 0-.035.002-.052.004l-.049.005a.307.307 0 0 1-.303-.184 1.218 1.218 0 0 0-2.237 0 .31.31 0 0 1-.303.184l-.05-.005c-.016-.002-.033-.004-.05-.004-.496 0-.914.279-.914.61zm.304 3.958a2.132 2.132 0 0 0 1.422 2.007l.01.004c.453.158.945.158 1.398 0l.01-.004a2.132 2.132 0 0 0 1.332-2.616h-4.082c-.059.197-.09.402-.09.609zM7.307 2.13v2.436h.304a.305.305 0 0 0 .304-.305V2.436a.305.305 0 0 0-.304-.305h-.304zm-.305 4.871a.305.305 0 0 0-.304.305v.603l.035-.011a1.325 1.325 0 0 1 .26-.067c.026-.003.052-.003.079-.005.053-.003.105-.002.158.002.017.002.033-.001.05 0 .007.002.013.005.02.006h.007v-.528a.305.305 0 0 0-.305-.305zm-.138 2.424l.396.237.577-.577-.237-.395a.536.536 0 0 0-.155-.164l-.004-.002a.53.53 0 0 0-.164-.074l-.017-.004a.544.544 0 0 0-.165-.012h-.013a.53.53 0 0 0-.164.045l-.013.007a.522.522 0 0 0-.144.1c-.02.02-.036.044-.053.066a.673.673 0 0 0-.04.066c0 .003-.003.004-.004.007a.529.529 0 0 0 .2.7zm3.083 2.185l1.351-1.127.43-1.635-.581.233-1.168 1.46a.304.304 0 0 1-.428.047L8.242 9.54l-.49.49 1.8 1.575c.112.1.279.1.395.005zM.913 12.786h5.48a.305.305 0 0 0 0-.608H.913a.305.305 0 0 0 0 .608zm.305 1.218c0 .504.41.914.913.914h3.044c.504 0 .914-.41.914-.914v-.609H1.218v.61zm3.77 1.522h-1.03v.61h.725l.304-.61zm-1.64 0H2.32l.305.61h.725v-.61zm14.31 1.827v-.609H.609v.609h17.049z"/>
        <path id="d" d="M14.309 12.178c.168 0 .304.136.304.304v.913a1.219 1.219 0 0 1-2.435 0v-.913c0-.168.136-.304.304-.304h1.827zm-.305 1.217v-.609h-1.218v.61a.61.61 0 0 0 1.218 0z"/>
        <path id="f" d="M3.349 9.133h.609v1.522h-.61z"/>
        <path id="h" d="M4.871 9.742h.609v1.218H4.87z"/>
        <path id="j" d="M1.827 9.742h.609v1.218h-.61z"/>
        <path id="l" d="M3.349 7.915h.609v.61h-.61z"/>
        <path id="n" d="M1.827 8.524h.609v.61h-.61z"/>
        <path id="p" d="M4.871 8.524h.609v.61H4.87z"/>
    </defs>
    <g fill="none" fill-rule="evenodd" filter="url(#a)" transform="translate(8 2)">
        <mask id="c" fill="#fff">
            <use xlink:href="#b"/>
        </mask>
        <path fill="#F73F5B" d="M-1.5-1.5h21.298v20.962H-1.5z" mask="url(#c)"/>
        <mask id="e" fill="#fff">
            <use xlink:href="#d"/>
        </mask>
        <path fill="#F73F5B" d="M10.678 10.678h5.435v5.435h-5.435z" mask="url(#e)"/>
        <mask id="g" fill="#fff">
            <use xlink:href="#f"/>
        </mask>
        <path fill="#F73F5B" d="M1.849 7.633h3.609v4.522h-3.61z" mask="url(#g)"/>
        <mask id="i" fill="#fff">
            <use xlink:href="#h"/>
        </mask>
        <path fill="#F73F5B" d="M3.371 8.242H6.98v4.218H3.37z" mask="url(#i)"/>
        <mask id="k" fill="#fff">
            <use xlink:href="#j"/>
        </mask>
        <path fill="#F73F5B" d="M.327 8.242h3.609v4.218H.326z" mask="url(#k)"/>
        <mask id="m" fill="#fff">
            <use xlink:href="#l"/>
        </mask>
        <path fill="#F73F5B" d="M1.849 6.415h3.609v3.61h-3.61z" mask="url(#m)"/>
        <mask id="o" fill="#fff">
            <use xlink:href="#n"/>
        </mask>
        <path fill="#F73F5B" d="M.327 7.024h3.609v3.61H.326z" mask="url(#o)"/>
        <mask id="q" fill="#fff">
            <use xlink:href="#p"/>
        </mask>
        <path fill="#F73F5B" d="M3.371 7.024H6.98v3.61H3.37z" mask="url(#q)"/>
    </g>
</svg>
