<svg xmlns="http://www.w3.org/2000/svg" xmlns:xlink="http://www.w3.org/1999/xlink" width="32" height="34" viewBox="0 0 32 34">
    <defs>
        <filter id="a" width="105.9%" height="124.5%" x="-2.9%" y="-12.3%" filterUnits="objectBoundingBox">
            <feOffset dy="6" in="SourceAlpha" result="shadowOffsetOuter1"/>
            <feGaussianBlur in="shadowOffsetOuter1" result="shadowBlurOuter1" stdDeviation="4"/>
            <feColorMatrix in="shadowBlurOuter1" result="shadowMatrixOuter1" values="0 0 0 0 0 0 0 0 0 0 0 0 0 0 0 0 0 0 0.1 0"/>
            <feMerge>
                <feMergeNode in="shadowMatrixOuter1"/>
                <feMergeNode in="SourceGraphic"/>
            </feMerge>
        </filter>
        <path id="b" d="M15.768.24a.83.83 0 0 1 .83.83.277.277 0 0 1-.553 0 .277.277 0 0 0-.277-.277h-.226l.642 3.854a2.492 2.492 0 0 1-.321 1.69l-.371.619v.995c0 .172-.14.311-.311.311H1.418a.312.312 0 0 1-.311-.31v-.996l-.372-.619a2.492 2.492 0 0 1-.32-1.69L1.056.793H.83a.277.277 0 0 0-.277.277.277.277 0 0 1-.553 0A.83.83 0 0 1 .83.24h14.938zm-1.763 5.812c.237-.394.326-.86.25-1.314L13.598.793h-.84l.458 4.121c.045.406-.012.82-.163 1.2l-.196.488h.818l.33-.55zm-2.573.55h.83l.277-.694c.118-.294.162-.617.127-.933L12.2.793h-.836l.34 4.283c.023.297-.006.593-.088.88l-.185.646zm-1.457 0h.882l.228-.798a1.93 1.93 0 0 0 .068-.684L10.81.793h-.847l.073 4.62c0 .059 0 .119-.004.178l-.057 1.011zm-1.4 0h.846L9.48 5.56a1.95 1.95 0 0 0 .002-.14L9.41.794h-.834v5.81zm-1.4 0h.848V.793h-.835l-.08 4.62c-.001.05 0 .103.003.154l.065 1.035zm-4.252 0h.818l-.196-.488a2.499 2.499 0 0 1-.162-1.2L3.84.793H3l-.658 3.945c-.075.453.013.92.25 1.314l.33.55zm1.414 0h.828L4.98 5.96a2.481 2.481 0 0 1-.089-.886l.342-4.28h-.836l-.465 4.182c-.035.316.01.639.127.933l.278.694zm1.404 0h.88l-.062-1a2.493 2.493 0 0 1-.005-.2l.08-4.609h-.846l-.345 4.324a1.93 1.93 0 0 0 .07.69l.228.795zM.961 4.738c-.076.453.012.92.249 1.314l.33.55h.738l-.16-.265a2.492 2.492 0 0 1-.32-1.69L2.44.793h-.822L.96 4.738zm13.978 2.971v-.553H12.45h-.001-1.382-.001-5.532-.001H4.15 1.66v.553h13.279zm.45-1.657c.236-.394.325-.86.25-1.314L14.98.793h-.822l.642 3.854a2.492 2.492 0 0 1-.321 1.69l-.16.265h.739l.33-.55z"/>
        <path id="d" d="M.387 9.13a.277.277 0 0 1-.276-.278V.553C.11.248.359 0 .664 0h9.959c.305 0 .553.248.553.553v8.3a.277.277 0 0 1-.553 0v-8.3H.663v8.3a.277.277 0 0 1-.276.276z"/>
        <path id="f" d="M8.613 8.244a.277.277 0 0 1-.277-.277v-4.15H4.74v4.15a.277.277 0 0 1-.554 0V.775H.59v2.49h2.767a.277.277 0 0 1 0 .553H.59v4.15a.277.277 0 0 1-.553 0V.497C.037.345.16.221.314.221h8.299c.152 0 .276.124.276.277v7.47a.277.277 0 0 1-.276.276zM4.74 3.264h3.596V.774H4.74v2.49z"/>
    </defs>
    <g fill="none" fill-rule="evenodd" filter="url(#a)" transform="translate(-321 -77)">
        <g transform="translate(329 88.443)">
            <mask id="c" fill="#fff">
                <use xlink:href="#b"/>
            </mask>
            <path fill="#F73F5B" d="M-1.475-1.236h19.549V9.738h-19.55z" mask="url(#c)"/>
        </g>
        <g transform="translate(331.656 79)">
            <mask id="e" fill="#fff">
                <use xlink:href="#d"/>
            </mask>
            <path fill="#F73F5B" d="M-1.365-1.475h14.017v12.08H-1.365z" mask="url(#e)"/>
        </g>
        <g transform="translate(332.836 79.885)">
            <mask id="g" fill="#fff">
                <use xlink:href="#f"/>
            </mask>
            <path fill="#F73F5B" d="M-1.439-1.254h11.804V9.719H-1.44z" mask="url(#g)"/>
        </g>
    </g>
</svg>
