<svg xmlns="http://www.w3.org/2000/svg" xmlns:xlink="http://www.w3.org/1999/xlink" width="39" height="34" viewBox="0 0 39 34">
    <defs>
        <filter id="a" width="105.9%" height="124.5%" x="-2.9%" y="-12.3%" filterUnits="objectBoundingBox">
            <feOffset dy="6" in="SourceAlpha" result="shadowOffsetOuter1"/>
            <feGaussianBlur in="shadowOffsetOuter1" result="shadowBlurOuter1" stdDeviation="4"/>
            <feColorMatrix in="shadowBlurOuter1" result="shadowMatrixOuter1" values="0 0 0 0 0 0 0 0 0 0 0 0 0 0 0 0 0 0 0.1 0"/>
            <feMerge>
                <feMergeNode in="shadowMatrixOuter1"/>
                <feMergeNode in="SourceGraphic"/>
            </feMerge>
        </filter>
        <path id="b" d="M22.376 2.524a.33.33 0 0 1 .332.329v12.873a2.008 2.008 0 0 1-2.011 1.997H2.01A2.008 2.008 0 0 1 0 15.726V1.997A2.008 2.008 0 0 1 2.01 0h17.003a.33.33 0 0 1 .331.33v2.194h3.032zM2.011 17.069l17.192-.004a1.994 1.994 0 0 1-.522-1.339V.672H2.011C1.267.674.665 1.272.663 2.01v13.72a1.348 1.348 0 0 0 1.348 1.34zm20.012-1.343V3.186h-2.674v12.589a1.322 1.322 0 0 0 1.348 1.294 1.347 1.347 0 0 0 1.326-1.343z"/>
        <path id="d" d="M5.006 1.952c.138.003.25.106.256.237v2.554a.253.253 0 0 1-.256.241.257.257 0 0 1-.19-.088l-.024-.026-1.497-1.95v1.823a.253.253 0 0 1-.251.241H3.02c-.141-.002-.253-.112-.25-.245V2.184a.231.231 0 0 1 .102-.201.266.266 0 0 1 .353.052l1.53 1.96V2.19a.249.249 0 0 1 .25-.237z"/>
        <path id="f" d="M7.789 4.504c.11.014.196.1.211.208a.243.243 0 0 1-.211.273H6.33a.24.24 0 0 1-.238-.243V2.177a.24.24 0 0 1 .242-.239H7.79c.133.003.24.108.242.239a.249.249 0 0 1-.242.242H6.58v.798H7.61c.11.014.196.1.211.208a.243.243 0 0 1-.211.273H6.58v.806H7.79z"/>
        <path id="h" d="M12.322 1.958c.118.053.171.195.12.318L11.388 4.89a.126.126 0 0 1-.022.04v.027h-.03c-.013.027-.038.027-.038.027h-.167a.082.082 0 0 1-.039-.027h-.03V4.93a.13.13 0 0 1 0-.04l-.566-1.39-.562 1.39v.04l-.025.027h-.026l-.034.027a.062.062 0 0 0-.035 0h-.137a.111.111 0 0 1-.038-.027h-.03V4.93a.349.349 0 0 1-.022-.04L8.314 2.276a.25.25 0 0 1 .103-.264.23.23 0 0 1 .326.076L9.6 4.167l.553-1.377a.236.236 0 0 1 .223-.152c.097 0 .184.06.223.152l.553 1.377.857-2.08a.236.236 0 0 1 .313-.129z"/>
        <path id="j" d="M15.675 3.727a.65.65 0 0 1 .11.359.806.806 0 0 1-.392.658 1.512 1.512 0 0 1-.848.24 2.067 2.067 0 0 1-1.166-.43.212.212 0 0 1-.037-.308.25.25 0 0 1 .333-.03c.246.194.553.308.875.325.203.004.401-.05.57-.156a.376.376 0 0 0 .195-.303.227.227 0 0 0-.04-.135.415.415 0 0 0-.137-.127 1.924 1.924 0 0 0-.63-.198 2.592 2.592 0 0 1-.591-.165.974.974 0 0 1-.424-.329.614.614 0 0 1-.105-.346.772.772 0 0 1 .365-.62c.232-.149.51-.227.792-.223.366-.001.72.119.998.337a.21.21 0 0 1 .052.316.235.235 0 0 1-.312.047 1.095 1.095 0 0 0-.738-.27.925.925 0 0 0-.51.143.335.335 0 0 0-.173.266.19.19 0 0 0 .032.118c.033.044.075.08.123.11.175.095.368.158.57.185.218.038.43.1.633.186.184.075.342.196.455.35z"/>
        <path id="l" d="M16.005 6.092c.184 0 .333.124.333.277 0 .153-.149.277-.333.277H2.549c-.184 0-.334-.124-.334-.277 0-.153.15-.277.334-.277h13.456z"/>
        <path id="n" d="M14.348 8.862c.182 0 .329.124.329.276 0 .153-.147.277-.33.277H2.546c-.182 0-.33-.124-.33-.277 0-.152.148-.276.33-.276h11.803z"/>
        <path id="p" d="M14.348 10.523c.182 0 .329.124.329.277 0 .153-.147.277-.33.277H2.546c-.182 0-.33-.124-.33-.277 0-.153.148-.277.33-.277h11.803z"/>
        <path id="r" d="M14.348 12.185c.182 0 .329.124.329.277 0 .152-.147.276-.33.276H2.546c-.182 0-.33-.124-.33-.276 0-.153.148-.277.33-.277h11.803z"/>
        <path id="t" d="M14.348 13.846c.182 0 .329.124.329.277 0 .153-.147.277-.33.277H2.546c-.182 0-.33-.124-.33-.277 0-.153.148-.277.33-.277h11.803z"/>
    </defs>
    <g fill="none" fill-rule="evenodd" filter="url(#a)" transform="translate(8 2)">
        <mask id="c" fill="#fff">
            <use xlink:href="#b"/>
        </mask>
        <path fill="#F73F5B" d="M-1.5-1.5h25.708v20.723H-1.5z" mask="url(#c)"/>
        <mask id="e" fill="#fff">
            <use xlink:href="#d"/>
        </mask>
        <path fill="#F73F5B" d="M1.27.438h5.492v6.047H1.269z" mask="url(#e)"/>
        <mask id="g" fill="#fff">
            <use xlink:href="#f"/>
        </mask>
        <path fill="#F73F5B" d="M4.592.438h4.939v6.047H4.592z" mask="url(#g)"/>
        <mask id="i" fill="#fff">
            <use xlink:href="#h"/>
        </mask>
        <path fill="#F73F5B" d="M6.808.438h7.154v6.047H6.808z" mask="url(#i)"/>
        <mask id="k" fill="#fff">
            <use xlink:href="#j"/>
        </mask>
        <path fill="#F73F5B" d="M11.792.438h5.493v6.047h-5.493z" mask="url(#k)"/>
        <mask id="m" fill="#fff">
            <use xlink:href="#l"/>
        </mask>
        <path fill="#F73F5B" d="M.715 4.592h17.123v3.554H.715z" mask="url(#m)"/>
        <mask id="o" fill="#fff">
            <use xlink:href="#n"/>
        </mask>
        <path fill="#F73F5B" d="M.715 7.362h15.462v3.553H.715z" mask="url(#o)"/>
        <mask id="q" fill="#fff">
            <use xlink:href="#p"/>
        </mask>
        <path fill="#F73F5B" d="M.715 9.023h15.462v3.554H.715z" mask="url(#q)"/>
        <mask id="s" fill="#fff">
            <use xlink:href="#r"/>
        </mask>
        <path fill="#F73F5B" d="M.715 10.685h15.462v3.553H.715z" mask="url(#s)"/>
        <mask id="u" fill="#fff">
            <use xlink:href="#t"/>
        </mask>
        <path fill="#F73F5B" d="M.715 12.346h15.462V15.9H.715z" mask="url(#u)"/>
    </g>
</svg>
