<svg xmlns="http://www.w3.org/2000/svg" width="60.906" height="65.255" viewBox="0 0 60.906 65.255"><defs><style>.a{fill:#ff4157;}</style></defs><g transform="translate(-15.998 0)"><g transform="translate(15.998 17.402)"><path class="a" d="M58.415,133.437A5.444,5.444,0,0,0,52.977,128H39.382a4.364,4.364,0,0,0-3.48,1.74l-2.284,3.017L30.681,136.7H25.787V128H23.612v8.7H22.524a1.088,1.088,0,0,0-1.088,1.088v4.35a1.088,1.088,0,0,0,1.088,1.088h1.088v23.927H16v2.175h1.753l-1.7,5.094a1.088,1.088,0,0,0,1.032,1.431H32.312a1.088,1.088,0,0,0,1.032-1.431l-1.7-5.094H33.4v-2.175H25.787V143.225h7.582a3.263,3.263,0,0,0,2.648-1.358l3.3-4.527.008-.015.012-.011.592-.87v2.361l-.685,5.834-.685,5.82-.941,7.993h2.311v11.707l-2.061,4.121a1.088,1.088,0,0,0,.973,1.574H54.064a1.088,1.088,0,0,0,.979-1.574l-2.066-4.121V158.452h2.311l-.512-4.35h3.639Zm-8.085-3.263H50.8v3.263h-2.43Zm-2.536,0-1.342,2.236-1.342-2.236Zm-5.692,0h.472l1.958,3.263H42.1Zm0,5.438h8.7v2.175H42.094Zm-1.385,15.1.236-2.012,1.028-8.737h8.942l1.264,10.749a1.088,1.088,0,0,1-1.08,1.215H41.8a1.088,1.088,0,0,1-1.087-1.088A1.076,1.076,0,0,1,40.716,150.711ZM29.353,169.327l1.451,4.35H27.962V171.5H25.787v2.175H23.612V171.5H21.436v2.175H18.595l1.451-4.35Zm4.9-28.733a1.088,1.088,0,0,1-.885.456H23.612v-2.175h7.613a1.088,1.088,0,0,0,.87-.435l2.576-3.457,2.284,1.9Zm5.672-7.157a1.087,1.087,0,0,0-.9.473l-.815,1.189-1.094-.911-1.139-.949,1.661-2.194a2.186,2.186,0,0,1,1.74-.87h.544Zm5.438,40.241H40.6l1.088-2.175h3.678Zm0-4.35H42.1V158.452h3.263Zm2.175,4.35V171.5h3.678l1.088,2.175Zm0-4.35V158.452H50.8v10.876Zm-7.477-13.051.3-2.521a3.264,3.264,0,0,0,1.439.346h9.31a3.249,3.249,0,0,0,1.44-.347l.295,2.522Zm16.178-4.35H55l-2.021-13.135v-1h3.263Zm0-16.314H52.977v-5.438a3.263,3.263,0,0,1,3.263,3.263Z" transform="translate(-15.998 -127.999)"/></g><g transform="translate(41.013 0)"><path class="a" d="M210.938,0a4.351,4.351,0,0,0-3.928,2.42,5.349,5.349,0,0,0-1.569-.245A5.444,5.444,0,0,0,200,7.613V9.788a5.438,5.438,0,0,0,5.438,5.438h.012c.173,0,.346-.009.519-.025a5.583,5.583,0,0,0,4.907-5.6V8.7a4.35,4.35,0,1,0,.06-8.7Zm-8.761,7.613A3.263,3.263,0,0,1,205.44,4.35a3.19,3.19,0,0,1,2.319.99c-.025.021-.047.046-.073.067a9.745,9.745,0,0,1-1.158.824c-.094.058-.193.109-.288.163-.337.194-.682.372-1.031.535l-.357.164c-.43.187-.862.361-1.283.508-.023.009-.045.014-.067.022-.414.144-.814.264-1.2.371l-.127.036V7.613Zm3.589,5.423a3.231,3.231,0,0,1-2.519-.833,3.276,3.276,0,0,1-1.031-1.926l.06-.017c.456-.115.929-.25,1.414-.4.121-.038.239-.08.36-.121q.6-.2,1.2-.445c.122-.049.243-.095.364-.147.495-.218.979-.446,1.46-.707.089-.049.172-.109.26-.156a12.878,12.878,0,0,0,1.144-.742c.071-.052.151-.091.218-.145,0,.073.008.146.008.218l0,1.989A3.392,3.392,0,0,1,205.766,13.036Zm5.112-6.51c-.041,0-.086-.01-.128-.012a5.391,5.391,0,0,0-1.835-3.045,2.165,2.165,0,1,1,1.963,3.057Z" transform="translate(-200.002 0)"/></g><g transform="translate(59.502 41.328)"><path class="a" d="M344.7,304a8.7,8.7,0,0,0-8.7,8.7v1.088a.925.925,0,0,0,.02.095.729.729,0,0,0,0,.085l2.175,13.051a1.088,1.088,0,0,0,1.068.908h10.876a1.088,1.088,0,0,0,1.072-.908l2.175-13.051a.729.729,0,0,0,0-.085.917.917,0,0,0,.015-.095V312.7A8.7,8.7,0,0,0,344.7,304Zm4.517,21.752h-9.034l-1.812-10.876h12.657ZM338.177,312.7a6.526,6.526,0,0,1,13.051,0Z" transform="translate(-336.002 -303.999)"/></g></g></svg>