<svg width="48" height="48" xmlns="http://www.w3.org/2000/svg">

 <g>
  <title>background</title>
  <rect fill="none" id="canvas_background" height="402" width="582" y="-1" x="-1"/>
 </g>
 <g>
  <title>Layer 1</title>
  <circle id="svg_2" fill="#f73f5b" r="15.34377" cy="24" cx="24.00002"/>
  <path id="svg_4" fill="#FFFFFF" d="m23.99985,27.7154c-2.0488,0 -3.7153,-1.667 -3.7153,-3.7158s1.6665,-3.7148 3.7153,-3.7148c2.0489,0 3.7159,1.666 3.7159,3.7148s-1.667,3.7158 -3.7159,3.7158zm0,-6.4306c-1.497,0 -2.7153,1.2177 -2.7153,2.7148c0,1.4971 1.2183,2.7158 2.7153,2.7158c1.4976,0 2.7159,-1.2187 2.7159,-2.7158c0,-1.4971 -1.2183,-2.7148 -2.7159,-2.7148z"/>
  <circle id="svg_5" fill="#FFFFFF" r="0.4621" cy="19.8909" cx="28.24785"/>
  <path id="svg_7" fill="#FFFFFF" d="m27.19765,31.2643l-6.3955,0c-2.2427,0 -4.0669,-1.8243 -4.0669,-4.0665l0,-6.3955c0,-2.2431 1.8242,-4.0673 4.0669,-4.0673l6.3955,0c2.2427,0 4.0669,1.8242 4.0669,4.0673l0,6.3955c0,2.2422 -1.8242,4.0665 -4.0669,4.0665zm-6.3955,-13.5293c-1.6909,0 -3.0669,1.3759 -3.0669,3.0673l0,6.3955c0,1.6905 1.376,3.0665 3.0669,3.0665l6.3955,0c1.6909,0 3.0669,-1.376 3.0669,-3.0665l0,-6.3955c0,-1.6914 -1.376,-3.0673 -3.0669,-3.0673l-6.3955,0z"/>
 </g>
</svg>