<svg xmlns="http://www.w3.org/2000/svg" width="60" height="60" viewBox="0 0 60 60"><defs><style>.a{fill:#ff4157;}</style></defs><path class="a" d="M59,96H41a1,1,0,0,0-1,1v22.894H18V116.9a1,1,0,0,0-1-1H14V117.9h2v1.991H12v-3.982H10v3.982H6V117.9H8v-1.991H5a1,1,0,0,0-1,1v2.986H1a1,1,0,0,0-1,1v21.9a1,1,0,0,0,1,1H59a1,1,0,0,0,1-1V97A1,1,0,0,0,59,96ZM42,97.991H58v11.945H42Zm-2,27.871H22V121.88H40ZM2,121.88H20v3.982H2Zm0,5.972H20v13.935H2Zm20,0h8v13.935H22Zm10,0h8v13.935H32Zm10,13.935V111.926H58v29.862Zm0,0" transform="translate(0 -83.779)"/><path class="a" d="M352,144h2.037v4.074H352Zm0,0" transform="translate(-308.028 -126.024)"/><path class="a" d="M352,256h2.037v4.074H352Zm0,0" transform="translate(-308.028 -224.042)"/><path class="a" d="M34.037,313.018A1.018,1.018,0,1,1,33.018,312,1.018,1.018,0,0,1,34.037,313.018Zm0,0" transform="translate(-27.926 -273.025)"/><path class="a" d="M66.037,313.018A1.018,1.018,0,1,1,65.018,312,1.018,1.018,0,0,1,66.037,313.018Zm0,0" transform="translate(-55.852 -273.025)"/><path class="a" d="M98.037,313.018A1.018,1.018,0,1,1,97.018,312,1.018,1.018,0,0,1,98.037,313.018Zm0,0" transform="translate(-84.008 -273.025)"/><path class="a" d="M130.037,313.018A1.018,1.018,0,1,1,129.018,312,1.018,1.018,0,0,1,130.037,313.018Zm0,0" transform="translate(-112.01 -273.025)"/><path class="a" d="M1.018,19.351H21.388a1.019,1.019,0,0,0,1.018-1.018V15.277a1.019,1.019,0,0,0-.3-.72l-4.074-4.074a1.019,1.019,0,0,0-.72-.3H16.3V1.018A1.019,1.019,0,0,0,15.277,0H7.129A1.019,1.019,0,0,0,6.111,1.018v9.166H5.092a1.019,1.019,0,0,0-.72.3L.3,14.557a1.019,1.019,0,0,0-.3.72v3.055A1.019,1.019,0,0,0,1.018,19.351ZM8.148,2.037h6.111v8.148H8.148ZM2.037,15.7l3.477-3.477H16.892L20.369,15.7v1.615H2.037Zm0,0"/><path class="a" d="M45.24,368H33.018A1.018,1.018,0,0,0,32,369.018v8.148a1.018,1.018,0,0,0,1.018,1.018H45.24a1.018,1.018,0,0,0,1.018-1.018v-8.148A1.018,1.018,0,0,0,45.24,368Zm-1.018,8.148H34.037v-6.111H44.221Zm0,0" transform="translate(-27.926 -322.258)"/><path class="a" d="M232,312h4.074v2.037H232Zm0,0" transform="translate(-203.038 -273.025)"/><path class="a" d="M208,392h2.037v4.074H208Zm0,0" transform="translate(-182.017 -343.203)"/><path class="a" d="M272,392h2.037v4.074H272Zm0,0" transform="translate(-238.022 -343.203)"/><path class="a" d="M185.018,25.461h6.111a1.018,1.018,0,0,0,1.018-1.018V23.424a4.074,4.074,0,0,0-3.055-3.929V0h-2.037V19.5A4.074,4.074,0,0,0,184,23.424v1.018A1.019,1.019,0,0,0,185.018,25.461Zm3.055-4.074a2.037,2.037,0,0,1,2.037,2.037h-4.074A2.037,2.037,0,0,1,188.074,21.388Zm0,0" transform="translate(-161.065)"/><path class="a" d="M241.018,17.314h6.111a1.018,1.018,0,0,0,1.018-1.018V15.277a4.074,4.074,0,0,0-3.055-3.929V0h-2.037V11.348A4.074,4.074,0,0,0,240,15.277V16.3A1.019,1.019,0,0,0,241.018,17.314Zm3.055-4.074a2.037,2.037,0,0,1,2.037,2.037h-4.074A2.037,2.037,0,0,1,244.074,13.24Zm0,0" transform="translate(-210.085)"/></svg>