<svg height="24" viewBox="0 0 24 24" width="24" xmlns="http://www.w3.org/2000/svg"><path d="m12 24c-6.627 0-12-5.373-12-12s5.373-12 12-12 12 5.373 12 12-5.373 12-12 12zm7.17-11.034c0-2.65-1.415-3.883-3.302-3.883-1.524 0-2.204.839-2.585 1.425v.029h-.02l.02-.029v-1.222h-2.869c.039.81 0 8.627 0 8.627h2.869v-4.818c0-.259.02-.515.095-.7.208-.515.678-1.048 1.47-1.048 1.04 0 1.454.791 1.454 1.95v4.616h2.868zm-11.757-7.839c-.98 0-1.623.645-1.623 1.49 0 .829.623 1.492 1.586 1.492h.018c1 0 1.623-.663 1.623-1.491-.02-.846-.622-1.49-1.604-1.49zm-1.452 12.786h2.867v-8.627h-2.867z" fill="#f73f5b"/></svg>