<svg xmlns="http://www.w3.org/2000/svg" width="53.597" height="61.537" viewBox="0 0 53.597 61.537"><defs><style>.a{fill:#ff4157;}</style></defs><path class="a" d="M49.627,19.851V9.925h-3.97V0H0V56.574a4.969,4.969,0,0,0,4.963,4.963H48.634A4.968,4.968,0,0,0,53.6,56.574V19.851ZM4.963,59.552a2.981,2.981,0,0,1-2.978-2.978V1.985H43.671V56.574a4.937,4.937,0,0,0,.994,2.978Zm46.649-2.978a2.978,2.978,0,1,1-5.955,0V11.91h1.985V53.6h1.985V21.836h1.985Zm0,0"/><path class="a" d="M384,448h1.985v1.985H384Zm0,0" transform="translate(-336.358 -392.418)"/><path class="a" d="M160.251,284.12l-3.348-.956V282.9a4.968,4.968,0,0,0,1.985-3.949v-1.814a5.093,5.093,0,0,0-4.479-5.11,4.961,4.961,0,0,0-5.446,4.939v1.985a4.968,4.968,0,0,0,1.985,3.949v.265l-3.349.956a4.986,4.986,0,0,0-3.6,4.773v2.96h19.851v-2.96A4.985,4.985,0,0,0,160.251,284.12Zm1.615,5.748h-15.88v-.975a2.992,2.992,0,0,1,2.16-2.864l4.788-1.369V281.8l-.493-.287a2.946,2.946,0,0,1-1.492-2.562v-1.985A2.978,2.978,0,0,1,154.22,274a3.1,3.1,0,0,1,2.683,3.135v1.814a2.946,2.946,0,0,1-1.492,2.562l-.493.287v2.862l4.787,1.369a2.992,2.992,0,0,1,2.16,2.864Zm0,0" transform="translate(-126.134 -238.256)"/><path class="a" d="M112,267.791h27.791V240H112Zm1.985-25.806h23.821v23.821H113.985Zm0,0" transform="translate(-98.105 -210.224)"/><path class="a" d="M43.91,55.821A11.91,11.91,0,1,0,32,43.91,11.923,11.923,0,0,0,43.91,55.821Zm0-1.985a9.937,9.937,0,0,1-9.075-5.922,4.915,4.915,0,0,1,3.17,1.42l.205.205A4.5,4.5,0,0,0,45.9,46.357V45.4a3.477,3.477,0,0,0-3.474-3.474,1.49,1.49,0,0,1-1.489-1.489V38.948a6.966,6.966,0,0,0-1.278-3.99,9.823,9.823,0,0,1,3.328-.925,5.561,5.561,0,0,0-.064.675,5.658,5.658,0,0,0,2.134,4.441L46.743,40.5a3.016,3.016,0,0,1,1.137,2.365A5.021,5.021,0,0,0,52.9,47.88c.035,0,.073-.007.109-.008A9.937,9.937,0,0,1,43.91,53.836Zm9.925-9.925a9.938,9.938,0,0,1-.189,1.919,4.841,4.841,0,0,1-.75.066,3.033,3.033,0,0,1-3.03-3.03,4.989,4.989,0,0,0-1.882-3.915L46.292,37.6A3.68,3.68,0,0,1,44.9,34.708a3.441,3.441,0,0,1,.065-.664A9.938,9.938,0,0,1,53.836,43.91ZM37.963,35.983a4.99,4.99,0,0,1,.985,2.965v1.489a3.477,3.477,0,0,0,3.474,3.474A1.49,1.49,0,0,1,43.91,45.4v.958a2.517,2.517,0,0,1-4.3,1.78l-.205-.205A6.9,6.9,0,0,0,34.5,45.9a2.248,2.248,0,0,1-.316-.03,9.887,9.887,0,0,1,3.783-9.883Zm0,0" transform="translate(-28.03 -28.03)"/><path class="a" d="M240,32h11.91v1.985H240Zm0,0" transform="translate(-210.224 -28.03)"/><path class="a" d="M240,64h1.985v1.985H240Zm0,0" transform="translate(-210.224 -56.06)"/><path class="a" d="M272,64h7.94v1.985H272Zm0,0" transform="translate(-238.254 -56.06)"/><path class="a" d="M240,96h11.91v1.985H240Zm0,0" transform="translate(-210.224 -84.09)"/><path class="a" d="M240,128h11.91v1.985H240Zm0,0" transform="translate(-210.224 -112.119)"/><path class="a" d="M240,160h7.94v1.985H240Zm0,0" transform="translate(-210.224 -140.149)"/><path class="a" d="M320,160h1.985v1.985H320Zm0,0" transform="translate(-280.299 -140.149)"/><path class="a" d="M32,440h7.94v1.985H32Zm0,0" transform="translate(-28.03 -385.411)"/><path class="a" d="M32,408h7.94v1.985H32Zm0,0" transform="translate(-28.03 -357.381)"/><path class="a" d="M32,376h7.94v1.985H32Zm0,0" transform="translate(-28.03 -329.351)"/><path class="a" d="M32,344h7.94v1.985H32Zm0,0" transform="translate(-28.03 -301.321)"/><path class="a" d="M32,312h7.94v1.985H32Zm0,0" transform="translate(-28.03 -273.291)"/></svg>