<svg xmlns="http://www.w3.org/2000/svg" width="52.107" height="52.107" viewBox="0 0 52.107 52.107"><defs><style>.a{fill:#ff4157;}</style></defs><g transform="translate(0)"><path class="a" d="M51.66,6.452l-6-6A1.526,1.526,0,0,0,44.576,0H7.531A1.527,1.527,0,0,0,6.452.447l-6,6A1.527,1.527,0,0,0,0,7.531V44.452a1.527,1.527,0,0,0,3.053,0V15.26c.041,0,.081.006.123.006H49.054V44.453a1.527,1.527,0,0,0,3.053,0V7.531A1.526,1.526,0,0,0,51.66,6.452Zm-43.5-3.4h35.78L47,6.106H5.111Zm40.89,9.16H3.176c-.041,0-.082,0-.123.006V9.159h46v3.053Z" transform="translate(0 0)"/><path class="a" d="M97.8,222.573c-.3-.579-4.257-8.185-4.257-8.185A6.2,6.2,0,0,0,87.989,211H71.879a6.2,6.2,0,0,0-5.557,3.384c-.652,1.237-4.4,8.129-4.758,8.8A6.307,6.307,0,0,0,60,227.4l0,10.416a3.819,3.819,0,0,0,3.815,3.815H68.4a3.819,3.819,0,0,0,3.815-3.815v-2.292H87.682v2.292a3.819,3.819,0,0,0,3.815,3.815H96.08a3.819,3.819,0,0,0,3.815-3.815v-10.5A6.268,6.268,0,0,0,97.8,222.573Zm-28.781-6.766a3.115,3.115,0,0,1,2.855-1.754H87.989a3.154,3.154,0,0,1,2.856,1.756s2.327,4.433,2.556,4.879a72.359,72.359,0,0,0-13.45-1.531,53.668,53.668,0,0,0-13.531,1.558C66.668,220.268,68.372,217.044,69.023,215.807Zm.136,22.012a.772.772,0,0,1-.762.762H63.815a.772.772,0,0,1-.762-.762v-3.136a5.948,5.948,0,0,0,3.059.844h3.047Zm-3.047-5.345a2.964,2.964,0,0,1-2.1-.89,3.272,3.272,0,0,1-.954-2.336l0-1.842a3.134,3.134,0,0,1,1.944-3c3.325-1.373,8.914-2.193,14.951-2.193,2.337,0,10.52.506,14.82,2.054a3.131,3.131,0,0,1,2.07,3.049l0,1.938a3.151,3.151,0,0,1-3.059,3.223Zm30.729,5.345a.772.772,0,0,1-.762.762H91.5a.772.772,0,0,1-.761-.762v-2.292H93.78a5.947,5.947,0,0,0,3.062-.849v3.141Z" transform="translate(-53.894 -189.526)"/><path class="a" d="M121.527,362.049a1.527,1.527,0,1,0,1.527,1.527A1.529,1.529,0,0,0,121.527,362.049Z" transform="translate(-107.787 -325.203)"/><path class="a" d="M363.527,362a1.527,1.527,0,1,0,1.527,1.527A1.53,1.53,0,0,0,363.527,362Z" transform="translate(-325.159 -325.159)"/><path class="a" d="M193.952,362H181.537a1.527,1.527,0,1,0,0,3.053h12.416a1.527,1.527,0,1,0,0-3.053Z" transform="translate(-161.69 -325.159)"/></g></svg>