<?xml version="1.0" encoding="iso-8859-1"?>
<!-- Generator: Adobe Illustrator 19.0.0, SVG Export Plug-In . SVG Version: 6.00 Build 0)  -->
<svg version="1.1" id="Layer_1" xmlns="http://www.w3.org/2000/svg" xmlns:xlink="http://www.w3.org/1999/xlink" x="0px" y="0px"
	 viewBox="0 0 512 512" style="enable-background:new 0 0 512 512;" xml:space="preserve">
<g>
	<g>
		<path d="M128,201.143H54.857c-5.049,0-9.143,4.094-9.143,9.143v64c0,5.049,4.094,9.143,9.143,9.143H128
			c5.049,0,9.143-4.094,9.143-9.143v-64C137.143,205.237,133.049,201.143,128,201.143z M118.857,265.143H64v-45.714h54.857V265.143z
			"/>
	</g>
</g>
<g>
	<g>
		<path d="M128,347.429H54.857c-5.049,0-9.143,4.094-9.143,9.143v100.571c0,5.049,4.094,9.143,9.143,9.143H128
			c5.049,0,9.143-4.094,9.143-9.143V356.571C137.143,351.522,133.049,347.429,128,347.429z M118.857,448H64v-82.286h54.857V448z"/>
	</g>
</g>
<g>
	<g>
		<path d="M237.714,347.429h-73.143c-5.049,0-9.143,4.094-9.143,9.143v100.571c0,5.049,4.094,9.143,9.143,9.143h73.143
			c5.049,0,9.143-4.094,9.143-9.143V356.571C246.857,351.522,242.763,347.429,237.714,347.429z M228.571,448h-54.857v-82.286h54.857
			V448z"/>
	</g>
</g>
<g>
	<g>
		<path d="M347.429,347.429h-73.143c-5.049,0-9.143,4.094-9.143,9.143v100.571c0,5.049,4.094,9.143,9.143,9.143h73.143
			c5.049,0,9.143-4.094,9.143-9.143V356.571C356.571,351.522,352.478,347.429,347.429,347.429z M338.286,448h-54.857v-82.286h54.857
			V448z"/>
	</g>
</g>
<g>
	<g>
		<path d="M457.143,347.429H384c-5.049,0-9.143,4.094-9.143,9.143v100.571c0,5.049,4.094,9.143,9.143,9.143h73.143
			c5.049,0,9.143-4.094,9.143-9.143V356.571C466.286,351.522,462.192,347.429,457.143,347.429z M448,448h-54.857v-82.286H448V448z"
			/>
	</g>
</g>
<g>
	<g>
		<path d="M237.714,201.143h-73.143c-5.049,0-9.143,4.094-9.143,9.143v64c0,5.049,4.094,9.143,9.143,9.143h73.143
			c5.049,0,9.143-4.094,9.143-9.143v-64C246.857,205.237,242.763,201.143,237.714,201.143z M228.571,265.143h-54.857v-45.714h54.857
			V265.143z"/>
	</g>
</g>
<g>
	<g>
		<path d="M347.429,201.143h-73.143c-5.049,0-9.143,4.094-9.143,9.143v64c0,5.049,4.094,9.143,9.143,9.143h73.143
			c5.049,0,9.143-4.094,9.143-9.143v-64C356.571,205.237,352.478,201.143,347.429,201.143z M338.286,265.143h-54.857v-45.714h54.857
			V265.143z"/>
	</g>
</g>
<g>
	<g>
		<path d="M457.143,201.143H384c-5.049,0-9.143,4.094-9.143,9.143v64c0,5.049,4.094,9.143,9.143,9.143h73.143
			c5.049,0,9.143-4.094,9.143-9.143v-64C466.286,205.237,462.192,201.143,457.143,201.143z M448,265.143h-54.857v-45.714H448
			V265.143z"/>
	</g>
</g>
<g>
	<g>
		<path d="M502.857,301.714v-128c0-5.049-4.094-9.143-9.143-9.143h-64.243C424.7,73.018,348.72,0,256,0S87.3,73.018,82.529,164.571
			H18.286c-5.049,0-9.143,4.094-9.143,9.143v128c-5.049,0-9.143,4.094-9.143,9.143v192C0,507.906,4.094,512,9.143,512h493.714
			c5.049,0,9.143-4.094,9.143-9.143v-192C512,305.808,507.906,301.714,502.857,301.714z M256,18.286
			c82.632,0,150.386,64.824,155.138,146.286H100.862C105.614,83.11,173.368,18.286,256,18.286z M27.429,182.857h457.143v118.857
			H27.429V182.857z M493.714,493.714H18.286V320h475.429V493.714z"/>
	</g>
</g>
<g>
</g>
<g>
</g>
<g>
</g>
<g>
</g>
<g>
</g>
<g>
</g>
<g>
</g>
<g>
</g>
<g>
</g>
<g>
</g>
<g>
</g>
<g>
</g>
<g>
</g>
<g>
</g>
<g>
</g>
</svg>
