<svg xmlns="http://www.w3.org/2000/svg" width="30" height="32" viewBox="0 0 30 32">
    <defs>
        <filter id="a" width="105.9%" height="124.5%" x="-2.9%" y="-12.3%" filterUnits="objectBoundingBox">
            <feOffset dy="6" in="SourceAlpha" result="shadowOffsetOuter1"/>
            <feGaussianBlur in="shadowOffsetOuter1" result="shadowBlurOuter1" stdDeviation="4"/>
            <feColorMatrix in="shadowBlurOuter1" result="shadowMatrixOuter1" values="0 0 0 0 0 0 0 0 0 0 0 0 0 0 0 0 0 0 0.1 0"/>
            <feMerge>
                <feMergeNode in="shadowMatrixOuter1"/>
                <feMergeNode in="SourceGraphic"/>
            </feMerge>
        </filter>
    </defs>
    <g fill="#000" fill-rule="nonzero" filter="url(#a)" transform="translate(-139 -183)">
        <path d="M154.35 191.933c.996 0 1.806-.837 1.806-1.866 0-1.03-.81-1.867-1.807-1.867-.996 0-1.806.838-1.806 1.867s.81 1.866 1.806 1.866zm0-3.2c.71 0 1.29.598 1.29 1.334 0 .735-.58 1.333-1.29 1.333-.712 0-1.29-.598-1.29-1.333 0-.736.578-1.334 1.29-1.334z"/>
        <path d="M154.304 199.602l3.959-5.909c1.485-2.046 1.27-5.408-.46-7.195a4.837 4.837 0 0 0-6.999 0c-1.73 1.787-1.944 5.15-.465 7.187l3.965 5.917zm-3.135-12.727a4.333 4.333 0 0 1 6.27 0c1.56 1.613 1.752 4.65.405 6.506l-3.54 5.284-3.546-5.292c-1.342-1.848-1.15-4.885.411-6.498zM146.516 200.356l-.182.189c-.101.104-.101.273 0 .377a.253.253 0 0 0 .365 0l.182-.189c.1-.104.1-.272 0-.377a.252.252 0 0 0-.365 0zM148.482 198.867a.262.262 0 0 0-.259.266c0 .148.116.267.259.267h.47c.142 0 .257-.12.257-.267a.262.262 0 0 0-.258-.266h-.47zM147.877 199.327a.252.252 0 0 0-.364 0l-.333.343c-.1.104-.1.273 0 .377a.253.253 0 0 0 .365 0l.332-.343c.101-.105.101-.273 0-.377zM151.3 198.867a.262.262 0 0 0-.258.266c0 .148.116.267.258.267h.47c.143 0 .258-.12.258-.267a.262.262 0 0 0-.258-.266h-.47zM149.89 198.867a.262.262 0 0 0-.257.266c0 .148.115.267.258.267h.47c.142 0 .258-.12.258-.267a.262.262 0 0 0-.258-.266h-.47zM152.71 198.867a.262.262 0 0 0-.258.266c0 .148.115.267.258.267h.258c.142 0 .258-.12.258-.267a.262.262 0 0 0-.258-.266h-.258z"/>
        <path d="M146.516 199.335a.253.253 0 0 0 .183-.078l1-1.033a.468.468 0 0 1 .09-.073l.05-.028.027-.015.097-.03a.527.527 0 0 1 .102-.011h3.87c.143 0 .259-.12.259-.267a.262.262 0 0 0-.259-.267h-3.87c-.067 0-.134.007-.205.021a.704.704 0 0 0-.072.021l-.033.01a.682.682 0 0 0-.173.075l-.024.014a.6.6 0 0 0-.067.04c-.057.038-.11.083-.157.133l-1 1.033c-.101.105-.101.273 0 .377.05.052.116.078.182.078zM161.301 197.989a.253.253 0 0 0 .183-.079l.182-.188c.101-.104.101-.273 0-.377a.252.252 0 0 0-.365 0l-.182.188c-.1.105-.1.273 0 .377.05.052.116.079.182.079zM160.34 198.339l-.39.402c-.101.105-.101.273 0 .377a.253.253 0 0 0 .365 0l.39-.402c.1-.105.1-.273 0-.377a.252.252 0 0 0-.365 0zM158.561 198.867a.262.262 0 0 0-.258.266c0 .148.116.267.258.267h.551c.143 0 .258-.12.258-.267a.262.262 0 0 0-.258-.266h-.55zM156.908 198.867a.262.262 0 0 0-.258.266c0 .148.116.267.258.267h.551c.143 0 .258-.12.258-.267a.262.262 0 0 0-.258-.266h-.55zM155.548 198.867a.262.262 0 0 0-.258.266c0 .148.116.267.258.267h.258c.143 0 .259-.12.259-.267a.262.262 0 0 0-.259-.266h-.258z"/>
        <path d="M161.301 199.01l-1 1.033a.475.475 0 0 1-.09.072l-.048.027c-.01.006-.02.013-.03.017-.009.004-.017.006-.026.008l-.071.022a.484.484 0 0 1-.1.011h-11.642l-.391.326a.273.273 0 0 0-.04.375c.051.065.126.099.202.099a.25.25 0 0 0 .161-.059l.25-.208h11.46a.98.98 0 0 0 .277-.042l.032-.01a.69.69 0 0 0 .173-.075l.026-.015a.561.561 0 0 0 .064-.037c.057-.04.11-.084.158-.134l1-1.034c.101-.104.101-.272 0-.377a.252.252 0 0 0-.365 0zM156.323 197.8c0 .147.115.267.258.267h3.14l.85-.878c.102-.105.102-.273 0-.378a.252.252 0 0 0-.364 0l-.699.722h-2.927a.262.262 0 0 0-.258.267z"/>
    </g>
</svg>
