<svg width="440.2" height="455.26000000000005" xmlns="http://www.w3.org/2000/svg">

 <title/>
 <g>
  <title>background</title>
  <rect fill="none" id="canvas_background" height="457.26" width="442.2" y="-1" x="-1"/>
 </g>
 <g>
  <title>Layer 1</title>
  <path fill="#173156" id="svg_1" d="m232.64,156.37a4.93,4.93 0 0 0 3.6,1.57a5.17,5.17 0 0 0 1.58,-0.26a4.92,4.92 0 0 0 3.38,-4.13c2,-16.4 1.61,-17.57 1.3,-18.52a11.53,11.53 0 0 0 -21.9,7.2c0.31,0.95 0.7,2.13 12.04,14.14zm-5.13,-19.78a4.47,4.47 0 0 1 2.62,-2.26a4.54,4.54 0 0 1 5.63,2.63c0,1.08 -0.22,4.61 -1,11.44c-4.68,-5 -7,-7.72 -7.59,-8.62a4.47,4.47 0 0 1 0.34,-3.19z" class="cls-1"/>
  <path fill="#173156" id="svg_2" d="m97.48,134a3.89,3.89 0 0 0 1.24,0.15c1.66,0 5.59,-0.47 17.15,-2.65l0,0a5,5 0 0 0 2.25,-8.73c-12.73,-10.53 -13.93,-10.84 -14.89,-11.09a11.53,11.53 0 0 0 -5.75,22.32zm-1.48,-12.34a4.54,4.54 0 0 1 4.39,-3.4a4.26,4.26 0 0 1 0.86,0.09c0.93,0.55 3.77,2.67 9.09,7c-6.76,1.22 -10.26,1.7 -11.35,1.74a4.53,4.53 0 0 1 -2.99,-5.43z" class="cls-1"/>
  <path fill="#173156" id="svg_3" d="m95.35,214.09a11.46,11.46 0 0 0 5.3,-1.3c0.89,-0.46 2,-1 12,-14.17a5,5 0 0 0 -4.17,-8c-16.51,0.69 -17.6,1.26 -18.49,1.72a11.53,11.53 0 0 0 5.35,21.75l0.01,0zm-4.35,-12.89a4.54,4.54 0 0 1 2,-2.52c1.06,-0.21 4.58,-0.53 11.45,-0.87c-4.21,5.43 -6.5,8.14 -7.28,8.89a4.53,4.53 0 0 1 -6.17,-5.5z" class="cls-1"/>
  <path fill="#173156" id="svg_4" d="m344.35,220.93a11.55,11.55 0 0 0 10.25,6.2a11.35,11.35 0 0 0 5.3,-1.31c0.88,-0.46 2,-1 12,-14.16a5,5 0 0 0 -4.17,-8c-16.5,0.68 -17.6,1.26 -18.49,1.72a11.54,11.54 0 0 0 -4.89,15.55zm7.9,-9.21c1.06,-0.21 4.58,-0.53 11.45,-0.87c-4.21,5.43 -6.5,8.13 -7.28,8.89a4.53,4.53 0 0 1 -4.17,-8l0,-0.02z" class="cls-1"/>
  <path fill="#173156" id="svg_5" d="m174.6,175.42a4.92,4.92 0 0 0 -0.92,5.26c6.32,15.26 7.24,16.1 8,16.77a11.46,11.46 0 0 0 7.75,3l0.57,0a11.53,11.53 0 0 0 7.23,-20c-0.73,-0.67 -1.65,-1.5 -17.43,-6.39a4.93,4.93 0 0 0 -5.2,1.36zm18.06,10.36a4.52,4.52 0 0 1 -3,7.67a4.45,4.45 0 0 1 -3.06,-1c-0.56,-0.92 -2.07,-4.12 -4.75,-10.45c6.52,2.09 9.84,3.3 10.81,3.78z" class="cls-1"/>
  <path fill="#173156" id="svg_6" d="m168.56,117.85l0.05,0a4.93,4.93 0 0 0 4.49,-2.85c7.17,-14.88 7.18,-16.12 7.19,-17.11a11.54,11.54 0 0 0 -11.41,-11.65l-0.11,0a11.53,11.53 0 0 0 -11.53,11.41c0,1 0,2.24 6.84,17.26a4.93,4.93 0 0 0 4.48,2.94zm0.21,-24.58l0,0a4.54,4.54 0 0 1 4.48,4.3c-0.32,1 -1.69,4.3 -4.63,10.51c-2.81,-6.27 -4.11,-9.56 -4.41,-10.6a4.54,4.54 0 0 1 4.56,-4.21z" class="cls-1"/>
  <path fill="#173156" id="svg_7" d="m334.61,150.76l0.05,0a4.94,4.94 0 0 0 4.49,-2.81c7.17,-14.89 7.18,-16.13 7.19,-17.12a11.54,11.54 0 0 0 -11.41,-11.65l-0.12,0a11.54,11.54 0 0 0 -11.52,11.41c0,1 0,2.24 6.84,17.26a4.93,4.93 0 0 0 4.48,2.91zm0.25,-24.58a4.54,4.54 0 0 1 4.48,4.3c-0.32,1 -1.69,4.3 -4.63,10.51c-2.81,-6.27 -4.12,-9.56 -4.41,-10.6a4.54,4.54 0 0 1 4.56,-4.21z" class="cls-1"/>
  <path fill="#173156" id="svg_8" d="m278.23,197a5,5 0 0 0 5.33,-0.27c13.49,-9.54 14.1,-10.62 14.59,-11.48a11.53,11.53 0 0 0 -4.33,-15.72l0,0a11.52,11.52 0 0 0 -15.72,4.34c-0.49,0.86 -1.1,1.94 -2.38,18.41a4.93,4.93 0 0 0 2.51,4.72zm6.1,-19.91a4.53,4.53 0 0 1 7.86,4.46c-0.78,0.75 -3.56,2.94 -9.14,6.95c0.59,-6.88 1.03,-10.39 1.28,-11.44l0,0.03z" class="cls-1"/>
  <path fill="#173156" id="svg_9" d="m246.15,90.29c0.74,0.66 1.67,1.48 17.53,6.1a5,5 0 0 0 6,-6.76c-6.57,-15.15 -7.5,-16 -8.25,-16.63a11.53,11.53 0 0 0 -16.27,1a11.54,11.54 0 0 0 0.99,16.29zm4.22,-11.64a4.54,4.54 0 0 1 6.18,-0.58c0.58,0.92 2.15,4.09 4.93,10.38c-6.58,-2 -9.92,-3.14 -10.9,-3.59a4.54,4.54 0 0 1 -0.21,-6.21z" class="cls-1"/>
  <path fill="#173156" id="svg_10" d="m408.16,378.33l-7.16,0c7.47,-7.78 14,-17.26 14,-32.52a52.84,52.84 0 0 0 -0.69,-8.55c16.23,-1.78 25.82,-18.44 25.82,-34.59c0,-18.18 -11.81,-30.87 -28.71,-30.87l-6.15,0l0,-18.27a37.2,37.2 0 0 0 14.92,-10.53a36.58,36.58 0 0 0 8.28,-29.62c-10.47,-64.25 -50.89,-120.77 -108.32,-151.75l6.41,-17.63l65.44,24.49a3.49,3.49 0 0 0 4.4,-4.74l-10.11,-21.92l21.74,-10a3.5,3.5 0 0 0 -0.27,-6.46l-68.98,-25.16a3.51,3.51 0 0 0 -2.68,0.12a3.45,3.45 0 0 0 -1.8,2l-13.1,36l0,0l-7.31,20.07a211.18,211.18 0 0 0 -302.15,155a36.55,36.55 0 0 0 8.26,29.6a37.17,37.17 0 0 0 14.84,10.57l0,18.23l-2.73,0c-13.36,0 -22.73,4.32 -27.86,12.85c-4.25,7.07 -4.25,15.29 -4.25,20.2c0,18.06 9.55,29.67 25.89,32.1a53.33,53.33 0 0 0 -0.75,8.86a47.85,47.85 0 0 0 12.38,32.52l-5.52,0a23.1,23.1 0 0 0 -23,23.07l0,7.43a46.49,46.49 0 0 0 46.44,46.43l329.36,0a46.48,46.48 0 0 0 46.43,-46.43l0,-7.43a23.1,23.1 0 0 0 -23.07,-23.07zm-68.48,-370.33l57.71,21l-17.21,8a3.5,3.5 0 0 0 -1.71,4.65l8,17.36l-57.47,-21.58l10.68,-29.43zm83.52,294.67c0,10.62 -6.06,17.76 -11.71,17.76a19.42,19.42 0 0 1 -3,-0.21a52.84,52.84 0 0 0 -26.49,-23.49a8.45,8.45 0 0 0 -3.18,-0.62l0,0c-19.11,0 -26.45,7.72 -32.34,13.92c-5.53,5.81 -9.9,10.4 -27,10.4c-14.87,0 -24.79,-3.79 -34.17,-8.43l22,-23.2l104.18,0c10.19,0 11.71,8.69 11.71,13.87zm-184.46,-4l0,0l-9.74,-9.87l54.86,0l-18.6,19.62l0,0l-0.06,0.07l0,0l-8.2,8.68l-18.26,-18.5zm-205.14,-61.11l354.74,0l0,34.24l-336.48,0l-18.26,-34.24zm186.28,21.31a19.62,19.62 0 0 1 -4.46,-15.87a194.19,194.19 0 0 1 92.58,-168.53l-14.23,39.1a3.49,3.49 0 0 0 2.09,4.48a3.37,3.37 0 0 0 1.2,0.21a3.5,3.5 0 0 0 3.29,-2.3l13.89,-38.18a195.07,195.07 0 0 1 97.42,138.3a19.61,19.61 0 0 1 -4.42,15.92a20.16,20.16 0 0 1 -15.37,7.11l-343.54,0a20.13,20.13 0 0 1 -15.33,-7.11l186.88,26.87zm2.86,112.7c0,-9.32 0,-16.05 15.11,-16.05l173,0l9.73,9.87c-9.22,2.6 -16,6.78 -22.2,10.65c-9.59,6 -17.87,11.11 -35.13,11.11c-18,0 -25.15,-5.65 -32.7,-11.63c-7.37,-5.84 -15.72,-12.45 -31.68,-12.45c-17.8,0 -30,8.23 -39.81,14.85c-6.34,4.28 -11.83,8 -17.63,9l0,0a17.92,17.92 0 0 1 -3.09,0.27c-216.68,-66.76 -221.34,-71.42 -221.34,-82.34l205.74,66.72zm25.14,41a35.76,35.76 0 0 1 1.45,-10.11c7.16,-2.26 13.29,-6.39 19.25,-10.41c9.1,-6.14 17.7,-11.94 30.3,-11.94c10,0 14.69,3.68 21.12,8.77c8.61,6.82 19.33,15.31 43.26,15.31c22.11,0 33.8,-7.27 44.1,-13.68c8.13,-5.05 15.26,-9.46 27.69,-10.43l21.73,22a8.44,8.44 0 0 0 6,2.54l0.08,0a8.51,8.51 0 0 0 6.09,-2.66l9.83,-10.38c11.7,6.08 25.17,12.57 46.37,12.57c24.42,0 32.69,-8.7 39.34,-15.68c4.7,-4.94 7.88,-8.28 18.35,-8.61a36,36 0 0 1 17.66,17.69l0,0a35.53,35.53 0 0 1 3.26,15c0,9.58 -3.86,15.32 -10.52,22a35.76,35.76 0 0 1 -25.43,10.53l-284,0c-226.56,-66.75 -241.67,-80.43 -241.67,-99.27l205.74,66.76zm372.09,63a29.46,29.46 0 0 1 -29.43,29.43l-535.13,0a29.47,29.47 0 0 1 -29.41,-96.17l0,-7.43a6.07,6.07 0 0 1 6,-6.07l376.16,0a6.07,6.07 0 0 1 6.07,6.07l205.74,74.17z" class="cls-1"/>
  <path fill="#173156" id="svg_11" d="m74.93,146a3.5,3.5 0 0 0 -5,0.22c-10.71,11.78 -25.88,46.34 -30.01,68.53a3.5,3.5 0 0 0 2.8,4.08a2.86,2.86 0 0 0 0.65,0.06a3.49,3.49 0 0 0 3.43,-2.89c3.8,-20.41 18.63,-54.5 28.35,-65.14a3.5,3.5 0 0 0 -0.22,-4.86z" class="cls-1"/>
  <path fill="#173156" id="svg_12" d="m142.77,424.48l-86.24,0c-9.35,0 -16.12,-7.9 -16.12,-13.23a3.5,3.5 0 0 0 -7,0c0,9.35 10.1,20.23 23.12,20.23l86.24,0a3.5,3.5 0 0 0 0,-7z" class="cls-1"/>
 </g>
</svg>