<svg height="32" viewBox="0 0 32 32" width="32" xmlns="http://www.w3.org/2000/svg" xmlns:xlink="http://www.w3.org/1999/xlink"><defs><path id="a" d="m151 12c0-6.627 5.373-12 12-12s12 5.373 12 12-5.373 12-12 12-12-5.373-12-12zm19.407-4.594a6.069 6.069 0 0 1 -1.746.478 3.05 3.05 0 0 0 1.337-1.681 6.08 6.08 0 0 1 -1.93.737 3.04 3.04 0 0 0 -5.179 2.772 8.627 8.627 0 0 1 -6.264-3.175 3.039 3.039 0 0 0 .94 4.058 3.021 3.021 0 0 1 -1.376-.38v.038a3.04 3.04 0 0 0 2.437 2.98 3.037 3.037 0 0 1 -1.372.052 3.042 3.042 0 0 0 2.839 2.11 6.098 6.098 0 0 1 -4.5 1.259 8.599 8.599 0 0 0 4.66 1.365c5.59 0 8.646-4.63 8.646-8.647a8.37 8.37 0 0 0 -.009-.393 6.166 6.166 0 0 0 1.517-1.573z"/><filter id="b" height="158.3%" width="158.3%" x="-29.2%" y="-20.8%"><feOffset dy="2" in="SourceAlpha" result="shadowOffsetOuter1"/><feGaussianBlur in="shadowOffsetOuter1" result="shadowBlurOuter1" stdDeviation="2"/><feColorMatrix in="shadowBlurOuter1" values="0 0 0 0 0.559470663 0 0 0 0 0.308942049 0 0 0 0 0.0215011216 0 0 0 0.5 0"/></filter></defs><g fill="none" fill-rule="evenodd" transform="translate(-147 2)"><use fill="#000" filter="url(#b)" xlink:href="#a"/><use fill="#f73f5b" xlink:href="#a"/></g></svg>