<svg xmlns="http://www.w3.org/2000/svg" width="52.515" height="58.35" viewBox="0 0 52.515 58.35"><defs><style>.a{fill:#ff4157;}</style></defs><path class="a" d="M51.542,4.862a.973.973,0,0,0,.972-.972V.972A.973.973,0,0,0,51.542,0H.972A.973.973,0,0,0,0,.972V3.89a.973.973,0,0,0,.972.972h.972V50.57H.972A.973.973,0,0,0,0,51.542V54.46a.973.973,0,0,0,.972.972H2.917v1.945a.973.973,0,0,0,.972.972H48.625a.973.973,0,0,0,.972-.972V55.432h1.945a.973.973,0,0,0,.972-.972V51.542a.973.973,0,0,0-.972-.972H48.625V4.862ZM1.945,1.945H50.57v.972H1.945ZM3.89,34.037H17.5v5.835H3.89ZM17.5,4.862v27.23H3.89V4.862ZM3.89,41.817H17.5V50.57H3.89ZM47.652,56.4H4.862v-.972h42.79Zm2.917-2.917H1.945v-.972H50.57Zm-15.56-7.78a.973.973,0,0,1,.972-.972H42.79a.972.972,0,1,1,0,1.945H35.982A.973.973,0,0,1,35.01,45.707Zm0,3.89a.973.973,0,0,1,.972-.972H42.79a.972.972,0,1,1,0,1.945H35.982A.973.973,0,0,1,35.01,49.6Zm11.67.972H45.528a2.828,2.828,0,0,0-.584-2.917A2.9,2.9,0,0,0,42.79,42.79H35.982a2.905,2.905,0,0,0-2.159,4.862,2.829,2.829,0,0,0-.583,2.917H19.45V4.862H46.68Zm0,0"/><path class="a" d="M40.972,73.285H50.7a.973.973,0,0,0,.972-.972V48.972A.973.973,0,0,0,50.7,48H40.972a.973.973,0,0,0-.972.972v23.34A.973.973,0,0,0,40.972,73.285Zm.972-23.34h7.78V71.34h-7.78Zm0,0" transform="translate(-35.138 -42.165)"/><path class="a" d="M72,288h3.89v1.945H72Zm0,0" transform="translate(-63.248 -252.99)"/><path class="a" d="M72,352h3.89v1.945H72Zm0,0" transform="translate(-63.248 -309.21)"/><path class="a" d="M64,80h1.945v2.917H64Zm0,0" transform="translate(-56.22 -70.275)"/><path class="a" d="M64,120h1.945v1.945H64Zm0,0" transform="translate(-56.22 -105.413)"/><path class="a" d="M170.917,74.7h7.78a2.917,2.917,0,1,0,0-5.835h-.57l-1.257-1.257a2.9,2.9,0,0,0-1.09-.681v-.979h16.532V64h-23.34v1.945h4.862v.983a2.877,2.877,0,0,0-1.09.68l-1.257,1.254h-.57a2.917,2.917,0,1,0,0,5.835Zm0-3.89h.972a.973.973,0,0,0,.688-.285l1.542-1.541a.972.972,0,0,1,1.375,0l1.542,1.542a.974.974,0,0,0,.688.284h.972a.972.972,0,1,1,0,1.945h-7.78a.972.972,0,1,1,0-1.945Zm0,0" transform="translate(-147.578 -56.22)"/></svg>