<svg xmlns="http://www.w3.org/2000/svg" width="49.117" height="58.94" viewBox="0 0 49.117 58.94"><defs><style>.a{fill:#ff4157;}</style></defs><g transform="translate(32 933)"><g transform="translate(-32 -933)"><path class="a" d="M113.588,163.333A17.682,17.682,0,1,0,97.451,152.9,17.682,17.682,0,0,0,113.588,163.333ZM99.251,139.206a15.717,15.717,0,1,1,7.89,20.78A15.717,15.717,0,0,1,99.251,139.206Z" transform="translate(-89.029 -112.252)"/><path class="a" d="M86.17,0H42.947A2.947,2.947,0,0,0,40,2.947V55.993a2.947,2.947,0,0,0,2.947,2.947H86.17a2.947,2.947,0,0,0,2.947-2.947V2.947A2.947,2.947,0,0,0,86.17,0Zm.982,55.993a.982.982,0,0,1-.982.982H42.947a.982.982,0,0,1-.982-.982v-.982H87.152Zm0-2.947H41.965V13.753H87.152Zm0-41.258H41.965V2.947a.982.982,0,0,1,.982-.982H86.17a.982.982,0,0,1,.982.982Z" transform="translate(-40 0)"/><path class="a" d="M141.753,187.505c.444,0,.884-.028,1.32-.071a13.455,13.455,0,0,0,3.856-.944c.1-.039.2-.073.295-.114s.216-.1.324-.154c.17-.079.342-.154.509-.24a13.758,13.758,0,0,0,5.924-18.533l-.057-.109a13.737,13.737,0,0,0-7.385-6.483c-.059-.022-.115-.047-.174-.068a13.728,13.728,0,0,0-3.286-.72c-.441-.041-.881-.07-1.325-.07a13.753,13.753,0,0,0,0,27.505Zm10.9-18.228v.007c.022.053.05.1.072.157.051.131.1.263.14.393.1.282.191.566.268.854q.061.223.112.448c.067.295.119.589.162.884.021.137.045.272.06.41a11.091,11.091,0,0,1,0,2.636c-.015.137-.039.271-.059.407-.044.295-.1.6-.163.891-.034.15-.072.295-.111.446-.079.295-.169.575-.27.858-.046.131-.088.262-.139.393-.022.053-.05.1-.072.157a5.888,5.888,0,0,1,0-8.939Zm-20.89-1.78a11.788,11.788,0,0,1,19.983,0,7.845,7.845,0,0,0,0,12.511A11.788,11.788,0,1,1,131.758,167.5Z" transform="translate(-117.194 -140.353)"/><path class="a" d="M161.965,201.823a7.868,7.868,0,0,1,7.859-7.859.982.982,0,0,0,0-1.965A9.834,9.834,0,0,0,160,201.823a.982.982,0,1,0,1.965,0Z" transform="translate(-145.265 -168.424)"/><path class="a" d="M300.912,40h-3.929a.982.982,0,1,0,0,1.965h3.929a.982.982,0,0,0,0-1.965Z" transform="translate(-264.565 -35.088)"/><path class="a" d="M300.912,64h-3.929a.982.982,0,1,0,0,1.965h3.929a.982.982,0,0,0,0-1.965Z" transform="translate(-264.565 -56.141)"/><path class="a" d="M148.912,40h-3.929a.982.982,0,1,0,0,1.965h3.929a.982.982,0,1,0,0-1.965Z" transform="translate(-131.23 -35.088)"/><path class="a" d="M148.912,64h-3.929a.982.982,0,1,0,0,1.965h3.929a.982.982,0,1,0,0-1.965Z" transform="translate(-131.23 -56.141)"/><path class="a" d="M364.912,40h-3.929a.982.982,0,0,0,0,1.965h3.929a.982.982,0,0,0,0-1.965Z" transform="translate(-320.706 -35.088)"/><path class="a" d="M364.912,64h-3.929a.982.982,0,0,0,0,1.965h3.929a.982.982,0,0,0,0-1.965Z" transform="translate(-320.706 -56.141)"/><path class="a" d="M227.929,24a3.929,3.929,0,1,0,3.929,3.929A3.929,3.929,0,0,0,227.929,24Zm0,5.894a1.965,1.965,0,1,1,1.965-1.965A1.965,1.965,0,0,1,227.929,29.894Z" transform="translate(-201.406 -21.053)"/><path class="a" d="M75.929,24a3.929,3.929,0,1,0,3.929,3.929A3.929,3.929,0,0,0,75.929,24Zm0,5.894a1.965,1.965,0,1,1,1.965-1.965A1.965,1.965,0,0,1,75.929,29.894Z" transform="translate(-68.071 -21.053)"/></g></g></svg>