<svg xmlns="http://www.w3.org/2000/svg" width="32" height="16" viewBox="0 0 60.078 42.814"><defs><style>.a{fill:#F73F5B;}</style></defs><g transform="translate(0 -7.89)"><path class="a" d="M59.757,20.181a42.074,42.074,0,0,0-59.437,0,1.094,1.094,0,0,0,1.547,1.547,39.886,39.886,0,0,1,56.342,0,1.094,1.094,0,1,0,1.547-1.546Z" transform="translate(0 0)"/><path class="a" d="M6.2,25.829a1.094,1.094,0,1,0,1.547,1.547,30.778,30.778,0,0,1,43.478,0,1.094,1.094,0,0,0,1.547-1.547A32.97,32.97,0,0,0,6.2,25.829Z" transform="translate(0.553 0.782)"/><path class="a" d="M28.932,24.508a23.677,23.677,0,0,0-16.854,6.971,1.094,1.094,0,0,0,1.547,1.547,21.674,21.674,0,0,1,30.614,0,1.094,1.094,0,1,0,1.547-1.547A23.676,23.676,0,0,0,28.932,24.508Z" transform="translate(1.107 1.565)"/><path class="a" d="M28.071,33.916a7.169,7.169,0,1,0,7.169,7.169A7.176,7.176,0,0,0,28.071,33.916Zm0,12.148a4.981,4.981,0,1,1,4.981-4.981A4.985,4.985,0,0,1,28.071,46.064Z" transform="translate(1.968 2.45)"/></g></svg>






