<svg xmlns="http://www.w3.org/2000/svg" width="56" height="36" viewBox="0 0 56 36">
    <g fill="#000" fill-rule="nonzero">
        <path d="M51.39.186H3.783A3.788 3.788 0 0 0 0 3.97v13.868a6.299 6.299 0 0 0 6.292 6.292h42.59a6.299 6.299 0 0 0 6.291-6.292V3.97A3.788 3.788 0 0 0 51.389.186zM8.202 3.222H46.97v3.575a2.552 2.552 0 0 1-2.549 2.548h-33.67a2.552 2.552 0 0 1-2.548-2.548V3.222zm43.933 14.616a3.26 3.26 0 0 1-3.255 3.255H6.29a3.26 3.26 0 0 1-3.255-3.255V3.97c0-.412.335-.748.747-.748h1.383v3.575a5.591 5.591 0 0 0 5.585 5.585h33.67a5.591 5.591 0 0 0 5.585-5.585V3.222h1.383c.412 0 .747.336.747.748v13.868z"/>
        <path d="M48.488 16.319H6.685a1.518 1.518 0 1 0 0 3.036h41.803a1.518 1.518 0 1 0 0-3.036zM18.257 28.921a5.329 5.329 0 0 1-.142-.082 1.518 1.518 0 0 0-1.075-2.836c-.377.124-2.267.828-2.43 2.513-.113 1.157.614 2.184 2.161 3.053.5.28.62.491.623.528.015.211-.397.767-.794 1.076a1.518 1.518 0 0 0 1.829 2.423c.219-.165 2.131-1.671 1.994-3.703-.057-.833-.478-2.025-2.166-2.972zM28.33 28.921a5.329 5.329 0 0 1-.142-.082 1.518 1.518 0 0 0-1.076-2.836c-.377.124-2.267.828-2.43 2.513-.113 1.157.615 2.184 2.161 3.053.5.28.62.491.623.528.016.211-.396.767-.794 1.076a1.518 1.518 0 0 0 1.83 2.423c.218-.165 2.13-1.671 1.993-3.703-.056-.833-.478-2.025-2.165-2.972zM38.402 28.921a5.329 5.329 0 0 1-.142-.082 1.518 1.518 0 0 0-1.076-2.836c-.377.124-2.267.828-2.43 2.513-.113 1.157.615 2.184 2.162 3.053.5.28.62.491.622.528.016.211-.396.767-.794 1.076a1.518 1.518 0 0 0 1.83 2.423c.218-.165 2.13-1.671 1.993-3.703-.056-.833-.478-2.025-2.165-2.972z"/>
    </g>
</svg>
