<svg xmlns="http://www.w3.org/2000/svg" width="40" height="36" viewBox="0 0 40 36">
    <g fill="#000" fill-rule="nonzero">
        <path d="M20.31 30.8a.755.755 0 0 1-.298-.059.827.827 0 0 1-.252-.167.784.784 0 0 1-.096-.98.796.796 0 0 1 .214-.214.84.84 0 0 1 .279-.116.774.774 0 0 1 .7 1.31.792.792 0 0 1-.397.211c-.05.01-.1.015-.15.015zM10.103 27.611a.776.776 0 0 1-.776-.776v-.672a.776.776 0 1 1 1.551 0v.672a.776.776 0 0 1-.775.776zM10.103 31.452a.776.776 0 0 1-.776-.776v-.673a.776.776 0 1 1 1.551 0v.673a.776.776 0 0 1-.775.776zM10.542 18.499a2.088 2.088 0 0 1-1.48-.613.776.776 0 0 1 1.098-1.097c.21.211.554.21.765 0a.776.776 0 0 1 1.097 1.097 2.087 2.087 0 0 1-1.48.613zM13.133 14.27a.776.776 0 0 1-.776-.776c0-.7.57-1.269 1.269-1.269h.712a.776.776 0 0 1 0 1.552h-.482a.776.776 0 0 1-.723.493zM7.951 14.27a.776.776 0 0 1-.722-.493h-.483a.776.776 0 0 1 0-1.552h.713c.7 0 1.268.57 1.268 1.269a.776.776 0 0 1-.776.776zM37.774 18.533H35.98V17.07c0-.94-.765-1.705-1.705-1.705h-6.452c-.94 0-1.705.765-1.705 1.705v1.463h-1.794c-1.075 0-1.95.875-1.95 1.95v10.739c0 .953.688 1.748 1.593 1.916a2.175 2.175 0 0 0 2.072 2.826 2.175 2.175 0 0 0 2.081-2.793h5.858a2.175 2.175 0 0 0 2.082 2.793 2.175 2.175 0 0 0 2.072-2.826 1.953 1.953 0 0 0 1.592-1.916v-10.74c0-1.074-.875-1.949-1.95-1.949zM27.67 17.07c0-.084.069-.153.153-.153h6.452c.085 0 .154.069.154.153v1.463H27.67V17.07zm1.066 3.73v2.059h-1.81V20.8l.435-.716h.939l.436.716zm-2.077 12.992a.621.621 0 1 1-1.243-.001.621.621 0 0 1 1.243.001zm9.401.62a.621.621 0 1 1 .002-1.242.621.621 0 0 1-.002 1.243zm2.112-3.19c0 .22-.178.398-.398.398h-13.45a.398.398 0 0 1-.398-.398v-10.74c0-.218.179-.397.398-.397h1.22l-.057.094a.778.778 0 0 0-.113.404v3.052c0 .428.347.776.776.776h3.362a.776.776 0 0 0 .775-.776v-3.052a.775.775 0 0 0-.113-.404l-.057-.094h7.658c.219 0 .397.179.397.398v10.739z"/>
        <path d="M20.308 27.378a.776.776 0 0 0 .776-.776V25.31a2.772 2.772 0 0 0-2.769-2.769h-5.178l-.118-.837a13.155 13.155 0 0 0 2.346-1.29c1.803-1.26 2.78-2.748 2.835-4.314a2.575 2.575 0 0 0 1.797-2.451c0-1.106-.697-2.076-1.64-2.429V2.65A2.653 2.653 0 0 0 15.708 0H5.376a2.653 2.653 0 0 0-2.65 2.65v8.57c-.942.352-1.639 1.322-1.639 2.428 0 1.147.757 2.122 1.797 2.45.055 1.572 1.033 3.063 2.836 4.32.86.6 1.747 1.034 2.346 1.285l-.119.837H2.77A2.772 2.772 0 0 0 0 25.31v9.879c0 .428.347.776.776.776h19.532a.776.776 0 0 0 .776-.776v-1.837a.776.776 0 1 0-1.551 0v1.06h-8.655v-.568a.776.776 0 1 0-1.551 0v.569h-.958V24.092h9.946c.671 0 1.218.546 1.218 1.217v1.293c0 .429.347.776.775.776zm-8.315-6.926l.012-.002-.012.002zM4.278 9.56h2.095a2.751 2.751 0 0 1-2.095 1.704V9.559zm0-1.551V4.893h12.528v3.115H4.277zm12.528 1.551v1.704a2.752 2.752 0 0 1-2.096-1.704h2.096zM4.277 2.65a1.1 1.1 0 0 1 1.099-1.098h10.331a1.1 1.1 0 0 1 1.099 1.098v.69H4.277v-.69zm4.825 17.8l.012.002-.012-.002zm-7.55 4.86c0-.672.546-1.218 1.217-1.218h4.048v10.32H1.552V25.31zm7.962-2.77l.175-1.236a.776.776 0 0 0-.584-.862c-.626-.18-4.672-1.915-4.672-4.483v-.517a.776.776 0 0 0-.776-.776 1.02 1.02 0 0 1-1.018-1.018c0-.393.217-.724.481-.895a.77.77 0 0 0 .382.1h.318a4.302 4.302 0 0 0 4.175-3.294h5.093a4.303 4.303 0 0 0 4.176 3.294h.318a.774.774 0 0 0 .382-.1c.265.17.482.502.482.895a1.02 1.02 0 0 1-1.02 1.018.776.776 0 0 0-.775.776v.517c0 2.563-4.045 4.302-4.672 4.483a.776.776 0 0 0-.584.862l.175 1.236H9.514z"/>
    </g>
</svg>
