<svg xmlns="http://www.w3.org/2000/svg" width="45" height="36" viewBox="0 0 45 36">
    <g fill="#000" fill-rule="nonzero">
        <path d="M22.5 3c-8.284 0-15 6.716-15 15 0 8.284 6.716 15 15 15 8.284 0 15-6.716 15-15-.01-8.28-6.72-14.99-15-15zm0 28.5C15.044 31.5 9 25.456 9 18S15.044 4.5 22.5 4.5 36 10.544 36 18c-.009 7.452-6.048 13.491-13.5 13.5zM43.862.142a1.836 1.836 0 0 0-2.007.4A9.689 9.689 0 0 0 39 7.436v9.814a2.25 2.25 0 0 0 1.5 2.112V33.75a2.25 2.25 0 1 0 4.5 0V1.844A1.836 1.836 0 0 0 43.862.142zM43.5 33.75a.75.75 0 0 1-1.5 0V19.5h1.5v14.25zm0-15.75h-2.25a.75.75 0 0 1-.75-.75V7.436a8.198 8.198 0 0 1 2.416-5.833.324.324 0 0 1 .373-.074c.13.05.215.177.211.316V18z"/>
        <path d="M16.5 12.75a3 3 0 1 0 0 6 3 3 0 0 0 0-6zm0 4.5a1.5 1.5 0 1 1 0-3 1.5 1.5 0 0 1 0 3z"/>
        <path d="M22.564 13.254l-1.318-1.319a.834.834 0 0 1-.246-.594A2.344 2.344 0 0 0 18.66 9h-3a2.356 2.356 0 0 0-1.656.685l-2.819 2.819a2.325 2.325 0 0 0-.685 1.655v3.182a2.325 2.325 0 0 0 .685 1.655l1.319 1.319a.834.834 0 0 1 .246.594 2.344 2.344 0 0 0 2.34 2.341h1.5a2.356 2.356 0 0 0 1.656-.686l2.069-2.068a.848.848 0 0 1 .594-.246 2.344 2.344 0 0 0 2.341-2.34v-3a2.325 2.325 0 0 0-.686-1.656zm-.814 4.655c0 .464-.377.84-.84.841a2.356 2.356 0 0 0-1.656.686l-2.069 2.068a.848.848 0 0 1-.594.246h-1.5a.841.841 0 0 1-.841-.84 2.325 2.325 0 0 0-.685-1.656l-1.319-1.319a.834.834 0 0 1-.246-.594v-3.182c0-.223.088-.437.246-.595l2.819-2.818a.848.848 0 0 1 .594-.246h3c.464 0 .84.377.841.84a2.325 2.325 0 0 0 .686 1.656l1.318 1.319a.834.834 0 0 1 .246.594v3z"/>
        <path d="M29.78 19.72l-3-3a.75.75 0 0 0-1.28.53v1.5a.75.75 0 0 1-.75.75 2.25 2.25 0 0 0-2.25 2.25.75.75 0 0 1-.75.75 2.25 2.25 0 0 0-2.25 2.25.75.75 0 0 1-.75.75h-1.5a.75.75 0 0 0-.53 1.28l3 3c.14.14.331.22.53.22h1.5A2.25 2.25 0 0 0 24 27.75a.75.75 0 0 1 .75-.75A2.25 2.25 0 0 0 27 24.75a.75.75 0 0 1 .75-.75A2.25 2.25 0 0 0 30 21.75v-1.5a.75.75 0 0 0-.22-.53zm-1.28 2.03a.75.75 0 0 1-.75.75 2.25 2.25 0 0 0-2.25 2.25.75.75 0 0 1-.75.75 2.25 2.25 0 0 0-2.25 2.25.75.75 0 0 1-.75.75h-1.19l-1.518-1.519A2.25 2.25 0 0 0 21 24.75a.75.75 0 0 1 .75-.75A2.25 2.25 0 0 0 24 21.75a.75.75 0 0 1 .75-.75 2.25 2.25 0 0 0 2.231-1.958L28.5 20.56v1.19zM33.66 13.848l-.13-.128-3.75-3.75-3.129-3.129a2.871 2.871 0 1 0-4.06 4.062l.13.128 3.75 3.75 3.128 3.128a2.871 2.871 0 0 0 4.06-4.061zm-9.916-6.03c.245-.205.554-.317.874-.318h.003c.363.001.712.145.97.401l1.848 1.849h-3.871a1.372 1.372 0 0 1 .175-1.932zm1.317 3.432h3.878l2.25 2.25h-3.878l-2.25-2.25zm7.446 5.682a1.372 1.372 0 0 1-.875.318h-.003a1.382 1.382 0 0 1-.97-.402L28.811 15h3.871a1.372 1.372 0 0 1-.175 1.932zM6 0v6H4.5V0H3v6H1.5V0H0v9.75a3.734 3.734 0 0 0 1.5 2.98v21.02a2.25 2.25 0 1 0 4.5 0V12.73a3.734 3.734 0 0 0 1.5-2.98V0H6zM4.5 33.75a.75.75 0 0 1-1.5 0V13.5h1.5v20.25zm1.5-24a2.25 2.25 0 1 1-4.5 0V7.5H6v2.25z"/>
    </g>
</svg>
