<svg xmlns="http://www.w3.org/2000/svg" width="44" height="36" viewBox="0 0 44 36">
    <path fill="#000" fill-rule="nonzero" d="M40.694.105V.042H2.316v.063C1.074.19.147 1.178 0 2.377V27.6c0 .485.126.894.337 1.262.485.853 1.2 1.285 2.19 1.285h13.852v3.494h-2.632c-.652 0-1.157.507-1.157 1.159 0 .65.505 1.158 1.157 1.158h15.516a1.16 1.16 0 0 0 1.179-1.158 1.16 1.16 0 0 0-1.18-1.16h-2.63v-3.493h13.852c.99 0 1.711-.432 2.19-1.285.216-.386.357-.8.357-1.262V2.378c-.147-1.2-1.136-2.188-2.337-2.273zm0 2.483V27.6c0 .148-.062.211-.21.211H2.526c-.147 0-.21-.063-.21-.21V2.377h38.378v.21z"/>
</svg>
