<svg xmlns="http://www.w3.org/2000/svg" width="36" height="36" viewBox="0 0 36 36">
    <g fill="#000" fill-rule="nonzero">
        <path d="M8.508 4.219h2.109v2.109H8.508zM13.781 4.219h2.109v2.109h-2.109zM19.055 4.219h2.109v2.109h-2.109z"/>
        <path d="M0 36h36V0H0v36zm23.344-2.11H15.89V10.548h7.453V33.89zm-9.563 0H6.328V10.548h7.453V33.89zM2.11 2.11h31.782v31.78h-8.438V8.438H4.22v25.454h-2.11V2.109z"/>
        <path d="M29.672 17.382l1.364 1.364 1.491-1.492-2.855-2.855-2.855 2.855 1.491 1.492zM32.527 22.964l-1.491-1.491-1.364 1.364-1.364-1.364-1.491 1.491 2.855 2.856z"/>
    </g>
</svg>
