<svg xmlns="http://www.w3.org/2000/svg" width="36" height="36" viewBox="0 0 36 36">
    <g fill="#000" fill-rule="nonzero">
        <path d="M8.791.906A3.318 3.318 0 0 0 6.28.008a3.576 3.576 0 0 0-3.22 3.054A3.576 3.576 0 0 0 .012 6.283 3.32 3.32 0 0 0 .91 8.798c.52.516 1.223.803 1.955.798.046 0 .093 0 .139-.004h5.983c.33 0 .599-.268.599-.598V3.03A2.775 2.775 0 0 0 8.79.906zm-.403 7.485H2.972a1.556 1.556 0 0 1-1.219-.445 2.126 2.126 0 0 1-.547-1.61 2.455 2.455 0 0 1 2.42-2.137.599.599 0 0 0 .571-.57 2.455 2.455 0 0 1 2.138-2.42h.126a2.086 2.086 0 0 1 1.484.55c.32.33.483.784.443 1.243V8.39zM10.245 10.247C9 10.465 7.85 11.265 7.79 12.557c-.051.658.18 1.306.636 1.784a2.283 2.283 0 0 0 1.631.64h4.318c.331 0 .6-.267.6-.598v-4.166a2.328 2.328 0 0 0-.638-1.786 2.359 2.359 0 0 0-1.785-.636c-1.29.057-2.088 1.208-2.307 2.452zm1.137.568c.04-.87.51-1.79 1.226-1.824h.082c.295-.016.583.089.8.289.221.247.326.577.287.907v3.592H10.16a1.024 1.024 0 0 1-1.172-1.167c.033-.719.954-1.186 1.824-1.226a.599.599 0 0 0 .571-.57v-.001zM25.928 9.165L9.163 25.93a.6.6 0 0 0 .226.988L35.135 35.9a.599.599 0 0 0 .762-.762L26.917 9.39a.598.598 0 0 0-.99-.226zm-6.762 8.456a2.994 2.994 0 1 1-3.942 3.942l3.942-3.942zm1.197 11.726a2.994 2.994 0 1 1 5.25 1.962l-1.201-.419-4.045-1.41a2.57 2.57 0 0 1-.004-.133zm13.053 2.307a2.986 2.986 0 0 1-1.649-4.73l1.65 4.73zm-3.51-10.065a2.994 2.994 0 1 1-1.889-5.412l1.888 5.412zm-2.298-6.574a4.192 4.192 0 1 0 2.7 7.738l1.012 2.9a4.181 4.181 0 0 0 2.538 7.273l.5 1.437-7.557-2.635a4.187 4.187 0 1 0-7.62-2.658l-8.496-2.964 3.657-3.657a4.154 4.154 0 0 0 3.626 2.108 4.197 4.197 0 0 0 4.192-4.191 4.154 4.154 0 0 0-2.113-3.628l6.053-6.052 1.508 4.33zM8.388 16.175a.599.599 0 0 0-.598-.6 5.994 5.994 0 0 0-5.988 5.988.599.599 0 0 0 1.198 0 4.795 4.795 0 0 1 4.79-4.79c.33 0 .598-.268.598-.598zM7.19 14.378a.599.599 0 0 0-.598-.599c-2.358 0-3.13-.985-4.292-2.727a.599.599 0 0 0-.996.665c1.273 1.909 2.397 3.26 5.288 3.26.33 0 .599-.268.599-.599zM9.81 19.125a.599.599 0 0 0-.446-1.112 3.712 3.712 0 0 0-2 2.04 3.548 3.548 0 0 0 .511 3.016.6.6 0 1 0 1.026-.617 2.434 2.434 0 0 1-.405-2.008 2.515 2.515 0 0 1 1.314-1.32zM6.592 23.659a1.497 1.497 0 1 0-2.994 0 1.497 1.497 0 0 0 2.994 0zm-1.796 0a.3.3 0 1 1 .599 0 .3.3 0 0 1-.6 0zM1.503 17.372a1.497 1.497 0 1 0 0-2.994 1.497 1.497 0 0 0 0 2.994zm0-1.796a.3.3 0 1 1 0 .599.3.3 0 0 1 0-.6zM22.9 3.019c-3.054-.74-5.877 1.205-6.711 4.632a.599.599 0 0 0 1.163.282c.575-2.36 2.565-4.404 5.264-3.75a.599.599 0 1 0 .283-1.164zM12.72.025a.599.599 0 0 0-.282 1.164c1.636.398 2.495 2.447 1.955 4.666a.599.599 0 0 0 1.163.282c.699-2.87-.547-5.555-2.835-6.112zM19.059 10.529a2.143 2.143 0 0 1 1.37-.828c.74.008 1.439.342 1.91.912a.598.598 0 0 0 .838-.852 3.627 3.627 0 0 0-2.86-1.252 3.349 3.349 0 0 0-2.243 1.336.599.599 0 1 0 .983.684h.002zM24.61 5.44a1.497 1.497 0 1 0-.71 2.91 1.497 1.497 0 0 0 .71-2.911zm-.064 1.525a.3.3 0 1 1-.582-.143.3.3 0 0 1 .582.143zM18.023.05a1.498 1.498 0 1 0-.707 2.91 1.498 1.498 0 0 0 .707-2.91zm-.063 1.526a.3.3 0 1 1-.582-.142.3.3 0 0 1 .582.142zM15.747 15.75a.599.599 0 1 0 .85 0 .604.604 0 0 0-.096-.073.337.337 0 0 0-.101-.053.598.598 0 0 0-.653.126zM26.722 4.152a.593.593 0 0 0 .826-.551.599.599 0 1 0-1.023.425.686.686 0 0 0 .197.126zM3.173 30.12a.69.69 0 0 0-.125.197.563.563 0 0 0 0 .455.69.69 0 0 0 .125.198c.172.171.43.221.653.125a.7.7 0 0 0 .197-.125.697.697 0 0 0 .126-.198.565.565 0 0 0 0-.455.69.69 0 0 0-.126-.198.627.627 0 0 0-.85 0zM2.137 25.856a.47.47 0 0 0-.107-.054.367.367 0 0 0-.115-.035.578.578 0 0 0-.664.359.598.598 0 1 0 1.102 0 .69.69 0 0 0-.126-.198 1.007 1.007 0 0 0-.09-.072zM30.77 3.553a.7.7 0 0 0 .197-.126.697.697 0 0 0 .126-.198.565.565 0 0 0 0-.455.69.69 0 0 0-.126-.197.622.622 0 0 0-.85 0 .69.69 0 0 0-.126.197.592.592 0 0 0 .778.778z"/>
    </g>
</svg>
