<svg xmlns="http://www.w3.org/2000/svg" width="36" height="36" viewBox="0 0 36 36">
    <g fill="#000" fill-rule="nonzero">
        <path d="M34.839 0H1.16C.521 0 0 .52 0 1.161v1.162c0 .64.52 1.16 1.161 1.16h11.672a2.908 2.908 0 0 0 2.844 2.323h.581V8.13h-2.323v3.484h3.484v1.161h1.162v-1.161h3.484V8.129h-2.323V5.806h.58c1.402 0 2.575-.999 2.845-2.322H34.84c.64 0 1.161-.521 1.161-1.161V1.16C36 .521 35.48 0 34.839 0zM20.903 10.452h-5.806V9.29h5.806v1.162zm-2.322-2.323h-1.162V5.806h1.162V8.13zm1.742-3.484h-4.646a1.74 1.74 0 0 1-1.635-1.161h7.915a1.738 1.738 0 0 1-1.634 1.161zM1.16 2.323V1.16H34.84v1.162H1.161zM6.117 14.516l-1-.592a11.95 11.95 0 0 0-.567 1.08l1.054.486c.154-.332.326-.66.513-.974zM3.763 17.311l1.132.259c.08-.355.182-.711.3-1.057l-1.098-.376c-.132.385-.244.78-.334 1.174zM3.484 19.742h1.161c0-.36.022-.727.063-1.092l-1.153-.133c-.047.41-.071.821-.071 1.225z"/>
        <path d="M12.948 8.585c-.406.057-.81.138-1.203.24l.294 1.125c.35-.092.71-.164 1.071-.215l-.162-1.15zM5.793 12.907l.932.692c.218-.295.454-.58.7-.847l-.854-.787c-.274.298-.536.615-.778.942zM9.462 9.718l.545 1.026c.32-.171.654-.325.993-.457l-.424-1.081c-.38.148-.754.32-1.114.512zM7.447 11.111l.763.875a9.79 9.79 0 0 1 .864-.673l-.66-.955c-.334.23-.66.484-.967.753zM32.516 19.742c0-.404-.024-.816-.071-1.225l-1.153.133c.041.365.063.733.063 1.092h1.161zM29.883 14.516c.187.315.36.642.512.975l1.054-.487c-.17-.368-.36-.731-.567-1.08l-.999.592zM29.43 11.965l-.855.787c.246.267.482.551.7.846l.932-.691a11.792 11.792 0 0 0-.778-.942zM26.926 11.313c.298.206.588.432.864.672l.763-.874a10.855 10.855 0 0 0-.967-.753l-.66.955zM24.255 8.826a10.679 10.679 0 0 0-1.203-.241l-.162 1.15c.362.05.722.123 1.071.214l.294-1.123zM30.804 16.513c.12.347.22.702.301 1.057l1.132-.259c-.09-.394-.202-.79-.335-1.174l-1.098.376zM25 10.287c.339.133.673.286.993.457l.545-1.026a10.7 10.7 0 0 0-1.115-.513L25 10.287zM31.935 20.766l-2.077 4.155c-.16.32-.245.68-.245 1.038v.17a2.325 2.325 0 0 0 2.322 2.323 2.325 2.325 0 0 0 2.323-2.323v-.17c0-.358-.085-.717-.245-1.038l-2.078-4.155zm1.162 5.363a1.162 1.162 0 0 1-2.323 0v-.17c0-.179.043-.358.123-.52l1.038-2.076 1.04 2.077c.08.16.122.34.122.52v.169zM4.065 20.766l-2.078 4.155c-.16.32-.245.68-.245 1.038v.17a2.325 2.325 0 0 0 2.323 2.323 2.325 2.325 0 0 0 2.322-2.323v-.17c0-.358-.085-.717-.245-1.038l-2.077-4.155zm1.16 5.363a1.162 1.162 0 0 1-2.322 0v-.17c0-.179.043-.358.123-.52l1.039-2.076 1.038 2.077c.08.16.123.34.123.52v.169zM17.419 16.258h1.161v1.161h-1.161zM17.419 18.581h1.161v1.161h-1.161zM17.419 13.935h1.161v1.161h-1.161zM21.805 18.061c-.108.054-2.644 1.353-2.644 4.004h1.162c0-1.172.734-2.012 1.312-2.492.107.4.258.819.414 1.25.546 1.51 1.11 3.073.132 4.377l.929.696c1.354-1.805.62-3.836.032-5.468-.256-.706-.497-1.374-.497-1.847v-.94l-.84.42zM12.992 26.002l.725-.907c-1.486-1.189-.972-2.46-.018-4.267.235-.445.464-.876.619-1.293.585.473 1.36 1.327 1.36 2.53h1.16c0-2.651-2.535-3.95-2.643-4.004l-.84-.42v.94c0 .414-.331 1.041-.682 1.705-.808 1.528-2.028 3.838.319 5.716z"/>
        <path d="M23.459 25.928l-.652 1.069c-.005.008-.47.744-1.93 1.265-.137-1.619-.695-2.147-1.396-2.642-.509-.359-.91-.642-.92-2.398l-.005-.828-.778.287c-.091.034-2.235.845-3.002 2.798-.317.81-.352 1.682-.105 2.604-1.068-.481-1.39-1.039-1.39-1.039l-.584-1.162-.476 1.21c-1.159 2.948-.444 4.973.36 6.153 1.158 1.7 3.266 2.755 5.501 2.755 2.178 0 4.144-.923 5.258-2.467.83-1.15 1.593-3.198.52-6.426l-.401-1.18zm-1.06 6.925c-.897 1.244-2.51 1.986-4.317 1.986-1.828 0-3.61-.882-4.54-2.247-.781-1.146-.962-2.572-.539-4.165.499.404 1.292.862 2.517 1.168l1.233.309-.574-1.134c-.539-1.065-.648-2.027-.323-2.86.328-.842 1.041-1.42 1.592-1.762.16 1.45.697 1.95 1.364 2.421.518.365.928.654.937 2.467l.005.739.717-.18c1.228-.307 2.039-.768 2.554-1.173.404 1.777.193 3.295-.627 4.431z"/>
    </g>
</svg>
