<svg xmlns="http://www.w3.org/2000/svg" width="42" height="36" viewBox="0 0 42 36">
    <g fill="#000" fill-rule="nonzero">
        <path d="M28.04 16.756H24.552V13.27a1.273 1.273 0 0 0-1.265-1.282H18.254c-.703 0-1.273.57-1.273 1.274v3.487h-3.478a1.273 1.273 0 0 0-1.282 1.264V23.046c0 .703.57 1.273 1.273 1.273h3.487v3.479a1.273 1.273 0 0 0 1.265 1.281h5.025c.703 0 1.273-.57 1.273-1.273V24.32h3.487a1.273 1.273 0 0 0 1.282-1.264V18.029c0-.703-.57-1.273-1.274-1.273zm-.436 5.854h-3.906a.855.855 0 0 0-.855.855v3.905H18.69v-3.905a.855.855 0 0 0-.855-.855H13.93v-4.145h3.905a.855.855 0 0 0 .855-.854v-3.914h4.145v3.905c0 .472.383.855.854.855h3.915v4.153z"/>
        <path d="M35.637 5.595h-7.042V2.587A2.487 2.487 0 0 0 25.98.023H15.554a2.487 2.487 0 0 0-2.615 2.564v2.991H5.897C3.179 5.578 0 7.125 0 11.475v18.587c0 4.35 3.18 5.897 5.897 5.897h29.74c2.717 0 5.897-1.547 5.897-5.897v-18.57c0-4.35-3.171-5.897-5.897-5.897zm-20.99-3.008c0-.248 0-.915.915-.915H25.98c.914 0 .914.658.914.915v2.991H14.648V2.587zm25.177 27.475c0 3.778-2.922 4.188-4.187 4.188H5.897c-1.257 0-4.188-.41-4.188-4.188v-18.57c0-3.778 2.923-4.188 4.188-4.188h29.74c1.256 0 4.187.41 4.187 4.188v18.57z"/>
    </g>
</svg>
