<svg xmlns="http://www.w3.org/2000/svg" xmlns:xlink="http://www.w3.org/1999/xlink" width="44" height="36" viewBox="0 0 44 36">
    <defs>
        <path id="a" d="M.119.013h13.893v21.334H.119z"/>
        <path id="c" d="M.073.028H13.91v11.92H.073z"/>
    </defs>
    <g fill="none" fill-rule="evenodd">
        <path fill="#000" d="M10.4 24.87c.299 0 .55.008.8-.002.57-.02.907-.325.91-.891.01-1.747.03-3.495-.02-5.24-.036-1.253-1.046-2.294-2.3-2.33-1.914-.056-3.831-.052-5.745 0-1.194.034-2.218 1.04-2.263 2.226-.067 1.772-.038 3.548-.048 5.323 0 .07.02.14.032.209.072.393.316.635.701.683.315.039.639.008.997.008v-3.103c0-.38-.015-.762.01-1.14.03-.492.387-.826.843-.832.47-.006.806.304.86.807.018.167.015.337.015.506 0 3.96 0 7.919.002 11.878 0 .21.003.427.056.628.103.389.358.61.817.605v-.486c.002-1.225-.006-2.451.01-3.677.007-.55.368-.894.868-.886.48.008.814.35.84.876.012.253.004.507.004.76v3.417c.642-.062.865-.344.866-1.077.001-4.03 0-8.06.002-12.09 0-.168.003-.338.03-.504.076-.466.39-.747.822-.756.444-.008.79.286.867.761.029.18.022.365.023.548v3.78zM0 18.351c.207-.808.491-1.575 1.066-2.211.739-.82 1.648-1.385 2.74-1.421 2.081-.069 4.172-.115 6.25.004 2.098.12 3.759 2.002 3.8 4.113.032 1.704.027 3.41 0 5.115-.024 1.537-1.086 2.574-2.624 2.62-.264.009-.529.002-.835.002v6.507c-.001 1.808-1.054 2.864-2.856 2.867-.479.001-.958.008-1.437-.001-1.548-.03-2.625-1.106-2.635-2.655-.012-2.071-.003-4.143-.003-6.214v-.505c-.319 0-.597.008-.875-.002-1.246-.044-2.13-.72-2.498-1.901C.068 24.59.03 24.517 0 24.44v-6.09z"/>
        <g transform="translate(29.307 14.625)">
            <mask id="b" fill="#fff">
                <use xlink:href="#a"/>
            </mask>
            <path fill="#000" d="M3.6 10.225v-.438c0-1.17-.003-2.34.003-3.509 0-.18.013-.37.069-.54.129-.393.422-.585.835-.578a.808.808 0 0 1 .784.645c.034.15.051.306.051.46.003 1.507.014 3.015-.011 4.523-.006.324-.1.668-.233.967-.277.623-.609 1.223-.922 1.842 1.061.235 1.165.366 1.165 1.43v1.352c0 .776-.012 1.551.007 2.325.014.581.317.868.86.847 0-1.337-.004-2.675.001-4.013.002-.628.316-.995.838-1.006.544-.012.874.357.877 1.007.007 1.198.003 2.396.004 3.593v.458c.406.002.655-.175.776-.48.08-.202.094-.44.096-.661.009-1.24 0-2.48.006-3.72.004-.715.224-.96.92-1.068.066-.01.132-.024.246-.045-.328-.644-.657-1.246-.94-1.869a2.292 2.292 0 0 1-.218-.886c-.021-1.55-.013-3.1-.008-4.65.003-.681.332-1.064.88-1.052.527.01.841.397.843 1.05.004 1.1.001 2.2.001 3.298v.74c.272 0 .494.002.717-.001.67-.011 1.008-.309 1.014-.97.015-1.648.041-3.298-.008-4.945-.045-1.524-1.01-2.517-2.525-2.568a78.65 78.65 0 0 0-5.283-.008C2.83 1.81 1.889 2.874 1.882 4.506c-.006 1.395.035 2.791-.008 4.185-.046 1.496.366 1.632 1.726 1.534m7.475 1.742c.346.68.664 1.302.978 1.926.444.88.086 1.469-.897 1.48-.193.002-.386 0-.626 0 0 1.127.003 2.21 0 3.29-.004.888-.31 1.663-1.069 2.134-.434.271-.975.425-1.487.504-.551.084-1.125.028-1.689.02-1.59-.021-2.665-1.1-2.683-2.699-.011-.93-.003-1.86-.005-2.79 0-.139-.012-.276-.02-.461-.273 0-.524.012-.772-.002-.77-.046-1.127-.642-.793-1.332.319-.658.653-1.31.98-1.963.006-.012.002-.028.006-.082-.098-.016-.2-.04-.302-.046C1.183 11.849.167 10.845.142 9.34.112 7.621.109 5.9.145 4.182.19 2.07 1.862.207 3.97.093A58.93 58.93 0 0 1 10.222.1c2.005.104 3.706 1.965 3.758 3.972.047 1.774.036 3.552.008 5.327-.023 1.427-1.063 2.459-2.482 2.542l-.43.026" mask="url(#b)"/>
        </g>
        <path fill="#000" d="M19.046 28.23V26.9c.003-.743.32-1.165.874-1.165s.872.424.875 1.164l-.002.423c.001 2.141.007 4.282-.003 6.423-.001.356.11.53.485.506.253-.016.508-.013.76.001.34.02.5-.116.479-.467-.016-.267-.006-.535-.005-.803l.002-6.043c0-.098-.005-.198.004-.296.047-.536.409-.91.873-.908.466.003.837.375.862.916.024.53.005 1.063.005 1.586.743.109.863.011.863-.657 0-.887.003-1.775-.001-2.662-.005-1.093-.636-1.732-1.731-1.74a254.662 254.662 0 0 0-3.507-.001c-1.038.006-1.684.656-1.692 1.693-.007.901-.002 1.803-.002 2.704 0 .674.116.769.861.658zm0 1.786c-1.9.02-2.706-1.021-2.596-2.759.058-.898-.015-1.805.038-2.704.098-1.685 1.35-2.967 3.043-3.05a44.738 44.738 0 0 1 4.226-.001c1.706.079 2.969 1.366 3.058 3.08a40.21 40.21 0 0 1 .016 3.38c-.036 1.13-.778 1.879-1.897 2.007-.208.024-.417.035-.676.057v1.563c0 .733.007 1.466-.003 2.199-.017 1.335-.842 2.15-2.177 2.16a57.3 57.3 0 0 1-.846 0c-1.36-.01-2.175-.824-2.184-2.194-.008-1.1-.002-2.199-.002-3.298v-.44z"/>
        <g transform="translate(14.653 .153)">
            <mask id="d" fill="#fff">
                <use xlink:href="#c"/>
            </mask>
            <path fill="#000" d="M7.032 9.641c.656-.613 1.422-1.298 2.152-2.02.86-.852 1.722-1.707 2.524-2.613a1.978 1.978 0 0 0-.173-2.776c-.782-.69-1.897-.623-2.698.168-.34.337-.668.687-1.003 1.029-.605.617-1.072.612-1.688-.012-.406-.41-.792-.844-1.225-1.224-.822-.72-2.02-.579-2.687.287-.634.821-.557 1.915.208 2.729.482.513.971 1.021 1.48 1.507 1.048 1.002 2.112 1.988 3.11 2.925M6.957 1.75C7.529 1.3 8.035.792 8.637.452c2.094-1.186 4.881.25 5.226 2.64.187 1.293-.189 2.396-1.084 3.32a921.413 921.413 0 0 1-5.023 5.139c-.526.535-.998.53-1.53-.012-1.67-1.7-3.343-3.394-4.992-5.11C-.224 4.91-.31 2.909.979 1.302 2.123-.126 4.446-.387 5.882.767c.383.308.728.663 1.075.982" mask="url(#d)"/>
        </g>
        <path fill="#000" d="M6.906 12.096a1.71 1.71 0 0 0 1.698-1.689C8.61 9.49 7.84 8.71 6.919 8.706a1.707 1.707 0 0 0-1.715 1.71c.005.924.772 1.68 1.702 1.68m.03-5.091c1.892.004 3.438 1.516 3.457 3.379.018 1.856-1.568 3.415-3.47 3.41-1.913-.006-3.476-1.554-3.454-3.422C3.491 8.51 5.046 7 6.935 7.005M36.35 8.706a1.695 1.695 0 0 0-1.694 1.725 1.69 1.69 0 0 0 1.712 1.664 1.708 1.708 0 0 0 1.681-1.703 1.707 1.707 0 0 0-1.698-1.686m.024-1.701c1.91 0 3.477 1.548 3.459 3.415-.018 1.862-1.568 3.373-3.46 3.373-1.907.001-3.49-1.561-3.463-3.416.028-1.865 1.576-3.373 3.464-3.372M22.484 18.059a.851.851 0 0 0-.843-.826.832.832 0 0 0-.839.862.848.848 0 0 0 .855.81c.446-.01.835-.409.827-.846m-.89-2.545c1.4-.01 2.575 1.15 2.573 2.543-.002 1.38-1.145 2.543-2.516 2.563-1.396.02-2.605-1.178-2.599-2.574.007-1.374 1.16-2.523 2.542-2.532"/>
    </g>
</svg>
