<svg xmlns="http://www.w3.org/2000/svg" width="24" height="36" viewBox="0 0 24 36">
    <g fill="#000" fill-rule="nonzero">
        <path d="M15.82 25.453a3.168 3.168 0 0 0-3.164 3.164 3.168 3.168 0 0 0 3.164 3.164 3.168 3.168 0 0 0 3.164-3.164 3.168 3.168 0 0 0-3.164-3.164zm0 4.219a1.056 1.056 0 0 1 0-2.11 1.056 1.056 0 0 1 0 2.11z"/>
        <circle cx="11.602" cy="9.492" r="1.055"/>
        <path d="M11.602 4.219a5.28 5.28 0 0 0-5.274 5.273 5.28 5.28 0 0 0 5.274 5.274 5.28 5.28 0 0 0 5.273-5.274 5.28 5.28 0 0 0-5.273-5.273zm0 8.437a3.168 3.168 0 0 1-3.165-3.164 3.168 3.168 0 0 1 3.165-3.164 3.168 3.168 0 0 1 3.164 3.164 3.168 3.168 0 0 1-3.164 3.164z"/>
        <path d="M20.04 0H3.163A3.168 3.168 0 0 0 0 3.164v29.672A3.168 3.168 0 0 0 3.164 36H20.04a3.168 3.168 0 0 0 3.164-3.164V3.164A3.168 3.168 0 0 0 20.04 0zm1.054 32.836c0 .581-.473 1.055-1.055 1.055H3.164a1.056 1.056 0 0 1-1.055-1.055V3.164c0-.581.474-1.055 1.055-1.055H20.04c.582 0 1.055.474 1.055 1.055v29.672z"/>
        <path d="M17.93 17.016H5.273a1.055 1.055 0 0 0 0 2.109H17.93a1.055 1.055 0 0 0 0-2.11z"/>
        <circle cx="17.93" cy="22.289" r="1.055"/>
        <circle cx="13.711" cy="22.289" r="1.055"/>
        <circle cx="9.492" cy="22.289" r="1.055"/>
        <circle cx="5.273" cy="22.289" r="1.055"/>
        <circle cx="5.273" cy="26.508" r="1.055"/>
        <circle cx="9.492" cy="26.508" r="1.055"/>
        <circle cx="9.492" cy="30.727" r="1.055"/>
        <circle cx="5.273" cy="30.727" r="1.055"/>
    </g>
</svg>
