<svg xmlns="http://www.w3.org/2000/svg" width="50" height="36" viewBox="0 0 50 36">
    <g fill="#000" fill-rule="nonzero">
        <path d="M34.962 14.664c-.159 0-.322.023-.485.067l-1.84.507-1.91-4.654c-.542-1.319-2.142-2.392-3.567-2.392H9.277c-1.425 0-3.025 1.073-3.566 2.392l-1.909 4.648-1.817-.5a1.83 1.83 0 0 0-.484-.068c-.87 0-1.501.664-1.501 1.58v1.084a1.94 1.94 0 0 0 1.938 1.938h.208l-.308.751c-.503 1.225-.913 3.3-.913 4.624v9.247a1.94 1.94 0 0 0 1.938 1.938h2.531a1.94 1.94 0 0 0 1.938-1.938v-2.31h21.773v2.31a1.94 1.94 0 0 0 1.938 1.938h2.53a1.94 1.94 0 0 0 1.938-1.938V24.64c0-1.324-.41-3.399-.912-4.624l-.309-.75h.235a1.94 1.94 0 0 0 1.937-1.939v-1.084c0-.916-.63-1.58-1.5-1.58zm-29.77 3.55l2.89-7.04c.324-.79 1.286-1.435 2.139-1.435h15.995c.853 0 1.815.645 2.139 1.434l2.89 7.04c.324.79-.108 1.435-.961 1.435H6.154c-.853 0-1.286-.646-.962-1.434zm6.452 8.905a.777.777 0 0 1-.775.775h-5.49a.777.777 0 0 1-.776-.775v-2.635c0-.426.349-.775.775-.775h5.49c.427 0 .776.349.776.775v2.635zm20.138 0a.777.777 0 0 1-.775.775h-5.49a.777.777 0 0 1-.776-.775v-2.635c0-.426.35-.775.775-.775h5.491c.426 0 .775.349.775.775v2.635z"/>
        <path d="M46.877.088h-9.178a2.427 2.427 0 0 0-2.424 2.424v9.178a2.427 2.427 0 0 0 2.424 2.424h3.684v20.6a.904.904 0 1 0 1.81 0v-20.6h3.684A2.427 2.427 0 0 0 49.3 11.69V2.512A2.427 2.427 0 0 0 46.877.088zm-2.079 7.61c-.528.475-1.305.716-2.31.716h-1.33a.29.29 0 0 0-.29.29v2.241a.442.442 0 0 1-.44.441H39.42a.442.442 0 0 1-.442-.44V3.257c0-.244.198-.442.442-.442h2.535c1.68 0 2.307.253 2.822.69.543.461.819 1.167.819 2.1 0 .91-.269 1.614-.799 2.092z"/>
        <path d="M43.36 4.672c-.246-.185-.68-.28-1.29-.28h-.912a.29.29 0 0 0-.29.29v1.842c0 .16.13.289.29.289h.546c.2 0 .525-.015.723-.033.192-.018.734-.096.932-.246.239-.18.36-.493.36-.928 0-.44-.121-.754-.36-.934z"/>
    </g>
</svg>
