<svg xmlns="http://www.w3.org/2000/svg" width="50" height="36" viewBox="0 0 50 36">
    <g fill="#000" fill-rule="nonzero">
        <path d="M44.313 23.994c-.965.85-1.661 1.464-3.196 1.464-1.535 0-2.232-.613-3.197-1.464a22.282 22.282 0 0 0-.673-.575V7.464c0-3.887-3.163-7.05-7.05-7.05a7.058 7.058 0 0 0-7.05 7.05h2.7a4.355 4.355 0 0 1 4.35-4.35 4.355 4.355 0 0 1 4.35 4.35v4.381H17.39v-4.38a7.058 7.058 0 0 0-7.05-7.05c-3.887 0-7.05 3.162-7.05 7.05h2.7a4.355 4.355 0 0 1 4.35-4.35 4.355 4.355 0 0 1 4.35 4.35v14.65c-1.392.4-2.305 1.199-3.079 1.88-.964.85-1.66 1.463-3.193 1.463-1.534 0-2.23-.613-3.196-1.462-1.08-.953-2.426-2.138-4.979-2.138v2.7c1.534 0 2.23.614 3.195 1.464 1.08.951 2.426 2.136 4.98 2.136 2.553 0 3.898-1.185 4.978-2.136.964-.85 1.66-1.464 3.194-1.464 1.533 0 2.23.614 3.195 1.464 1.08.951 2.427 2.136 4.98 2.136 2.553 0 3.9-1.185 4.98-2.136.964-.85 1.66-1.464 3.196-1.464 1.535 0 2.231.615 3.196 1.464 1.08.951 2.427 2.136 4.98 2.136 2.554 0 3.9-1.185 4.98-2.136.965-.85 1.662-1.464 3.197-1.464v-2.7c-2.554 0-3.9 1.185-4.981 2.136zm-9.766-1.957a6.968 6.968 0 0 0-1.606-.179c-2.554 0-3.899 1.185-4.98 2.138-.965.849-1.662 1.462-3.196 1.462-1.534 0-2.23-.613-3.196-1.463-.961-.847-2.134-1.876-4.18-2.093v-7.357h17.158v7.492zM41.117 32.886c-1.534 0-2.231-.614-3.196-1.464-1.081-.952-2.427-2.136-4.98-2.136-2.554 0-3.899 1.184-4.98 2.137-.965.85-1.662 1.463-3.196 1.463-1.534 0-2.23-.614-3.196-1.464-1.08-.952-2.426-2.136-4.979-2.136s-3.898 1.184-4.978 2.137c-.964.85-1.66 1.463-3.194 1.463s-2.23-.614-3.195-1.463c-1.08-.953-2.426-2.137-4.98-2.137v2.7c1.534 0 2.231.613 3.195 1.463 1.081.952 2.427 2.137 4.98 2.137 2.553 0 3.898-1.185 4.979-2.137.963-.85 1.66-1.463 3.193-1.463 1.534 0 2.23.613 3.196 1.463 1.08.952 2.426 2.137 4.98 2.137 2.553 0 3.899-1.185 4.98-2.137.964-.85 1.66-1.463 3.195-1.463s2.232.614 3.196 1.463c1.081.952 2.427 2.137 4.98 2.137 2.554 0 3.9-1.185 4.98-2.137.966-.85 1.662-1.463 3.197-1.463v-2.7c-2.554 0-3.9 1.184-4.98 2.136-.965.85-1.662 1.464-3.197 1.464z"/>
    </g>
</svg>
