<svg xmlns="http://www.w3.org/2000/svg" width="37" height="36" viewBox="0 0 37 36">
    <path fill="#000" fill-rule="nonzero" d="M34.142 8.55h-11.38l4.04-6.631a1.219 1.219 0 1 0-2.081-1.27l-4.815 7.9h-3L12.092.65a1.22 1.22 0 0 0-2.082 1.27l4.041 6.63H2.671A2.674 2.674 0 0 0 0 11.22v22.045a2.674 2.674 0 0 0 2.67 2.671h31.472a2.674 2.674 0 0 0 2.67-2.67V11.22a2.674 2.674 0 0 0-2.67-2.67zm-8.326 21.51c0 .802-.65 1.452-1.452 1.452H5.785c-.802 0-1.452-.65-1.452-1.451V14.424c0-.802.65-1.452 1.452-1.452h18.579c.802 0 1.452.65 1.452 1.452V30.06zm5.373-.463a2.522 2.522 0 0 1-2.52-2.52c0-1.389 1.13-2.519 2.52-2.519 1.389 0 2.519 1.13 2.519 2.52 0 1.389-1.13 2.519-2.52 2.519zm0-9.67a2.522 2.522 0 0 1-2.52-2.52c0-1.39 1.13-2.52 2.52-2.52 1.389 0 2.519 1.13 2.519 2.52 0 1.39-1.13 2.52-2.52 2.52z"/>
</svg>
