<svg xmlns="http://www.w3.org/2000/svg" width="43" height="36" viewBox="0 0 43 36">
    <path fill="#000" fill-rule="nonzero" d="M2.282 2.49h3.446A4.777 4.777 0 0 1 9.918 0h22.245c1.766 0 3.374.965 4.205 2.49H39.8c.61 0 1.182.237 1.613.669.432.431.67 1.004.67 1.614A2.285 2.285 0 0 1 39.8 7.055h-3.196v4.192a.622.622 0 1 1-1.245 0V7.055h-4.232c.002 1.486.006 18.602.006 18.676h1.529a2.7 2.7 0 0 0 2.697-2.698v-8.881a.622.622 0 1 1 1.245 0v8.881a3.947 3.947 0 0 1-3.942 3.943h-1.536v5.021a3.947 3.947 0 0 1-3.943 3.943H9.09a3.947 3.947 0 0 1-3.943-3.943V10.832a.622.622 0 0 1 1.245 0v10.334h23.49V4.773a2.285 2.285 0 0 1 2.282-2.283h2.703a3.548 3.548 0 0 0-2.703-1.245H9.92A3.532 3.532 0 0 0 6.39 4.773v3.154a.622.622 0 1 1-1.245 0v-.872H2.282c-.609 0-1.182-.237-1.613-.668A2.269 2.269 0 0 1 0 4.773 2.285 2.285 0 0 1 2.282 2.49zm27.599 28.802v-2.075H6.39v2.075h23.49zm-23.49-3.32h23.49V25.73H6.39v2.24zm2.698 6.723h18.094a2.702 2.702 0 0 0 2.644-2.158H6.446a2.702 2.702 0 0 0 2.643 2.158zM6.39 22.41v2.075h23.49V22.41H6.39zM32.163 3.735c-.572 0-1.037.465-1.037 1.038V5.81H39.8a1.039 1.039 0 0 0 0-2.075h-7.637zM1.55 5.506c.196.196.457.304.733.304h2.864V4.773c0-.357.04-.704.115-1.038H2.282a1.038 1.038 0 0 0-.733 1.771z"/>
</svg>
