<svg xmlns="http://www.w3.org/2000/svg" width="36" height="36" viewBox="0 0 36 36">
    <g fill="#000" fill-rule="nonzero">
        <path d="M30.718 0a5.28 5.28 0 0 0-5.273 5.273c0 1.665.795 3.23 2.11 4.22v9.491h2.109v11.743A3.168 3.168 0 0 1 26.5 33.89H20.1a3.169 3.169 0 0 1-2.983-2.11h1.928v-4.218h1.815l.457-1.371c2.668-8.003 2.668-16.818 0-24.821L20.861 0H2.466l-.457 1.37c-2.668 8.004-2.668 16.819 0 24.822l.457 1.37H4.28v4.22h2.11v2.109H8.5v-2.11h2.109v-4.218h2.11v4.218h2.215A5.282 5.282 0 0 0 20.1 36H26.5a5.28 5.28 0 0 0 5.273-5.273V18.984h2.11V9.492a5.295 5.295 0 0 0 2.109-4.219A5.28 5.28 0 0 0 30.718 0zM8.5 2.11h6.328v7.523a3.168 3.168 0 0 1-3.164 3.164A3.168 3.168 0 0 1 8.5 9.633V2.109zm-4.514 0H6.39v7.523a5.28 5.28 0 0 0 5.274 5.273 5.28 5.28 0 0 0 5.273-5.273V2.109h2.404a37.375 37.375 0 0 1 0 23.344H3.986a37.375 37.375 0 0 1 0-23.344zM8.5 29.671H6.39v-2.11H8.5v2.11zm8.437-2.11v2.11h-2.11v-2.11h2.11zm12.727-10.687v-2.11h2.109v2.11h-2.11zm2.109-8.556v4.337h-2.11V8.32c-.133-.121-2.109-.852-2.109-3.046a3.168 3.168 0 0 1 3.164-3.164 3.168 3.168 0 0 1 3.164 3.164c0 2.189-1.984 2.933-2.109 3.046z"/>
        <path d="M29.664 4.219h2.109v2.109h-2.109zM10.609 4.359h2.109v6.328h-2.109zM11.664 17.016A3.168 3.168 0 0 0 8.5 20.18a3.168 3.168 0 0 0 3.164 3.164 3.168 3.168 0 0 0 3.164-3.164 3.168 3.168 0 0 0-3.164-3.164zm0 4.218a1.056 1.056 0 0 1 0-2.109 1.056 1.056 0 0 1 0 2.11z"/>
    </g>
</svg>
