<svg xmlns="http://www.w3.org/2000/svg" width="50" height="36" viewBox="0 0 50 36">
    <path fill="#000" fill-rule="nonzero" d="M24.67 26.981a4.493 4.493 0 0 0-4.492 4.491 4.493 4.493 0 0 0 4.491 4.491 4.493 4.493 0 0 0 4.491-4.49 4.493 4.493 0 0 0-4.49-4.492zM48.73 11.28C42.726 4.133 33.955.036 24.67.036 15.383.036 6.614 4.133.607 11.28a2.244 2.244 0 0 0 1.717 3.69c.64 0 1.277-.273 1.721-.801 5.15-6.127 12.668-9.642 20.624-9.642 7.956 0 15.474 3.515 20.624 9.64a2.244 2.244 0 0 0 3.164.274 2.243 2.243 0 0 0 .274-3.161zM24.67 9.018c-6.633 0-12.896 2.926-17.187 8.03a2.244 2.244 0 0 0 1.719 3.69c.64 0 1.277-.273 1.72-.801 3.433-4.086 8.444-6.428 13.748-6.428 5.304 0 10.316 2.342 13.75 6.428.445.53 1.08.8 1.72.8a2.244 2.244 0 0 0 1.719-3.69c-4.292-5.103-10.556-8.03-17.189-8.03zm0 8.982c-3.982 0-7.74 1.755-10.312 4.817a2.244 2.244 0 0 0 1.718 3.69c.64 0 1.277-.273 1.72-.801a8.966 8.966 0 0 1 6.874-3.216 8.966 8.966 0 0 1 6.874 3.216c.445.53 1.081.8 1.72.8a2.244 2.244 0 0 0 1.719-3.69A13.445 13.445 0 0 0 24.669 18z"/>
</svg>
